<?xml version="1.0" standalone="no"?>
<!DOCTYPE svg PUBLIC "-//W3C//DTD SVG 20010904//EN"
 "http://www.w3.org/TR/2001/REC-SVG-20010904/DTD/svg10.dtd">
<svg version="1.0" xmlns="http://www.w3.org/2000/svg"
 width="1916.000000pt" height="957.000000pt" viewBox="0 0 1916.000000 957.000000"
 preserveAspectRatio="xMidYMid meet">

<g transform="translate(0.000000,957.000000) scale(0.100000,-0.100000)"
fill="#000000" stroke="none">
<path d="M0 4785 l0 -4785 9580 0 9580 0 0 4785 0 4785 -9580 0 -9580 0 0
-4785z m13334 4248 c113 -85 77 -273 -58 -301 -129 -26 -230 75 -204 204 22
109 172 164 262 97z m430 0 c113 -85 77 -273 -58 -301 -129 -26 -230 75 -204
204 22 109 172 164 262 97z m430 0 c113 -85 77 -273 -58 -301 -129 -26 -230
75 -204 204 22 109 172 164 262 97z m430 0 c113 -85 77 -273 -58 -301 -129
-26 -230 75 -204 204 22 109 172 164 262 97z m-11160 1 c8 -20 8 -162 0 -191
-5 -19 -13 -23 -45 -23 -39 0 -39 0 -41 43 l-1 42 -4 -43 c-4 -43 -4 -43 -41
-40 l-37 3 -3 99 c-1 55 0 106 2 113 8 21 162 18 170 -3z m454 -37 c2 -12 -3
-17 -17 -17 -12 0 -21 6 -21 13 0 31 32 34 38 4z m302 -68 c0 -81 -2 -90 -17
-87 -15 3 -19 16 -21 77 -3 83 1 101 23 101 12 0 15 -16 15 -91z m-130 11 c0
-56 -3 -70 -15 -70 -12 0 -15 14 -15 70 0 56 3 70 15 70 12 0 15 -14 15 -70z
m1010 0 l0 -70 -43 0 c-49 0 -67 13 -67 50 0 32 17 50 46 50 13 0 24 8 27 20
3 11 12 20 21 20 13 0 16 -13 16 -70z m-1354 8 c9 -29 19 -59 22 -65 2 -8 -4
-13 -17 -13 -12 0 -21 5 -21 10 0 6 -11 10 -25 10 -14 0 -25 -4 -25 -10 0 -5
-9 -10 -20 -10 -11 0 -20 1 -20 3 0 4 42 112 46 119 3 5 14 8 24 8 13 0 23
-14 36 -52z m619 37 c0 -5 -12 -11 -27 -13 -32 -4 -38 -22 -8 -22 11 0 20 -7
20 -15 0 -8 -9 -15 -20 -15 -15 0 -20 -7 -20 -25 0 -16 -6 -25 -15 -25 -12 0
-15 14 -15 66 l0 65 43 -3 c23 -2 42 -7 42 -13z m365 0 c0 -8 5 -15 10 -15 6
0 10 -7 10 -15 0 -8 -4 -15 -10 -15 -5 0 -10 -9 -10 -20 0 -11 5 -20 10 -20 6
0 10 -7 10 -15 0 -18 -34 -20 -47 -2 -16 20 -24 77 -13 98 13 23 40 25 40 4z
m531 -20 c7 -19 16 -35 20 -35 4 0 13 16 19 35 9 27 17 35 36 35 21 0 24 -5
25 -37 0 -21 3 -31 6 -23 9 23 24 30 71 30 l42 0 0 -50 0 -50 -44 0 c-35 0
-48 5 -60 22 l-16 22 0 -22 c0 -31 -40 -31 -41 1 l0 22 -11 -22 c-15 -31 -42
-29 -55 5 l-11 27 -1 -27 c-1 -18 -7 -28 -16 -28 -12 0 -15 14 -15 65 0 58 2
65 19 65 13 0 24 -11 32 -35z m379 20 c0 -8 5 -15 10 -15 6 0 10 -7 10 -15 0
-8 -4 -15 -10 -15 -5 0 -10 -9 -10 -20 0 -11 5 -20 10 -20 6 0 10 -7 10 -16 0
-11 -8 -14 -27 -12 -24 3 -29 9 -35 43 -9 54 0 85 23 85 10 0 19 -7 19 -15z
m-1779 -32 c13 -15 11 -16 -13 -11 -35 7 -37 -8 -2 -16 19 -5 25 -12 22 -29
-2 -18 -9 -22 -42 -22 -25 0 -41 5 -44 14 -3 10 2 13 22 9 33 -7 34 8 1 16
-24 6 -34 34 -18 49 13 13 61 7 74 -10z m59 -47 c0 -68 -15 -94 -47 -82 -12 5
-14 9 -5 18 7 7 12 38 12 70 0 51 2 58 20 58 18 0 20 -7 20 -64z m120 14 l0
-50 -43 0 c-49 0 -67 13 -67 50 0 37 18 50 67 50 l43 0 0 -50z m410 38 c0 -9
3 -9 12 0 20 20 76 15 88 -7 22 -43 -1 -81 -49 -81 -33 0 -51 16 -51 48 0 38
-34 24 -38 -16 -2 -20 -9 -32 -18 -32 -10 0 -14 13 -14 50 l0 50 35 0 c21 0
35 -5 35 -12z m220 -14 c17 -43 13 -74 -10 -74 -16 0 -20 7 -20 35 0 24 -5 35
-15 35 -10 0 -15 -11 -15 -35 0 -28 -4 -35 -20 -35 -17 0 -20 7 -20 50 l0 50
45 0 c40 0 47 -3 55 -26z m178 14 c7 -7 12 -24 12 -38 0 -34 -17 -50 -52 -50
-18 0 -33 8 -44 25 -15 23 -15 27 0 50 18 27 63 34 84 13z m126 -4 c3 -9 6
-31 6 -50 0 -27 -4 -34 -20 -34 -16 0 -20 7 -20 35 0 24 -5 35 -15 35 -10 0
-15 -11 -15 -35 0 -28 -4 -35 -20 -35 -17 0 -20 7 -20 50 l0 50 49 0 c35 0 51
-4 55 -16z m600 0 c5 -13 1 -15 -19 -12 -33 7 -32 -8 1 -16 19 -5 25 -12 22
-29 -2 -18 -9 -22 -42 -22 -25 0 -41 5 -44 14 -3 10 2 13 22 9 33 -7 34 8 1
16 -24 6 -34 34 -18 49 13 14 71 7 77 -9z m187 -7 c17 -37 -4 -77 -40 -77 -50
0 -74 38 -51 81 16 29 77 26 91 -4z m137 -4 l10 -28 7 28 c5 18 14 27 27 27
22 0 21 -9 -18 -96 -17 -39 -29 -54 -44 -54 -17 0 -18 3 -8 25 9 19 8 34 -2
65 -11 34 -16 38 -31 29 -12 -6 -19 -21 -19 -39 0 -23 -4 -30 -20 -30 -17 0
-20 7 -20 50 l0 50 54 0 c50 0 55 -2 64 -27z m-862 -755 c48 -23 57 -92 18
-132 -22 -22 -36 -26 -81 -26 -67 0 -103 29 -103 83 0 76 85 114 166 75z m911
-75 c-4 -38 -7 -80 -7 -95 0 -28 -1 -28 -65 -28 l-65 0 0 58 c0 31 -3 74 -6
95 l-7 37 78 0 78 0 -6 -67z m3123 -278 l0 -295 -80 0 -80 0 0 295 0 295 80 0
80 0 0 -295z m-4610 170 l0 -105 80 0 80 0 0 105 0 105 95 0 95 0 0 -285 0
-285 -95 0 -95 0 0 110 0 110 -80 0 -80 0 0 -110 0 -110 -90 0 -90 0 0 285 0
285 90 0 90 0 0 -105z m1270 -180 l0 -285 -90 0 -90 0 0 285 0 285 90 0 90 0
0 -285z m1733 58 c43 -120 89 -246 102 -281 l24 -63 -86 3 -86 3 -15 43 -14
43 -101 -3 -100 -3 -15 -42 -14 -43 -84 0 c-46 0 -84 3 -84 6 0 5 126 351 180
497 l21 57 97 0 97 0 78 -217z m-1088 106 c24 -6 56 -24 72 -39 l28 -28 32 29
c87 76 230 51 279 -48 16 -31 19 -66 22 -200 l4 -163 -96 0 -96 0 0 134 c0
109 -3 138 -16 150 -19 20 -54 20 -80 2 -17 -13 -19 -30 -22 -150 l-4 -136
-89 0 -89 0 0 134 c0 128 -1 136 -22 150 -30 21 -54 20 -78 -4 -18 -18 -20
-33 -20 -150 l0 -130 -90 0 -90 0 0 225 0 225 90 0 c85 0 90 -1 90 -21 0 -21
1 -21 27 -4 51 34 86 40 148 24z m-1305 -224 l0 -225 -95 0 -95 0 0 225 0 225
95 0 95 0 0 -225z m3740 0 l0 -225 -68 0 c-54 0 -69 3 -69 15 0 8 5 15 11 15
6 0 5 4 -2 9 -8 4 -14 12 -14 16 0 4 6 12 14 16 7 5 8 9 2 9 -6 0 -11 7 -11
15 0 8 5 15 11 15 6 0 5 4 -2 9 -8 4 -14 12 -14 16 0 4 6 12 14 16 7 5 8 9 2
9 -6 0 -11 7 -11 15 0 8 5 15 11 15 6 0 5 4 -2 9 -8 4 -14 12 -14 16 0 4 6 12
14 16 7 5 8 9 2 9 -14 0 -14 30 0 30 6 0 5 4 -2 9 -8 4 -14 12 -14 16 0 4 6
12 14 16 7 5 8 9 2 9 -6 0 -11 7 -11 15 0 8 5 15 11 15 6 0 5 4 -2 9 -8 4 -14
12 -14 16 0 4 6 12 14 16 7 5 8 9 2 9 -6 0 -11 7 -11 15 0 8 5 15 11 15 6 0 4
5 -4 10 -10 7 7 10 58 10 l72 0 0 -225z m-3481 -97 c0 -7 -17 -60 -37 -118
l-37 -105 -57 -3 c-68 -4 -66 -11 -41 138 l16 100 79 0 c56 0 78 -4 77 -12z
m1161 -508 c0 -13 -7 -20 -20 -20 -13 0 -20 7 -20 20 0 13 7 20 20 20 13 0 20
-7 20 -20z m720 5 c0 -8 -7 -15 -15 -15 -8 0 -15 -7 -15 -15 0 -8 7 -15 15
-15 8 0 15 -7 15 -15 0 -8 -7 -15 -15 -15 -12 0 -15 -14 -15 -70 0 -63 -2 -70
-20 -70 -18 0 -20 7 -20 70 0 40 -4 70 -10 70 -5 0 -10 7 -10 15 0 8 4 15 8
15 4 0 13 14 19 30 9 23 18 30 37 30 16 0 26 -6 26 -15z m-2630 -104 l0 -109
-64 -1 c-59 -1 -67 2 -85 25 -29 37 -27 89 4 119 26 27 73 33 93 13 9 -9 12
-4 12 25 0 30 4 37 20 37 19 0 20 -7 20 -109z m620 -1 c0 -103 -1 -110 -20
-110 -19 0 -20 7 -20 110 0 103 1 110 20 110 19 0 20 -7 20 -110z m-900 -5 c0
-98 -1 -105 -20 -105 -19 0 -20 7 -20 105 0 98 1 105 20 105 19 0 20 -7 20
-105z m2470 85 c0 -13 7 -20 20 -20 11 0 20 -7 20 -15 0 -8 -9 -15 -20 -15
-18 0 -20 -7 -20 -55 0 -48 2 -55 20 -55 11 0 20 -7 20 -15 0 -18 -50 -21 -68
-3 -7 7 -12 38 -12 70 0 32 -4 58 -10 58 -5 0 -10 7 -10 15 0 8 5 15 10 15 6
0 10 9 10 20 0 13 7 20 20 20 13 0 20 -7 20 -20z m-2016 -51 c14 -17 26 -39
26 -50 0 -17 -8 -19 -65 -19 -36 0 -65 -4 -65 -8 0 -26 61 -44 75 -22 7 11 45
14 45 3 0 -22 -37 -43 -76 -43 -34 0 -47 5 -63 26 -70 90 50 200 123 113z m85
-6 c34 -96 31 -94 56 -28 17 44 28 61 44 63 20 3 20 2 -5 -65 -15 -37 -29 -76
-32 -86 -3 -12 -12 -17 -30 -15 -20 2 -29 15 -53 73 -33 83 -35 95 -11 95 12
0 23 -13 31 -37z m265 16 c17 -14 26 -30 26 -50 0 -29 0 -29 -60 -29 -33 0
-60 -4 -60 -8 0 -26 61 -44 75 -22 8 13 45 13 45 1 0 -18 -44 -41 -79 -41 -49
0 -81 32 -81 82 0 75 75 113 134 67z m264 5 c33 -23 45 -60 31 -101 -12 -39
-34 -53 -82 -53 -52 0 -82 29 -82 80 0 34 6 47 28 66 33 28 73 31 105 8z m102
6 c0 -7 6 -7 19 0 83 44 159 -59 99 -135 -19 -25 -26 -27 -71 -22 l-49 4 5
-43 c4 -37 2 -44 -13 -44 -14 0 -19 13 -24 71 -9 89 1 179 20 179 8 0 14 -5
14 -10z m280 -41 c0 -58 13 -89 38 -89 31 0 42 22 42 82 0 51 2 58 20 58 18 0
20 -7 20 -84 l0 -84 -57 -1 c-32 0 -64 3 -72 8 -30 19 -34 161 -5 161 10 0 14
-14 14 -51z m270 31 c11 -11 20 -24 20 -30 0 -16 -31 -12 -51 6 -19 17 -55 12
-44 -6 4 -6 23 -17 43 -26 53 -22 66 -49 36 -78 -30 -30 -124 -11 -124 26 0
11 38 10 45 -2 9 -15 55 -12 55 3 0 8 -18 19 -40 26 -46 14 -66 41 -50 70 19
36 79 42 110 11z m181 -9 c16 -16 29 -39 29 -50 0 -19 -6 -21 -65 -21 -36 0
-65 -4 -65 -8 0 -26 61 -44 75 -22 7 11 45 14 45 3 0 -22 -37 -43 -76 -43 -34
0 -47 5 -63 26 -70 88 41 194 120 115z m139 7 c0 -10 -7 -18 -15 -18 -21 0
-35 -33 -35 -84 0 -32 -4 -46 -14 -46 -10 0 -15 18 -18 62 -7 96 -3 106 43
104 30 0 39 -5 39 -18z m150 -63 c0 -78 -2 -85 -20 -85 -18 0 -20 7 -20 85 0
78 2 85 20 85 18 0 20 -7 20 -85z m169 67 c22 -19 24 -26 22 -99 -1 -40 -5
-53 -16 -53 -11 0 -15 11 -15 43 0 80 -20 108 -61 87 -15 -9 -19 -22 -19 -70
0 -53 -2 -60 -20 -60 -18 0 -20 7 -20 84 l0 83 55 1 c37 0 61 -5 74 -16z m306
-7 c14 -13 25 -36 25 -50 0 -24 -2 -25 -65 -25 -63 0 -65 -1 -55 -20 11 -21
54 -28 65 -10 3 6 18 10 32 10 l26 0 -23 -25 c-47 -50 -138 -23 -141 43 -2 46
1 56 27 80 33 29 78 29 109 -3z m95 13 c0 -9 3 -9 12 0 18 18 38 14 38 -8 0
-13 -7 -20 -19 -20 -24 0 -31 -19 -31 -81 0 -42 -3 -49 -20 -49 -18 0 -20 7
-20 85 0 78 2 85 20 85 11 0 20 -5 20 -12z m281 2 c13 -7 19 -7 19 0 0 5 9 10
20 10 18 0 20 -7 20 -84 l0 -83 -65 -1 c-89 -2 -115 25 -106 108 3 22 49 60
72 60 11 0 29 -5 40 -10z m223 -11 c46 -36 21 -56 -29 -23 -37 24 -67 4 -63
-43 4 -45 27 -62 61 -44 13 7 33 11 43 9 18 -3 17 -5 -4 -26 -30 -30 -87 -30
-119 0 -16 15 -23 33 -23 60 0 75 75 113 134 67z m180 0 c17 -14 26 -30 26
-50 0 -29 0 -29 -60 -29 -33 0 -60 -4 -60 -8 0 -27 55 -43 77 -21 6 6 19 9 29
7 17 -3 17 -5 -4 -26 -30 -30 -87 -30 -119 0 -16 15 -23 33 -23 60 0 75 75
113 134 67z m164 5 c12 -8 22 -22 22 -30 0 -19 -30 -18 -45 3 -7 10 -19 14
-29 10 -25 -10 -15 -29 20 -40 16 -5 35 -14 42 -20 15 -12 16 -49 0 -65 -15
-15 -72 -16 -99 -2 -25 14 -25 40 1 40 11 0 20 -4 20 -10 0 -5 11 -10 25 -10
39 0 30 23 -17 45 -48 22 -58 47 -32 76 21 23 62 25 92 3z m-1523 -344 c0 -8
-10 -16 -22 -18 -22 -3 -32 16 -16 32 12 11 38 2 38 -14z m575 0 c0 -13 -7
-20 -20 -20 -13 0 -20 7 -20 20 0 13 7 20 20 20 13 0 20 -7 20 -20z m-2140
-99 l0 -109 -62 -1 c-51 0 -66 3 -85 21 -32 30 -32 90 2 123 26 27 73 33 93
13 9 -9 12 -4 12 25 0 30 4 37 20 37 19 0 20 -7 20 -109z m590 75 c0 -33 1
-34 28 -24 64 24 121 -27 108 -97 -10 -52 -32 -64 -109 -63 l-67 1 0 108 c0
102 1 109 20 109 16 0 20 -7 20 -34z m890 -76 c0 -103 -1 -110 -20 -110 -19 0
-20 7 -20 110 0 103 1 110 20 110 19 0 20 -7 20 -110z m550 80 c0 -13 7 -20
20 -20 11 0 20 -7 20 -15 0 -8 -9 -15 -20 -15 -18 0 -20 -7 -20 -55 0 -48 2
-55 20 -55 11 0 20 -7 20 -15 0 -18 -50 -21 -68 -3 -7 7 -12 38 -12 70 0 32
-4 58 -10 58 -5 0 -10 7 -10 15 0 8 5 15 10 15 6 0 10 9 10 20 0 13 7 20 20
20 13 0 20 -7 20 -20z m-2479 -30 c13 -7 19 -7 19 0 0 5 7 10 15 10 12 0 15
-16 15 -83 l0 -83 -64 -2 c-59 -2 -66 0 -85 24 -59 75 18 177 100 134z m229
-12 c16 -17 20 -36 20 -85 0 -56 -2 -63 -20 -63 -18 0 -20 7 -20 60 0 48 -4
61 -19 70 -25 13 -27 13 -45 -6 -11 -10 -16 -34 -16 -70 0 -47 -2 -54 -20 -54
-18 0 -20 7 -20 84 l0 83 60 1 c49 1 64 -3 80 -20z m370 -20 c22 -86 22 -86
39 -23 13 47 21 61 37 63 18 3 23 -5 34 -59 15 -67 19 -65 40 19 8 31 16 42
30 42 21 0 23 12 -22 -132 -8 -29 -17 -38 -33 -38 -17 0 -24 10 -36 58 l-16
57 -13 -57 c-11 -49 -17 -58 -36 -58 -19 0 -25 10 -43 70 -12 38 -24 76 -27
85 -4 10 0 15 15 15 15 0 23 -10 31 -42z m342 22 c14 -11 28 -33 30 -50 l5
-30 -64 0 c-35 0 -63 -4 -63 -8 0 -26 61 -44 75 -22 8 13 45 13 45 1 0 -18
-44 -41 -79 -41 -49 0 -81 32 -81 82 0 75 75 113 132 68z m449 10 c13 -7 19
-7 19 0 0 5 9 10 20 10 18 0 20 -7 20 -85 0 -78 -2 -85 -20 -85 -11 0 -20 5
-20 12 0 9 -3 9 -12 0 -18 -18 -82 -15 -100 6 -64 73 10 186 93 142z m139 0
c0 -7 6 -7 19 0 53 28 111 -12 111 -78 0 -57 -30 -85 -86 -80 l-44 3 0 -42 c0
-36 -3 -43 -20 -43 -19 0 -20 7 -20 125 0 118 1 125 20 125 11 0 20 -5 20 -10z
m200 0 c0 -7 6 -7 19 0 30 15 56 12 85 -11 21 -17 26 -29 26 -65 0 -62 -27
-88 -86 -81 l-44 5 0 -44 c0 -37 -3 -44 -20 -44 -19 0 -20 7 -20 125 0 118 1
125 20 125 11 0 20 -5 20 -10z m280 -75 c0 -78 -2 -85 -20 -85 -18 0 -20 7
-20 85 0 78 2 85 20 85 18 0 20 -7 20 -85z m168 69 c12 -8 22 -22 22 -30 0
-19 -27 -18 -47 1 -21 22 -44 15 -62 -17 -20 -36 -2 -78 33 -78 14 0 28 5 31
10 7 11 45 14 45 3 0 -22 -37 -43 -75 -43 -64 0 -97 49 -75 114 17 52 82 73
128 40z m163 6 c13 -7 19 -7 19 0 0 5 9 10 20 10 18 0 20 -7 20 -85 0 -78 -2
-85 -20 -85 -11 0 -20 5 -20 12 0 9 -3 9 -12 0 -18 -18 -82 -15 -100 6 -64 73
10 186 93 142z m249 -75 c0 -78 -2 -85 -20 -85 -18 0 -20 7 -20 85 0 78 2 85
20 85 18 0 20 -7 20 -85z m175 60 c56 -55 16 -145 -64 -145 -31 0 -44 6 -60
26 -47 60 -10 144 64 144 25 0 44 -8 60 -25z m183 9 c19 -13 22 -23 22 -84 0
-56 -3 -70 -15 -70 -11 0 -15 13 -15 54 0 36 -5 60 -16 70 -18 19 -20 19 -45
6 -15 -9 -19 -22 -19 -70 0 -53 -2 -60 -20 -60 -18 0 -20 7 -20 84 l0 84 53 0
c28 0 62 -6 75 -14z m170 0 c12 -8 22 -22 22 -30 0 -19 -30 -18 -45 3 -7 10
-19 14 -29 10 -25 -10 -15 -29 20 -40 16 -5 35 -14 42 -20 15 -12 16 -49 0
-65 -15 -15 -72 -16 -99 -2 -25 14 -25 40 1 40 11 0 20 -4 20 -10 0 -5 11 -10
25 -10 39 0 30 23 -17 45 -48 22 -58 47 -32 76 21 23 62 25 92 3z m1050 -1491
c-42 -2 -114 -2 -160 0 -46 1 -11 3 77 3 88 0 125 -2 83 -3z m-1940 -25 c17
-17 16 -78 -2 -78 -8 0 -16 -6 -19 -14 -4 -11 -14 -13 -34 -7 -38 10 -43 52
-11 86 25 27 48 31 66 13z m382 -24 c0 -11 -6 -15 -20 -11 -11 3 -18 2 -16 -1
5 -8 -102 -8 -110 0 -3 4 -19 2 -36 -3 -34 -9 -48 -5 -48 16 0 11 23 14 115
14 98 0 115 -2 115 -15z m540 -10 c0 -8 -5 -12 -10 -9 -6 4 -8 11 -5 16 9 14
15 11 15 -7z m33 1 c-3 -9 -8 -14 -10 -11 -3 3 -2 9 2 15 9 16 15 13 8 -4z
m54 2 c0 -8 -6 -14 -13 -14 -7 0 -10 6 -7 14 3 7 8 13 12 13 4 0 8 -6 8 -13z
m283 3 c0 -5 0 -13 0 -17 0 -5 -11 -9 -25 -10 -27 -2 -28 -2 -19 21 7 17 44
22 44 6z m62 3 c-6 -2 -10 -9 -7 -13 3 -5 1 -11 -4 -14 -7 -5 -8 11 -2 32 1 1
7 2 14 1 9 0 9 -2 -1 -6z m438 -13 c0 -13 -7 -20 -20 -20 -13 0 -20 7 -20 20
0 13 7 20 20 20 13 0 20 -7 20 -20z m203 5 c9 -2 17 0 17 4 0 11 90 -1 90 -13
1 -6 6 -5 13 4 8 10 22 14 42 10 42 -7 39 -33 -4 -41 -44 -8 -71 -1 -72 20 -1
14 -2 13 -6 -1 -5 -21 -63 -26 -63 -5 0 8 -3 7 -10 -3 -5 -8 -12 -11 -16 -8
-4 4 -15 3 -25 -2 -13 -8 -20 -6 -28 7 -6 10 -11 13 -11 8 0 -6 -19 -10 -42
-10 -37 0 -43 3 -46 22 -3 21 -1 22 70 17 40 -3 81 -7 91 -9z m270 -7 c4 -13
-1 -18 -17 -18 -14 0 -22 7 -23 19 -2 25 34 24 40 -1z m141 6 c8 -21 -1 -34
-24 -34 -20 0 -30 17 -22 38 6 17 39 15 46 -4z m520 -36 c3 -10 15 -18 26 -18
19 0 88 -26 130 -49 8 -4 29 -30 45 -56 27 -44 30 -57 31 -139 l2 -91 38 -1
c22 0 50 -6 64 -12 l25 -12 -25 3 c-16 1 -24 -3 -22 -10 1 -9 -14 -13 -52 -13
-50 0 -59 -4 -105 -43 -58 -50 -105 -67 -182 -67 -68 0 -126 26 -177 79 -27
27 -45 39 -56 35 -11 -4 -16 0 -17 12 0 18 -1 17 -9 -1 -7 -16 -9 -17 -9 -3
-1 9 -4 23 -7 32 -4 12 0 16 15 16 12 0 21 6 21 14 0 16 -37 28 -46 15 -9 -15
-34 -10 -34 8 0 15 -1 15 -18 0 -10 -10 -21 -15 -24 -12 -8 8 -67 16 -120 16
-27 -1 -48 4 -48 9 0 6 0 13 0 18 0 9 49 22 54 14 2 -4 28 -6 58 -6 29 1 58
-2 64 -7 8 -6 14 -4 18 6 3 9 11 15 18 14 7 -1 25 -1 41 0 23 1 27 5 27 31 0
23 -4 30 -20 30 -13 0 -18 -5 -14 -15 9 -22 -156 -12 -173 11 -6 9 -16 13 -22
9 -6 -3 -11 1 -11 10 0 14 6 16 28 10 28 -8 88 -7 177 0 33 3 53 11 60 22 30
51 74 84 140 108 39 13 62 24 52 25 -26 0 -17 32 13 47 26 13 28 12 44 -39z
m-1524 32 c0 -5 -4 -10 -10 -10 -5 0 -10 5 -10 10 0 6 5 10 10 10 6 0 10 -4
10 -10z m34 -5 c-4 -8 -10 -12 -15 -9 -14 8 -10 24 6 24 9 0 12 -6 9 -15z m56
-6 c0 -5 -4 -9 -8 -9 -5 0 -9 7 -9 15 0 8 4 12 9 9 4 -3 8 -9 8 -15z m970 -9
c4 0 11 7 14 16 5 13 9 14 21 4 8 -7 15 -8 15 -3 0 16 94 10 102 -7 5 -12 7
-12 7 3 1 9 7 17 14 17 28 0 57 -13 57 -25 0 -18 -31 -22 -147 -17 -98 4 -103
5 -102 26 1 17 2 17 6 4 2 -10 8 -18 13 -18z m622 8 c5 -10 8 -8 8 5 0 19 2
20 24 11 21 -8 21 -42 0 -46 -9 -2 -52 -2 -95 0 -74 3 -79 5 -79 26 0 21 3 22
67 19 40 -1 70 -8 75 -15z m1288 -8 c0 -27 -3 -30 -30 -30 -25 0 -30 4 -30 23
0 30 7 37 37 37 19 0 23 -5 23 -30z m-1120 -2 c0 7 15 12 35 12 21 0 35 -5 35
-12 0 -10 3 -9 9 1 5 8 11 9 15 3 10 -17 -12 -24 -34 -12 -11 6 -26 7 -33 3
-26 -16 -45 -12 -50 10 -6 21 -6 21 8 3 8 -11 15 -14 15 -8z m473 8 c7 -17 -1
-26 -24 -26 -21 0 -33 15 -24 30 9 15 42 12 48 -4z m67 -5 c8 -17 7 -20 -10
-18 -12 1 -20 8 -20 19 0 24 17 23 30 -1z m36 -19 c-4 -3 -12 0 -19 7 -9 9 -9
14 3 21 11 7 16 5 18 -6 2 -9 1 -18 -2 -22z m21 6 c-3 -7 -5 -2 -5 12 0 14 2
19 5 13 2 -7 2 -19 0 -25z m380 9 c-4 -20 -20 -26 -41 -15 -19 10 -19 11 -2
24 20 14 47 8 43 -9z m-852 3 c3 -5 1 -10 -4 -10 -6 0 -11 5 -11 10 0 6 2 10
4 10 3 0 8 -4 11 -10z m30 0 c3 -5 1 -10 -4 -10 -6 0 -11 5 -11 10 0 6 2 10 4
10 3 0 8 -4 11 -10z m65 0 c0 -5 -5 -10 -11 -10 -5 0 -7 5 -4 10 3 6 8 10 11
10 2 0 4 -4 4 -10z m427 -5 c0 -8 -4 -12 -8 -9 -4 2 -10 -2 -12 -8 -3 -7 -6
-3 -6 10 -1 12 5 22 12 22 8 0 14 -7 14 -15z m-3620 -70 c9 -24 -1 -28 -63
-26 -64 1 -69 3 -61 26 5 11 21 15 62 15 41 0 57 -4 62 -15z m201 6 c6 -1 12
-9 12 -18 0 -16 -11 -18 -94 -18 -99 1 -112 4 -103 29 5 13 64 15 185 7z
m-367 -24 c-10 -9 -11 -8 -5 6 3 10 9 15 12 12 3 -3 0 -11 -7 -18z m889 0 c0
-8 -7 -14 -15 -14 -25 0 -17 17 13 26 1 1 2 -5 2 -12z m117 -9 c-3 -8 -6 -5
-6 6 -1 11 2 17 5 13 3 -3 4 -12 1 -19z m39 -5 c-4 -4 -12 -1 -19 7 -9 10 -9
11 1 6 7 -4 12 -2 13 6 0 11 2 11 6 0 3 -7 2 -16 -1 -19z m34 17 c0 -5 -4 -10
-10 -10 -5 0 -10 5 -10 10 0 6 5 10 10 10 6 0 10 -4 10 -10z m70 -9 c0 -4 -13
-8 -30 -9 -30 -2 -42 12 -17 21 15 5 47 -3 47 -12z m120 6 c0 -8 -7 -14 -15
-14 -25 0 -17 17 13 26 1 1 2 -5 2 -12z m397 -3 c2 -6 -4 -14 -13 -18 -19 -7
-47 11 -38 26 8 12 46 6 51 -8z m47 1 c-4 -8 -1 -15 5 -15 6 0 11 5 11 10 0 6
27 10 60 10 61 0 76 -11 41 -30 -16 -8 -22 -6 -30 7 -8 14 -10 15 -11 3 0 -13
-1 -13 -10 0 -7 11 -10 11 -10 2 0 -21 -64 -11 -68 11 -2 9 1 17 7 17 6 0 8
-7 5 -15z m173 -17 c-3 -7 -5 -2 -5 12 0 14 2 19 5 13 2 -7 2 -19 0 -25z
m-707 18 c0 -3 -4 -8 -10 -11 -5 -3 -10 -1 -10 4 0 6 5 11 10 11 6 0 10 -2 10
-4z m45 -6 c-3 -5 -13 -10 -21 -10 -8 0 -14 5 -14 10 0 6 9 10 21 10 11 0 17
-4 14 -10z m75 0 c0 -5 -2 -10 -4 -10 -3 0 -8 5 -11 10 -3 6 -1 10 4 10 6 0
11 -4 11 -10z m120 -5 c0 -8 -4 -15 -10 -15 -5 0 -10 7 -10 15 0 8 5 15 10 15
6 0 10 -7 10 -15z m55 5 c4 -6 -5 -9 -19 -8 -15 1 -26 6 -26 10 0 12 38 10 45
-2z m35 -5 c0 -8 -4 -15 -10 -15 -5 0 -10 7 -10 15 0 8 5 15 10 15 6 0 10 -7
10 -15z m25 6 c3 -5 1 -12 -5 -16 -5 -3 -10 1 -10 9 0 18 6 21 15 7z m335 -6
c0 -8 -4 -15 -10 -15 -5 0 -7 7 -4 15 4 8 8 15 10 15 2 0 4 -7 4 -15z m95 4
c4 -6 4 -13 0 -17 -3 -3 -10 0 -15 8 -6 8 -10 10 -10 5 0 -6 -9 -11 -20 -12
-11 -1 -20 4 -20 13 0 17 55 20 65 3z m82 -6 c2 -6 -11 -13 -29 -16 -39 -6
-40 -5 -32 16 6 17 56 17 61 0z m-1866 -65 c0 -10 2 -10 6 0 5 14 49 17 57 3
10 -16 -18 -28 -59 -24 -51 4 -88 5 -100 3 -25 -5 -45 1 -45 15 0 12 14 15 70
15 49 0 70 -4 71 -12z m1214 2 c4 -6 11 -7 17 -4 6 4 14 0 19 -7 6 -10 9 -11
9 -1 0 6 7 12 15 12 8 0 15 -6 15 -12 0 -9 2 -10 8 -2 4 7 19 12 34 12 21 0
27 -5 25 -19 -4 -27 -16 -34 -23 -15 -7 18 -25 22 -21 4 3 -15 -85 -11 -95 5
-5 8 -8 8 -8 1 0 -6 -7 -11 -15 -11 -8 0 -15 8 -15 17 0 28 22 40 35 20z
m-215 -20 c6 -11 7 -20 3 -20 -5 0 -14 9 -21 20 -7 11 -8 20 -2 20 5 0 14 -9
20 -20z m56 -5 c-6 -18 -26 -11 -26 8 0 7 4 6 10 -3 8 -13 10 -12 10 4 0 11 3
17 6 13 4 -3 4 -13 0 -22z m44 15 c0 -5 -2 -10 -4 -10 -3 0 -8 5 -11 10 -3 6
-1 10 4 10 6 0 11 -4 11 -10z m362 -15 c-2 -14 -8 -25 -12 -25 -4 0 -5 11 -2
25 2 14 8 25 12 25 4 0 5 -11 2 -25z m116 15 c7 0 10 -6 7 -12 -4 -7 0 -4 9 6
15 19 16 18 25 -5 6 -16 10 -18 10 -7 1 14 14 16 90 16 83 0 90 -1 88 -19 -1
-18 -9 -19 -82 -19 -44 0 -89 0 -100 0 -90 -1 -116 3 -111 17 3 8 6 19 6 25 0
6 10 8 23 4 12 -3 28 -6 35 -6z m300 -17 c-2 -14 -8 -28 -14 -30 -7 -2 -9 8
-6 27 5 37 25 40 20 3z m103 17 c5 0 8 -10 8 -22 -1 -18 -2 -19 -6 -5 -2 9 -9
15 -14 12 -5 -4 -9 -1 -9 4 0 6 -5 11 -12 11 -6 0 -8 -3 -5 -7 4 -3 1 -13 -6
-21 -9 -13 -9 -14 1 -8 6 4 12 2 12 -3 0 -16 -20 -13 -26 4 -8 20 15 47 33 40
8 -3 19 -5 24 -5z m50 -12 c0 -10 2 -10 6 0 7 18 33 14 33 -5 0 -14 -9 -18
-35 -19 -21 -1 -35 3 -35 11 0 24 29 36 31 13z m-641 -18 c0 -5 -4 -10 -10
-10 -5 0 -10 5 -10 10 0 6 5 10 10 10 6 0 10 -4 10 -10z m-1220 -20 c0 -5 -12
-10 -27 -9 -25 0 -26 1 -8 9 27 12 35 12 35 0z m60 -2 c0 -4 -7 -8 -15 -8 -8
0 -15 4 -15 8 0 5 7 9 15 9 8 0 15 -4 15 -9z m49 1 c15 7 29 7 49 1 4 -1 -8
-6 -27 -10 -38 -9 -61 -4 -61 13 0 8 4 7 12 -1 6 -6 18 -8 27 -3z m934 -26
c-7 -2 -14 -17 -14 -31 -1 -18 -3 -21 -6 -9 -6 24 3 47 19 46 10 0 10 -2 1 -6z
m-90 -23 c-3 -12 -8 -19 -11 -16 -5 6 5 36 12 36 2 0 2 -9 -1 -20z m317 5 c5
-3 10 0 10 7 1 8 6 5 15 -7 19 -25 1 -38 -39 -27 -15 4 -56 5 -92 2 -64 -5
-87 2 -78 25 5 12 163 13 184 0z m96 -31 c-3 -8 -10 -14 -15 -14 -5 0 -4 13 2
31 8 21 13 26 15 14 2 -9 1 -23 -2 -31z m124 25 c0 -18 -20 -18 -29 0 -9 16
-8 18 9 14 11 -3 20 -9 20 -14z m272 9 c48 -2 56 -5 55 -20 -1 -20 -27 -25
-27 -5 0 8 -3 9 -8 1 -10 -15 -92 -17 -92 -2 0 6 -9 3 -20 -7 -20 -18 -21 -18
-27 3 -3 12 -12 22 -19 22 -8 0 -14 5 -14 10 0 6 18 8 48 5 26 -3 73 -7 104
-7z m91 -18 c-3 -11 -9 -20 -14 -20 -10 0 -12 33 -3 43 12 12 22 -3 17 -23z
m-1011 13 c-6 -2 -10 -9 -6 -14 8 -14 -9 -10 -30 6 -19 14 -18 15 15 14 19 0
28 -3 21 -6z m599 -17 c-6 -7 -9 -16 -6 -20 3 -3 0 -2 -6 3 -14 12 -3 45 11
36 8 -5 8 -11 1 -19z m79 9 c0 6 11 12 25 13 15 1 25 -3 25 -11 0 -9 -13 -14
-35 -15 -27 -1 -35 3 -35 16 0 15 2 15 10 2 5 -8 10 -10 10 -5z m370 -5 c0 -5
-4 -10 -10 -10 -5 0 -10 5 -10 10 0 6 5 10 10 10 6 0 10 -4 10 -10z m-1980
-20 c0 -14 -7 -20 -24 -20 -19 0 -23 4 -19 20 3 11 14 20 24 20 12 0 19 -7 19
-20z m126 7 c9 3 14 -2 14 -15 0 -18 -5 -20 -32 -17 -17 2 -35 10 -39 17 -7
11 -9 11 -9 0 0 -8 -5 -12 -11 -10 -6 2 -10 8 -10 13 0 12 64 24 69 13 2 -4
10 -4 18 -1z m94 -18 c0 -12 -7 -19 -19 -19 -14 0 -17 6 -14 24 6 29 33 24 33
-5z m-50 6 c0 -8 -4 -15 -10 -15 -5 0 -10 7 -10 15 0 8 5 15 10 15 6 0 10 -7
10 -15z m1096 -39 c49 2 51 2 46 -22 -4 -23 -22 -34 -22 -14 0 6 -8 5 -20 -2
-16 -10 -24 -10 -40 -1 -12 8 -21 9 -25 3 -9 -15 -25 -12 -31 5 -8 20 15 48
30 37 6 -4 34 -7 62 -6z m-342 -38 c-7 -11 -7 -11 -24 22 -13 25 -13 25 8 6
12 -10 19 -23 16 -28z m119 22 c-3 -12 -8 -19 -11 -16 -5 6 5 36 12 36 2 0 2
-9 -1 -20z m74 -17 c-3 -10 -5 -4 -5 12 0 17 2 24 5 18 2 -7 2 -21 0 -30z
m233 11 c0 -14 -5 -24 -11 -22 -6 2 -10 7 -10 11 1 4 1 14 1 22 0 8 5 15 10
15 6 0 10 -12 10 -26z m92 14 c20 0 28 -4 28 -17 0 -14 -10 -17 -55 -18 -46 0
-55 2 -55 17 0 24 10 31 34 24 12 -4 33 -7 48 -6z m53 -18 c1 -11 -2 -20 -7
-20 -4 0 -8 12 -8 27 0 30 13 24 15 -7z m121 14 c-3 -9 -6 -19 -6 -23 0 -4
-21 -7 -47 -7 -37 1 -48 5 -51 19 -3 14 3 17 37 14 23 -2 41 0 41 5 0 4 7 8
16 8 11 0 14 -5 10 -16z m204 2 c16 -1 30 2 30 7 0 12 53 -2 62 -16 6 -9 8 -8
8 2 0 8 7 11 19 8 10 -2 26 0 35 5 12 7 16 5 16 -11 0 -10 6 -21 13 -24 25 -9
0 -13 -60 -9 -47 3 -63 8 -63 18 0 9 -5 12 -10 9 -6 -4 -8 -11 -5 -16 4 -5
-14 -9 -39 -9 -25 0 -46 4 -46 8 0 5 -7 9 -15 9 -8 0 -15 -4 -15 -9 0 -4 -4
-8 -10 -8 -11 0 -14 33 -4 43 4 4 17 4 30 1 13 -3 37 -7 54 -8z m417 -19 c2
-28 -8 -32 -67 -27 -14 1 -43 3 -65 4 -33 1 -41 5 -43 23 -3 19 1 21 53 21 30
-1 58 2 62 6 4 3 18 5 32 3 20 -3 26 -10 28 -30z m-1265 14 c8 11 9 11 6 1 -4
-16 -22 -18 -25 -2 -1 7 0 6 4 -1 4 -8 8 -7 15 2z m678 -11 c0 -11 -6 -20 -14
-20 -12 0 -14 14 -7 38 1 1 6 2 11 2 6 0 10 -9 10 -20z m1328 -11 c2 -17 0
-20 -6 -10 -8 11 -10 11 -15 0 -4 -10 -6 -8 -6 4 -1 10 -6 15 -11 12 -6 -4 -8
-11 -5 -16 4 -5 1 -9 -4 -9 -6 0 -11 11 -11 24 0 21 4 24 28 22 20 -2 28 -9
30 -27z m240 19 c18 0 22 -5 20 -22 -3 -22 -43 -32 -54 -14 -3 5 -11 4 -19 -2
-10 -8 -17 -7 -27 3 -10 12 -15 12 -23 1 -15 -20 -119 -5 -123 19 -2 10 3 17
12 17 9 0 16 -6 16 -12 0 -9 3 -10 8 -2 4 6 22 11 40 12 27 1 33 -2 28 -16 -4
-12 0 -10 12 5 13 17 24 20 52 16 19 -3 45 -6 58 -5z m52 -18 c0 -16 -4 -30
-10 -30 -11 0 -14 43 -3 53 11 12 13 8 13 -23z m44 9 c-8 -14 -24 -10 -24 6 0
9 6 12 15 9 8 -4 12 -10 9 -15z m-3324 -13 c0 -21 -20 -30 -33 -17 -9 9 -8 14
3 21 21 14 30 12 30 -4z m64 2 c-5 -7 -3 -8 6 -3 7 4 16 2 21 -6 6 -10 9 -11
9 -1 0 6 5 12 10 12 6 0 10 -7 10 -15 0 -20 -66 -21 -73 -1 -6 15 1 26 15 26
5 0 6 -5 2 -12z m3286 -8 c0 -11 -4 -20 -9 -20 -5 0 -7 9 -4 20 3 11 7 20 9
20 2 0 4 -9 4 -20z m-3182 -2 c9 -9 15 -10 20 -2 10 17 62 14 62 -2 0 -21 -88
-23 -101 -3 -4 8 -8 7 -12 -2 -4 -10 -6 -9 -6 4 -1 20 19 23 37 5z m1522 2 c0
-5 -4 -10 -10 -10 -5 0 -10 5 -10 10 0 6 5 10 10 10 6 0 10 -4 10 -10z m-1720
-96 c0 -8 -9 -14 -20 -14 -19 0 -27 19 -14 33 10 9 34 -4 34 -19z m80 10 c0 9
5 14 10 11 6 -4 7 -12 3 -18 -5 -9 -3 -9 8 0 21 17 89 14 89 -3 0 -12 4 -12
25 2 25 16 55 13 55 -5 0 -11 -56 -32 -64 -24 -3 3 -39 7 -81 8 -42 2 -79 5
-81 8 -3 2 -1 12 2 22 7 17 8 17 21 -1 12 -17 13 -17 13 0z m1203 -55 c39 -1
67 -6 67 -12 0 -6 7 -2 15 9 8 10 15 14 15 7 0 -6 3 -18 6 -27 4 -11 -2 -15
-25 -14 -17 1 -31 6 -31 12 0 8 -2 8 -8 0 -9 -14 -175 -15 -184 -1 -14 22 4
37 41 32 20 -2 66 -5 104 -6z m262 -1 c30 4 35 1 35 -17 0 -24 -10 -27 -28 -9
-9 9 -12 9 -12 0 0 -9 -20 -12 -70 -11 -61 2 -70 4 -70 20 0 16 7 18 40 16 22
-2 45 0 52 5 7 4 14 4 16 0 1 -5 18 -6 37 -4z m151 -14 c6 -7 14 -11 17 -7 4
3 7 1 7 -5 0 -18 -33 -9 -59 17 l-23 23 24 -7 c12 -4 28 -13 34 -21z m144 16
c0 -5 -7 -10 -15 -10 -8 0 -15 5 -15 10 0 6 7 10 15 10 8 0 15 -4 15 -10z
m130 -16 c0 -17 17 -19 22 -2 5 14 62 20 151 17 22 0 27 -5 27 -25 0 -25 -14
-32 -24 -11 -4 8 -8 8 -11 1 -8 -15 -176 -9 -185 6 -6 9 -11 7 -18 -6 -6 -10
-13 -16 -16 -13 -4 3 3 18 15 33 21 26 39 27 39 0z m240 9 c0 -7 -7 -13 -15
-13 -8 0 -15 6 -15 13 0 8 7 14 15 14 8 0 15 -6 15 -14z m-1253 -8 c9 -24 -1
-27 -15 -5 -8 13 -8 20 -2 20 6 0 13 -7 17 -15z m40 -7 c-3 -8 -6 -5 -6 6 -1
11 2 17 5 13 3 -3 4 -12 1 -19z m80 0 c-3 -8 -6 -5 -6 6 -1 11 2 17 5 13 3 -3
4 -12 1 -19z m683 2 c0 -21 -15 -27 -25 -10 -7 12 2 30 16 30 5 0 9 -9 9 -20z
m-117 -11 c-4 -16 -8 -17 -14 -7 -13 19 -11 28 5 28 9 0 12 -7 9 -21z m596 14
c0 -5 -4 -17 -9 -28 -8 -18 -9 -17 -9 8 -1 15 4 27 9 27 6 0 10 -3 9 -7z
m-2239 -28 c0 -16 -27 -27 -36 -14 -3 5 -3 16 0 24 6 17 36 9 36 -10z m70 15
c0 -5 -5 -10 -12 -10 -6 0 -9 -3 -5 -6 3 -3 12 -2 19 2 18 12 152 12 160 0 4
-6 11 -6 20 2 17 14 58 4 58 -14 0 -10 -15 -12 -62 -9 -35 3 -96 5 -135 5 -53
1 -73 4 -73 14 0 7 3 16 7 19 10 10 23 8 23 -3z m-82 -89 c17 -10 17 -22 1
-32 -18 -10 -29 -2 -29 22 0 21 8 23 28 10z m86 0 c3 -5 16 -7 28 -3 15 4 19
2 13 -7 -6 -10 -3 -11 11 -3 27 14 189 10 189 -5 0 -6 3 -15 8 -19 4 -4 7 2 7
14 0 13 6 22 15 22 8 0 15 -4 15 -10 0 -5 7 -7 15 -4 9 4 15 0 15 -10 0 -14
-37 -23 -72 -17 -4 0 -39 3 -78 5 -38 3 -75 8 -81 12 -7 4 -9 3 -6 -2 3 -6
-19 -10 -54 -10 -56 -1 -59 0 -59 22 0 24 23 33 34 15z m1080 -64 c4 4 4 -1 0
-10 -3 -10 -7 -17 -8 -15 -1 2 -8 12 -16 23 -14 18 -13 19 1 8 9 -7 19 -10 23
-6z m416 -2 c-7 -8 -10 -22 -6 -30 3 -8 1 -15 -4 -15 -11 0 -14 43 -3 53 13
14 25 7 13 -8z m38 -21 c-1 -9 -10 -20 -18 -22 -12 -4 -13 -3 -2 10 7 9 9 24
6 34 -5 15 -4 16 5 8 7 -7 11 -20 9 -30z m182 12 c-5 -13 -6 -27 -3 -30 4 -3
1 -6 -5 -6 -13 0 -14 5 -6 38 4 12 10 22 15 22 5 0 4 -11 -1 -24z m-813 -8
c-3 -8 -6 -5 -6 6 -1 11 2 17 5 13 3 -3 4 -12 1 -19z m37 6 c3 -8 2 -12 -4 -9
-6 3 -10 10 -10 16 0 14 7 11 14 -7z m224 -1 c-4 -23 -28 -29 -28 -6 0 14 -2
15 -9 4 -5 -7 -14 -10 -20 -7 -19 12 -2 26 30 26 23 0 30 -4 27 -17z m34 8 c7
11 8 9 6 -5 -4 -29 -28 -32 -27 -4 0 13 3 17 6 9 5 -11 7 -11 15 0z m34 -11
c0 -11 -4 -20 -8 -20 -4 0 -8 9 -8 20 0 11 4 20 8 20 4 0 8 -9 8 -20z m44 13
c-1 -18 -18 -35 -24 -24 -4 6 -4 16 -1 21 7 12 25 13 25 3z m39 -15 c-1 -18
-2 -19 -6 -5 -2 9 -9 15 -14 12 -5 -4 -9 -1 -9 4 0 6 7 11 15 11 9 0 15 -9 14
-22z m35 -10 c-3 -4 -11 -8 -17 -7 -9 0 -9 2 0 5 7 3 9 13 6 22 -4 14 -3 14 5
2 6 -8 8 -18 6 -22z m296 11 c0 -5 -15 -8 -32 -8 -24 1 -27 3 -10 6 12 2 22 9
22 14 0 6 5 7 10 4 6 -3 10 -10 10 -16z m-760 1 c0 -5 -2 -10 -4 -10 -3 0 -8
5 -11 10 -3 6 -1 10 4 10 6 0 11 -4 11 -10z m154 -6 c3 -8 2 -12 -4 -9 -6 3
-10 10 -10 16 0 14 7 11 14 -7z m-935 -10 c84 -1 116 -5 122 -15 7 -11 9 -11
9 1 0 12 8 15 35 12 36 -4 49 -28 18 -30 -75 -6 -294 1 -299 10 -3 5 -10 6
-15 3 -5 -4 -9 3 -9 15 0 14 4 19 13 13 6 -4 63 -8 126 -9z m-186 -1 c8 -7
-11 -33 -24 -33 -5 0 -9 9 -9 20 0 19 20 27 33 13z m1387 -69 c0 -14 -4 -23
-9 -20 -5 3 -7 15 -4 26 7 28 13 25 13 -6z m528 17 c2 -1 0 -6 -3 -11 -5 -8
-11 -8 -19 -1 -16 13 -26 4 -26 -23 0 -17 -2 -18 -9 -7 -6 9 -6 22 0 33 8 15
21 17 57 9z m78 -7 c-5 -14 -4 -15 7 -5 15 11 51 10 63 -2 4 -4 13 -2 21 4 10
9 13 7 13 -9 0 -24 -16 -38 -23 -20 -3 10 -8 10 -17 2 -7 -7 -24 -9 -45 -4
-19 4 -38 3 -43 -2 -7 -7 -16 -6 -29 2 -14 9 -14 10 -1 6 10 -3 22 4 32 20 19
27 31 32 22 8z m144 -19 c0 -18 -4 -23 -15 -19 -15 6 -20 35 -9 47 12 11 24
-3 24 -28z m-1167 10 c-3 -9 -8 -14 -10 -11 -3 3 -2 9 2 15 9 16 15 13 8 -4z
m54 -7 c-3 -8 -6 -5 -6 6 -1 11 2 17 5 13 3 -3 4 -12 1 -19z m20 0 c-3 -8 -6
-5 -6 6 -1 11 2 17 5 13 3 -3 4 -12 1 -19z m53 6 c0 -8 -5 -12 -10 -9 -6 4 -8
11 -5 16 9 14 15 11 15 -7z m104 1 c-6 -16 -24 -21 -24 -7 0 11 11 22 21 22 5
0 6 -7 3 -15z m136 2 c0 -7 5 -5 10 3 8 12 10 11 10 -6 0 -12 -6 -21 -15 -21
-8 0 -15 5 -15 10 0 6 -9 2 -19 -7 -12 -11 -21 -14 -26 -7 -3 6 -19 11 -36 11
-18 0 -29 5 -29 14 0 9 16 13 60 14 39 0 60 -4 60 -11z m100 4 c0 -5 -7 -14
-15 -21 -12 -10 -15 -10 -15 2 0 8 3 18 7 21 9 10 23 9 23 -2z m30 -13 c0 -19
-2 -20 -10 -8 -13 19 -13 30 0 30 6 0 10 -10 10 -22z m220 12 c18 5 36 7 39 5
2 -3 -1 -5 -7 -5 -7 0 -12 -5 -12 -11 0 -5 5 -7 10 -4 6 3 10 -1 10 -9 0 -10
-6 -13 -15 -10 -8 4 -15 10 -15 16 0 5 -6 6 -12 2 -26 -16 -48 -11 -48 10 0
14 3 17 8 9 6 -9 17 -10 42 -3z m63 -10 c-3 -12 -8 -19 -11 -16 -5 6 5 36 12
36 2 0 2 -9 -1 -20z m50 0 c-3 -11 -7 -20 -8 -20 -1 0 -5 9 -8 20 -3 12 0 20
8 20 8 0 11 -8 8 -20z m39 13 c-6 -2 -10 -9 -7 -13 3 -5 1 -11 -5 -15 -5 -3
-10 3 -10 14 0 14 6 21 18 20 10 0 12 -3 4 -6z m334 -10 c-6 -16 -6 -17 9 -2
20 19 79 14 71 -7 -3 -9 2 -14 14 -14 11 0 20 7 20 15 0 11 11 15 40 15 38 0
40 -1 30 -20 -6 -11 -15 -18 -20 -15 -6 3 -17 2 -27 -3 -9 -6 -29 -6 -45 -2
-16 5 -30 5 -34 -1 -3 -5 -11 -6 -17 -2 -7 4 -23 8 -37 8 -18 1 -26 7 -28 23
-2 15 2 22 13 22 12 0 15 -5 11 -17z m225 -1 c-12 -23 -41 -48 -41 -35 0 5 7
19 16 31 19 27 39 30 25 4z m52 4 c13 4 17 1 17 -14 0 -16 -6 -20 -30 -20 -21
1 -30 6 -30 18 0 22 12 33 20 20 4 -6 14 -8 23 -4z m270 -12 c-1 -17 1 -16 14
4 19 27 33 29 33 4 0 -20 -29 -64 -30 -44 0 6 -9 12 -20 12 -11 0 -20 6 -20
13 0 7 -3 8 -8 2 -4 -6 -19 -16 -34 -22 -29 -13 -29 -14 -32 29 -1 14 45 27
79 23 13 -2 19 -9 18 -21z m85 14 c-6 -18 -28 -21 -28 -4 0 9 7 16 16 16 9 0
14 -5 12 -12z m32 -17 c0 -10 -7 -24 -15 -31 -9 -8 -15 -9 -15 -2 0 6 5 14 10
17 6 4 8 16 4 27 -4 14 -2 18 5 14 6 -4 11 -15 11 -25z m-1220 2 c0 -7 -7 -13
-15 -13 -8 0 -15 6 -15 13 0 8 7 14 15 14 8 0 15 -6 15 -14z m890 5 c0 -9 3
-10 8 -2 8 12 72 17 72 6 -1 -22 -20 -32 -63 -30 -38 2 -47 6 -47 20 0 10 7
18 15 18 8 0 15 -6 15 -12z m360 -13 c0 -14 -4 -25 -9 -25 -4 0 -6 11 -3 25 2
14 6 25 8 25 2 0 4 -11 4 -25z m-2867 -9 c3 -8 0 -17 -8 -19 -15 -7 -25 1 -25
20 0 17 26 17 33 -1z m165 -8 c3 -15 -4 -16 -45 -12 -72 6 -73 6 -73 19 0 9
18 12 57 11 46 -1 58 -5 61 -18z m48 13 c-4 -5 4 -7 15 -4 16 4 20 2 17 -8 -2
-7 -19 -16 -36 -20 -27 -5 -32 -3 -32 11 0 17 12 27 33 29 5 1 6 -3 3 -8z
m-206 -101 c0 -15 -7 -20 -25 -20 -27 0 -28 1 -19 24 9 24 44 20 44 -4z m171
-2 c7 -10 9 -10 9 0 0 6 9 12 20 12 25 0 27 -30 3 -31 -10 -1 -21 -1 -24 -1
-3 1 -36 2 -72 3 -54 2 -67 5 -67 18 0 13 11 16 62 14 37 -1 64 -7 69 -15z
m1060 -42 c-6 -7 -8 -22 -4 -31 4 -13 3 -16 -5 -11 -15 9 -15 29 0 44 16 16
23 15 9 -2z m-251 -11 c0 -8 -2 -15 -4 -15 -2 0 -6 7 -10 15 -3 8 -1 15 4 15
6 0 10 -7 10 -15z m137 -7 c-3 -8 -6 -5 -6 6 -1 11 2 17 5 13 3 -3 4 -12 1
-19z m40 0 c-3 -8 -6 -5 -6 6 -1 11 2 17 5 13 3 -3 4 -12 1 -19z m-1164 -22
c6 -16 -10 -26 -30 -19 -15 6 -5 33 12 33 7 0 15 -6 18 -14z m67 -5 c6 9 30
13 74 14 55 0 66 -2 66 -16 0 -13 -13 -17 -79 -18 -79 -2 -100 6 -84 32 5 8 9
7 11 -7 3 -15 6 -16 12 -5z m190 8 c0 -5 7 -6 15 -3 9 4 15 0 15 -10 0 -9 -8
-16 -19 -16 -11 0 -26 -3 -34 -6 -11 -4 -13 1 -10 19 4 21 33 35 33 16z m5989
-37 c59 -40 61 -45 68 -142 4 -58 3 -63 -11 -51 -9 7 -16 24 -16 37 0 23 -23
34 -33 17 -8 -15 13 -70 35 -90 20 -19 23 -30 20 -89 l-4 -66 -35 5 c-52 9
-120 53 -150 99 -46 69 -35 181 29 286 11 17 25 32 31 32 7 0 36 -17 66 -38z
m-5193 -17 c-3 -8 -1 -15 4 -15 6 0 10 5 10 10 0 6 16 10 35 10 35 0 41 -5 27
-27 -9 -14 -72 -14 -90 0 -9 7 -9 13 -1 23 15 18 23 18 15 -1z m153 -18 c0
-21 -1 -21 -9 -2 l-9 20 -1 -20 c-1 -12 -4 -15 -7 -7 -7 18 5 44 17 37 5 -3
10 -16 9 -28z m31 -7 c-8 -5 -17 -6 -20 -3 -3 3 1 8 8 10 10 4 10 8 0 21 -9
13 -8 13 8 -1 16 -15 17 -19 4 -27z m-70 10 c0 -11 -4 -20 -8 -20 -4 0 -8 9
-9 20 -1 11 2 20 8 20 5 0 9 -9 9 -20z m-1176 -16 c17 -7 10 -34 -9 -34 -14 0
-27 25 -18 34 8 7 8 7 27 0z m193 -3 c24 -1 31 -5 27 -16 -5 -11 -24 -14 -90
-13 -72 1 -84 3 -84 18 0 15 9 17 58 14 31 -2 71 -3 89 -3z m53 -22 c0 -11 -4
-18 -10 -14 -5 3 -7 12 -3 20 7 21 13 19 13 -6z m57 6 c0 -12 -3 -12 -16 -2
-12 9 -13 9 -7 0 4 -8 1 -13 -8 -13 -9 0 -16 7 -16 15 0 9 9 15 23 15 14 0 24
-6 24 -15z m872 -58 c0 -12 -3 -16 -6 -9 -2 6 -9 10 -14 6 -11 -6 -11 -2 -3
20 8 22 24 10 23 -17z m106 3 c-4 -12 -9 -19 -12 -17 -3 3 -2 15 2 27 4 12 9
19 12 17 3 -3 2 -15 -2 -27z m385 -10 c0 -21 -25 -4 -28 20 -4 21 -2 22 12 7
9 -8 16 -21 16 -27z m-527 10 c-3 -11 -9 -17 -14 -14 -14 8 -10 34 5 34 9 0
12 -7 9 -20z m66 -11 c-9 -5 -15 -4 -18 2 -2 6 3 15 10 20 9 5 15 4 18 -2 2
-6 -3 -15 -10 -20z m51 11 c0 -13 -5 -18 -15 -14 -8 4 -15 12 -15 20 0 8 7 14
15 14 8 0 15 -9 15 -20z m79 -4 c1 13 52 26 63 15 4 -3 37 -4 72 -1 56 5 65 3
70 -12 2 -11 -1 -18 -10 -18 -8 0 -14 6 -15 13 0 10 -2 10 -6 0 -2 -7 -15 -13
-28 -13 -13 0 -25 6 -28 13 -3 9 -7 9 -20 -1 -12 -10 -25 -11 -51 -4 -26 8
-35 7 -33 -1 1 -7 -7 -10 -18 -9 -27 5 -29 8 -20 29 7 17 8 17 15 -2 5 -11 9
-15 9 -9z m244 4 c3 -11 1 -20 -4 -20 -5 0 -9 9 -9 20 0 11 2 20 4 20 2 0 6
-9 9 -20z m110 0 c-3 -11 -7 -20 -9 -20 -2 0 -4 9 -4 20 0 11 4 20 9 20 5 0 7
-9 4 -20z m157 16 c0 -3 -4 -8 -10 -11 -5 -3 -10 -1 -10 4 0 6 5 11 10 11 6 0
10 -2 10 -4z m140 -16 c0 -11 -4 -20 -9 -20 -5 0 -7 9 -4 20 3 11 7 20 9 20 2
0 4 -9 4 -20z m31 -7 c-8 -15 -10 -15 -11 -2 0 17 10 32 18 25 2 -3 -1 -13 -7
-23z m119 12 c0 -8 -4 -15 -10 -15 -5 0 -7 7 -4 15 4 8 8 15 10 15 2 0 4 -7 4
-15z m48 -3 c2 -7 -4 -15 -13 -18 -20 -8 -27 -1 -19 20 7 18 25 17 32 -2z m58
-30 c-11 -10 -15 4 -8 28 l7 25 3 -23 c2 -13 1 -26 -2 -30z m44 29 c0 -11 -4
-23 -10 -26 -6 -4 -10 5 -10 19 0 14 5 26 10 26 6 0 10 -9 10 -19z m405 -10
c-7 -23 -25 -29 -25 -8 0 14 21 39 28 33 2 -3 1 -14 -3 -25z m212 21 c9 7 17
8 21 2 9 -13 82 -15 82 -2 0 7 5 6 14 -2 8 -6 12 -18 9 -26 -6 -16 -33 -19
-33 -4 0 6 -5 10 -11 10 -5 0 -7 -5 -4 -10 4 -7 -18 -10 -64 -9 -53 1 -71 5
-71 15 0 8 -5 14 -11 14 -5 0 -8 4 -4 10 4 6 15 6 32 -1 18 -7 30 -6 40 3z
m270 -25 c-2 -6 -9 -13 -15 -15 -7 -2 -10 2 -6 12 10 26 -11 18 -26 -9 -7 -13
-17 -22 -22 -19 -4 3 1 19 12 35 18 24 24 27 41 18 11 -6 19 -15 16 -22z
m-1544 9 c6 -15 -11 -36 -27 -36 -6 0 -4 5 4 10 10 6 11 10 3 10 -7 0 -13 7
-13 15 0 19 26 20 33 1z m137 -1 c0 -8 -2 -15 -4 -15 -2 0 -6 7 -10 15 -3 8
-1 15 4 15 6 0 10 -7 10 -15z m42 8 c-6 -2 -10 -9 -6 -14 3 -5 0 -9 -5 -9 -6
0 -11 7 -11 15 0 8 8 15 18 14 10 0 12 -3 4 -6z m108 -10 c0 -15 -2 -16 -10
-3 -9 13 -10 13 -10 0 0 -13 -1 -13 -10 0 -6 10 -10 11 -10 3 0 -7 -7 -13 -15
-13 -16 0 -20 12 -8 23 3 4 19 7 35 7 20 0 28 -5 28 -17z m40 -4 c0 -6 -4 -7
-10 -4 -5 3 -10 11 -10 16 0 6 5 7 10 4 6 -3 10 -11 10 -16z m111 -3 c-5 -11
-13 -21 -20 -22 -8 -2 -8 -1 0 3 8 4 8 8 -1 13 -15 9 -6 27 14 27 10 0 12 -6
7 -21z m259 16 c0 -5 -7 -17 -16 -28 -8 -10 -14 -14 -11 -9 2 6 7 18 10 28 7
17 17 23 17 9z m74 -14 c-9 -31 -14 -35 -24 -19 -11 18 -2 41 17 41 10 0 12
-6 7 -22z m36 0 c0 -19 -2 -20 -10 -8 -13 19 -13 30 0 30 6 0 10 -10 10 -22z
m114 14 c60 10 106 2 106 -18 0 -8 -7 -14 -15 -14 -8 0 -15 7 -15 15 0 8 -5
15 -11 15 -6 0 -9 -6 -6 -14 5 -11 -8 -14 -61 -12 -37 1 -73 5 -80 9 -7 5 -12
3 -12 -4 0 -7 -3 -10 -6 -6 -4 3 -4 13 -1 21 5 11 12 13 28 8 12 -5 45 -5 73
0z m219 -19 c-5 -12 -7 -12 -14 -1 -13 20 -11 28 5 22 8 -3 12 -12 9 -21z
m-2693 7 c0 -5 11 -10 25 -10 16 0 25 -6 25 -15 0 -12 -9 -15 -35 -13 -29 2
-35 6 -35 25 0 13 5 23 10 23 6 0 10 -4 10 -10z m2652 1 c8 12 9 12 6 0 -6
-22 -28 -25 -27 -4 0 12 2 14 6 4 5 -11 7 -11 15 0z m-2722 -15 c0 -18 -16
-29 -30 -21 -13 8 -1 35 16 35 8 0 14 -6 14 -14z m155 -3 c7 -17 8 -16 15 2 5
11 9 15 9 8 1 -7 11 -10 25 -7 16 3 26 -2 30 -12 5 -13 1 -15 -24 -12 -16 3
-30 1 -30 -2 0 -4 -11 -5 -25 -2 -16 3 -25 11 -25 23 0 24 16 25 25 2z m978
-44 c-6 -6 -9 -19 -5 -28 5 -14 4 -14 -12 -2 -17 14 -17 15 0 28 22 16 32 17
17 2z m37 -19 c0 -11 -4 -20 -8 -20 -4 0 -8 9 -9 20 -1 11 2 20 8 20 5 0 9 -9
9 -20z m40 6 c0 -7 -7 -19 -15 -26 -13 -11 -15 -8 -15 14 0 16 5 26 15 26 8 0
15 -6 15 -14z m32 -18 c-15 -15 -26 -4 -18 18 5 13 9 15 18 6 9 -9 9 -15 0
-24z m34 12 c0 -11 -4 -20 -8 -20 -4 0 -8 9 -8 20 0 11 4 20 8 20 4 0 8 -9 8
-20z m31 6 c-3 -8 -1 -17 6 -20 7 -2 4 -5 -5 -5 -10 -1 -18 1 -18 3 0 10 13
36 17 36 3 0 3 -6 0 -14z m43 -6 c0 -11 -2 -20 -4 -20 -2 0 -6 9 -9 20 -3 11
-1 20 4 20 5 0 9 -9 9 -20z m80 0 c0 -12 -5 -17 -14 -14 -8 3 -17 1 -21 -5 -9
-15 -34 -14 -31 2 3 24 18 37 42 37 17 0 24 -5 24 -20z m31 7 c-6 -8 -8 -17
-4 -20 3 -4 1 -7 -5 -7 -13 0 -16 22 -5 33 12 13 25 7 14 -6z m2744 -17 c-3
-5 -15 -10 -26 -10 -10 0 -19 5 -19 10 0 6 12 10 26 10 14 0 23 -4 19 -10z
m-4205 -26 c0 -16 -26 -19 -35 -4 -3 6 -4 14 0 20 8 13 35 1 35 -16z m196 5
c10 -8 14 -8 14 0 0 6 15 11 33 11 45 0 47 -30 3 -31 -57 -2 -91 3 -98 15 -6
8 -8 7 -8 -2 0 -21 -94 -12 -98 9 -3 15 7 16 69 13 39 -2 78 -9 85 -15z m1335
-61 c-3 -21 -6 -26 -9 -15 -3 17 3 47 11 47 2 0 1 -15 -2 -32z m39 11 c-7 -11
-9 -27 -6 -35 3 -8 1 -14 -4 -14 -11 0 -12 15 -4 48 4 12 10 22 16 22 5 0 4
-9 -2 -21z m451 -16 c-4 -15 -13 -28 -19 -29 -7 -1 -8 0 -2 3 5 2 10 18 10 34
0 17 4 28 9 25 5 -4 6 -18 2 -33z m5179 12 c35 -19 97 -85 109 -118 16 -41 13
-152 -4 -194 -46 -109 -146 -175 -270 -177 -78 -1 -129 20 -176 71 -74 79 -77
141 -14 278 18 38 87 110 125 130 68 35 172 40 230 10z m-5850 -5 c0 -11 -2
-20 -4 -20 -2 0 -6 9 -9 20 -3 11 -1 20 4 20 5 0 9 -9 9 -20z m348 2 c7 -22
-26 -24 -47 -3 l-21 21 32 -3 c17 -1 33 -8 36 -15z m97 8 c-3 -5 -11 -10 -16
-10 -6 0 -7 5 -4 10 3 6 11 10 16 10 6 0 7 -4 4 -10z m45 -10 c0 -16 -7 -20
-32 -20 l-33 0 25 20 c32 25 40 25 40 0z m106 4 c-3 -9 -6 -20 -6 -25 0 -5 -4
-9 -9 -9 -4 0 -6 11 -3 25 2 14 9 25 14 25 6 0 7 -7 4 -16z m44 -4 c0 -11 -7
-20 -15 -20 -15 0 -21 21 -8 33 12 13 23 7 23 -13z m70 7 c0 -7 -7 -22 -15
-33 -13 -17 -14 -16 -4 14 11 33 19 41 19 19z m-873 -29 c-3 -7 -5 -2 -5 12 0
14 2 19 5 13 2 -7 2 -19 0 -25z m40 10 c-3 -8 -6 -5 -6 6 -1 11 2 17 5 13 3
-3 4 -12 1 -19z m53 12 c0 -5 -4 -10 -10 -10 -5 0 -10 5 -10 10 0 6 5 10 10
10 6 0 10 -4 10 -10z m27 -12 c-3 -8 -6 -5 -6 6 -1 11 2 17 5 13 3 -3 4 -12 1
-19z m77 7 c3 -8 1 -15 -4 -15 -6 0 -10 7 -10 15 0 8 2 15 4 15 2 0 6 -7 10
-15z m44 3 c-6 -18 -28 -21 -28 -4 0 9 7 16 16 16 9 0 14 -5 12 -12z m42 4 c0
-5 -7 -9 -15 -9 -8 0 -15 4 -15 9 0 4 7 8 15 8 8 0 15 -4 15 -8z m174 -17 c-4
-8 -11 -12 -16 -9 -6 4 -5 10 3 15 19 12 19 11 13 -6z m4910 -1 c9 -8 16 -23
16 -31 0 -21 -29 -53 -48 -53 -24 0 -52 31 -52 56 0 40 55 58 84 28z m-6576
-16 c-2 -17 -10 -23 -28 -23 -30 0 -40 31 -13 38 37 10 44 7 41 -15z m155 -1
c-5 -9 -3 -9 8 -1 8 6 29 14 47 16 29 4 32 2 31 -21 0 -14 -3 -20 -6 -13 -2 6
-9 10 -14 6 -5 -3 -9 1 -9 8 0 10 -2 10 -9 -1 -9 -13 -81 -24 -81 -12 0 4 -20
5 -45 3 -37 -3 -45 -1 -45 12 0 14 9 17 50 15 27 -2 53 0 56 4 11 10 25 -3 17
-16z m1587 13 c0 -5 -4 -10 -10 -10 -5 0 -10 5 -10 10 0 6 5 10 10 10 6 0 10
-4 10 -10z m-1470 -14 c0 -8 -4 -18 -10 -21 -5 -3 -10 3 -10 14 0 12 5 21 10
21 6 0 10 -6 10 -14z m1063 -54 c-3 -12 -9 -19 -14 -16 -5 3 -3 14 3 24 15 24
19 21 11 -8z m-103 -2 c0 -11 -7 -20 -15 -20 -15 0 -21 21 -8 33 12 13 23 7
23 -13z m68 -5 c-3 -31 -31 -30 -35 0 -3 20 -3 20 6 0 8 -19 8 -19 15 3 10 29
16 28 14 -3z m140 1 c-1 -14 -5 -23 -9 -20 -7 4 0 44 7 44 2 0 3 -11 2 -24z
m50 7 c-5 -25 -28 -28 -28 -4 0 12 6 21 16 21 9 0 14 -7 12 -17z m69 -3 c-1
-11 -7 -20 -14 -20 -11 0 -11 5 -3 20 6 11 13 20 15 20 2 0 3 -9 2 -20z m39 4
c-3 -9 -6 -18 -6 -20 0 -2 -5 -4 -11 -4 -8 0 -9 4 0 13 6 8 8 17 4 20 -3 4 -1
7 6 7 8 0 11 -6 7 -16z m26 -26 c-6 -6 -7 0 -4 19 5 21 7 23 10 9 2 -10 0 -22
-6 -28z m-255 17 c0 -8 -4 -15 -9 -15 -10 0 -11 14 -1 23 9 10 10 9 10 -8z
m-1369 -27 c-2 -17 -10 -23 -28 -23 -30 0 -40 31 -13 38 37 10 44 7 41 -15z
m83 10 c18 2 26 -2 26 -12 0 -12 -11 -16 -39 -16 -32 0 -38 3 -38 21 0 14 4
18 12 12 7 -4 25 -6 39 -5z m-190 -21 c-10 -9 -11 -8 -5 6 3 10 9 15 12 12 3
-3 0 -11 -7 -18z m1661 -44 c-3 -16 -7 -22 -10 -15 -4 13 4 42 11 42 2 0 2
-12 -1 -27z m41 -3 c-3 -11 -9 -20 -13 -20 -5 0 -6 9 -3 20 3 11 9 20 13 20 5
0 6 -9 3 -20z m-363 -1 c0 -5 -4 -8 -9 -4 -5 3 -12 -3 -14 -12 -4 -14 -5 -13
-6 5 -1 13 5 22 14 22 8 0 15 -5 15 -11z m34 4 c-5 -5 -12 -12 -16 -18 -4 -6
-8 -2 -8 8 0 9 7 17 17 17 9 0 12 -3 7 -7z m64 -5 c9 -9 12 -9 12 0 0 7 14 12
35 12 34 0 46 -12 24 -26 -6 -3 -15 0 -20 7 -6 10 -9 11 -9 2 0 -18 -51 -16
-74 2 -20 15 -20 15 0 15 11 0 25 -5 32 -12z m119 6 c-3 -3 -12 -4 -19 -1 -8
3 -5 6 6 6 11 1 17 -2 13 -5z m41 -6 c-2 -6 -10 -13 -16 -14 -9 -2 -9 -1 -1 3
8 4 7 8 -2 14 -11 7 -10 9 4 9 10 0 17 -5 15 -12z m139 -20 c-3 -7 -5 -2 -5
12 0 14 2 19 5 13 2 -7 2 -19 0 -25z m-1497 -18 c0 -14 -8 -18 -35 -18 -27 0
-35 4 -35 18 0 21 15 28 47 22 14 -3 23 -12 23 -22z m-136 -5 c-4 -8 -12 -15
-20 -15 -8 0 -14 7 -14 15 0 8 9 15 20 15 13 0 18 -5 14 -15z m56 0 c0 -8 -4
-15 -10 -15 -5 0 -10 7 -10 15 0 8 5 15 10 15 6 0 10 -7 10 -15z m6463 -35
c-3 -12 -8 -19 -11 -16 -5 6 5 36 12 36 2 0 2 -9 -1 -20z m-6530 -46 c-7 -18
-33 -18 -33 -1 0 19 10 27 25 20 8 -2 11 -11 8 -19z m90 12 c11 4 17 1 17 -9
0 -22 -15 -29 -44 -21 -22 5 -24 9 -15 26 8 14 13 17 18 9 4 -6 15 -9 24 -5z
m704 -8 c-3 -8 -6 -5 -6 6 -1 11 2 17 5 13 3 -3 4 -12 1 -19z m223 15 c0 -5
-5 -15 -10 -23 -8 -12 -10 -11 -10 8 0 12 5 22 10 22 6 0 10 -3 10 -7z m1000
-6 c68 -2 85 -5 88 -18 2 -14 -10 -16 -93 -15 -77 1 -95 4 -96 16 0 10 -3 9
-8 -4 -7 -19 -8 -19 -13 1 -7 26 -2 32 20 27 9 -3 55 -6 102 -7z m-1872 -9 c7
-7 12 -8 12 -2 0 14 53 11 57 -3 6 -16 -29 -26 -39 -11 -5 9 -8 7 -8 -6 0 -15
-3 -17 -11 -9 -6 6 -18 9 -25 6 -9 -3 -14 2 -14 16 0 24 10 27 28 9z m592 -2
c-7 -7 -14 -6 -21 1 -9 9 -7 12 9 10 14 -1 18 -5 12 -11z m166 7 c-10 -11 -36
-12 -36 -2 0 5 10 9 22 9 12 0 18 -3 14 -7z m521 -15 c-3 -8 -6 -5 -6 6 -1 11
2 17 5 13 3 -3 4 -12 1 -19z m73 10 c0 7 5 10 10 7 13 -8 3 -25 -16 -25 -8 0
-14 8 -14 18 0 14 2 15 10 2 7 -11 10 -11 10 -2z m2205 -16 c-8 -2 -15 -8 -15
-13 0 -5 -6 -4 -13 3 -21 19 1 39 26 24 15 -9 15 -12 2 -14z m185 -2 c0 -27
-3 -30 -30 -30 -27 0 -30 3 -30 30 0 27 3 30 30 30 27 0 30 -3 30 -30z m92 25
c13 -13 -5 -55 -23 -55 -14 0 -19 7 -19 30 0 22 5 30 18 30 10 0 21 -2 24 -5z
m-2302 -9 c0 -2 -9 -6 -20 -9 -11 -3 -20 -1 -20 4 0 5 9 9 20 9 11 0 20 -2 20
-4z m1820 -31 c-7 -8 -16 -15 -21 -15 -14 0 -11 38 4 43 20 7 31 -11 17 -28z
m584 26 c3 -5 -3 -11 -15 -14 -16 -4 -18 -3 -8 9 13 16 16 17 23 5z m96 -12
c0 -5 -7 -9 -15 -9 -8 0 -15 7 -15 15 0 9 6 12 15 9 8 -4 15 -10 15 -15z
m-560 2 c0 -6 -4 -13 -10 -16 -5 -3 -10 -1 -10 6 0 10 -3 10 -12 1 -17 -17
-58 -15 -58 3 0 11 12 15 45 15 25 0 45 -4 45 -9z m-3610 -76 c0 -18 -5 -25
-20 -25 -15 0 -20 7 -20 25 0 18 5 25 20 25 15 0 20 -7 20 -25z m110 -5 c0
-22 -7 -25 -30 -10 -8 5 -11 12 -7 17 5 4 12 1 17 -7 8 -13 10 -12 10 3 0 9 2
17 5 17 3 0 5 -9 5 -20z m-50 0 c0 -5 -2 -10 -4 -10 -3 0 -8 5 -11 10 -3 6 -1
10 4 10 6 0 11 -4 11 -10z m80 1 c0 -6 -4 -13 -10 -16 -5 -3 -10 1 -10 9 0 9
5 16 10 16 6 0 10 -4 10 -9z m30 -1 c0 -5 -4 -10 -10 -10 -5 0 -10 5 -10 10 0
6 5 10 10 10 6 0 10 -4 10 -10z m34 -6 c3 -8 2 -12 -4 -9 -6 3 -10 10 -10 16
0 14 7 11 14 -7z m24 -9 c-3 -3 -9 2 -12 12 -6 14 -5 15 5 6 7 -7 10 -15 7
-18z m27 16 c3 -5 1 -12 -5 -16 -5 -3 -10 1 -10 9 0 18 6 21 15 7z m6042 -42
c-7 -12 -13 -15 -16 -7 -2 7 1 14 8 16 6 2 8 9 5 14 -4 7 -2 8 4 4 9 -5 8 -12
-1 -27z m236 -9 c-13 -5 -23 -15 -23 -21 0 -7 -3 -9 -6 -6 -10 10 16 37 35 36
11 0 9 -3 -6 -9z m-5523 -19 c13 -25 13 -31 0 -31 -5 0 -10 9 -10 20 0 11 -5
20 -11 20 -7 0 -9 -10 -7 -25 3 -14 1 -25 -3 -25 -5 0 -9 14 -9 30 0 35 23 41
40 11z m142 -12 c-5 -31 -2 -29 -45 -22 -27 4 -37 11 -37 24 0 13 7 17 25 15
26 -3 48 -16 26 -16 -7 0 -9 -5 -5 -11 5 -8 10 -6 16 5 5 9 6 21 2 27 -4 7 -1
10 7 7 8 -3 13 -15 11 -29z m-99 -1 c6 -22 0 -23 -19 -4 -18 18 -18 23 0 23 8
0 17 -9 19 -19z m363 -15 c-3 -4 -6 0 -6 8 0 12 -2 12 -10 -1 -5 -8 -12 -11
-15 -8 -4 4 -1 13 6 21 12 13 15 13 22 0 5 -8 6 -17 3 -20z m41 5 c-3 -7 -5
-2 -5 12 0 14 2 19 5 13 2 -7 2 -19 0 -25z m-1469 5 c-4 -22 -22 -20 -26 1 -2
10 3 16 13 16 10 0 15 -7 13 -17z m93 5 c0 -10 2 -10 6 0 7 19 35 15 31 -5 -4
-20 -39 -25 -50 -8 -5 6 -8 5 -8 -3 0 -7 -4 -10 -10 -7 -5 3 -10 13 -10 21 0
17 40 19 41 2z m69 5 c0 -5 -5 -15 -10 -23 -8 -12 -10 -11 -10 8 0 12 5 22 10
22 6 0 10 -3 10 -7z m79 -9 c8 -8 -23 -24 -36 -19 -6 2 -13 0 -15 -5 -2 -5 -9
-6 -17 -1 -12 8 -12 11 0 24 13 13 55 14 68 1z m1041 4 c0 -6 -3 -9 -6 -5 -3
3 -16 2 -28 -2 -13 -6 -25 -4 -32 4 -9 9 -3 12 27 13 24 1 39 -3 39 -10z m81
3 c4 7 11 10 15 6 9 -9 -16 -38 -27 -31 -5 3 -9 13 -8 22 0 12 2 13 6 3 4 -11
7 -11 14 0z m86 -13 c-3 -8 -6 -5 -6 6 -1 11 2 17 5 13 3 -3 4 -12 1 -19z
m1795 -3 c-2 -14 -8 -25 -13 -25 -10 0 -11 12 -3 34 10 25 22 19 16 -9z m98
-2 c0 -8 4 -12 10 -8 5 3 6 13 3 22 -4 11 -3 14 6 9 7 -4 11 -15 9 -24 -4 -23
-78 -25 -79 -2 0 10 -2 11 -6 3 -6 -17 -36 -17 -31 -1 10 28 88 29 88 1z
m-2349 -59 c-9 -28 -9 -29 -10 -3 -1 14 2 29 6 32 11 12 13 2 4 -29z m171 1
c-6 -34 -24 -32 -18 3 2 15 5 28 5 30 1 2 5 1 10 -2 4 -3 6 -17 3 -31z m-102
3 c0 -19 -2 -20 -11 -8 -8 11 -12 12 -16 3 -7 -18 -23 -16 -23 3 0 8 4 13 8
10 4 -2 14 -1 22 5 20 12 20 12 20 -13z m70 -4 c0 -18 -46 -18 -53 0 -8 19 -1
24 28 18 14 -2 25 -11 25 -18z m305 4 c-3 6 -1 12 4 12 6 0 11 -7 11 -15 0 -8
-7 -15 -15 -15 -8 0 -15 5 -15 10 0 6 -5 10 -11 10 -5 0 -7 -4 -4 -10 3 -5 1
-10 -4 -10 -14 0 -14 13 1 28 9 9 15 7 25 -6 8 -9 12 -11 8 -4z m-155 -6 c0
-9 -4 -13 -8 -7 -10 14 -46 19 -37 6 9 -16 -10 -13 -24 2 -9 11 -3 14 29 15
32 2 40 -2 40 -16z m80 6 c0 6 5 12 10 12 12 0 9 -22 -5 -32 -13 -9 -25 0 -25
20 0 15 2 15 10 2 6 -10 10 -11 10 -2z m107 -10 c-3 -8 -6 -5 -6 6 -1 11 2 17
5 13 3 -3 4 -12 1 -19z m37 7 c-4 -8 -8 -15 -10 -15 -2 0 -4 7 -4 15 0 8 4 15
10 15 5 0 7 -7 4 -15z m1766 5 c5 0 11 -8 13 -17 4 -14 5 -12 6 5 1 17 7 22
26 22 32 0 33 -27 1 -40 -31 -11 -64 -3 -69 19 -3 11 -5 9 -6 -6 -1 -27 -21
-31 -21 -5 0 24 10 34 28 27 7 -3 17 -5 22 -5z m100 -14 c0 -8 -8 -20 -17 -27
-16 -12 -17 -12 -5 2 7 9 9 25 5 34 -4 13 -3 16 5 11 7 -4 12 -13 12 -20z
m-3224 -9 c9 3 14 -1 14 -12 0 -13 -6 -16 -25 -13 -14 3 -28 2 -30 -2 -2 -4
-16 -5 -29 -3 -26 5 -42 28 -26 38 6 4 10 0 10 -7 0 -10 3 -9 9 1 8 12 13 12
24 3 12 -10 16 -9 22 5 7 17 8 17 12 1 3 -10 10 -15 19 -11z m-136 -7 c0 -11
-4 -20 -10 -20 -5 0 -10 6 -10 13 0 8 -3 7 -10 -3 -11 -18 -23 -8 -14 14 9 23
44 21 44 -4z m207 -6 c2 -6 -6 -14 -19 -17 -27 -7 -30 -5 -22 17 7 18 35 18
41 0z m779 -34 c-1 -16 -6 -30 -13 -30 -7 0 -10 7 -8 15 3 8 7 22 10 30 7 24
12 17 11 -15z m164 0 c0 -30 -1 -31 -37 -24 -45 8 -61 20 -47 34 14 14 54 1
54 -18 0 -20 10 -10 15 15 5 24 4 23 10 23 3 0 5 -14 5 -30z m-100 1 c0 -13
-7 -18 -25 -18 -15 0 -25 5 -25 14 0 8 4 12 8 9 4 -2 14 -1 22 5 20 12 20 12
20 -10z m196 -1 c38 0 28 -15 -11 -16 -21 0 -36 5 -40 14 -4 10 0 12 11 8 8
-3 27 -6 40 -6z m173 -13 c0 -8 -3 -7 -6 2 -4 11 -7 11 -14 0 -4 -7 -11 -10
-16 -6 -9 9 17 28 29 21 4 -3 8 -11 7 -17z m38 1 c-3 -8 -6 -5 -6 6 -1 11 2
17 5 13 3 -3 4 -12 1 -19z m1903 -2 c0 -8 -8 -20 -17 -27 -16 -12 -17 -12 -5
2 7 9 9 25 5 34 -4 13 -3 16 5 11 7 -4 12 -13 12 -20z m-2000 -1 c-7 -8 -16
-12 -21 -9 -16 9 -10 20 12 21 17 2 18 -1 9 -12z m1867 -5 c-1 -11 -5 -20 -9
-20 -4 0 -8 9 -8 20 0 11 4 20 9 20 6 0 9 -9 8 -20z m101 3 c-2 -11 -14 -18
-31 -20 -19 -1 -25 2 -20 10 5 9 3 8 -9 0 -8 -7 -18 -10 -21 -6 -19 18 2 30
56 32 22 1 28 -3 25 -16z m-3361 -19 c3 -8 -2 -23 -11 -32 -15 -15 -17 -15
-32 0 -21 21 -11 48 16 48 11 0 23 -7 27 -16z m1015 -39 c-2 -14 -8 -25 -12
-25 -4 0 -5 11 -2 25 2 14 8 25 12 25 4 0 5 -11 2 -25z m80 7 c8 21 58 12 58
-11 0 -13 2 -14 9 -1 6 8 7 18 5 22 -3 4 0 8 5 8 6 0 11 -12 11 -26 0 -23 -3
-25 -27 -20 -16 3 -49 7 -75 8 -34 1 -48 5 -48 15 0 8 4 12 8 9 4 -2 14 -1 22
4 11 7 17 4 21 -7 5 -15 6 -15 11 -1z m157 -4 c8 -8 11 -8 8 -2 -4 7 3 12 18
12 38 0 30 -23 -9 -25 -23 -2 -36 2 -40 12 -7 18 5 19 23 3z m149 0 c-6 -28
-38 -31 -38 -5 0 7 4 6 10 -3 8 -13 10 -12 10 3 0 9 5 17 10 17 6 0 9 -6 8
-12z m34 5 c-6 -2 -10 -9 -6 -14 3 -5 0 -9 -5 -9 -12 0 -14 13 -4 23 3 4 11 7
17 6 6 0 5 -3 -2 -6z m55 -15 c-3 -8 -6 -5 -6 6 -1 11 2 17 5 13 3 -3 4 -12 1
-19z m-1505 -70 c-16 -16 -35 3 -26 26 6 16 8 16 22 2 13 -12 14 -18 4 -28z
m216 22 c55 0 72 -3 72 -14 0 -11 -13 -14 -53 -14 -30 1 -58 -1 -63 -5 -6 -3
-27 -2 -47 2 -24 6 -38 5 -42 -3 -3 -8 -7 -7 -11 2 -3 6 -10 10 -15 7 -5 -4
-6 1 -3 10 4 10 14 15 25 12 11 -3 19 -1 19 5 0 6 10 8 23 4 12 -3 55 -6 95
-6z m837 0 c4 -7 13 -7 26 0 17 9 19 7 19 -17 0 -20 -3 -24 -11 -16 -6 6 -18
9 -25 6 -8 -3 -14 1 -14 11 0 9 -4 16 -10 16 -5 0 -10 -12 -10 -26 0 -14 -4
-23 -9 -20 -13 8 -1 56 15 56 7 0 16 -5 19 -10z m145 -4 c0 -22 -11 -46 -21
-46 -5 0 -4 11 1 24 5 13 6 27 3 30 -4 3 -1 6 5 6 7 0 12 -6 12 -14z m-66 -8
c-5 -9 -2 -8 9 1 20 16 30 11 22 -11 -3 -8 -16 -14 -28 -13 -26 2 -37 35 -12
35 10 0 13 -5 9 -12z m158 1 c16 1 28 -1 28 -6 0 -14 -73 -9 -78 6 -3 10 0 11
9 5 8 -4 26 -7 41 -5z m178 -17 c0 -15 -2 -15 -10 -2 -13 20 -13 33 0 25 6 -3
10 -14 10 -23z m-76 3 c3 -8 1 -15 -4 -15 -6 0 -10 7 -10 15 0 8 2 15 4 15 2
0 6 -7 10 -15z m43 -7 c-3 -8 -6 -5 -6 6 -1 11 2 17 5 13 3 -3 4 -12 1 -19z
m100 7 c0 -8 -4 -12 -9 -9 -5 3 -6 10 -3 15 9 13 12 11 12 -6z m-505 -65 c-2
-16 -8 -28 -12 -25 -9 5 -1 55 9 55 4 0 6 -13 3 -30z m168 23 c-1 -21 -13 -52
-20 -48 -10 6 0 55 11 55 5 0 9 -3 9 -7z m-1190 -28 c0 -18 -5 -25 -20 -25
-15 0 -20 7 -20 25 0 18 5 25 20 25 15 0 20 -7 20 -25z m1090 10 c0 -9 -9 -13
-27 -11 -35 5 -35 4 -29 14 9 14 56 12 56 -3z m34 3 c-6 -10 -4 -10 7 0 18 16
29 15 29 -3 0 -10 -10 -15 -30 -15 -20 0 -30 5 -30 15 0 8 7 15 16 15 9 0 12
-5 8 -12z m158 1 c16 1 28 -1 28 -6 0 -16 -68 -14 -74 3 -4 10 -2 13 7 7 6 -4
24 -6 39 -4z m-1235 -31 c-3 -7 -5 -2 -5 12 0 14 2 19 5 13 2 -7 2 -19 0 -25z
m125 8 c4 -7 9 -5 13 5 9 23 115 21 115 -2 0 -13 -19 -15 -120 -16 -93 0 -120
2 -120 13 0 24 96 24 112 0z m1218 12 c0 6 5 12 11 12 8 0 8 -5 -1 -15 -17
-20 -30 -19 -30 3 0 14 2 15 10 2 6 -10 10 -11 10 -2z m64 4 c2 -4 -4 -9 -15
-9 -10 -1 -19 2 -19 8 0 11 27 12 34 1z m76 -2 c0 -5 -5 -10 -11 -10 -5 0 -7
5 -4 10 3 6 8 10 11 10 2 0 4 -4 4 -10z m1732 -15 c-2 -14 -6 -25 -8 -25 -2 0
-4 11 -4 25 0 14 4 25 9 25 4 0 6 -11 3 -25z m78 21 c0 -2 -3 -11 -6 -20 -9
-23 -23 -20 -21 4 1 11 7 20 14 20 7 0 13 -2 13 -4z m18 -32 c-14 -14 -15 -14
-10 11 3 19 8 23 15 16 8 -8 7 -16 -5 -27z m-58 11 c0 -8 -4 -15 -10 -15 -5 0
-10 7 -10 15 0 8 5 15 10 15 6 0 10 -7 10 -15z m3928 -1 c85 -35 131 -110 132
-212 0 -74 -17 -119 -67 -180 -97 -119 -296 -132 -394 -25 -65 69 -73 127 -33
228 40 99 110 170 194 196 43 13 129 10 168 -7z m-6195 -31 c-7 -2 -13 -16
-13 -29 0 -13 -4 -24 -10 -24 -5 0 -10 6 -10 14 0 27 12 46 29 45 10 0 11 -2
4 -6z m52 -41 c-3 -4 -10 0 -14 7 -6 9 -11 10 -15 2 -4 -6 -12 -9 -17 -6 -16
10 -10 21 19 31 23 8 27 7 30 -9 2 -10 1 -22 -3 -25z m105 41 c-1 -21 -13 -53
-21 -53 -5 0 -4 11 1 24 5 13 6 27 3 30 -4 3 -1 6 5 6 7 0 12 -3 12 -7z m-67
-23 c-3 -11 -9 -20 -14 -20 -5 0 -9 9 -9 20 0 11 6 20 14 20 9 0 12 -7 9 -20z
m30 -5 c-3 -8 -9 -15 -14 -15 -10 0 -12 24 -3 33 11 11 24 -3 17 -18z m129 14
c22 2 28 -2 27 -16 0 -10 -3 -13 -6 -5 -6 15 -35 16 -51 0 -9 -9 -12 -9 -12 1
0 7 -4 9 -10 6 -6 -3 -7 1 -4 9 3 9 11 13 18 9 6 -4 23 -6 38 -4z m152 -14 c3
-8 1 -15 -4 -15 -6 0 -10 7 -10 15 0 8 2 15 4 15 2 0 6 -7 10 -15z m93 0 c0
-8 -4 -15 -9 -15 -10 0 -11 14 -1 23 9 10 10 9 10 -8z m1735 -11 c-3 -17 -7
-22 -12 -13 -9 13 -2 39 10 39 4 0 5 -12 2 -26z m74 9 c-4 -24 -21 -27 -23 -3
-1 11 4 20 12 20 7 0 12 -8 11 -17z m22 -19 c-14 -14 -15 -14 -10 11 3 19 8
23 15 16 8 -8 7 -16 -5 -27z m-1960 11 c3 -3 -7 -5 -21 -5 -15 0 -27 4 -27 9
0 10 38 7 48 -4z m1902 2 c0 -8 -6 -14 -14 -14 -8 0 -12 6 -9 14 3 7 9 13 14
13 5 0 9 -6 9 -13z m-3550 -22 c0 -8 -7 -15 -15 -15 -8 0 -15 7 -15 15 0 8 7
15 15 15 8 0 15 -7 15 -15z m983 -57 c8 -5 6 -8 -5 -8 -14 0 -18 8 -17 38 2
34 2 34 6 7 3 -16 10 -33 16 -37z m-731 39 c5 -8 8 -8 8 -1 0 7 17 12 38 12
31 1 38 -3 38 -19 0 -17 -8 -19 -63 -19 -44 0 -63 4 -63 13 0 8 -3 8 -8 2 -17
-25 -83 -12 -68 13 8 13 109 13 118 -1z m-161 -20 c-10 -9 -11 -8 -5 6 3 10 9
15 12 12 3 -3 0 -11 -7 -18z m-482 -113 c36 -129 -127 -217 -232 -126 -17 15
-16 17 10 38 25 20 29 20 50 7 30 -20 62 -13 86 19 17 23 19 33 11 55 -8 23
-6 33 10 55 21 26 21 26 38 6 10 -11 22 -35 27 -54z m321 56 c0 -5 7 -7 15 -4
20 8 19 -6 -2 -22 -25 -19 -28 -17 -28 11 0 14 3 25 8 25 4 0 7 -4 7 -10z
m588 -14 c2 -10 -2 -23 -8 -30 -9 -8 -11 -6 -6 11 4 12 3 24 -2 27 -6 3 -9 -2
-8 -11 0 -9 -5 -18 -11 -20 -8 -3 -13 4 -13 15 0 34 42 40 48 8z m112 -23 c0
-7 -7 -13 -15 -13 -8 0 -15 5 -15 11 0 5 -5 7 -10 4 -6 -4 -5 5 2 20 11 25 13
25 25 9 7 -10 13 -24 13 -31z m161 8 c-14 -25 -27 -27 -35 -4 -5 11 -1 22 10
30 24 18 39 1 25 -26z m-668 20 c4 -1 7 -5 7 -11 0 -6 -32 -10 -75 -10 -67 0
-86 6 -70 22 5 5 105 4 138 -1z m140 -6 c-1 -5 -8 -14 -17 -20 -18 -11 -42 7
-31 25 8 13 51 9 48 -5z m42 -3 c0 -18 -20 -15 -23 4 -3 10 1 15 10 12 7 -3
13 -10 13 -16z m65 4 c0 -8 -4 -17 -9 -21 -6 -3 -9 4 -8 15 1 23 17 28 17 6z
m195 -6 c0 -7 -6 -15 -12 -17 -8 -3 -13 4 -13 17 0 13 5 20 13 18 6 -3 12 -11
12 -18z m108 0 c-3 -11 -7 -20 -8 -20 -1 0 -5 9 -8 20 -3 12 0 20 8 20 8 0 11
-8 8 -20z m291 13 c4 -4 25 -6 46 -4 22 1 40 -2 40 -8 0 -17 -22 -24 -31 -10
-6 10 -9 11 -9 2 0 -9 -15 -13 -43 -13 -36 0 -43 3 -44 20 -2 20 25 28 41 13z
m-134 -14 c0 -8 4 -8 14 1 17 13 62 10 59 -5 -2 -5 -23 -11 -48 -12 -34 -2
-45 1 -45 12 0 8 5 15 10 15 6 0 10 -5 10 -11z m1774 -1 c-6 -10 -5 -10 7 -1
12 10 17 8 27 -8 11 -17 9 -19 -18 -19 -23 0 -30 4 -30 20 0 11 5 20 11 20 5
0 7 -6 3 -12z m136 -10 c0 -14 -8 -18 -34 -18 -34 0 -52 12 -42 28 2 4 21 8
40 8 28 0 36 -4 36 -18z m210 11 c43 1 57 -2 57 -13 0 -11 -18 -15 -69 -18
-89 -4 -98 0 -89 38 0 3 11 2 23 -2 12 -3 47 -6 78 -5z m100 -9 c0 -11 -6 -20
-14 -20 -9 0 -12 7 -9 20 3 11 9 20 14 20 5 0 9 -9 9 -20z m150 10 c-13 -8
-13 -10 2 -10 9 0 20 5 23 10 10 17 25 11 25 -10 0 -16 -6 -20 -32 -18 -18 2
-36 10 -40 18 -5 12 -7 10 -8 -5 l-1 -20 -9 20 c-7 17 -9 17 -9 3 -1 -10 -8
-18 -16 -18 -8 0 -15 8 -15 18 0 13 2 14 9 4 7 -11 9 -11 14 2 4 10 18 16 39
16 25 0 29 -3 18 -10z m166 -7 c-4 -25 -46 -30 -46 -6 0 14 2 15 9 5 7 -11 9
-11 14 2 9 22 26 20 23 -1z m81 -20 c-3 -10 -5 -4 -5 12 0 17 2 24 5 18 2 -7
2 -21 0 -30z m391 23 c30 2 42 -1 42 -10 0 -19 -18 -24 -70 -19 -52 5 -55 7
-46 29 4 11 10 13 19 6 6 -5 31 -8 55 -6z m486 5 c3 -4 -6 -6 -19 -3 -14 2
-25 6 -25 8 0 8 39 4 44 -5z m126 -15 c0 -24 -23 -41 -41 -30 -10 6 -12 38 -2
47 3 4 15 7 25 7 12 0 18 -7 18 -24z m-1910 2 c0 6 7 12 15 12 8 0 15 -8 15
-17 0 -15 -2 -16 -10 -3 -6 10 -10 11 -10 3 0 -7 -7 -13 -15 -13 -8 0 -15 8
-15 18 0 14 2 15 10 2 6 -10 10 -11 10 -2z m230 -3 c0 -8 -2 -15 -4 -15 -2 0
-6 7 -10 15 -3 8 -1 15 4 15 6 0 10 -7 10 -15z m720 -17 c0 -5 -7 -8 -15 -8
-17 0 -18 2 -9 25 5 13 8 14 15 3 5 -7 9 -16 9 -20z m250 17 c0 -19 -15 -21
-122 -17 -68 3 -95 7 -92 15 7 18 214 20 214 2z m248 -11 c-11 -11 -18 -12
-22 -5 -4 6 0 11 8 11 9 0 16 5 16 12 0 6 3 8 7 4 4 -3 0 -14 -9 -22z m210 11
c12 -12 -12 -19 -61 -18 -105 1 -117 3 -117 17 0 10 19 12 86 10 48 -2 89 -6
92 -9z m117 -4 c3 -5 -4 -13 -16 -16 -23 -8 -34 -1 -24 14 8 13 32 14 40 2z
m518 -7 c27 -6 28 -7 7 -21 -20 -14 -27 -57 -12 -80 12 -19 55 -31 79 -22 24
9 38 47 30 80 -5 19 -3 20 31 14 39 -7 55 -22 47 -43 -3 -8 -5 -23 -5 -34 0
-52 -101 -110 -164 -94 -40 10 -85 55 -97 97 -10 33 -9 45 6 79 13 28 23 39
34 36 9 -3 29 -8 44 -12z m1587 -264 c0 -22 -2 -40 -4 -40 -2 0 -14 16 -26 35
-26 43 -21 72 10 55 15 -8 20 -21 20 -50z m-643 -66 c-3 -3 -12 -4 -19 -1 -8
3 -5 6 6 6 11 1 17 -2 13 -5z m-6337 -24 c0 -10 10 -25 22 -31 18 -10 24 -8
39 10 21 26 51 29 42 4 -12 -34 -36 -53 -67 -53 -37 0 -49 7 -65 37 -17 33
-14 53 9 53 13 0 20 -7 20 -20z m5853 3 c-13 -2 -35 -2 -50 0 -16 2 -5 4 22 4
28 0 40 -2 28 -4z m245 0 c-15 -2 -42 -2 -60 0 -18 2 -6 4 27 4 33 0 48 -2 33
-4z m-698 -34 c7 -29 56 -40 66 -15 8 20 34 21 34 2 0 -8 -7 -22 -16 -30 -45
-46 -114 -21 -114 40 0 41 21 43 30 3z m1704 -41 c-4 -40 -8 -75 -10 -77 -2
-2 -4 30 -4 72 0 45 4 77 10 77 6 0 8 -26 4 -72z m-3896 -105 c-16 -2 -40 -2
-55 0 -16 2 -3 4 27 4 30 0 43 -2 28 -4z m4752 -130 c-61 -54 -80 -100 -31
-73 12 6 21 8 21 6 0 -3 -14 -13 -32 -22 -29 -15 -32 -15 -42 2 -29 49 -35 73
-22 83 20 17 88 40 119 40 l27 1 -40 -37z m-5372 -90 c-10 -2 -26 -2 -35 0
-10 3 -2 5 17 5 19 0 27 -2 18 -5z m537 -63 c-46 -12 -167 -12 -160 0 3 6 46
9 98 9 64 -1 83 -4 62 -9z m265 -190 c0 -5 -7 -10 -15 -10 -8 0 -15 5 -15 10
0 6 7 10 15 10 8 0 15 -4 15 -10z m-140 -4 c0 -11 -19 -15 -25 -6 -3 5 1 10 9
10 9 0 16 -2 16 -4z m2014 -42 c6 -10 12 -21 14 -24 2 -2 7 2 12 10 7 10 10
11 10 3 0 -7 5 -13 11 -13 5 0 7 5 4 10 -3 6 -1 10 4 10 6 0 11 -12 12 -27 0
-16 2 -36 4 -45 2 -11 -2 -15 -11 -11 -8 3 -14 -1 -14 -10 0 -8 -9 -17 -21
-20 -15 -4 -23 1 -31 19 -6 13 -19 26 -29 29 -22 7 -21 54 1 73 13 10 12 11
-5 6 -16 -5 -17 -4 -5 5 19 14 31 10 44 -15z m-1521 -1 c-13 -2 -35 -2 -50 0
-16 2 -5 4 22 4 28 0 40 -2 28 -4z m-83 -13 c0 -5 -23 -10 -51 -10 -31 0 -48
4 -44 10 3 6 26 10 51 10 24 0 44 -4 44 -10z m1735 -10 c3 -5 -1 -10 -9 -10
-8 0 -18 5 -21 10 -3 6 1 10 9 10 8 0 18 -4 21 -10z m-1595 -44 c0 -2 -13 -6
-30 -8 -16 -3 -30 -1 -30 4 0 4 14 8 30 8 17 0 30 -2 30 -4z m-1202 -43 c2 -9
-10 -13 -42 -13 -35 0 -46 4 -46 16 0 12 9 14 42 12 23 -2 43 -9 46 -15z m282
-9 c0 -12 -9 -14 -42 -12 -59 4 -63 28 -4 28 35 0 46 -4 46 -16z m793 -1 c-7
-2 -21 -2 -30 0 -10 3 -4 5 12 5 17 0 24 -2 18 -5z m522 -33 c3 -5 -1 -10 -9
-10 -8 0 -18 5 -21 10 -3 6 1 10 9 10 8 0 18 -4 21 -10z m-558 -36 c-3 -3 -12
-4 -19 -1 -8 3 -5 6 6 6 11 1 17 -2 13 -5z m1821 -21 c-16 -2 -40 -2 -55 0
-16 2 -3 4 27 4 30 0 43 -2 28 -4z m-233 -33 c4 -6 -7 -10 -27 -9 -31 1 -32 1
-8 9 14 4 26 8 27 9 1 1 5 -3 8 -9z m-3217 -12 c-3 -8 -28 -14 -66 -16 -51 -2
-62 0 -62 13 0 12 13 15 66 15 48 0 65 -3 62 -12z m182 -3 c0 -12 -14 -15 -65
-15 -51 0 -65 3 -65 15 0 12 14 15 65 15 51 0 65 -3 65 -15z m210 0 c0 -12
-15 -15 -75 -15 -60 0 -75 3 -75 15 0 12 15 15 75 15 60 0 75 -3 75 -15z m200
0 c0 -11 -12 -15 -45 -15 -33 0 -45 4 -45 15 0 11 12 15 45 15 33 0 45 -4 45
-15z m140 0 c0 -11 -12 -15 -45 -15 -33 0 -45 4 -45 15 0 11 12 15 45 15 33 0
45 -4 45 -15z m150 0 c0 -11 -12 -15 -50 -15 -38 0 -50 4 -50 15 0 11 12 15
50 15 38 0 50 -4 50 -15z m320 0 c0 -12 -18 -15 -105 -15 -87 0 -105 3 -105
15 0 12 18 15 105 15 87 0 105 -3 105 -15z m158 -2 c2 -9 -11 -13 -47 -13 -48
0 -61 7 -44 24 12 11 86 2 91 -11z m142 2 c0 -11 -12 -15 -45 -15 -33 0 -45 4
-45 15 0 11 12 15 45 15 33 0 45 -4 45 -15z m907 -11 c-3 -3 -12 -4 -19 -1 -8
3 -5 6 6 6 11 1 17 -2 13 -5z m-337 -64 c0 -5 -4 -10 -10 -10 -5 0 -10 5 -10
10 0 6 5 10 10 10 6 0 10 -4 10 -10z m-163 -36 c-3 -3 -12 -4 -19 -1 -8 3 -5
6 6 6 11 1 17 -2 13 -5z m300 -40 c-3 -3 -12 -4 -19 -1 -8 3 -5 6 6 6 11 1 17
-2 13 -5z m-581 -173 c90 -41 107 -94 102 -325 -3 -151 -5 -175 -24 -206 -57
-97 -191 -115 -270 -36 -45 45 -54 89 -54 271 1 211 17 256 105 296 51 23 89
23 141 0z"/>
<path d="M13200 8882 c0 -30 4 -52 11 -52 7 0 8 16 3 48 -9 64 -14 66 -14 4z"/>
<path d="M13248 8923 c7 -3 16 -2 19 1 4 3 -2 6 -13 5 -11 0 -14 -3 -6 -6z"/>
<path d="M13313 8865 c0 -22 2 -30 4 -17 2 12 2 30 0 40 -3 9 -5 -1 -4 -23z"/>
<path d="M13658 8983 c7 -3 16 -2 19 1 4 3 -2 6 -13 5 -11 0 -14 -3 -6 -6z"/>
<path d="M13572 8895 c0 -16 2 -22 5 -12 2 9 2 23 0 30 -3 6 -5 -1 -5 -18z"/>
<path d="M13751 8894 c0 -11 3 -14 6 -6 3 7 2 16 -1 19 -3 4 -6 -2 -5 -13z"/>
<path d="M13600 8858 c0 -2 11 -14 25 -26 25 -22 25 -22 25 -1 0 11 -4 17 -10
14 -6 -4 -17 -1 -25 5 -8 7 -15 10 -15 8z"/>
<path d="M13682 8830 c0 -14 2 -19 5 -12 2 6 2 18 0 25 -3 6 -5 1 -5 -13z"/>
<path d="M14148 8970 c12 -5 22 -17 23 -27 0 -11 3 -13 6 -5 7 17 -15 42 -36
41 -11 0 -9 -3 7 -9z"/>
<path d="M14035 8949 c-4 -6 -5 -12 -2 -15 2 -3 7 2 10 11 7 17 1 20 -8 4z"/>
<path d="M14140 8950 c0 -5 5 -10 11 -10 5 0 7 5 4 10 -3 6 -8 10 -11 10 -2 0
-4 -4 -4 -10z"/>
<path d="M14060 8925 c-7 -9 -11 -17 -9 -20 3 -2 10 5 17 15 14 24 10 26 -8 5z"/>
<path d="M14121 8923 c7 -12 15 -20 18 -17 3 2 -3 12 -13 22 -17 16 -18 16 -5
-5z"/>
<path d="M14050 8881 c0 -10 29 -36 34 -30 1 2 -6 12 -16 22 -10 9 -18 13 -18
8z"/>
<path d="M14118 8868 c-10 -10 -14 -18 -9 -18 10 0 36 29 30 34 -2 1 -12 -6
-21 -16z"/>
<path d="M14030 8851 c0 -6 4 -13 10 -16 6 -3 7 1 4 9 -7 18 -14 21 -14 7z"/>
<path d="M14171 8848 c-1 -9 -9 -22 -18 -27 -10 -6 -13 -11 -7 -11 17 0 37 27
31 42 -4 8 -6 7 -6 -4z"/>
<path d="M14502 8940 c0 -14 2 -19 5 -12 2 6 2 18 0 25 -3 6 -5 1 -5 -13z"/>
<path d="M14560 8906 c0 -8 -6 -17 -12 -19 -8 -3 -6 -6 5 -6 11 -1 17 6 17 19
0 11 -2 20 -5 20 -3 0 -5 -6 -5 -14z"/>
<path d="M14487 8883 c6 -4 13 -24 16 -43 4 -34 4 -33 3 4 -1 26 -6 41 -16 43
-10 3 -11 2 -3 -4z"/>
<path d="M3370 8983 c0 -22 2 -25 10 -13 13 20 13 40 0 40 -5 0 -10 -12 -10
-27z"/>
<path d="M5030 8920 c0 -11 7 -20 15 -20 8 0 15 9 15 20 0 11 -7 20 -15 20 -8
0 -15 -9 -15 -20z"/>
<path d="M3700 8935 c0 -8 4 -15 10 -15 5 0 7 7 4 15 -4 8 -8 15 -10 15 -2 0
-4 -7 -4 -15z"/>
<path d="M5405 8930 c-8 -14 3 -30 21 -30 8 0 14 9 14 20 0 21 -24 28 -35 10z"/>
<path d="M3970 8920 c0 -11 7 -20 15 -20 8 0 15 9 15 20 0 11 -7 20 -15 20 -8
0 -15 -9 -15 -20z"/>
<path d="M4490 8919 c0 -24 23 -21 28 4 2 10 -3 17 -12 17 -10 0 -16 -9 -16
-21z"/>
<path d="M4798 8933 c7 -3 16 -2 19 1 4 3 -2 6 -13 5 -11 0 -14 -3 -6 -6z"/>
<path d="M4798 8903 c7 -3 16 -2 19 1 4 3 -2 6 -13 5 -11 0 -14 -3 -6 -6z"/>
<path d="M5708 8933 c7 -3 16 -2 19 1 4 3 -2 6 -13 5 -11 0 -14 -3 -6 -6z"/>
<path d="M5708 8903 c7 -3 16 -2 19 1 4 3 -2 6 -13 5 -11 0 -14 -3 -6 -6z"/>
<path d="M7259 7853 c-12 -38 -24 -74 -27 -80 -3 -10 11 -13 52 -13 31 0 56 3
56 8 0 20 -44 152 -51 152 -4 0 -17 -30 -30 -67z"/>
<path d="M4466 7074 c-19 -18 -21 -65 -4 -82 7 -7 21 -12 33 -12 29 0 45 19
45 51 0 29 -23 59 -45 59 -7 0 -21 -7 -29 -16z"/>
<path d="M4666 7074 c-23 -22 -21 -24 31 -24 45 0 46 0 28 20 -22 24 -38 25
-59 4z"/>
<path d="M5028 7079 c-30 -17 -20 -29 22 -29 41 0 49 7 28 28 -14 14 -27 15
-50 1z"/>
<path d="M5290 7070 c-23 -23 -24 -29 -10 -64 7 -18 17 -26 34 -26 25 0 56 32
56 57 0 15 -36 53 -50 53 -5 0 -19 -9 -30 -20z"/>
<path d="M5498 7078 c-36 -29 -21 -98 22 -98 47 0 67 67 28 94 -27 19 -30 19
-50 4z"/>
<path d="M6116 7074 c-23 -22 -21 -24 31 -24 45 0 46 0 28 20 -22 24 -38 25
-59 4z"/>
<path d="M6882 7078 c-21 -21 -13 -28 28 -28 43 0 52 13 21 30 -25 13 -34 13
-49 -2z"/>
<path d="M7292 7083 c-7 -3 -18 -16 -23 -30 -12 -31 11 -73 41 -73 47 0 67 67
28 94 -24 17 -26 17 -46 9z"/>
<path d="M7668 7079 c-30 -17 -20 -29 22 -29 41 0 49 7 28 28 -14 14 -27 15
-50 1z"/>
<path d="M4706 6674 c-19 -18 -21 -65 -4 -82 7 -7 21 -12 33 -12 29 0 45 19
45 51 0 29 -23 59 -45 59 -7 0 -21 -7 -29 -16z"/>
<path d="M5430 6670 c-11 -11 -20 -26 -20 -33 0 -22 30 -57 50 -57 24 0 50 26
50 51 0 20 -33 59 -50 59 -5 0 -19 -9 -30 -20z"/>
<path d="M4312 6674 c-24 -16 -28 -44 -12 -75 13 -23 52 -25 70 -4 18 22 15
66 -6 82 -23 16 -25 16 -52 -3z"/>
<path d="M5238 6679 c-30 -17 -20 -29 22 -29 41 0 49 7 28 28 -14 14 -27 15
-50 1z"/>
<path d="M5699 6669 c-15 -15 -19 -28 -14 -47 11 -45 49 -56 78 -24 22 25 21
48 -3 72 -25 25 -35 25 -61 -1z"/>
<path d="M5917 6672 c-33 -36 -16 -92 28 -92 30 0 45 19 45 57 0 22 -6 36 -19
43 -27 14 -35 13 -54 -8z"/>
<path d="M6122 6674 c-38 -27 -22 -94 23 -94 34 0 59 39 46 72 -5 14 -17 28
-26 32 -21 8 -17 9 -43 -10z"/>
<path d="M6649 6669 c-15 -15 -19 -28 -14 -47 11 -45 49 -56 78 -24 22 25 21
48 -3 72 -25 25 -35 25 -61 -1z"/>
<path d="M7046 6674 c-19 -18 -21 -65 -4 -82 7 -7 21 -12 33 -12 47 0 63 66
23 94 -28 20 -33 20 -52 0z"/>
<path d="M6550 5155 c0 -20 5 -25 25 -25 28 0 32 14 11 36 -22 21 -36 17 -36
-11z"/>
<path d="M6531 5128 c-1 -23 3 -28 22 -27 15 1 17 3 5 6 -9 2 -19 14 -21 26
-4 18 -5 17 -6 -5z"/>
<path d="M10920 5125 c0 -8 5 -15 10 -15 6 0 10 7 10 15 0 8 -4 15 -10 15 -5
0 -10 -7 -10 -15z"/>
<path d="M10951 5124 c0 -11 3 -14 6 -6 3 7 2 16 -1 19 -3 4 -6 -2 -5 -13z"/>
<path d="M8160 4850 c0 -5 5 -10 11 -10 5 0 7 5 4 10 -3 6 -8 10 -11 10 -2 0
-4 -4 -4 -10z"/>
<path d="M13984 3689 c-30 -8 -72 -47 -93 -86 -13 -26 -2 -37 18 -19 16 13
157 46 199 46 29 0 18 26 -17 44 -39 20 -73 25 -107 15z"/>
<path d="M14043 3561 c-40 -29 -63 -71 -38 -71 7 0 24 10 39 21 15 12 30 19
33 16 13 -14 -9 -38 -55 -61 -49 -25 -49 -25 -71 -5 -12 12 -21 32 -21 49 0
27 -3 30 -31 30 -30 0 -31 -1 -25 -32 12 -62 74 -116 134 -118 32 0 96 35 121
67 31 38 24 65 -19 77 -32 9 -33 10 -10 14 35 5 49 20 30 32 -25 16 -45 11
-87 -19z"/>
<path d="M13412 3738 c-18 -18 -14 -46 7 -58 30 -15 40 -12 53 15 19 41 -28
75 -60 43z"/>
<path d="M10720 3440 c0 -19 3 -21 12 -12 9 9 9 15 0 24 -9 9 -12 7 -12 -12z"/>
<path d="M10751 3444 c0 -11 3 -14 6 -6 3 7 2 16 -1 19 -3 4 -6 -2 -5 -13z"/>
<path d="M10190 3199 c0 -5 5 -7 10 -4 6 3 10 8 10 11 0 2 -4 4 -10 4 -5 0
-10 -5 -10 -11z"/>
<path d="M13933 2818 c-27 -16 -73 -76 -73 -96 0 -12 3 -12 23 0 12 8 40 18
62 21 22 4 62 11 89 17 37 7 53 7 64 -3 13 -10 14 -9 5 8 -21 39 -52 58 -100
62 -28 2 -57 -2 -70 -9z"/>
<path d="M14024 2705 c-42 -25 -76 -75 -51 -75 7 0 22 7 33 15 24 18 44 19 44
3 0 -7 -23 -25 -50 -41 -58 -31 -86 -25 -96 21 -10 49 -13 52 -40 52 -24 0
-26 -2 -20 -32 25 -125 166 -158 250 -58 36 43 34 67 -6 78 l-33 9 28 11 c25
11 38 32 18 32 -5 0 -15 2 -23 5 -7 3 -31 -6 -54 -20z"/>
<path d="M6830 2700 c0 -5 5 -10 10 -10 6 0 10 5 10 10 0 6 -4 10 -10 10 -5 0
-10 -4 -10 -10z"/>
<path d="M11010 2680 c0 -5 7 -10 16 -10 8 0 12 5 9 10 -3 6 -10 10 -16 10 -5
0 -9 -4 -9 -10z"/>
<path d="M11320 1529 c0 -5 5 -7 10 -4 6 3 10 8 10 11 0 2 -4 4 -10 4 -5 0
-10 -5 -10 -11z"/>
<path d="M9533 1000 c-57 -34 -63 -59 -63 -260 0 -201 6 -226 63 -260 64 -40
158 -15 192 49 12 24 15 67 15 213 0 164 -2 186 -20 215 -37 62 -124 82 -187
43z m113 -326 c32 -48 -10 -103 -63 -83 -30 11 -40 53 -19 84 22 33 60 33 82
-1z"/>
</g>
</svg>
