<?xml version="1.0" standalone="no"?>
<!DOCTYPE svg PUBLIC "-//W3C//DTD SVG 20010904//EN"
 "http://www.w3.org/TR/2001/REC-SVG-20010904/DTD/svg10.dtd">
<svg version="1.0" xmlns="http://www.w3.org/2000/svg"
 width="1901.000000pt" height="923.000000pt" viewBox="0 0 1901.000000 923.000000"
 preserveAspectRatio="xMidYMid meet">

<g transform="translate(0.000000,923.000000) scale(0.100000,-0.100000)"
fill="#000000" stroke="none">
<path d="M0 4615 l0 -4615 9505 0 9505 0 0 4615 0 4615 -9505 0 -9505 0 0
-4615z m3320 4348 c0 -33 -5 -40 -33 -53 -59 -28 -62 -110 -4 -138 39 -19 78
-4 97 36 13 27 20 32 53 32 32 0 37 -3 37 -24 0 -64 -106 -145 -173 -132 -46
9 -94 41 -117 78 -27 45 -27 120 1 165 22 36 80 72 117 73 19 0 22 -5 22 -37z
m11380 -113 l0 -60 -33 0 c-38 0 -57 15 -57 46 0 28 24 48 50 41 15 -4 20 0
20 14 0 10 5 19 10 19 6 0 10 -27 10 -60z m820 0 c0 -33 -4 -60 -10 -60 -6 0
-10 27 -10 60 0 33 4 60 10 60 6 0 10 -27 10 -60z m45 50 c-3 -5 -10 -10 -16
-10 -5 0 -9 5 -9 10 0 6 7 10 16 10 8 0 12 -4 9 -10z m-3155 -25 c0 -20 5 -25
25 -25 20 0 25 5 25 25 0 14 5 25 10 25 6 0 10 -25 10 -55 0 -30 -4 -55 -10
-55 -5 0 -10 11 -10 25 0 20 -5 25 -25 25 -20 0 -25 -5 -25 -25 0 -14 -4 -25
-10 -25 -5 0 -10 25 -10 55 0 30 5 55 10 55 6 0 10 -11 10 -25z m908 18 c-36
-5 -40 -42 -5 -44 l22 -2 -22 -4 c-16 -3 -23 -11 -23 -29 0 -13 -4 -24 -10
-24 -5 0 -10 25 -10 55 l0 55 38 -1 c30 -2 32 -3 10 -6z m270 -10 c12 -12 13
-18 4 -21 -16 -5 -16 -59 1 -65 6 -3 2 -6 -9 -6 -18 -1 -23 6 -26 42 -5 40 -1
67 9 67 2 0 12 -8 21 -17z m848 -5 c7 -22 -16 -48 -43 -48 -7 0 -13 -9 -13
-20 0 -11 -4 -20 -10 -20 -5 0 -10 25 -10 55 l0 55 34 0 c27 0 36 -5 42 -22z
m504 12 c0 -5 8 -10 18 -10 16 -1 16 -1 0 -14 -10 -7 -18 -23 -18 -34 0 -12 8
-26 18 -32 15 -9 14 -10 -8 -8 -21 3 -26 9 -30 44 -3 23 -4 46 -2 53 5 14 22
15 22 1z m540 -5 c10 -12 10 -15 -2 -15 -8 0 -19 5 -25 11 -20 20 -53 1 -53
-30 0 -39 22 -56 50 -41 25 13 42 4 20 -10 -23 -15 -66 -12 -80 5 -7 8 -12 26
-12 40 0 14 5 32 12 40 16 19 74 19 90 0z m338 -2 c12 -12 13 -18 4 -21 -16
-5 -16 -59 1 -65 6 -3 2 -6 -9 -6 -18 -1 -23 6 -26 42 -5 40 -1 67 9 67 2 0
12 -8 21 -17z m-12464 -14 c11 -16 12 -27 4 -45 -20 -42 -66 -43 -86 0 -14 31
9 66 43 66 13 0 31 -10 39 -21z m897 -31 c0 -42 0 -42 16 -20 8 12 22 22 31
22 12 0 11 -5 -6 -23 l-22 -23 22 -22 c18 -18 19 -22 6 -22 -8 0 -23 10 -31
23 l-16 22 0 -22 c-1 -13 -5 -23 -11 -23 -6 0 -10 28 -10 65 0 37 4 65 10 65
6 0 10 -19 11 -42z m8331 16 c17 -36 0 -59 -42 -59 -24 0 -35 6 -41 21 -19 53
60 90 83 38z m156 14 c14 -12 16 -78 2 -78 -5 0 -10 16 -10 35 0 28 -4 35 -20
35 -16 0 -20 -7 -20 -35 0 -44 -18 -46 -22 -2 -2 24 -8 32 -23 32 -15 0 -21
-8 -23 -32 -5 -49 -22 -40 -22 11 l0 43 63 0 c34 0 68 -4 75 -9z m96 6 c9 -3
16 -15 16 -25 0 -15 -7 -19 -37 -19 -35 0 -36 -1 -21 -17 14 -14 20 -14 33 -3
17 14 31 8 20 -9 -3 -6 -20 -11 -36 -11 -21 0 -32 7 -40 24 -21 45 16 79 65
60z m580 0 c9 -3 16 -15 16 -25 0 -15 -7 -19 -37 -19 -35 0 -36 -1 -21 -17 14
-14 20 -14 33 -3 17 14 31 8 20 -9 -3 -6 -20 -11 -36 -11 -21 0 -32 7 -40 24
-21 45 16 79 65 60z m126 -39 l0 -42 -40 -1 c-34 -2 -42 2 -51 22 -18 39 3 66
51 64 40 -1 40 -1 40 -43z m90 16 c0 -35 21 -56 38 -39 7 7 12 25 12 40 0 15
5 28 10 28 6 0 10 -20 10 -45 0 -44 -1 -45 -33 -45 -18 0 -38 5 -45 12 -14 14
-16 78 -2 78 6 0 10 -13 10 -29z m130 19 c0 -5 -4 -10 -10 -10 -5 0 -10 -16
-10 -35 0 -24 -5 -35 -15 -35 -11 0 -15 12 -15 45 0 41 2 45 25 45 14 0 25 -4
25 -10z m88 -2 c23 -23 13 -38 -23 -38 -19 0 -35 -4 -35 -9 0 -14 32 -23 44
-11 16 16 30 12 16 -5 -26 -32 -80 -12 -80 30 0 27 18 45 45 45 12 0 26 -5 33
-12z m90 -6 c3 -9 -3 -11 -22 -6 -34 8 -34 -4 0 -16 32 -12 29 -44 -5 -48 -25
-4 -50 13 -38 25 4 4 13 1 19 -5 15 -15 28 -15 28 -2 0 6 -11 15 -25 20 -24 9
-32 29 -18 44 11 11 56 2 61 -12z m562 8 c0 -5 -7 -10 -15 -10 -10 0 -15 -11
-15 -35 0 -19 -4 -35 -10 -35 -5 0 -10 20 -10 45 0 41 2 45 25 45 14 0 25 -4
25 -10z m92 -16 c17 -36 0 -59 -42 -59 -24 0 -35 6 -41 21 -19 53 60 90 83 38z
m148 -3 c0 -35 21 -56 38 -39 7 7 12 25 12 40 0 15 5 28 10 28 6 0 10 -20 10
-45 0 -44 -1 -45 -33 -45 -18 0 -38 5 -45 12 -14 14 -16 78 -2 78 6 0 10 -13
10 -29z m160 14 c11 -13 8 -15 -21 -13 -26 2 -34 -1 -37 -16 -5 -24 17 -37 39
-25 26 13 33 11 19 -6 -26 -32 -80 -12 -80 30 0 42 54 62 80 30z m660 -30 c0
-25 -4 -45 -10 -45 -5 0 -10 20 -10 45 0 25 5 45 10 45 6 0 10 -20 10 -45z
m98 33 c23 -23 13 -38 -23 -38 -34 0 -46 -12 -24 -26 6 -3 16 -1 22 5 6 6 17
11 25 11 12 0 12 -3 2 -15 -26 -32 -80 -12 -80 30 0 27 18 45 45 45 12 0 26
-5 33 -12z m102 -14 c14 -37 12 -64 -5 -64 -10 0 -15 11 -15 35 0 28 -4 35
-20 35 -16 0 -20 -7 -20 -35 0 -19 -4 -35 -10 -35 -5 0 -10 20 -10 45 0 45 0
45 35 45 29 0 37 -5 45 -26z m148 8 c3 -9 -3 -11 -22 -6 -34 8 -34 -4 0 -16
32 -12 29 -44 -5 -48 -25 -4 -50 13 -38 25 4 4 13 1 19 -5 15 -15 28 -15 28
-2 0 6 -11 15 -25 20 -24 9 -32 29 -18 44 11 11 56 2 61 -12z m-12358 -17 c0
-20 5 -25 25 -25 20 0 25 5 25 25 0 16 6 25 15 25 12 0 15 -14 15 -65 0 -51
-3 -65 -15 -65 -10 0 -15 10 -15 30 0 25 -4 30 -25 30 -21 0 -25 -5 -25 -30 0
-20 -5 -30 -15 -30 -12 0 -15 14 -15 65 0 51 3 65 15 65 9 0 15 -9 15 -25z
m414 1 c8 -14 8 -20 -1 -23 -9 -3 -10 -9 -1 -22 19 -31 3 -51 -42 -51 l-40 0
0 61 0 60 36 -3 c23 -2 41 -10 48 -22z m-223 -27 c8 -16 8 -28 0 -46 -9 -20
-17 -24 -47 -21 -41 3 -57 28 -43 66 12 31 73 32 90 1z m107 9 c7 -7 12 -21
12 -33 0 -29 -19 -45 -52 -45 -36 0 -56 36 -39 69 13 23 59 29 79 9z m208 0
c5 -7 2 -9 -9 -5 -19 7 -41 -17 -33 -38 3 -8 15 -15 26 -15 12 0 18 -4 15 -10
-11 -19 -53 -11 -60 11 -12 36 3 69 30 69 13 0 27 -5 31 -12z m34 -33 c0 -25
-4 -45 -9 -45 -12 0 -19 21 -16 50 4 39 4 40 15 40 6 0 10 -20 10 -45z m114
22 c10 -39 7 -67 -9 -67 -10 0 -15 11 -15 35 0 28 -4 35 -20 35 -16 0 -20 -7
-20 -35 0 -24 -5 -35 -15 -35 -11 0 -15 12 -15 44 l0 43 44 1 c37 1 45 -2 50
-21z m6448 -1028 c177 -37 327 -179 373 -354 65 -250 -91 -515 -340 -580 -170
-44 -342 2 -465 125 -119 120 -164 281 -125 449 59 249 310 411 557 360z
m2270 -532 c40 -20 145 -78 233 -130 88 -52 264 -154 390 -227 640 -370 633
-366 641 -398 10 -37 -18 -64 -147 -138 -274 -156 -414 -238 -424 -246 -9 -8
-161 -96 -605 -351 -238 -136 -306 -177 -299 -177 3 0 27 7 53 16 110 38 207
6 486 -156 69 -40 204 -118 300 -173 96 -56 191 -112 210 -125 19 -13 115 -69
213 -125 98 -56 196 -118 218 -138 75 -69 45 -116 -147 -227 -60 -35 -190
-110 -289 -167 -99 -57 -256 -148 -349 -202 -198 -115 -326 -185 -326 -179 0
3 51 33 113 68 142 82 391 226 576 335 79 47 175 103 215 125 166 93 226 143
226 187 0 23 -56 73 -118 106 -36 19 -70 35 -76 35 -5 0 -14 7 -20 15 -12 15
-255 165 -268 165 -5 0 -84 -43 -176 -96 -845 -487 -1264 -723 -1321 -745 -83
-31 -129 -22 -269 52 -65 34 -175 97 -247 139 -71 42 -176 103 -233 134 -62
35 -100 62 -96 68 4 6 2 8 -3 5 -6 -4 -36 6 -66 22 l-55 29 157 90 c86 49 201
116 256 147 169 97 305 177 305 180 0 2 -26 1 -59 -2 -90 -8 -62 -23 -881 462
-85 51 -189 111 -230 135 -76 44 -150 111 -150 135 0 23 12 45 21 39 5 -3 9 0
9 5 0 6 -5 11 -11 11 -5 0 -8 4 -5 9 3 5 14 8 24 6 9 -1 11 0 5 2 -14 5 -16
14 -7 37 3 9 10 13 15 10 9 -5 13 14 10 46 -2 26 50 73 159 144 58 38 121 79
140 92 19 13 82 52 140 87 58 35 121 73 140 86 19 12 94 56 165 98 72 41 220
127 330 191 110 64 279 161 375 217 96 56 239 139 318 184 253 147 297 156
434 88z m-8688 -518 c-3 -5 -10 -7 -15 -3 -5 3 -7 10 -3 15 3 5 10 7 15 3 5
-3 7 -10 3 -15z m1586 2 c0 -15 8 -21 33 -23 31 -3 32 -5 35 -50 2 -29 -1 -48
-7 -48 -6 0 -11 18 -11 41 0 36 -2 40 -22 37 -19 -2 -24 -10 -26 -40 -5 -66
-22 -41 -22 32 0 40 4 70 10 70 6 0 10 -9 10 -19z m-2052 -20 c2 -13 -6 -36
-17 -52 -21 -29 -21 -29 -1 -29 11 0 20 -4 20 -10 0 -5 -20 -10 -45 -10 -25 0
-45 3 -45 6 0 3 16 20 35 38 19 19 35 40 35 49 0 21 -29 30 -36 12 -6 -16 -34
-21 -34 -7 0 18 27 33 55 30 23 -2 31 -9 33 -27z m106 13 c10 -27 7 -89 -6
-102 -7 -7 -21 -12 -33 -12 -31 0 -45 19 -45 61 0 57 8 69 45 69 21 0 35 -6
39 -16z m80 0 c7 -19 -10 -44 -31 -44 -17 0 -27 24 -19 45 7 20 42 19 50 -1z
m26 -41 c-37 -66 -47 -79 -56 -71 -3 4 7 28 22 55 35 61 44 73 56 73 6 0 -5
-26 -22 -57z m183 46 c28 -15 37 -28 37 -58 0 -38 -28 -61 -72 -61 l-38 0 0
65 c0 63 1 65 26 65 14 0 35 -5 47 -11z m685 -19 c16 -1 16 -2 0 -14 -10 -7
-18 -23 -18 -36 0 -13 8 -29 18 -36 16 -12 15 -13 -5 -14 -18 0 -23 7 -28 38
-4 20 -8 42 -9 47 -2 6 2 19 7 30 10 18 11 18 15 3 2 -10 11 -18 20 -18z m152
20 c0 -5 -13 -10 -30 -10 -23 0 -30 -4 -30 -20 0 -15 7 -20 26 -20 14 0 23 -4
19 -10 -3 -5 -15 -10 -26 -10 -14 0 -19 -7 -19 -25 0 -14 -4 -25 -10 -25 -6 0
-10 28 -10 65 l0 65 40 0 c22 0 40 -4 40 -10z m280 -55 c0 -51 -3 -65 -15 -65
-11 0 -15 12 -15 49 0 27 -3 56 -6 65 -4 12 0 16 15 16 19 0 21 -6 21 -65z
m114 14 l22 -50 24 50 c13 28 27 51 32 51 4 0 8 -29 8 -65 0 -37 -4 -65 -10
-65 -5 0 -10 17 -11 38 l0 37 -16 -37 c-8 -21 -19 -38 -24 -38 -5 0 -17 17
-28 38 l-20 37 -1 -37 c0 -21 -4 -38 -10 -38 -6 0 -10 28 -10 65 0 39 4 65 11
65 5 0 20 -23 33 -51z m366 36 c0 -8 8 -15 18 -15 16 -1 16 -1 0 -14 -10 -7
-18 -23 -18 -36 0 -13 8 -29 18 -37 16 -12 15 -13 -8 -11 -21 3 -26 9 -31 48
-6 49 -2 80 12 80 5 0 9 -7 9 -15z m289 -58 c11 -31 16 -57 12 -57 -5 0 -11 7
-15 15 -3 8 -17 15 -31 15 -14 0 -28 -7 -31 -15 -10 -24 -26 -17 -18 8 19 61
45 110 54 101 5 -5 18 -35 29 -67z m639 43 c16 -1 16 -2 0 -14 -10 -7 -18 -23
-18 -36 0 -13 8 -29 18 -36 16 -12 15 -13 -5 -14 -18 0 -23 7 -28 38 -4 20 -8
42 -9 47 -2 6 2 19 7 30 10 18 11 18 15 3 2 -10 11 -18 20 -18z m-3268 -4 c0
-3 -4 -8 -10 -11 -5 -3 -10 -1 -10 4 0 6 5 11 10 11 6 0 10 -2 10 -4z m60 -4
c0 -14 -69 -76 -77 -69 -3 4 9 23 27 42 33 34 50 43 50 27z m760 -42 c0 -27
-4 -50 -10 -50 -5 0 -10 23 -10 50 0 28 5 50 10 50 6 0 10 -22 10 -50z m88 32
c3 -9 -3 -11 -22 -6 -16 4 -26 2 -26 -5 0 -6 6 -11 14 -11 8 0 22 -7 31 -16
12 -12 13 -19 4 -30 -14 -17 -55 -19 -64 -3 -11 17 3 23 20 9 12 -10 19 -10
27 -2 9 9 4 15 -20 23 -30 10 -42 36 -25 53 11 11 56 2 61 -12z m109 1 c3 -7
-8 -11 -29 -10 -26 2 -34 -2 -36 -19 -4 -29 23 -51 43 -34 17 14 31 8 20 -9
-3 -6 -20 -11 -36 -11 -38 0 -58 37 -41 76 10 21 18 25 44 22 17 -2 33 -8 35
-15z m107 1 c32 -31 11 -84 -32 -84 -35 0 -52 16 -52 50 0 14 5 31 12 38 17
17 54 15 72 -4z m56 -23 c0 -22 5 -41 13 -43 25 -10 37 4 37 43 0 21 5 39 10
39 6 0 10 -22 10 -50 0 -50 0 -50 -33 -50 -18 0 -38 5 -45 12 -14 14 -16 88
-2 88 6 0 10 -18 10 -39z m180 20 c13 -24 13 -81 1 -81 -6 0 -11 17 -13 38 -2
30 -7 38 -25 40 -21 3 -23 -1 -23 -37 0 -23 -4 -41 -10 -41 -5 0 -10 23 -10
50 l0 50 35 0 c24 0 37 -6 45 -19z m314 3 c32 -31 11 -84 -32 -84 -35 0 -52
16 -52 50 0 14 5 31 12 38 17 17 54 15 72 -4z m86 6 c0 -5 -7 -10 -15 -10 -11
0 -15 -11 -15 -40 0 -22 -4 -40 -10 -40 -5 0 -10 23 -10 50 0 47 2 50 25 50
14 0 25 -4 25 -10z m408 -2 c7 -7 12 -24 12 -38 0 -14 -5 -31 -12 -38 -7 -7
-24 -12 -38 -12 -14 0 -31 5 -38 12 -7 7 -12 24 -12 38 0 14 5 31 12 38 7 7
24 12 38 12 14 0 31 -5 38 -12z m120 -40 c2 -29 -1 -48 -7 -48 -6 0 -11 18
-11 41 0 36 -2 40 -22 37 -19 -2 -24 -10 -26 -40 -5 -56 -22 -46 -22 13 l0 50
43 -3 42 -3 3 -47z m459 35 c3 -7 -8 -11 -29 -10 -26 2 -34 -2 -36 -19 -4 -29
23 -51 43 -34 17 14 31 8 20 -9 -3 -6 -19 -11 -35 -11 -45 0 -66 52 -34 85 18
18 65 17 71 -2z m110 0 c3 -7 -8 -11 -29 -10 -26 2 -34 -2 -36 -19 -4 -29 23
-51 43 -34 17 14 31 8 20 -9 -3 -6 -19 -11 -35 -11 -45 0 -66 52 -34 85 18 18
65 17 71 -2z m111 5 c7 -7 12 -24 12 -38 0 -34 -17 -50 -52 -50 -27 0 -48 23
-48 54 0 37 61 61 88 34z m52 -27 c0 -22 5 -41 13 -43 25 -10 37 4 37 43 0 21
5 39 10 39 6 0 10 -22 10 -50 0 -50 0 -50 -33 -50 -18 0 -38 5 -45 12 -14 14
-16 88 -2 88 6 0 10 -18 10 -39z m180 20 c13 -24 13 -81 1 -81 -6 0 -11 17
-13 38 -2 30 -7 38 -25 40 -21 3 -23 -1 -23 -37 0 -23 -4 -41 -10 -41 -5 0
-10 23 -10 50 l0 50 35 0 c24 0 37 -6 45 -19z m-2597 -43 c7 -23 -4 -38 -29
-38 -19 0 -24 5 -24 25 0 20 5 25 24 25 13 0 26 -6 29 -12z m-543 -8 c0 -5 -5
-10 -11 -10 -5 0 -7 5 -4 10 3 6 8 10 11 10 2 0 4 -4 4 -10z m200 -575 l0 -84
37 21 c48 29 125 30 171 3 60 -36 72 -74 72 -240 l0 -145 -55 0 -55 0 0 133
c0 147 -8 170 -60 182 -43 9 -83 -13 -97 -55 -7 -19 -12 -86 -12 -147 l-1
-113 -50 0 -50 0 0 265 0 265 50 0 50 0 0 -85z m1205 -105 l110 -165 3 168 2
168 53 -3 52 -3 3 -252 2 -253 -57 1 -58 0 -105 162 -105 161 -3 -162 -2 -162
-55 0 -55 0 0 256 0 255 53 -3 52 -3 110 -165z m-1375 120 l0 -40 -65 0 -65 0
0 -210 0 -210 -55 0 -55 0 0 210 0 209 -67 3 -68 3 -3 38 -3 37 190 0 191 0 0
-40z m2650 -10 l0 -50 46 0 45 0 -3 -42 c-3 -43 -3 -43 -45 -46 l-43 -3 0
-109 0 -109 43 -3 c42 -3 42 -3 45 -45 l3 -43 -60 0 c-121 0 -141 28 -141 195
l0 115 -25 0 c-23 0 -25 4 -25 45 0 41 2 45 25 45 23 0 25 3 25 50 l0 50 55 0
55 0 0 -50z m2638 -15 c46 -9 115 -34 172 -62 79 -38 109 -60 181 -132 73 -73
93 -101 132 -181 60 -126 72 -181 71 -320 -1 -132 -24 -219 -89 -337 -57 -102
-178 -217 -285 -271 -116 -58 -193 -76 -320 -76 -126 0 -202 18 -320 76 -68
33 -102 59 -171 128 -73 72 -94 101 -132 180 -102 211 -102 411 0 620 38 79
60 109 132 181 72 72 102 94 181 132 151 74 291 93 448 62z m-4505 -36 c47
-13 106 -63 123 -106 8 -18 14 -53 14 -78 l0 -45 -145 0 c-162 0 -172 -5 -116
-61 37 -37 79 -38 119 -4 23 20 41 25 82 25 49 0 51 -1 45 -22 -10 -35 -78
-95 -121 -107 -144 -40 -264 51 -264 199 0 98 49 169 131 195 54 17 83 18 132
4z m1192 -24 c53 -30 85 -91 85 -158 l0 -47 -145 0 c-162 0 -172 -5 -116 -61
38 -38 88 -40 121 -4 19 21 33 25 77 25 59 0 63 -6 32 -56 -30 -49 -115 -88
-178 -82 -105 10 -177 79 -188 179 -7 75 10 132 56 178 65 65 171 76 256 26z
m269 -30 c20 -31 41 -53 46 -50 5 3 22 28 37 55 l28 50 58 0 c44 0 56 -3 51
-12 -4 -7 -34 -52 -66 -100 l-59 -88 59 -87 c32 -49 62 -94 66 -100 5 -10 -8
-13 -53 -13 l-61 0 -36 55 c-20 30 -40 52 -45 49 -4 -2 -21 -27 -36 -54 l-28
-50 -58 0 c-44 0 -56 3 -51 13 4 6 34 51 66 100 l59 87 -59 88 c-32 48 -62 93
-66 100 -5 9 7 12 52 12 l59 0 37 -55z m8386 -161 c0 -2 -13 2 -30 11 -16 9
-30 18 -30 21 0 2 14 -2 30 -11 17 -9 30 -18 30 -21z m50 -30 c0 -2 -9 0 -20
6 -11 6 -20 13 -20 16 0 2 9 0 20 -6 11 -6 20 -13 20 -16z m50 -30 c0 -2 -9 0
-20 6 -11 6 -20 13 -20 16 0 2 9 0 20 -6 11 -6 20 -13 20 -16z m50 -30 c0 -2
-9 0 -20 6 -11 6 -20 13 -20 16 0 2 9 0 20 -6 11 -6 20 -13 20 -16z m50 -30
c0 -2 -9 0 -20 6 -11 6 -20 13 -20 16 0 2 9 0 20 -6 11 -6 20 -13 20 -16z m87
-60 c10 -26 -1 -22 -26 9 -24 29 -24 30 -2 18 12 -7 25 -19 28 -27z m-13 -65
c-10 -11 -28 -26 -39 -32 -11 -5 -4 5 15 24 38 37 55 43 24 8z m-3329 -379
c-3 -6 1 -7 9 -4 9 3 22 -1 30 -9 14 -13 13 -16 -7 -21 -32 -8 -39 -7 -32 4 3
6 -4 10 -16 10 -18 0 -19 2 -9 15 14 17 35 21 25 5z m-4853 -17 c22 -20 23
-51 1 -75 -32 -36 -103 -12 -103 35 0 49 64 75 102 40z m4946 -43 c-14 -23
-33 -27 -25 -6 4 10 -1 12 -16 9 -18 -4 -19 -3 -7 6 8 6 25 11 38 11 20 0 21
-2 10 -20z m-7654 -28 c42 -23 96 -81 96 -104 0 -16 -107 -9 -121 8 -57 69
-186 53 -234 -31 -49 -82 -29 -182 48 -239 39 -29 135 -29 174 0 33 25 67 79
58 94 -3 5 -42 10 -86 10 l-79 0 0 35 0 35 131 0 131 0 -4 -59 c-6 -78 -46
-145 -112 -186 -44 -27 -58 -30 -131 -30 -73 0 -87 3 -131 30 -126 78 -155
271 -57 385 42 48 80 70 142 79 66 10 119 2 175 -27z m2456 -22 l0 -50 45 0
45 0 0 -40 0 -40 -45 0 -45 0 0 -108 c0 -120 5 -132 57 -132 32 0 33 -1 33
-40 l0 -40 -45 0 c-25 0 -61 7 -81 15 -51 21 -64 61 -64 195 l0 110 -25 0
c-22 0 -25 4 -25 40 0 36 3 40 25 40 23 0 25 3 25 50 l0 50 50 0 50 0 0 -50z
m5235 21 c-5 -17 -9 -18 -20 -8 -12 10 -11 14 2 24 21 16 27 10 18 -16z m68
-52 c-6 -6 -9 -1 -7 13 3 33 6 36 11 14 3 -10 1 -22 -4 -27z m45 -9 c-13 -20
-28 -27 -28 -12 0 10 22 32 32 32 5 0 3 -9 -4 -20z m32 -10 c-8 -5 -19 -10
-25 -10 -5 0 -3 5 5 10 8 5 20 10 25 10 6 0 3 -5 -5 -10z m-7373 -21 c58 -28
93 -87 93 -157 l0 -52 -145 0 c-85 0 -145 -4 -145 -10 0 -26 26 -61 57 -75 40
-19 83 -13 109 16 12 14 30 19 66 19 26 0 48 -4 48 -10 0 -18 -65 -83 -97 -96
-71 -30 -178 -9 -225 43 -65 72 -63 218 5 292 50 54 156 68 234 30z m273 -4
l0 -24 36 24 c70 47 176 27 221 -42 15 -22 19 -53 21 -180 l4 -153 -46 0 -46
0 0 115 c0 162 -21 205 -100 205 -22 0 -41 -9 -61 -29 l-29 -29 0 -131 0 -131
-45 0 -45 0 0 200 0 200 45 0 c41 0 45 -2 45 -25z m657 0 c52 -31 82 -85 86
-152 l2 -48 -147 -3 c-164 -3 -169 -5 -122 -61 22 -27 33 -31 73 -31 35 0 53
5 66 20 13 15 31 20 67 20 26 0 48 -3 48 -7 0 -20 -43 -69 -77 -90 -44 -27
-134 -31 -186 -9 -36 15 -84 65 -99 105 -13 35 -12 130 2 166 15 39 57 84 95
101 52 23 142 18 192 -11z m263 -7 l0 -31 23 20 c27 25 61 43 81 43 12 0 16
-11 16 -50 0 -46 -2 -50 -25 -50 -36 0 -71 -19 -84 -47 -6 -13 -11 -75 -11
-138 l0 -115 -45 0 -45 0 0 200 0 200 45 0 c44 0 45 -1 45 -32z m442 7 l37
-25 3 23 c3 19 10 22 51 25 l47 3 0 -201 0 -201 -47 3 c-41 3 -48 6 -51 25
l-3 23 -37 -25 c-43 -29 -125 -34 -171 -10 -107 55 -136 235 -53 329 55 62
158 76 224 31z m618 -175 l0 -200 -50 0 -50 0 0 200 0 200 50 0 50 0 0 -200z
m378 179 c62 -30 95 -85 100 -165 8 -126 -61 -205 -188 -212 -138 -8 -218 76
-208 218 8 112 82 179 197 180 36 0 70 -7 99 -21z m282 -4 l0 -24 36 24 c47
32 124 34 171 5 57 -34 67 -68 71 -232 l4 -148 -51 0 -51 0 0 126 c0 125 -7
156 -39 181 -32 25 -100 11 -128 -26 -8 -11 -12 -60 -13 -148 l0 -133 -50 0
-50 0 0 200 0 200 50 0 c47 0 50 -2 50 -25z m4506 10 c13 -12 12 -15 -6 -25
-19 -10 -24 -6 -21 14 1 5 -6 6 -16 2 -16 -5 -15 -4 1 9 24 18 24 18 42 0z
m52 -45 c-14 -21 -28 -27 -28 -10 0 6 -8 10 -17 11 -15 0 -15 2 2 9 11 5 28 9
38 9 15 1 15 -2 5 -19z m68 -19 c24 -19 25 -20 5 -30 -29 -16 -38 -13 -15 4
19 14 18 14 -3 15 -13 0 -23 -5 -23 -10 0 -6 -6 -5 -14 2 -13 11 -13 15 2 26
20 15 19 16 48 -7z m2578 -734 c249 -114 249 -469 -2 -585 -149 -69 -338 -6
-417 139 -22 42 -30 70 -33 130 -5 90 6 134 54 206 88 130 254 176 398 110z
m-6256 -145 l3 -83 26 21 c34 27 125 28 169 1 53 -32 64 -72 64 -225 l0 -136
-50 0 -50 0 0 125 c0 120 -1 127 -25 150 -32 33 -78 33 -110 0 -24 -23 -25
-30 -25 -150 l0 -125 -50 0 -50 0 0 256 0 255 48 -3 47 -3 3 -83z m1160 -169
l2 -253 -55 0 c-49 0 -55 2 -55 21 l0 20 -26 -20 c-52 -41 -138 -37 -198 10
-94 74 -86 261 13 326 45 30 132 32 179 3 l32 -20 0 78 c0 43 3 82 7 86 4 4
28 6 53 4 l45 -3 3 -252z m-5574 201 c47 -24 76 -74 76 -129 0 -89 -72 -144
-187 -145 l-63 0 0 -90 0 -90 -50 0 -50 0 0 241 0 241 118 -3 c94 -3 125 -8
156 -25z m3133 14 c5 -7 38 -80 73 -163 35 -82 66 -154 70 -158 4 -5 40 69 80
163 l74 171 55 -3 56 -3 3 -237 2 -238 -55 0 -54 0 -3 135 -3 135 -55 -135
-55 -135 -41 0 -41 0 -52 128 c-28 70 -56 134 -61 142 -6 10 -10 -33 -10 -127
l0 -143 -50 0 -50 0 0 233 c0 129 3 237 7 240 11 12 100 7 110 -5z m-417 -43
l0 -45 40 0 40 0 0 -40 0 -40 -40 0 -41 0 3 -107 3 -108 38 -3 c36 -3 37 -4
37 -43 l0 -39 -60 0 c-52 0 -64 4 -92 29 l-33 29 -3 121 c-3 111 -5 121 -23
121 -16 0 -19 7 -19 40 0 33 3 40 20 40 17 0 20 7 20 45 l0 45 55 0 55 0 0
-45z m1450 1 l0 -45 43 -3 c41 -3 42 -4 45 -40 l3 -38 -45 0 -46 0 0 -98 c0
-109 6 -122 57 -122 32 0 33 -1 33 -40 l0 -40 -55 0 c-114 0 -135 30 -135 190
l0 110 -25 0 c-22 0 -25 4 -25 40 0 36 3 40 25 40 23 0 25 4 25 45 l0 45 50 0
50 0 0 -44z m5470 30 c0 -3 -120 -76 -155 -94 -35 -18 17 19 78 55 75 44 77
46 77 39z m-9262 -96 c32 -20 32 -20 32 0 0 18 7 20 55 20 l55 0 0 -190 0
-190 -55 0 c-49 0 -55 2 -55 21 l0 20 -26 -20 c-53 -42 -138 -37 -199 11 -92
72 -84 261 14 325 45 30 132 32 179 3z m341 -107 c25 -68 48 -120 52 -115 3 4
25 60 49 125 l43 117 54 0 c30 0 53 -4 51 -9 -1 -5 -54 -131 -117 -280 l-114
-271 -54 0 -53 0 13 33 c8 17 26 60 41 95 l26 62 -71 173 c-39 94 -73 178 -76
185 -4 10 8 12 53 10 l58 -3 45 -122z m397 112 c5 -13 9 -13 34 0 34 18 112
20 143 4 12 -6 31 -20 43 -31 19 -17 22 -17 34 -3 38 45 132 59 196 29 60 -29
74 -71 74 -229 l0 -135 -50 0 -50 0 0 124 c0 149 -10 171 -80 171 -70 0 -80
-22 -80 -171 l0 -124 -49 0 -49 0 -4 126 c-3 125 -3 126 -32 151 -23 19 -36
23 -59 19 -62 -12 -67 -26 -67 -168 l0 -128 -55 0 -55 0 0 190 0 190 50 0 c35
0 52 -4 56 -15z m871 -1 c55 -27 86 -76 91 -145 l4 -59 -136 0 c-125 0 -136
-1 -136 -18 0 -27 43 -63 77 -64 32 -1 73 17 73 32 0 6 25 10 55 10 68 0 72
-16 17 -70 -77 -78 -196 -78 -273 -1 -93 93 -70 258 43 314 43 22 140 22 185
1z m263 -5 l0 -20 26 20 c36 29 124 29 169 1 55 -34 65 -70 65 -224 l0 -136
-50 0 -50 0 0 125 c0 120 -1 127 -25 150 -15 16 -36 25 -55 25 -19 0 -40 -9
-55 -25 -24 -23 -25 -30 -25 -150 l0 -125 -50 0 -50 0 0 190 0 190 50 0 c44 0
50 -3 50 -21z m1656 -4 c50 -29 84 -91 84 -153 l0 -42 -140 0 c-77 0 -140 -2
-140 -5 0 -16 31 -63 45 -69 34 -13 82 -6 100 14 14 15 31 20 72 20 29 0 53
-3 53 -7 0 -21 -42 -73 -76 -94 -30 -18 -53 -24 -99 -24 -137 0 -212 94 -191
239 8 50 41 97 91 127 47 29 146 26 201 -6z m1134 5 c99 -50 129 -193 61 -287
-70 -97 -218 -109 -302 -24 -87 86 -72 238 30 302 57 37 149 41 211 9z m4430
-5 c0 -2 -10 -9 -22 -15 -22 -11 -22 -10 -4 4 21 17 26 19 26 11z m-1996 -448
c134 -76 79 -277 -75 -277 -62 0 -108 32 -133 92 -23 56 -16 104 21 149 51 60
121 74 187 36z m741 -234 c49 -37 68 -88 67 -182 l-1 -87 70 -22 c38 -12 76
-22 84 -22 15 0 24 27 50 146 21 94 46 134 83 134 32 0 64 -26 87 -70 15 -29
40 -228 30 -238 -3 -3 0 -11 6 -19 24 -28 358 -4 395 28 13 12 65 28 135 43
63 13 154 36 203 50 49 14 121 29 160 32 39 3 116 15 170 26 118 24 207 20
306 -14 l65 -23 -65 -6 c-75 -6 -175 -51 -230 -103 -34 -31 -72 -58 -117 -82
-26 -15 -165 -126 -161 -129 2 -2 37 7 78 20 99 31 220 49 234 35 16 -16 49
-11 76 10 45 35 150 21 150 -20 0 -16 -73 -72 -90 -67 -18 5 -19 -15 -5 -100
9 -54 -1 -68 -69 -87 -52 -16 -236 -121 -305 -175 -50 -39 -155 -91 -185 -91
l-25 0 24 -26 c14 -15 25 -30 25 -33 0 -10 -58 -42 -72 -40 -7 1 -25 1 -40 0
-27 -1 -27 -2 -21 -48 l6 -47 -29 23 c-16 12 -51 40 -79 61 l-49 39 -23 -21
c-29 -27 -42 -17 -14 11 29 29 26 58 -9 91 -19 18 -45 66 -73 136 -36 89 -48
110 -68 114 -19 5 -26 15 -33 53 -5 26 -7 50 -3 53 3 3 19 -1 36 -9 39 -19 31
3 -10 27 -33 19 -67 16 -132 -11 -43 -19 -55 -48 -39 -99 9 -30 8 -33 -6 -25
-10 4 -32 11 -49 14 -31 6 -33 5 -33 -21 0 -15 3 -44 7 -65 l6 -38 33 32 c19
18 36 30 39 27 3 -3 13 -44 22 -92 14 -72 15 -89 4 -95 -11 -7 -10 -10 2 -17
8 -5 17 -22 19 -39 2 -22 9 -31 25 -33 21 -3 38 -27 25 -36 -11 -6 -111 57
-112 71 0 6 -13 27 -30 45 -31 33 -41 29 -15 -6 15 -20 19 -65 9 -103 -7 -26
-60 -42 -77 -23 -9 10 -7 11 10 6 29 -9 63 24 63 62 0 57 -54 93 -89 59 -11
-10 -11 -8 -2 11 7 14 21 22 36 22 28 0 31 14 14 73 -11 42 -59 118 -59 96 0
-9 -5 -6 -12 6 -6 11 -15 22 -19 25 -4 3 -15 37 -25 75 -10 39 -24 74 -31 78
-17 10 -17 28 0 21 7 -2 13 4 14 15 1 13 -6 21 -20 23 -33 5 -35 38 -3 38 19
0 26 5 26 19 0 11 5 23 10 26 15 9 2 25 -21 25 -17 0 -19 7 -19 69 0 52 -5 74
-18 92 l-19 22 -30 -44 c-16 -24 -39 -68 -51 -96 l-21 -53 21 -14 20 -14 -21
-11 c-36 -20 -24 -32 26 -29 38 2 48 0 51 -14 3 -15 -4 -18 -37 -19 -66 -2
-66 -2 -63 -36 4 -40 -10 -48 -49 -27 -24 12 -30 13 -26 3 3 -8 23 -52 44 -99
33 -73 38 -96 40 -165 1 -44 2 -88 2 -97 1 -10 9 -18 19 -19 13 0 14 -2 2 -6
-34 -13 -60 -47 -60 -80 0 -47 16 -73 45 -73 13 0 27 -4 30 -10 3 -6 -5 -10
-19 -10 -29 0 -76 51 -76 84 0 13 11 40 25 60 24 35 24 39 11 69 -8 18 -17 48
-21 67 -13 72 -38 137 -77 196 -32 51 -43 61 -60 56 -14 -3 -19 -1 -14 6 4 7
1 12 -7 12 -8 0 -20 7 -27 15 -11 13 -8 14 18 9 24 -5 32 -2 41 14 34 63 -12
119 -62 75 -19 -18 -20 -17 -8 5 7 13 21 26 32 30 20 8 20 8 -1 31 -12 15 -20
38 -20 60 0 27 -3 32 -10 21 -14 -21 -13 69 1 164 14 92 6 153 -27 201 -13 20
-24 39 -24 42 0 11 61 -7 85 -24z m-189 -298 l-25 -80 0 87 c-1 79 1 88 22
103 21 15 22 14 25 -7 1 -13 -8 -59 -22 -103z m-7266 76 c0 -5 -6 -12 -12 -14
-10 -4 -9 -8 2 -16 10 -7 11 -11 3 -11 -9 0 -13 -16 -13 -45 0 -25 -4 -45 -9
-45 -15 0 -17 101 -3 121 14 20 32 25 32 10z m2910 -7 c0 -8 -5 -12 -10 -9 -6
4 -8 11 -5 16 9 14 15 11 15 -7z m460 6 c0 -5 -4 -10 -10 -10 -5 0 -10 5 -10
10 0 6 5 10 10 10 6 0 10 -4 10 -10z m70 0 c0 -5 -4 -10 -10 -10 -5 0 -10 -4
-10 -10 0 -5 9 -10 20 -10 13 0 25 -12 36 -37 l17 -38 15 38 c8 20 19 37 23
37 5 0 -1 -24 -12 -52 -12 -29 -25 -63 -30 -75 -5 -13 -13 -23 -19 -23 -6 0
-6 9 1 24 9 19 8 34 -6 70 -23 61 -45 61 -45 1 0 -25 -4 -45 -10 -45 -9 0 -16
72 -10 110 3 24 40 42 40 20z m6496 -15 c18 -7 38 -24 45 -36 11 -22 10 -22
-20 4 -46 38 -53 34 -30 -20 11 -25 25 -77 31 -115 8 -45 15 -63 19 -51 11 31
31 -32 36 -117 6 -84 -6 -110 -40 -85 -14 10 -15 18 -8 38 11 28 4 116 -10
138 -7 12 -11 12 -17 1 -7 -10 -13 -7 -25 12 -21 32 -77 50 -139 44 -59 -6
-111 -44 -148 -109 -21 -37 -25 -57 -25 -127 0 -68 -2 -82 -15 -80 -20 4 -31
79 -20 139 29 152 161 252 285 215 25 -8 45 -11 45 -8 0 4 -11 25 -25 47 -13
22 -29 50 -34 62 -14 31 -53 39 -85 18 -34 -23 -54 -9 -22 16 13 10 35 23 48
29 28 12 109 4 154 -15z m-10902 -6 c29 -23 33 -54 10 -87 -30 -43 -114 -15
-114 38 0 24 42 70 63 70 8 0 26 -9 41 -21z m2773 -11 c18 3 30 -1 40 -13 15
-22 18 -85 3 -85 -5 0 -10 15 -10 34 0 67 -47 67 -60 0 -6 -32 -8 -27 -7 31 0
39 2 61 4 49 3 -17 9 -20 30 -16z m283 -31 l0 -64 -40 -1 c-34 -2 -42 2 -52
23 -8 19 -8 31 1 51 9 22 17 25 41 22 24 -4 30 -1 30 14 0 10 5 18 10 18 6 0
10 -28 10 -63z m160 -2 c0 -37 -4 -65 -10 -65 -6 0 -10 28 -10 65 0 37 4 65
10 65 6 0 10 -28 10 -65z m780 2 l0 -64 -40 -1 c-34 -2 -42 2 -52 23 -8 19 -8
31 1 51 9 22 17 25 41 22 24 -4 30 -1 30 14 0 10 5 18 10 18 6 0 10 -28 10
-63z m-3700 43 c0 -5 8 -10 18 -10 16 -1 16 -1 0 -11 -11 -6 -18 -22 -18 -39
0 -17 7 -33 18 -39 15 -9 15 -10 -5 -11 -18 0 -23 7 -28 38 -7 40 -8 50 -6 70
1 14 21 17 21 2z m1268 -10 c15 -1 15 -2 0 -11 -11 -6 -18 -22 -18 -39 0 -17
7 -34 18 -40 15 -10 15 -10 -3 -8 -15 3 -21 13 -26 48 -6 44 0 88 9 62 2 -7
11 -12 20 -12z m1122 10 c0 -5 8 -10 18 -10 16 -1 16 -1 0 -11 -11 -6 -18 -22
-18 -39 0 -17 7 -33 18 -39 15 -9 15 -10 -5 -11 -18 0 -23 7 -28 38 -7 40 -8
50 -6 70 1 14 21 17 21 2z m978 -10 c15 -1 15 -2 0 -11 -23 -13 -23 -52 -1
-74 16 -16 15 -17 -3 -13 -14 2 -21 15 -25 48 -6 44 0 88 9 62 2 -7 11 -12 20
-12z m618 5 c9 -8 11 -15 5 -15 -15 0 -14 -63 2 -79 10 -10 8 -12 -8 -9 -16 2
-21 13 -25 50 -8 67 -1 81 26 53z m6402 8 c-10 -2 -28 -2 -40 0 -13 2 -5 4 17
4 22 1 32 -1 23 -4z m-111 -9 c-3 -3 -12 -4 -19 -1 -8 3 -5 6 6 6 11 1 17 -2
13 -5z m-10507 -43 c0 -39 12 -53 38 -43 7 2 12 21 12 43 0 21 5 39 10 39 6 0
10 -22 10 -48 0 -48 0 -49 -32 -50 -18 0 -38 4 -45 10 -15 12 -18 88 -3 88 6
0 10 -18 10 -39z m136 24 c-10 -8 -22 -31 -26 -52 -8 -38 -8 -38 -9 12 -1 48
0 51 27 53 25 1 26 1 8 -13z m218 -1 c28 -28 20 -44 -24 -44 -41 0 -53 -13
-24 -24 9 -4 23 -1 31 5 15 13 28 6 18 -10 -3 -6 -19 -11 -35 -11 -29 0 -50
22 -50 54 0 20 28 46 50 46 10 0 26 -7 34 -16z m126 -34 c0 -44 -1 -45 -34
-47 -38 -3 -66 17 -66 47 0 30 28 50 66 47 33 -2 34 -3 34 -47z m105 40 c4 -6
14 -5 25 3 31 19 54 -2 58 -52 2 -24 -1 -41 -7 -41 -6 0 -11 18 -11 39 0 39
-12 53 -37 43 -8 -2 -13 -21 -13 -43 0 -21 -4 -39 -10 -39 -5 0 -10 15 -10 33
0 37 -15 58 -36 50 -9 -3 -14 -20 -14 -44 0 -21 -4 -39 -10 -39 -5 0 -10 22
-10 48 0 49 0 49 35 50 19 1 37 -3 40 -8z m239 -6 c32 -31 8 -84 -38 -84 -29
0 -46 18 -46 50 0 14 5 31 12 38 17 17 54 15 72 -4z m220 0 c28 -28 20 -44
-24 -44 -41 0 -53 -13 -24 -24 9 -4 23 -1 31 5 15 13 28 6 18 -10 -3 -6 -19
-11 -35 -11 -29 0 -50 22 -50 54 0 20 28 46 50 46 10 0 26 -7 34 -16z m52 -1
c13 -17 15 -17 25 0 5 9 14 17 20 17 5 0 2 -11 -7 -25 -15 -23 -15 -27 0 -50
19 -29 11 -33 -16 -9 -16 16 -18 16 -24 0 -3 -9 -10 -16 -15 -16 -5 0 -3 12 3
26 9 20 9 30 0 45 -21 33 -9 42 14 12z m151 6 c18 -15 17 -64 -2 -79 -8 -7
-26 -10 -40 -8 -22 5 -25 2 -25 -24 0 -17 -4 -27 -10 -23 -5 3 -10 37 -10 74
l0 68 37 1 c20 1 42 -3 50 -9z m111 -1 c7 -7 12 -20 12 -30 0 -14 -8 -18 -35
-18 -19 0 -35 -4 -35 -9 0 -14 32 -23 44 -11 16 16 30 12 16 -5 -15 -18 -51
-20 -68 -3 -7 7 -12 24 -12 38 0 31 17 50 45 50 12 0 26 -5 33 -12z m78 -3
c-10 -8 -22 -31 -26 -52 -8 -38 -8 -38 -9 12 -1 48 0 51 27 53 25 1 26 1 8
-13z m154 5 c8 -5 11 -12 7 -16 -3 -4 -12 -2 -20 4 -7 6 -18 7 -26 2 -10 -6
-6 -12 18 -25 21 -10 31 -22 29 -33 -4 -22 -51 -27 -68 -8 -8 10 -8 16 -2 16
6 0 14 -4 17 -10 9 -15 35 -12 35 4 0 8 -11 17 -25 20 -24 6 -34 34 -18 49 9
10 35 8 53 -3z m100 -29 c0 -39 12 -53 38 -43 7 2 12 21 12 43 0 21 5 39 10
39 6 0 10 -22 10 -48 0 -48 0 -49 -32 -50 -18 0 -38 4 -45 10 -15 12 -18 88
-3 88 6 0 10 -18 10 -39z m160 24 c14 -17 0 -21 -17 -4 -11 11 -33 5 -33 -9 0
-4 14 -13 31 -19 21 -8 30 -17 27 -30 -4 -23 -50 -29 -68 -9 -14 18 0 22 17 5
12 -12 33 -4 33 12 0 5 -6 9 -13 9 -7 0 -22 6 -32 14 -16 12 -17 16 -6 30 17
20 45 21 61 1z m108 3 c7 -7 12 -20 12 -30 0 -14 -8 -18 -42 -18 -40 0 -41 -1
-25 -17 14 -15 21 -15 37 -5 27 16 35 15 20 -3 -15 -18 -51 -20 -68 -3 -7 7
-12 24 -12 38 0 31 17 50 45 50 12 0 26 -5 33 -12z m97 1 c11 -16 -3 -23 -19
-10 -11 9 -16 9 -21 0 -8 -12 11 -29 33 -29 8 0 12 -9 10 -22 -3 -25 -43 -37
-61 -19 -16 16 0 26 18 11 12 -10 19 -10 27 -2 8 8 5 14 -14 21 -31 12 -42 27
-34 46 6 17 52 20 61 4z m175 -39 l0 -47 -37 -1 c-45 -2 -63 12 -63 47 0 37
17 51 62 49 l38 -1 0 -47z m145 39 c5 -7 11 -6 20 1 8 6 24 10 37 8 20 -3 23
-9 24 -53 1 -34 0 -38 -3 -13 -8 71 -63 73 -63 2 0 -19 -4 -34 -10 -34 -5 0
-10 18 -10 39 0 24 -5 41 -14 44 -21 8 -36 -13 -36 -50 0 -18 -4 -33 -10 -33
-5 0 -10 22 -10 48 0 49 0 49 35 50 19 1 37 -3 40 -9z m193 -1 c7 -7 12 -20
12 -30 0 -14 -8 -18 -42 -18 -39 0 -41 -1 -26 -16 12 -12 20 -14 36 -5 29 15
37 14 22 -4 -27 -32 -90 -7 -90 35 0 40 60 66 88 38z m294 -5 c22 -20 23 -41
1 -65 -32 -36 -83 -17 -83 32 0 48 45 67 82 33z m237 3 c16 -19 10 -66 -10
-79 -26 -16 -68 0 -75 29 -12 47 55 87 85 50z m160 0 c16 -19 10 -66 -10 -79
-26 -16 -68 0 -75 29 -12 47 55 87 85 50z m131 -47 c0 -75 -24 -102 -74 -83
-9 3 -16 12 -16 20 0 11 4 12 19 3 22 -14 51 -6 51 14 0 10 -8 13 -25 9 -32
-6 -55 13 -55 47 0 37 17 51 62 49 l38 -1 0 -58z m46 24 l17 -38 15 38 c8 20
19 37 23 37 5 0 0 -21 -10 -47 -30 -77 -44 -103 -52 -103 -5 0 -4 11 3 25 9
20 7 34 -10 75 -24 57 -11 69 14 13z m273 23 c16 -19 10 -66 -10 -79 -26 -16
-68 0 -75 29 -12 47 55 87 85 50z m101 -36 c0 -27 -4 -50 -10 -50 -5 0 -10 23
-10 50 0 28 5 50 10 50 6 0 10 -22 10 -50z m228 38 c7 -7 12 -20 12 -30 0 -14
-8 -18 -42 -18 -39 0 -41 -1 -26 -16 12 -12 20 -14 36 -5 29 15 37 14 22 -4
-27 -32 -90 -7 -90 35 0 40 60 66 88 38z m109 0 c15 -12 18 -88 3 -88 -5 0
-10 18 -10 39 0 24 -5 41 -14 44 -21 8 -36 -13 -36 -50 0 -18 -4 -33 -10 -33
-5 0 -10 22 -10 48 0 48 0 49 32 50 18 0 38 -4 45 -10z m123 -38 c0 -27 -4
-50 -10 -50 -5 0 -10 23 -10 50 0 28 5 50 10 50 6 0 10 -22 10 -50z m7209 -52
c228 -46 403 -85 390 -86 -13 -2 -29 -8 -36 -14 -6 -5 -27 -6 -47 -3 -21 4
-71 -1 -128 -13 -118 -25 -218 -42 -252 -42 -14 0 -26 -5 -26 -11 0 -6 -7 -8
-17 -5 -9 4 -41 4 -70 0 -45 -5 -54 -10 -59 -31 -4 -15 -12 -22 -20 -19 -8 3
-18 -2 -23 -12 -5 -9 -23 -34 -40 -56 l-30 -38 -34 73 c-18 41 -39 92 -46 114
-18 54 -48 103 -73 116 -19 10 -19 9 -4 -20 22 -41 20 -44 -9 -17 -14 13 -25
31 -25 40 0 9 -7 28 -16 41 -16 25 -16 25 27 45 24 11 62 20 84 20 22 1 226
-36 454 -82z m-1115 49 c17 -13 14 -15 -30 -30 -36 -11 -70 -14 -131 -10 -80
6 -107 18 -60 27 135 27 197 31 221 13z m53 -67 c-15 -12 -23 -27 -20 -38 2
-10 -4 -26 -15 -35 -26 -24 -63 -14 -91 24 l-22 29 28 0 c15 0 51 9 78 20 64
25 74 25 42 0z m1510 -76 c-3 -3 -12 -4 -19 -1 -8 3 -5 6 6 6 11 1 17 -2 13
-5z m-4319 -38 c62 -32 179 -116 222 -160 87 -90 116 -116 125 -116 43 -1 295
-171 295 -199 0 -41 31 -121 47 -121 29 0 4 -13 -29 -15 -25 -2 -44 7 -78 34
-46 38 -164 117 -210 141 -33 17 -41 30 -35 58 8 33 -3 27 -19 -12 -21 -50
-45 -60 -91 -36 -21 11 -41 17 -46 15 -4 -3 -10 -1 -13 4 -3 5 1 11 9 15 8 3
15 13 15 21 0 9 4 14 8 11 4 -3 13 8 18 23 10 26 8 30 -45 72 -30 24 -75 69
-99 99 -73 91 -118 136 -182 183 l-25 18 43 -6 c24 -3 65 -16 90 -29z m-7003
-45 c3 -5 1 -12 -5 -16 -5 -3 -10 1 -10 9 0 18 6 21 15 7z m1275 -1 c0 -5 -4
-10 -10 -10 -5 0 -10 5 -10 10 0 6 5 10 10 10 6 0 10 -4 10 -10z m690 1 c0 -5
-6 -12 -12 -14 -10 -4 -10 -8 1 -15 9 -7 10 -12 2 -16 -6 -4 -11 -25 -11 -47
0 -21 -4 -39 -9 -39 -16 0 -17 93 -2 118 13 22 31 30 31 13z m40 -1 c0 -5 -4
-10 -10 -10 -5 0 -10 5 -10 10 0 6 5 10 10 10 6 0 10 -4 10 -10z m-2690 -18
c0 -13 8 -17 33 -17 32 0 32 0 33 -50 1 -34 0 -38 -3 -13 -8 71 -63 73 -63 2
0 -19 -4 -34 -10 -34 -6 0 -10 28 -10 65 0 37 4 65 10 65 6 0 10 -8 10 -18z
m640 -45 l0 -64 -40 -1 c-34 -2 -42 2 -52 23 -8 19 -8 31 1 51 9 22 17 25 41
22 24 -4 30 -1 30 14 0 10 5 18 10 18 6 0 10 -28 10 -63z m580 0 l0 -64 -37
-1 c-45 -2 -63 12 -63 48 0 34 22 54 55 48 19 -4 25 -1 25 13 0 11 5 19 10 19
6 0 10 -28 10 -63z m687 -34 c-2 -21 -4 -6 -4 32 0 39 2 55 4 38 2 -18 2 -50
0 -70z m117 46 c11 11 24 21 29 21 6 0 0 -11 -13 -25 l-23 -25 23 -25 c13 -14
19 -25 13 -25 -5 0 -18 9 -29 21 l-19 21 -6 -24 c-4 -13 -7 8 -7 47 1 53 2 61
7 31 l6 -38 19 21z m186 -14 c0 -37 -4 -65 -10 -65 -6 0 -10 28 -10 65 0 37 4
65 10 65 6 0 10 -28 10 -65z m1500 2 l0 -64 -37 -1 c-45 -2 -63 12 -63 48 0
34 22 54 55 48 19 -4 25 -1 25 13 0 11 5 19 10 19 6 0 10 -28 10 -63z m230 6
l13 -48 15 53 c17 61 33 63 46 4 11 -53 22 -53 31 -2 6 38 25 66 25 37 0 -26
-31 -117 -40 -117 -5 0 -16 21 -24 48 -8 27 -16 41 -19 32 -3 -8 -9 -28 -14
-44 -15 -48 -29 -41 -47 22 -18 67 -19 75 -7 68 5 -3 14 -27 21 -53z m4370 27
c0 -28 -2 -30 -40 -30 -42 0 -58 15 -46 45 3 10 19 15 46 15 38 0 40 -2 40
-30z m-8370 10 c0 -5 8 -11 18 -11 16 -1 16 -2 0 -6 -13 -3 -18 -14 -18 -38 0
-22 6 -38 18 -45 15 -9 14 -10 -8 -8 -22 3 -26 9 -30 49 -3 26 -4 52 -2 58 5
14 22 15 22 1z m808 -10 c15 -1 15 -2 0 -11 -11 -6 -18 -22 -18 -39 0 -17 7
-34 18 -40 15 -10 15 -10 -3 -8 -15 3 -21 13 -26 48 -6 44 0 88 9 62 2 -7 11
-12 20 -12z m1070 0 c15 -1 15 -2 0 -11 -23 -13 -23 -52 -1 -74 16 -16 15 -17
-3 -13 -14 2 -21 15 -25 48 -6 44 0 88 9 62 2 -7 11 -12 20 -12z m600 0 c15
-1 15 -2 0 -11 -23 -13 -23 -52 -1 -74 16 -16 15 -17 -3 -13 -14 2 -21 15 -25
48 -6 44 0 88 9 62 2 -7 11 -12 20 -12z m328 5 c9 -8 11 -15 5 -15 -15 0 -14
-63 2 -79 10 -10 8 -12 -8 -9 -16 2 -21 13 -25 50 -8 67 -1 81 26 53z m-2568
-17 c7 -7 12 -20 12 -30 0 -14 -8 -18 -42 -18 -39 0 -41 -1 -26 -16 12 -12 20
-14 36 -5 29 15 37 14 22 -4 -27 -32 -90 -7 -90 35 0 40 60 66 88 38z m157 1
c11 -17 -3 -23 -20 -9 -12 10 -18 10 -30 0 -35 -29 -4 -81 36 -60 17 10 20 9
17 -2 -3 -7 -17 -15 -33 -16 -48 -6 -73 48 -39 82 18 18 60 21 69 5z m85 0 c0
-5 -7 -9 -15 -9 -11 0 -15 -11 -15 -40 0 -22 -4 -40 -10 -40 -5 0 -10 22 -10
49 0 45 2 49 25 49 14 0 25 -4 25 -9z m94 -5 c28 -28 20 -44 -24 -44 -41 0
-53 -13 -24 -24 9 -4 23 -1 31 5 15 13 28 6 18 -10 -3 -6 -19 -11 -35 -11 -29
0 -50 22 -50 54 0 20 28 46 50 46 10 0 26 -7 34 -16z m176 -34 c0 -27 -4 -50
-10 -50 -5 0 -10 23 -10 50 0 28 5 50 10 50 6 0 10 -22 10 -50z m210 40 c8 -5
11 -12 7 -16 -3 -4 -13 -1 -22 6 -18 15 -45 -2 -45 -30 0 -28 27 -45 45 -30
17 14 31 8 20 -9 -3 -6 -19 -11 -35 -11 -45 0 -66 52 -34 84 17 18 42 20 64 6z
m130 -41 l0 -46 -40 -1 c-34 -2 -42 2 -52 23 -8 19 -8 31 0 50 10 22 17 25 52
23 l40 -3 0 -46z m80 40 c0 -5 -7 -9 -15 -9 -11 0 -15 -11 -15 -40 0 -22 -4
-40 -10 -40 -5 0 -10 22 -10 49 0 45 2 49 25 49 14 0 25 -4 25 -9z m200 -4
c14 -17 0 -21 -17 -4 -11 11 -33 5 -33 -9 0 -4 14 -13 31 -19 21 -8 30 -17 27
-30 -4 -23 -50 -29 -68 -9 -14 18 0 22 17 5 12 -12 33 -4 33 12 0 5 -6 9 -13
9 -7 0 -22 6 -32 14 -16 12 -17 16 -6 30 17 20 45 21 61 1z m155 5 c4 -6 14
-5 25 3 31 19 54 -2 58 -52 2 -24 -1 -41 -7 -41 -6 0 -11 18 -11 39 0 39 -12
53 -37 43 -8 -2 -13 -21 -13 -43 0 -21 -4 -39 -10 -39 -5 0 -10 15 -10 33 0
37 -15 58 -36 50 -9 -3 -14 -20 -14 -44 0 -21 -4 -39 -10 -39 -5 0 -10 22 -10
48 0 49 0 49 35 50 19 1 37 -3 40 -8z m189 -6 c32 -31 8 -84 -38 -84 -29 0
-46 18 -46 50 0 14 5 31 12 38 17 17 54 15 72 -4z m96 6 c8 -5 11 -12 7 -16
-3 -4 -12 -2 -20 4 -7 6 -18 7 -26 2 -10 -6 -6 -12 18 -25 21 -10 31 -22 29
-33 -4 -22 -51 -27 -68 -8 -8 10 -8 16 -2 16 6 0 14 -4 17 -10 9 -15 35 -12
35 4 0 8 -11 17 -25 20 -24 6 -34 34 -18 49 9 10 35 8 53 -3z m210 -40 c0 -27
-4 -50 -10 -50 -5 0 -10 23 -10 50 0 28 5 50 10 50 6 0 10 -22 10 -50z m198
38 c7 -7 12 -20 12 -30 0 -14 -8 -18 -42 -18 -39 0 -41 -1 -26 -16 12 -12 20
-14 36 -5 29 15 37 14 22 -4 -27 -32 -90 -7 -90 35 0 40 60 66 88 38z m98 -25
l17 -38 15 38 c8 20 19 37 23 37 9 0 -22 -85 -47 -129 l-15 -26 6 31 c4 19 -1
47 -14 77 -11 26 -16 47 -11 47 5 0 17 -17 26 -37z m273 23 c16 -19 10 -66
-10 -79 -26 -16 -68 0 -75 29 -12 47 55 87 85 50z m161 -36 c0 -27 -4 -50 -10
-50 -5 0 -10 23 -10 50 0 28 5 50 10 50 6 0 10 -22 10 -50z m162 13 l15 -38
16 38 c17 40 33 51 21 15 -14 -45 -54 -131 -59 -126 -3 3 -1 16 4 29 6 16 4
32 -4 49 -20 39 -27 70 -17 70 5 0 16 -17 24 -37z m160 20 c22 -20 23 -41 1
-65 -32 -36 -83 -17 -83 32 0 48 45 67 82 33z m64 -63 c21 -18 44 5 44 46 0
19 5 34 10 34 6 0 10 -22 10 -49 l0 -49 -42 2 -43 1 -1 50 c-1 34 0 38 3 13 2
-20 11 -42 19 -48z m134 70 c0 -4 -7 -10 -15 -14 -9 -3 -15 -19 -15 -41 0 -19
-4 -35 -10 -35 -5 0 -10 22 -10 49 0 45 2 49 25 49 14 0 25 -4 25 -8z m149 -9
c14 -25 14 -81 1 -81 -5 0 -10 15 -10 34 0 67 -47 67 -60 0 l-8 -39 -1 50 -1
51 34 2 c26 2 38 -3 45 -17z m109 7 c7 -7 12 -20 12 -30 0 -14 -8 -18 -35 -18
-19 0 -35 -5 -35 -10 0 -16 30 -24 43 -11 17 17 31 13 17 -4 -15 -18 -51 -20
-68 -3 -7 7 -12 24 -12 38 0 31 17 50 45 50 12 0 26 -5 33 -12z m110 0 c7 -7
12 -20 12 -30 0 -14 -8 -18 -35 -18 -19 0 -35 -4 -35 -9 0 -14 32 -23 44 -11
16 16 30 12 16 -5 -15 -18 -51 -20 -68 -3 -7 7 -12 24 -12 38 0 31 17 50 45
50 12 0 26 -5 33 -12z m222 -3 c14 -17 0 -21 -17 -4 -11 11 -33 5 -33 -9 0 -4
14 -13 31 -19 21 -8 30 -17 27 -30 -4 -23 -50 -29 -68 -9 -14 18 0 22 17 5 12
-12 33 -4 33 12 0 5 -6 9 -13 9 -7 0 -22 6 -32 14 -16 12 -17 16 -6 30 17 20
45 21 61 1z m368 3 c7 -7 12 -20 12 -30 0 -14 -8 -18 -35 -18 -19 0 -35 -5
-35 -10 0 -16 30 -24 43 -11 17 17 31 13 17 -4 -15 -18 -51 -20 -68 -3 -7 7
-12 24 -12 38 0 31 17 50 45 50 12 0 26 -5 33 -12z m6910 -44 c4 -45 -13 -84
-39 -84 -19 0 -21 4 -15 38 3 20 6 47 6 60 0 19 5 23 23 20 16 -2 23 -11 25
-34z m-2345 -1 c-7 -2 -19 -2 -25 0 -7 3 -2 5 12 5 14 0 19 -2 13 -5z m-4893
-33 c0 -5 -4 -10 -10 -10 -5 0 -10 5 -10 10 0 6 5 10 10 10 6 0 10 -4 10 -10z
m6609 -76 c6 -14 9 -30 6 -34 -16 -27 -382 -176 -409 -167 -13 4 110 82 224
142 53 28 107 58 120 68 33 23 45 22 59 -9z m-1292 -6 c-3 -8 -6 -5 -6 6 -1
11 2 17 5 13 3 -3 4 -12 1 -19z m1733 9 c0 -7 -6 -22 -14 -32 -12 -16 -16 -17
-30 -6 -9 7 -25 11 -36 8 -34 -9 -22 3 23 23 50 23 57 24 57 7z m-269 -49 c24
-29 24 -48 0 -48 -18 0 -51 38 -51 60 0 18 31 11 51 -12z m279 -15 c0 -5 -5
-15 -10 -23 -8 -12 -10 -11 -10 8 0 12 5 22 10 22 6 0 10 -3 10 -7z m-409 -20
c8 -9 27 -21 42 -28 28 -11 24 -13 -105 -70 -147 -64 -335 -156 -415 -203 -58
-35 -208 -92 -300 -116 -34 -9 -68 -19 -75 -21 -9 -4 -14 3 -16 19 -1 20 5 27
36 36 20 7 64 33 97 59 33 25 96 65 140 89 44 24 71 41 60 38 -11 -3 -33 -8
-50 -11 -29 -6 -28 -5 10 20 22 14 51 28 65 31 48 10 239 75 361 124 68 27
127 49 130 49 4 1 13 -6 20 -16z m-10051 -39 c0 -8 -5 -12 -10 -9 -6 4 -8 11
-5 16 9 14 15 11 15 -7z m3350 8 c0 -4 -5 -13 -12 -20 -9 -9 -9 -12 1 -12 10
0 11 -4 3 -13 -6 -7 -12 -30 -15 -52 l-4 -40 -1 41 c-1 22 -7 45 -14 52 -8 8
-8 12 -1 12 6 0 13 9 16 20 5 19 27 29 27 12z m7081 -25 c-10 -27 -31 -45 -31
-27 0 13 31 62 37 57 2 -2 -1 -16 -6 -30z m-9521 -42 c0 -37 -4 -65 -10 -65
-6 0 -10 28 -10 65 0 37 4 65 10 65 6 0 10 -28 10 -65z m2330 0 c0 -37 -4 -65
-10 -65 -6 0 -10 28 -10 65 0 37 4 65 10 65 6 0 10 -28 10 -65z m-1600 45 c0
-5 8 -10 18 -10 16 -1 16 -1 0 -11 -11 -6 -18 -22 -18 -39 0 -17 7 -33 18 -39
15 -9 15 -10 -5 -11 -18 0 -23 7 -28 38 -7 40 -8 50 -6 70 1 14 21 17 21 2z
m660 0 c0 -5 8 -11 18 -11 16 -1 16 -2 0 -6 -13 -3 -18 -14 -18 -38 0 -22 6
-38 18 -45 15 -9 14 -10 -8 -8 -22 3 -26 9 -30 49 -3 26 -4 52 -2 58 5 14 22
15 22 1z m9320 -50 c96 -22 281 -69 410 -103 207 -56 235 -66 238 -84 3 -20
-29 -12 -430 104 -238 68 -435 127 -438 130 -3 3 6 3 20 0 14 -3 104 -24 200
-47z m-12062 28 c7 -7 12 -20 12 -30 0 -14 -8 -18 -42 -18 -39 0 -41 -1 -26
-16 12 -12 20 -14 36 -5 29 15 37 14 22 -4 -26 -31 -90 -8 -90 32 0 41 60 69
88 41z m54 -4 c16 -16 18 -16 24 0 3 9 11 16 16 16 6 0 3 -11 -6 -25 -15 -23
-15 -27 0 -50 9 -14 12 -25 6 -25 -6 0 -16 8 -22 18 -10 16 -10 16 -20 0 -6
-10 -15 -18 -21 -18 -5 0 -2 11 7 25 15 23 15 27 0 50 -19 29 -11 33 16 9z
m158 -34 l0 -45 -40 -3 c-30 -2 -41 2 -50 17 -24 46 2 82 56 78 33 -2 34 -3
34 -47z m105 40 c4 -6 14 -5 25 3 31 19 54 -2 58 -52 2 -24 -1 -41 -7 -41 -6
0 -11 18 -11 39 0 39 -12 53 -37 43 -8 -2 -13 -21 -13 -43 0 -21 -4 -39 -10
-39 -5 0 -10 15 -10 33 0 37 -15 58 -36 50 -9 -3 -14 -20 -14 -44 0 -21 -4
-39 -10 -39 -5 0 -10 22 -10 48 0 49 0 49 35 50 19 1 37 -3 40 -8z m125 -40
c0 -27 -4 -50 -10 -50 -5 0 -10 23 -10 50 0 28 5 50 10 50 6 0 10 -22 10 -50z
m107 38 c15 -12 18 -88 3 -88 -5 0 -10 18 -10 39 0 39 -12 53 -37 43 -8 -2
-13 -21 -13 -43 0 -21 -4 -39 -10 -39 -5 0 -10 22 -10 48 0 48 0 49 32 50 18
0 38 -4 45 -10z m111 0 c7 -7 12 -20 12 -30 0 -14 -8 -18 -35 -18 -19 0 -35
-4 -35 -9 0 -14 32 -23 44 -11 16 16 30 12 16 -5 -15 -18 -51 -20 -68 -3 -7 7
-12 24 -12 38 0 31 17 50 45 50 12 0 26 -5 33 -12z m182 -38 l0 -47 -37 -1
c-45 -2 -63 12 -63 47 0 37 17 51 62 49 l38 -1 0 -47z m88 44 c19 -4 22 -10
20 -52 -1 -42 -2 -43 -5 -10 -8 71 -63 73 -63 2 0 -19 -4 -34 -10 -34 -5 0
-10 22 -10 49 0 53 5 57 68 45z m129 -6 c15 -12 18 -88 3 -88 -5 0 -10 18 -10
39 0 39 -12 53 -37 43 -8 -2 -13 -21 -13 -43 0 -21 -4 -39 -10 -39 -5 0 -10
22 -10 48 0 48 0 49 32 50 18 0 38 -4 45 -10z m53 -27 c0 -26 5 -41 16 -45 24
-9 34 2 34 39 0 19 5 37 10 40 6 4 10 -13 10 -44 l0 -51 -35 0 c-24 0 -37 6
-45 19 -13 25 -13 81 0 81 6 0 10 -18 10 -39z m200 -11 l0 -47 -37 -1 c-45 -2
-63 12 -63 47 0 37 17 51 62 49 l38 -1 0 -47z m197 39 c18 -15 17 -64 -2 -79
-8 -7 -26 -10 -40 -8 -22 5 -25 2 -25 -24 0 -17 -4 -27 -10 -23 -5 3 -10 37
-10 74 l0 68 37 1 c20 1 42 -3 50 -9z m117 -5 c28 -28 20 -44 -24 -44 -41 0
-53 -13 -24 -24 9 -4 23 -1 31 5 15 13 28 6 18 -10 -3 -6 -19 -11 -35 -11 -45
0 -66 52 -34 84 20 20 48 20 68 0z m72 1 c-10 -8 -22 -31 -26 -52 -8 -38 -8
-38 -9 12 -1 48 0 51 27 53 25 1 26 1 8 -13z m104 0 c14 -17 3 -20 -19 -6 -23
15 -41 1 -41 -30 0 -32 24 -49 43 -30 17 17 31 13 17 -4 -15 -18 -51 -20 -68
-3 -7 7 -12 24 -12 38 0 14 5 31 12 38 17 17 53 15 68 -3z m108 3 c7 -7 12
-20 12 -30 0 -14 -8 -18 -35 -18 -19 0 -35 -4 -35 -9 0 -14 32 -23 44 -11 16
16 30 12 16 -5 -15 -18 -51 -20 -68 -3 -7 7 -12 24 -12 38 0 31 17 50 45 50
12 0 26 -5 33 -12z m121 -7 c14 -25 14 -81 1 -81 -5 0 -10 15 -10 34 0 67 -47
67 -60 0 l-8 -39 -1 50 -1 51 34 2 c26 2 38 -3 45 -17z m191 -32 l0 -46 -40
-1 c-34 -2 -42 2 -52 23 -8 19 -8 31 0 50 10 22 17 25 52 23 l40 -3 0 -46z
m120 -14 c0 -34 -5 -66 -12 -73 -23 -23 -78 -8 -78 22 0 6 5 5 12 -2 11 -11
58 -17 58 -8 0 2 3 11 6 20 5 13 1 15 -23 10 -21 -4 -35 -1 -46 11 -38 37 -8
86 49 82 l34 -2 0 -60z m108 53 c7 -7 12 -20 12 -30 0 -14 -8 -18 -42 -18 -39
0 -41 -1 -26 -16 12 -12 20 -14 36 -5 29 15 37 14 22 -4 -27 -32 -90 -7 -90
35 0 40 60 66 88 38z m132 1 c0 -5 -7 -9 -15 -9 -11 0 -15 -11 -15 -40 0 -22
-4 -40 -10 -40 -5 0 -10 22 -10 49 0 45 2 49 25 49 14 0 25 -4 25 -9z m110
-40 l0 -46 -40 -1 c-34 -2 -42 2 -52 23 -8 19 -8 31 0 50 10 22 17 25 52 23
l40 -3 0 -46z m168 39 c7 -7 12 -20 12 -30 0 -14 -8 -18 -35 -18 -19 0 -35 -4
-35 -9 0 -14 32 -23 44 -11 16 16 30 12 16 -5 -15 -18 -51 -20 -68 -3 -7 7
-12 24 -12 38 0 31 17 50 45 50 12 0 26 -5 33 -12z m102 -3 c14 -17 0 -21 -17
-4 -11 11 -33 5 -33 -9 0 -4 14 -13 31 -19 21 -8 30 -17 27 -30 -4 -23 -50
-29 -68 -9 -14 18 0 22 17 5 12 -12 33 -4 33 12 0 5 -6 9 -13 9 -7 0 -22 6
-32 14 -16 12 -17 16 -6 30 17 20 45 21 61 1z m210 -35 l0 -47 -37 -1 c-45 -2
-63 12 -63 47 0 37 17 51 62 49 l38 -1 0 -47z m88 44 c19 -4 22 -10 20 -52 -1
-42 -2 -43 -5 -10 -8 71 -63 73 -63 2 0 -19 -4 -34 -10 -34 -5 0 -10 22 -10
49 0 53 5 57 68 45z m129 -6 c15 -12 18 -88 3 -88 -5 0 -10 18 -10 39 0 39
-12 53 -37 43 -8 -2 -13 -21 -13 -43 0 -21 -4 -39 -10 -39 -5 0 -10 22 -10 48
0 48 0 49 32 50 18 0 38 -4 45 -10z m53 -27 c0 -26 5 -41 16 -45 24 -9 34 2
34 39 0 19 5 37 10 40 6 4 10 -13 10 -44 l0 -51 -35 0 c-24 0 -37 6 -45 19
-13 25 -13 81 0 81 6 0 10 -18 10 -39z m190 -11 l0 -45 -40 -3 c-30 -2 -41 2
-50 17 -24 46 2 82 56 78 33 -2 34 -3 34 -47z m258 38 c7 -7 12 -20 12 -30 0
-14 -8 -18 -35 -18 -19 0 -35 -4 -35 -9 0 -14 32 -23 44 -11 16 16 30 12 16
-5 -15 -18 -51 -20 -68 -3 -7 7 -12 24 -12 38 0 31 17 50 45 50 12 0 26 -5 33
-12z m110 0 c7 -7 12 -20 12 -30 0 -14 -8 -18 -35 -18 -19 0 -35 -4 -35 -9 0
-14 32 -23 44 -11 16 16 30 12 16 -5 -15 -18 -51 -20 -68 -3 -7 7 -12 24 -12
38 0 31 17 50 45 50 12 0 26 -5 33 -12z m102 -3 c14 -17 0 -21 -17 -4 -11 11
-33 5 -33 -9 0 -4 14 -13 31 -19 21 -8 30 -17 27 -30 -4 -23 -50 -29 -68 -9
-14 18 0 22 17 5 12 -12 33 -4 33 12 0 5 -6 9 -13 9 -7 0 -22 6 -32 14 -16 12
-17 16 -6 30 17 20 45 21 61 1z m-1109 -102 c-10 -17 -10 -16 -11 3 0 23 13
41 18 25 2 -6 -1 -18 -7 -28z m5779 -82 c0 -11 -17 -17 -74 -27 -30 -5 -38 -4
-34 7 7 21 108 39 108 20z m430 -21 c-19 -11 -42 -19 -50 -19 -8 0 1 8 20 19
19 11 42 19 50 19 8 0 -1 -8 -20 -19z m-828 -26 c-85 -37 -48 -160 38 -127 27
10 28 10 17 -8 -27 -44 -117 -2 -117 55 0 52 36 95 80 95 8 -1 0 -7 -18 -15z
m888 -12 c0 -11 -91 -55 -98 -47 -7 7 -4 9 43 33 44 23 55 26 55 14z m-952
-103 c-2 -6 -8 -10 -13 -10 -5 0 -11 4 -13 10 -2 6 4 11 13 11 9 0 15 -5 13
-11z m412 2 c0 -12 -20 -25 -27 -18 -7 7 6 27 18 27 5 0 9 -4 9 -9z m-50 -31
c0 -5 -9 -10 -19 -10 -11 0 -23 5 -26 10 -4 6 5 10 19 10 14 0 26 -4 26 -10z
m30 -1570 c0 -13 7 -20 18 -20 25 0 62 -36 62 -60 0 -26 -47 -27 -66 -2 -12
15 -13 13 -14 -18 0 -32 4 -37 36 -49 40 -14 60 -47 50 -85 -8 -31 -43 -66
-67 -66 -9 0 -19 -9 -22 -20 -6 -23 -27 -27 -27 -5 0 9 -12 20 -27 26 -66 25
-88 79 -33 79 18 0 33 -6 36 -15 10 -26 24 -16 24 18 -1 28 -6 35 -43 52 -37
18 -42 24 -45 58 -4 44 10 65 56 84 17 7 32 20 32 28 0 8 7 15 15 15 8 0 15
-9 15 -20z m-8501 -15 c45 -23 56 -78 22 -109 -19 -17 -19 -18 0 -37 27 -27
25 -86 -3 -116 -17 -18 -32 -23 -71 -23 -40 0 -53 5 -78 29 -16 16 -29 37 -29
45 0 24 52 21 68 -4 24 -40 89 -14 74 30 -7 20 -22 30 -49 30 -18 0 -23 6 -23
25 0 20 5 25 24 25 32 0 53 26 39 48 -15 25 -50 27 -63 3 -6 -13 -21 -21 -35
-21 -33 0 -33 33 0 65 28 29 80 33 124 10z m271 -10 c24 -22 27 -87 5 -105
-14 -12 -13 -15 5 -35 22 -23 26 -65 10 -96 -28 -52 -129 -63 -176 -18 -30 28
-33 90 -6 117 18 18 18 19 0 42 -10 12 -18 30 -18 39 0 23 28 61 54 72 31 13
104 4 126 -16z m234 14 c14 -7 32 -26 41 -44 18 -38 20 -138 4 -184 -20 -58
-111 -81 -162 -41 -66 52 -55 241 16 270 31 12 72 12 101 -1z m265 -5 c68 -48
68 -220 0 -268 -13 -9 -39 -16 -59 -16 -69 0 -110 55 -110 150 0 95 41 150
110 150 20 0 46 -7 59 -16z m3504 -4 c55 -43 41 -116 -34 -189 l-43 -41 57 0
c54 0 57 -1 57 -25 l0 -25 -100 0 c-96 0 -100 1 -100 22 0 13 24 45 66 84 61
58 65 65 62 101 -3 33 -6 38 -28 38 -16 0 -28 -8 -35 -22 -7 -16 -18 -23 -37
-23 -38 0 -37 32 1 71 36 36 95 40 134 9z m220 9 c24 -11 47 -47 47 -73 0 -7
-9 -24 -19 -38 -20 -24 -20 -25 0 -41 30 -26 26 -90 -7 -116 -30 -24 -108 -28
-135 -8 -18 13 -39 50 -39 66 0 20 55 12 68 -10 9 -14 21 -19 40 -17 23 2 27
8 27 33 0 25 -5 32 -32 40 -25 7 -33 15 -33 32 0 18 6 23 24 23 32 0 53 26 39
48 -15 25 -50 27 -63 3 -7 -14 -21 -21 -41 -21 -27 0 -30 3 -24 23 16 56 88
83 148 56z m256 -5 c32 -23 51 -73 51 -134 0 -95 -41 -150 -110 -150 -69 0
-110 55 -110 150 0 95 41 150 110 150 20 0 46 -7 59 -16z m4040 1 c32 -16 41
-33 41 -76 0 -40 -14 -65 -63 -116 l-41 -43 57 0 c54 0 57 -1 57 -25 l0 -25
-100 0 c-98 0 -100 1 -100 23 0 15 20 42 60 79 60 58 81 99 63 127 -15 23 -46
20 -58 -6 -7 -16 -18 -23 -37 -23 -40 0 -38 40 3 74 35 29 76 33 118 11z m245
-6 c32 -26 37 -92 8 -110 -18 -11 -17 -13 5 -35 31 -31 30 -78 -2 -109 -35
-36 -115 -36 -150 0 -35 34 -33 65 4 65 21 0 30 -6 34 -21 4 -16 12 -20 39
-17 29 3 33 6 33 33 0 25 -5 32 -32 40 -44 12 -47 52 -5 57 23 3 27 8 27 33 0
23 -5 31 -22 33 -14 2 -27 -4 -35 -17 -16 -26 -68 -29 -68 -5 0 8 13 29 29 45
37 36 94 40 135 8z m245 5 c32 -23 51 -73 51 -134 0 -95 -41 -150 -110 -150
-69 0 -110 55 -110 150 0 95 41 150 110 150 20 0 46 -7 59 -16z m205 -101 c21
-51 42 -93 45 -93 3 0 24 43 45 95 39 93 40 95 73 95 l33 0 0 -140 0 -140 -30
0 -29 0 -3 77 -3 76 -30 -74 c-25 -63 -34 -74 -56 -77 -23 -3 -28 3 -53 68
-36 91 -51 91 -43 0 l6 -70 -35 0 -34 0 0 141 0 140 37 -3 c37 -3 38 -4 77
-95z m-8484 27 l0 -40 40 0 c36 0 40 -2 40 -25 0 -22 -4 -25 -40 -25 l-40 0 0
-40 c0 -38 -2 -40 -30 -40 -28 0 -30 2 -30 40 0 39 -1 40 -35 40 -31 0 -35 3
-35 25 0 22 4 25 35 25 33 0 35 2 35 33 0 40 6 47 37 47 20 0 23 -5 23 -40z
m3988 -2 c3 -36 5 -38 38 -38 30 0 34 -3 34 -25 0 -22 -4 -25 -35 -25 -34 0
-35 -1 -35 -40 0 -38 -2 -40 -29 -40 -27 0 -30 3 -33 38 -3 35 -5 37 -40 40
-33 3 -38 7 -38 28 0 21 4 24 40 24 l40 0 0 41 c0 38 1 40 28 37 23 -3 27 -8
30 -40z m4882 2 l0 -40 40 0 c36 0 40 -2 40 -25 0 -22 -4 -25 -40 -25 l-40 0
0 -40 c0 -38 -2 -40 -30 -40 -28 0 -30 2 -30 40 0 39 -1 40 -35 40 -31 0 -35
3 -35 25 0 22 4 25 35 25 33 0 35 2 35 33 0 40 6 47 37 47 20 0 23 -5 23 -40z
m-8613 -82 c-2 -18 -4 -6 -4 27 0 33 2 48 4 33 2 -15 2 -42 0 -60z m187 76 c9
-3 16 -10 16 -15 0 -5 -8 -4 -19 2 -10 7 -26 9 -35 6 -27 -11 -18 -36 19 -51
19 -8 35 -21 35 -28 0 -8 -3 -9 -8 -2 -4 5 -22 16 -39 23 -60 24 -29 88 31 65z
m99 -1 c-27 -4 -33 -9 -33 -29 0 -19 5 -24 25 -24 14 0 25 -4 25 -10 0 -5 -11
-10 -25 -10 -20 0 -25 -5 -25 -24 0 -19 6 -26 28 -29 25 -4 25 -4 -5 -6 l-33
-1 0 70 0 70 38 -2 c36 -1 36 -1 5 -5z m128 -3 c23 -13 24 -37 3 -61 -15 -17
-15 -20 0 -44 9 -14 13 -25 9 -25 -5 0 -16 14 -25 30 -23 40 -46 39 -51 -2 -2
-18 -5 0 -5 40 -2 71 -2 72 24 72 14 0 34 -5 45 -10z m185 -53 c26 -79 27 -84
14 -64 -15 23 -75 23 -84 1 -14 -35 -15 -5 -2 32 40 112 45 114 72 31z m159
47 c23 -23 11 -29 -19 -9 -24 16 -28 16 -51 1 -50 -33 -18 -116 40 -102 14 4
25 11 25 16 0 6 5 10 12 10 6 0 3 -9 -7 -20 -38 -42 -108 -10 -108 50 0 57 69
92 108 54z m118 6 c-20 -8 -23 -17 -25 -72 l-1 -63 -6 64 c-5 52 -10 66 -26
72 -14 5 -4 8 30 8 40 0 45 -2 28 -9z m57 -54 c0 -36 -4 -68 -10 -71 -6 -4
-10 20 -10 64 0 41 4 71 10 71 6 0 10 -28 10 -64z m55 12 c10 -29 21 -56 24
-61 4 -4 15 17 25 45 19 55 45 94 31 48 -17 -55 -43 -114 -52 -117 -6 -2 -13
4 -15 14 -3 10 -15 42 -27 71 -11 28 -17 52 -12 52 5 0 17 -24 26 -52z m160
43 c-21 -4 -31 -13 -33 -29 -3 -18 1 -22 22 -22 14 0 26 -4 26 -10 0 -5 -11
-10 -25 -10 -20 0 -25 -5 -25 -24 0 -20 6 -25 33 -29 31 -4 31 -4 -5 -5 l-38
-2 0 70 0 70 38 -1 c36 -1 36 -2 7 -8z m2888 2 c-21 -4 -23 -11 -25 -71 l-2
-67 -3 67 c-4 59 -6 67 -26 71 -12 2 1 4 28 4 28 0 40 -2 28 -4z m80 0 c-18
-3 -23 -11 -23 -34 0 -27 3 -30 28 -27 22 2 27 8 27 30 -1 14 3 24 7 22 13 -8
9 -41 -7 -54 -13 -11 -13 -15 1 -41 8 -16 12 -29 10 -29 -3 0 -12 14 -21 30
-21 40 -43 39 -48 -2 -2 -18 -5 0 -5 40 l-2 72 28 -1 c23 -2 24 -2 5 -6z m109
-110 c15 -18 45 -16 57 5 6 9 11 12 11 6 0 -15 -22 -34 -41 -34 -34 0 -49 28
-47 88 l2 57 3 -55 c3 -30 9 -60 15 -67z m75 50 c-2 -16 -4 -5 -4 22 0 28 2
40 4 28 2 -13 2 -35 0 -50z m97 61 c9 -3 16 -11 16 -16 0 -6 -6 -6 -15 2 -17
14 -55 4 -55 -16 0 -7 15 -20 34 -28 18 -8 36 -19 40 -24 9 -15 -4 -41 -25
-47 -21 -7 -59 10 -59 26 0 6 7 3 16 -5 19 -19 36 -20 52 -4 19 19 15 27 -23
42 -40 17 -53 39 -35 61 13 16 29 19 54 9z m121 -3 c-16 -6 -21 -20 -26 -72
l-6 -64 -1 67 c-2 60 -4 67 -24 71 -13 2 0 5 27 5 34 0 43 -2 30 -7z m88 2
c-27 -4 -33 -9 -33 -29 0 -19 5 -24 25 -24 14 0 25 -4 25 -10 0 -5 -11 -10
-25 -10 -20 0 -25 -5 -25 -24 0 -20 6 -25 33 -29 31 -4 31 -4 -5 -5 l-38 -2 0
70 0 70 38 -2 c36 -1 36 -1 5 -5z m154 -19 c17 -24 16 -79 -2 -94 -8 -6 -32
-14 -55 -17 l-40 -6 0 73 0 73 42 -6 c23 -3 48 -14 55 -23z m177 10 c12 -11
13 -20 6 -34 -8 -14 -7 -26 2 -40 11 -18 10 -23 -6 -36 -11 -8 -32 -14 -48
-14 l-28 0 0 70 0 70 29 0 c16 0 37 -7 45 -16z m65 -21 l19 -38 18 38 c25 52
38 47 14 -5 -10 -24 -22 -56 -26 -73 l-8 -30 -4 33 c-2 19 -12 48 -23 65 -10
18 -19 35 -19 40 0 16 11 5 29 -30z m256 17 c21 -24 13 -26 -18 -5 -47 30 -98
-15 -77 -69 12 -32 45 -42 75 -22 34 22 45 19 16 -4 -13 -11 -34 -20 -46 -20
-26 0 -65 42 -65 70 0 10 9 29 21 44 25 32 68 35 94 6z m155 0 c40 -40 12
-120 -43 -120 -41 0 -67 27 -67 70 0 29 6 43 22 54 31 22 64 20 88 -4z m90
-35 c12 -30 25 -55 29 -55 4 0 18 25 30 55 13 30 27 55 32 55 5 0 9 -31 9 -70
0 -40 -4 -70 -10 -70 -5 0 -10 21 -10 48 l-1 47 -26 -50 -26 -50 -20 48 c-11
26 -23 47 -28 47 -4 0 -10 -21 -12 -47 -3 -37 -4 -31 -5 25 -1 39 2 72 7 72 5
0 19 -25 31 -55z m201 45 c39 -21 16 -70 -32 -70 -24 0 -28 -5 -32 -32 -2 -18
-5 0 -5 40 -2 71 -2 72 24 72 14 0 34 -5 45 -10z m127 -52 c23 -67 28 -95 11
-65 -6 10 -22 17 -41 17 -18 0 -37 -8 -44 -17 -11 -15 3 39 31 115 9 25 22 10
43 -50z m103 10 l34 -53 3 53 c4 77 22 63 22 -18 0 -38 -3 -70 -7 -70 -5 0
-24 23 -43 52 l-35 51 -3 -44 c-6 -76 -22 -69 -22 9 0 40 4 72 9 72 5 0 24
-24 42 -52z m113 15 l18 -38 20 38 c11 22 22 37 24 34 3 -3 -2 -20 -12 -39
-10 -18 -21 -49 -25 -68 -6 -32 -7 -33 -8 -7 0 16 -13 48 -27 73 -14 24 -22
44 -17 44 5 0 17 -17 27 -37z m2874 30 c-15 -4 -18 -17 -20 -71 l-2 -67 -3 67
c-4 59 -6 67 -26 71 -12 2 -2 4 23 4 25 1 37 -1 28 -4z m113 -3 c23 -13 25
-43 4 -60 -9 -7 -13 -20 -10 -29 4 -13 2 -12 -9 2 -7 9 -22 18 -32 18 -10 1
-3 4 16 8 26 4 36 12 38 28 3 17 -3 24 -22 29 -14 3 -30 3 -35 -1 -6 -3 -11
-1 -11 4 0 14 36 14 61 1z m138 -63 c24 -67 26 -78 8 -53 -10 14 -23 17 -50
14 -20 -2 -37 -3 -37 -2 0 1 25 75 35 103 8 21 20 4 44 -62z m99 22 c18 -28
32 -53 29 -55 -2 -2 -17 15 -33 38 l-29 43 -6 -60 -6 -60 -1 73 c-1 39 1 72 6
72 4 0 22 -23 40 -51z m61 24 c-1 -48 -14 -118 -20 -108 -8 16 2 135 12 135 5
0 9 -12 8 -27z m95 21 c9 -3 16 -10 16 -15 0 -6 -8 -5 -19 1 -11 5 -27 7 -35
4 -27 -10 -18 -33 18 -48 39 -16 48 -28 40 -50 -13 -33 -84 -28 -84 6 0 5 7 2
16 -7 20 -20 48 -16 52 8 3 12 -7 22 -32 32 -37 16 -47 40 -24 63 13 13 28 15
52 6z m134 -56 c23 -66 28 -95 11 -65 -6 10 -22 17 -41 17 -18 0 -37 -8 -44
-17 -11 -15 3 39 31 115 9 24 21 11 43 -50z m158 48 c10 -8 16 -18 12 -21 -4
-4 -14 0 -23 9 -20 20 -35 20 -63 0 -32 -22 -30 -69 4 -91 25 -16 28 -16 56 0
20 11 28 13 26 5 -8 -24 -57 -34 -86 -17 -21 12 -28 23 -30 56 -2 33 1 44 20
57 28 20 58 20 84 2z m117 4 c-20 -8 -23 -17 -25 -72 l-1 -63 -6 64 c-5 52
-10 66 -26 72 -14 5 -4 8 30 8 40 0 45 -2 28 -9z m54 -97 c-2 -21 -4 -4 -4 37
0 41 2 58 4 38 2 -21 2 -55 0 -75z m143 87 c40 -40 12 -120 -43 -120 -41 0
-67 27 -67 70 0 29 6 43 22 54 31 22 64 20 88 -4z m98 -31 c18 -28 31 -53 29
-55 -3 -3 -15 11 -27 30 -12 20 -26 36 -30 36 -5 0 -11 -24 -13 -52 -3 -46 -4
-43 -5 20 -1 39 1 72 6 72 4 0 22 -23 40 -51z m61 -1 c0 -54 -12 -99 -20 -82
-8 16 2 134 12 134 5 0 9 -24 8 -52z m-10118 -71 c-10 -9 -11 -8 -5 6 3 10 9
15 12 12 3 -3 0 -11 -7 -18z m119 -7 c-8 -6 -22 -10 -30 -10 -8 0 -4 6 10 13
27 15 44 12 20 -3z m-155 0 c13 -6 15 -9 5 -9 -8 0 -22 4 -30 9 -18 12 -2 12
25 0z"/>
<path d="M14637 8853 c-22 -21 2 -56 31 -46 20 7 15 53 -6 53 -10 0 -22 -3
-25 -7z"/>
<path d="M14380 8870 c0 -15 5 -20 18 -18 9 2 17 10 17 18 0 8 -8 16 -17 18
-13 2 -18 -3 -18 -18z"/>
<path d="M12520 8836 c0 -32 18 -43 37 -23 20 20 10 47 -17 47 -15 0 -20 -7
-20 -24z"/>
<path d="M12785 8850 c-4 -6 5 -10 19 -10 14 0 26 5 26 10 0 6 -9 10 -19 10
-11 0 -23 -4 -26 -10z"/>
<path d="M13365 8850 c-4 -6 5 -10 19 -10 14 0 26 5 26 10 0 6 -9 10 -19 10
-11 0 -23 -4 -26 -10z"/>
<path d="M13466 8843 c-4 -9 0 -23 9 -32 13 -14 17 -14 31 1 9 9 14 24 11 32
-8 21 -43 20 -51 -1z"/>
<path d="M13795 8850 c-4 -6 5 -10 19 -10 14 0 26 5 26 10 0 6 -9 10 -19 10
-11 0 -23 -4 -26 -10z"/>
<path d="M14530 8836 c0 -32 18 -43 37 -23 20 20 10 47 -17 47 -15 0 -20 -7
-20 -24z"/>
<path d="M15600 8850 c0 -5 12 -10 26 -10 14 0 23 4 19 10 -3 6 -15 10 -26 10
-10 0 -19 -4 -19 -10z"/>
<path d="M3900 8835 c0 -11 7 -15 23 -13 12 2 22 8 22 13 0 6 -10 11 -22 13
-16 2 -23 -2 -23 -13z"/>
<path d="M3900 8785 c0 -9 9 -15 25 -15 16 0 25 6 25 15 0 9 -9 15 -25 15 -16
0 -25 -6 -25 -15z"/>
<path d="M3673 8804 c-3 -8 -1 -20 5 -26 16 -16 42 -2 42 22 0 24 -38 28 -47
4z"/>
<path d="M3790 8795 c0 -18 5 -25 20 -25 15 0 20 7 20 25 0 18 -5 25 -20 25
-15 0 -20 -7 -20 -25z"/>
<path d="M11460 6559 c-58 -34 -115 -65 -127 -70 -13 -5 -23 -12 -23 -16 0 -5
118 -75 263 -158 144 -82 318 -182 386 -222 67 -40 124 -73 126 -73 1 0 5 22
7 49 7 76 51 153 131 231 38 39 65 70 59 70 -7 0 -12 -4 -12 -10 0 -6 -9 -6
-22 -1 -13 5 -32 5 -43 1 -11 -4 -26 -3 -32 2 -9 7 -13 7 -13 0 0 -5 -9 -8
-20 -5 -11 3 -20 1 -20 -4 0 -6 -11 -8 -25 -5 -14 2 -25 11 -25 19 0 8 4 12
10 8 5 -3 21 -3 35 1 19 5 23 10 16 17 -8 8 -14 8 -23 -1 -13 -13 -32 -16 -24
-4 2 4 -18 7 -45 6 -42 -2 -50 0 -45 13 5 12 2 14 -16 8 -35 -11 -69 -8 -95 8
-7 5 -19 5 -25 2 -7 -4 -1 5 14 18 l27 26 -31 6 c-18 4 -26 10 -19 14 16 10 4
38 -20 44 -14 4 -19 0 -19 -14 0 -11 -7 -22 -15 -25 -23 -9 -65 5 -65 21 0 9
-6 12 -17 8 -15 -6 -14 -8 5 -21 28 -18 28 -28 1 -43 -17 -9 -30 -7 -60 7 -22
9 -39 20 -39 24 0 14 25 30 47 30 13 0 23 6 23 14 0 8 10 18 22 22 21 6 21 7
-8 22 -16 9 -31 16 -34 17 -3 0 -10 3 -16 7 -6 4 -21 6 -33 3 -11 -2 -21 0
-21 6 0 21 -41 6 -140 -52z m402 -101 c-9 -9 -15 -9 -24 0 -9 9 -7 12 12 12
19 0 21 -3 12 -12z m118 -58 c0 -5 -5 -10 -11 -10 -5 0 -7 5 -4 10 3 6 8 10
11 10 2 0 4 -4 4 -10z"/>
<path d="M11810 6576 c0 -2 7 -7 16 -10 8 -3 12 -2 9 4 -6 10 -25 14 -25 6z"/>
<path d="M11757 6550 c-6 -25 4 -32 20 -15 10 10 9 16 -1 24 -10 9 -15 7 -19
-9z"/>
<path d="M11880 6499 c0 -5 5 -7 10 -4 6 3 10 8 10 11 0 2 -4 4 -10 4 -5 0
-10 -5 -10 -11z"/>
<path d="M12167 5261 c-25 -17 -81 -49 -124 -72 -141 -76 -244 -142 -233 -149
6 -4 40 -8 74 -9 48 -1 65 2 69 13 3 8 -1 20 -9 26 -25 21 -15 34 54 73 56 32
73 38 104 33 30 -5 41 -2 58 16 11 12 20 27 20 34 0 6 9 23 21 38 26 33 23 33
-34 -3z"/>
<path d="M12021 5130 c-30 -17 -56 -32 -59 -34 -2 -3 10 -11 26 -20 25 -13 32
-13 41 -2 6 7 7 17 3 21 -4 5 -1 5 6 1 6 -4 12 -2 12 3 0 6 9 11 21 11 11 0
18 4 14 9 -3 5 -1 12 5 16 11 7 4 25 -8 25 -4 0 -31 -14 -61 -30z"/>
<path d="M11316 4745 c22 -17 44 -19 44 -5 0 5 -6 7 -14 4 -8 -3 -17 -1 -21 5
-3 6 -11 11 -18 11 -6 0 -2 -7 9 -15z"/>
<path d="M11960 4575 c-11 -13 -10 -14 4 -9 9 3 16 10 16 15 0 13 -6 11 -20
-6z"/>
<path d="M12064 4525 c-10 -8 -14 -15 -8 -15 6 0 17 7 24 15 16 19 9 19 -16 0z"/>
<path d="M12120 4490 c-8 -5 -10 -10 -5 -10 6 0 17 5 25 10 8 5 11 10 5 10 -5
0 -17 -5 -25 -10z"/>
<path d="M12230 4435 c-14 -8 -20 -14 -14 -15 5 0 19 7 30 15 24 18 16 19 -16
0z"/>
<path d="M3814 6717 c-3 -9 -4 -28 -2 -44 2 -20 8 -28 23 -28 17 0 20 7 20 40
0 30 -4 41 -18 43 -9 2 -20 -3 -23 -11z"/>
<path d="M3920 6720 c0 -5 5 -10 10 -10 6 0 10 5 10 10 0 6 -4 10 -10 10 -5 0
-10 -4 -10 -10z"/>
<path d="M4110 6686 c0 -44 1 -46 30 -46 24 0 31 5 36 27 9 34 -6 57 -40 61
-25 3 -26 1 -26 -42z"/>
<path d="M6006 6695 c-10 -26 -7 -35 9 -35 17 0 19 18 6 38 -7 11 -10 10 -15
-3z"/>
<path d="M4487 6694 c-12 -13 -8 -52 7 -57 21 -8 49 16 44 39 -3 19 -38 31
-51 18z"/>
<path d="M5037 6694 c-12 -13 -8 -52 7 -57 21 -8 49 16 44 39 -3 19 -38 31
-51 18z"/>
<path d="M5524 6686 c-10 -26 4 -48 28 -44 17 2 23 10 23 28 0 18 -6 26 -23
28 -13 2 -25 -3 -28 -12z"/>
<path d="M6327 6694 c-23 -23 7 -69 37 -58 25 10 17 58 -9 62 -12 2 -24 0 -28
-4z"/>
<path d="M3990 6644 c0 -8 5 -12 10 -9 6 4 8 11 5 16 -9 14 -15 11 -15 -7z"/>
<path d="M8502 6041 c-305 -75 -522 -349 -522 -661 0 -254 145 -491 368 -603
121 -60 215 -81 346 -75 249 12 462 150 572 373 119 241 94 502 -69 722 -151
203 -443 305 -695 244z m399 -491 c15 0 19 -7 19 -37 0 -21 -5 -45 -10 -53 -7
-11 -10 -5 -10 23 l0 38 -48 -40 c-68 -58 -78 -50 -12 9 l55 49 -37 1 c-21 0
-38 5 -38 11 0 8 11 9 31 5 17 -3 40 -6 50 -6z m-440 -17 c12 -15 12 -16 -6
-9 -60 25 -89 11 -83 -41 2 -23 8 -29 34 -31 19 -2 36 3 44 12 11 14 9 16 -14
16 -14 0 -26 5 -26 10 0 6 14 10 31 10 26 0 30 -3 27 -22 -2 -12 -15 -29 -29
-37 -24 -13 -29 -13 -53 2 -19 13 -26 26 -26 50 0 18 5 38 12 45 18 18 73 15
89 -5z m177 0 c12 -12 13 -18 4 -21 -14 -4 -17 -62 -2 -62 6 0 10 -4 10 -10 0
-23 -30 -8 -35 18 -4 15 -8 35 -10 45 -4 19 3 47 12 47 2 0 12 -8 21 -17z
m-70 -15 c7 -7 12 -20 12 -30 0 -14 -8 -18 -35 -18 -32 0 -52 -18 -22 -21 17
-2 20 -1 42 7 18 7 18 6 6 -9 -30 -37 -81 -11 -81 42 0 34 53 54 78 29z m402
-250 l0 -63 -32 -2 c-40 -3 -58 12 -58 47 0 35 22 54 55 46 20 -5 25 -3 25 14
0 11 2 20 5 20 3 0 5 -28 5 -62z m-564 34 c1 -7 0 -8 -3 -2 -2 5 -16 10 -29
10 -34 0 -31 -29 5 -41 36 -13 45 -33 25 -54 -20 -20 -38 -19 -55 2 -13 15
-12 15 9 4 18 -10 26 -10 38 0 18 15 1 39 -28 39 -21 0 -33 22 -24 46 7 18 58
16 62 -4z m70 -2 c8 0 14 -4 14 -10 0 -5 -7 -10 -15 -10 -21 0 -19 -49 3 -67
16 -13 16 -14 -3 -11 -15 3 -21 13 -26 48 -6 44 0 88 9 62 2 -7 10 -12 18 -12z
m260 0 c8 0 14 -4 14 -10 0 -5 -7 -10 -15 -10 -10 0 -15 -10 -15 -30 0 -20 5
-30 15 -30 8 0 15 -5 15 -11 0 -6 -8 -9 -17 -7 -13 2 -20 16 -24 48 -6 44 0
88 9 62 2 -7 10 -12 18 -12z m-136 -50 c0 -43 -1 -45 -32 -47 -40 -3 -58 12
-58 46 0 37 17 51 57 48 32 -2 33 -3 33 -47z m80 39 c0 -4 -6 -9 -14 -12 -8
-3 -17 -23 -19 -44 -3 -33 -4 -32 -5 12 -2 45 0 51 18 51 11 0 20 -3 20 -7z
m164 -5 c29 -28 20 -44 -26 -44 -39 0 -41 -1 -26 -17 14 -14 20 -14 33 -3 8 7
19 10 22 6 9 -9 -16 -26 -39 -26 -10 0 -25 11 -34 25 -15 23 -15 27 0 50 19
29 47 32 70 9z"/>
<path d="M8523 5513 c-22 -8 -14 -23 12 -23 14 0 25 4 25 9 0 11 -21 19 -37
14z"/>
<path d="M8896 5265 c-8 -22 -8 -21 10 -39 21 -22 56 -3 52 27 -4 28 -52 37
-62 12z"/>
<path d="M8526 5265 c-8 -22 -8 -21 10 -39 21 -22 56 -3 52 27 -4 28 -52 37
-62 12z"/>
<path d="M8785 5270 c-4 -6 7 -10 25 -10 18 0 29 4 25 10 -3 6 -15 10 -25 10
-10 0 -22 -4 -25 -10z"/>
<path d="M4169 5921 c-16 -16 -29 -34 -29 -40 0 -7 32 -11 90 -11 50 0 90 4
90 9 0 23 -15 43 -41 56 -43 23 -77 18 -110 -14z"/>
<path d="M5310 5922 c-16 -17 -30 -35 -30 -41 0 -7 32 -11 90 -11 70 0 90 3
90 14 0 29 -35 57 -77 63 -37 5 -46 2 -73 -25z"/>
<path d="M3816 4919 c-45 -53 -38 -59 74 -59 104 0 110 3 88 43 -18 35 -40 46
-90 47 -40 0 -50 -4 -72 -31z"/>
<path d="M4746 4928 c-14 -13 -26 -32 -28 -43 -3 -19 3 -20 91 -20 108 0 119
8 73 55 -39 38 -98 42 -136 8z"/>
<path d="M5514 4941 c-40 -17 -64 -60 -64 -113 0 -43 4 -54 34 -84 26 -26 42
-34 71 -34 29 0 45 8 71 34 30 30 34 40 34 85 0 41 -5 56 -27 81 -30 33 -82
46 -119 31z"/>
<path d="M6463 4930 c-87 -52 -50 -220 49 -220 67 0 108 45 108 120 0 52 -18
88 -51 106 -38 19 -68 18 -106 -6z"/>
<path d="M8775 3941 c-40 -17 -60 -51 -60 -103 0 -43 4 -53 33 -79 43 -39 84
-39 123 0 24 24 29 38 29 76 0 57 -12 80 -50 100 -32 17 -45 18 -75 6z"/>
<path d="M3260 3981 l0 -71 50 0 c41 0 56 5 76 26 20 19 24 31 19 52 -10 41
-27 53 -88 59 l-57 6 0 -72z"/>
<path d="M3715 3941 c-55 -23 -79 -94 -51 -153 30 -63 99 -76 147 -29 24 24
29 38 29 76 0 57 -12 80 -50 100 -32 17 -45 18 -75 6z"/>
<path d="M5265 3925 c-40 -39 -32 -45 60 -45 92 0 100 6 60 45 -33 34 -87 34
-120 0z"/>
<path d="M7172 3927 c-38 -40 -29 -47 58 -47 88 0 100 11 58 50 -31 28 -88 27
-116 -3z"/>
<path d="M8334 3940 c-49 -20 -70 -103 -43 -163 24 -53 96 -62 140 -18 24 25
29 38 29 80 0 38 -6 56 -22 75 -25 29 -72 40 -104 26z"/>
<path d="M11740 3007 c14 -40 12 -89 -4 -112 -19 -27 -30 -85 -17 -85 14 0 41
95 41 145 0 23 -7 50 -15 61 -14 18 -14 17 -5 -9z"/>
<path d="M12424 2924 c3 -9 6 -18 6 -20 0 -2 6 -4 13 -4 6 0 13 -14 14 -30 4
-63 21 -64 19 -2 -1 52 -4 62 -21 66 -32 9 -38 7 -31 -10z"/>
<path d="M11705 2780 c3 -14 1 -39 -5 -55 -9 -28 -9 -29 5 -11 17 23 19 54 5
76 -8 11 -9 9 -5 -10z"/>
<path d="M3152 3068 c-31 -31 5 -97 47 -83 24 7 38 51 24 74 -13 20 -54 26
-71 9z"/>
<path d="M6217 3048 c-34 -19 -9 -76 27 -62 19 7 22 60 3 67 -7 3 -21 1 -30
-5z"/>
<path d="M7157 3048 c-34 -19 -9 -76 27 -62 19 7 22 60 3 67 -7 3 -21 1 -30
-5z"/>
<path d="M3590 3045 c-11 -13 -8 -15 20 -15 28 0 31 2 20 15 -7 8 -16 15 -20
15 -4 0 -13 -7 -20 -15z"/>
<path d="M3707 3048 c-20 -11 -22 -41 -3 -57 26 -22 63 10 50 43 -8 20 -27 26
-47 14z"/>
<path d="M4063 3053 c-19 -7 -16 -60 3 -67 21 -8 44 11 44 35 0 20 -28 39 -47
32z"/>
<path d="M4280 3045 c-11 -13 -8 -15 20 -15 28 0 31 2 20 15 -7 8 -16 15 -20
15 -4 0 -13 -7 -20 -15z"/>
<path d="M4487 3048 c-20 -11 -22 -41 -3 -57 26 -22 63 10 50 43 -8 20 -27 26
-47 14z"/>
<path d="M4600 3050 c-21 -13 -7 -22 27 -18 27 3 27 4 7 15 -12 7 -26 8 -34 3z"/>
<path d="M5203 3053 c-22 -8 -14 -23 12 -23 14 0 25 4 25 9 0 11 -21 19 -37
14z"/>
<path d="M5453 3053 c-19 -7 -16 -60 3 -67 21 -8 44 11 44 35 0 20 -28 39 -47
32z"/>
<path d="M5803 3045 c-17 -13 -16 -14 15 -15 33 0 43 13 18 23 -8 3 -22 -1
-33 -8z"/>
<path d="M6096 3044 c-9 -8 -16 -19 -16 -24 0 -5 7 -16 16 -24 19 -20 54 -5
54 24 0 29 -35 44 -54 24z"/>
<path d="M6337 3048 c-34 -19 -9 -76 27 -62 19 7 22 60 3 67 -7 3 -21 1 -30
-5z"/>
<path d="M6497 3048 c-34 -19 -9 -76 27 -62 19 7 22 60 3 67 -7 3 -21 1 -30
-5z"/>
<path d="M6613 3053 c-19 -7 -16 -60 3 -67 21 -8 44 11 44 35 0 20 -28 39 -47
32z"/>
<path d="M6947 3048 c-34 -19 -9 -76 27 -62 19 7 22 60 3 67 -7 3 -21 1 -30
-5z"/>
<path d="M7273 3045 c-17 -13 -16 -14 15 -15 33 0 43 13 18 23 -8 3 -22 -1
-33 -8z"/>
<path d="M11180 2529 c0 -2 7 -22 15 -44 14 -40 14 -40 15 -9 0 17 -7 37 -15
44 -8 7 -15 11 -15 9z"/>
<path d="M3782 2738 c-27 -27 -2 -75 32 -62 21 8 21 60 0 68 -20 8 -18 8 -32
-6z"/>
<path d="M4363 2743 c-19 -7 -16 -60 3 -67 21 -8 44 11 44 35 0 20 -28 39 -47
32z"/>
<path d="M6853 2743 c-19 -7 -16 -60 3 -67 21 -8 44 11 44 35 0 20 -28 39 -47
32z"/>
<path d="M3330 2735 c-11 -13 -8 -15 19 -15 33 0 42 14 15 24 -21 8 -20 8 -34
-9z"/>
<path d="M3670 2735 c-11 -13 -8 -15 20 -15 28 0 31 2 20 15 -7 8 -16 15 -20
15 -4 0 -13 -7 -20 -15z"/>
<path d="M4172 2738 c-27 -27 -2 -75 32 -62 21 8 21 60 0 68 -20 8 -18 8 -32
-6z"/>
<path d="M4813 2743 c-19 -7 -16 -60 3 -67 21 -8 44 11 44 35 0 20 -28 39 -47
32z"/>
<path d="M5313 2735 c-17 -13 -16 -14 15 -15 33 0 43 13 18 23 -8 3 -22 -1
-33 -8z"/>
<path d="M5687 2738 c-34 -19 -9 -76 27 -62 19 7 22 60 3 67 -7 3 -21 1 -30
-5z"/>
<path d="M6166 2734 c-9 -8 -16 -19 -16 -24 0 -5 7 -16 16 -24 19 -20 54 -5
54 24 0 29 -35 44 -54 24z"/>
<path d="M6633 2743 c-22 -8 -14 -23 12 -23 14 0 25 4 25 9 0 11 -21 19 -37
14z"/>
<path d="M6740 2740 c-21 -13 -7 -22 27 -18 27 3 27 4 7 15 -12 7 -26 8 -34 3z"/>
<path d="M7333 2743 c-22 -8 -14 -23 12 -23 14 0 25 4 25 9 0 11 -21 19 -37
14z"/>
<path d="M13235 2290 c-78 -28 -169 -70 -163 -75 5 -5 209 68 238 86 27 15
-21 9 -75 -11z"/>
<path d="M3150 2425 c-11 -13 -8 -15 19 -15 33 0 42 14 15 24 -21 8 -20 8 -34
-9z"/>
<path d="M3352 2428 c-27 -27 -2 -75 32 -62 31 12 19 73 -14 74 -4 0 -11 -5
-18 -12z"/>
<path d="M3820 2430 c-21 -13 -7 -22 27 -18 27 3 27 4 7 15 -12 7 -26 8 -34 3z"/>
<path d="M3983 2433 c-19 -7 -16 -60 3 -67 21 -8 44 11 44 35 0 20 -28 39 -47
32z"/>
<path d="M4446 2424 c-20 -19 -20 -29 0 -48 19 -19 26 -20 42 -4 18 18 14 46
-7 58 -15 7 -23 6 -35 -6z"/>
<path d="M4667 2428 c-20 -11 -22 -41 -3 -57 26 -22 63 10 50 43 -8 20 -27 26
-47 14z"/>
<path d="M4780 2425 c-11 -13 -8 -15 20 -15 28 0 31 2 20 15 -7 8 -16 15 -20
15 -4 0 -13 -7 -20 -15z"/>
<path d="M5070 2430 c-21 -13 -7 -22 27 -18 27 3 27 4 7 15 -12 7 -26 8 -34 3z"/>
<path d="M5367 2428 c-34 -19 -9 -76 27 -62 19 7 22 60 3 67 -7 3 -21 1 -30
-5z"/>
<path d="M5487 2428 c-20 -11 -22 -41 -3 -57 26 -22 63 10 50 43 -8 20 -27 26
-47 14z"/>
<path d="M5603 2425 c-17 -13 -16 -14 15 -15 33 0 43 13 18 23 -8 3 -22 -1
-33 -8z"/>
<path d="M5837 2428 c-34 -19 -9 -76 27 -62 19 7 22 60 3 67 -7 3 -21 1 -30
-5z"/>
<path d="M6020 2430 c-21 -13 -7 -22 27 -18 27 3 27 4 7 15 -12 7 -26 8 -34 3z"/>
<path d="M6313 2433 c-19 -7 -16 -60 3 -67 21 -8 44 11 44 35 0 20 -28 39 -47
32z"/>
<path d="M6777 2428 c-20 -11 -22 -41 -3 -57 26 -22 63 10 50 43 -8 20 -27 26
-47 14z"/>
<path d="M7050 2430 c-21 -13 -7 -22 27 -18 27 3 27 4 7 15 -12 7 -26 8 -34 3z"/>
<path d="M7160 2430 c-21 -13 -7 -22 27 -18 27 3 27 4 7 15 -12 7 -26 8 -34 3z"/>
<path d="M11854 405 c-3 -8 -3 -19 1 -25 11 -18 25 -11 25 15 0 27 -17 34 -26
10z"/>
<path d="M11910 271 c0 -17 5 -31 10 -31 6 0 10 11 10 24 0 14 -4 28 -10 31
-6 4 -10 -7 -10 -24z"/>
<path d="M3571 426 c-26 -32 13 -76 53 -60 12 5 16 16 14 38 -2 25 -8 32 -29
34 -14 2 -31 -4 -38 -12z"/>
<path d="M3566 298 c-28 -39 19 -82 64 -58 26 14 26 56 1 70 -30 15 -48 12
-65 -12z"/>
<path d="M3830 415 c-17 -20 -24 -84 -13 -124 11 -41 41 -56 72 -35 17 13 21
25 21 75 0 33 -5 69 -10 80 -13 22 -52 25 -70 4z"/>
<path d="M4080 411 c-5 -11 -10 -43 -10 -71 0 -67 13 -90 50 -90 36 0 50 23
50 84 0 69 -14 96 -49 96 -20 0 -34 -7 -41 -19z"/>
<path d="M8060 404 c-13 -33 -13 -110 0 -135 7 -12 21 -19 40 -19 36 0 50 23
50 84 0 69 -14 96 -50 96 -24 0 -33 -6 -40 -26z"/>
<path d="M12590 404 c-13 -33 -13 -110 0 -135 7 -12 21 -19 40 -19 36 0 50 23
50 84 0 69 -14 96 -50 96 -24 0 -33 -6 -40 -26z"/>
<path d="M5027 383 c-4 -3 -7 -17 -7 -30 0 -18 6 -23 24 -23 33 0 53 25 36 45
-13 16 -42 20 -53 8z"/>
<path d="M5222 345 c-17 -38 -15 -45 14 -45 24 0 25 3 19 28 -10 40 -20 46
-33 17z"/>
<path d="M9347 383 c-4 -3 -7 -28 -7 -55 0 -56 17 -70 59 -47 36 20 41 71 9
93 -23 17 -50 21 -61 9z"/>
<path d="M9540 365 c0 -20 5 -25 25 -25 29 0 45 28 24 41 -27 17 -49 10 -49
-16z"/>
<path d="M9540 300 c0 -25 4 -30 24 -30 13 0 30 7 37 16 11 14 10 18 -6 30
-33 24 -55 18 -55 -16z"/>
<path d="M10002 374 c-42 -29 -17 -104 35 -104 20 0 53 38 53 60 0 22 -33 60
-53 60 -7 0 -23 -7 -35 -16z"/>
<path d="M10314 375 c-15 -38 29 -62 55 -31 9 11 8 18 -4 30 -21 20 -44 21
-51 1z"/>
<path d="M10452 342 c-12 -34 -8 -42 21 -42 16 0 18 5 12 28 -10 42 -21 47
-33 14z"/>
<path d="M13790 346 c-15 -40 -13 -46 16 -46 24 0 25 3 19 28 -10 42 -23 49
-35 18z"/>
<path d="M14182 342 c-12 -34 -8 -42 21 -42 16 0 18 5 12 28 -10 42 -21 47
-33 14z"/>
<path d="M14622 374 c-42 -29 -17 -104 35 -104 20 0 53 38 53 60 0 22 -33 60
-53 60 -7 0 -23 -7 -35 -16z"/>
</g>
</svg>
