<?xml version="1.0" standalone="no"?>
<!DOCTYPE svg PUBLIC "-//W3C//DTD SVG 20010904//EN"
 "http://www.w3.org/TR/2001/REC-SVG-20010904/DTD/svg10.dtd">
<svg version="1.0" xmlns="http://www.w3.org/2000/svg"
 width="1915.000000pt" height="921.000000pt" viewBox="0 0 1915.000000 921.000000"
 preserveAspectRatio="xMidYMid meet">

<g transform="translate(0.000000,921.000000) scale(0.100000,-0.100000)"
fill="#000000" stroke="none">
<path d="M0 4605 l0 -4605 160 0 160 0 0 25 0 25 2135 0 2135 0 0 -25 c0 -25
1 -25 80 -25 79 0 80 0 80 25 l0 25 2255 0 2255 0 0 -25 c0 -25 1 -25 80 -25
79 0 80 0 80 25 l0 25 2220 0 2220 0 0 -25 c0 -25 1 -25 80 -25 79 0 80 0 80
25 l0 25 2430 0 2430 0 0 -25 0 -25 135 0 135 0 0 985 0 985 -2295 0 -2295 0
0 485 0 485 40 0 c21 0 51 5 65 12 55 25 55 24 55 578 0 332 -4 518 -10 531
-15 27 -63 49 -110 49 l-40 0 0 112 0 111 50 -83 c27 -46 50 -85 50 -88 0 -2
16 -31 36 -63 59 -97 81 -67 26 35 -12 22 -27 43 -33 47 -17 10 -3 40 16 33
26 -10 18 41 -10 62 -14 10 -25 24 -25 29 0 6 -5 16 -11 22 -6 6 -12 29 -13
50 -2 26 -11 47 -29 67 -15 16 -27 33 -27 37 0 5 -8 9 -18 9 -11 0 -24 10 -31
23 -6 12 -20 36 -31 52 -11 17 -23 37 -26 45 -4 8 -11 20 -17 27 -15 20 -37
-10 -32 -46 4 -36 -3 -38 -38 -11 -14 11 -30 20 -36 20 -6 0 -11 4 -11 10 0 5
-16 16 -35 25 -19 9 -39 23 -46 31 -6 8 -15 14 -20 14 -9 0 -24 11 -77 59 -16
15 -41 34 -54 43 -50 33 -205 181 -265 254 -18 22 -44 53 -59 69 -14 17 -38
46 -53 65 -14 19 -28 37 -31 40 -3 3 -11 14 -18 25 -34 54 -52 81 -59 90 -25
29 -52 88 -47 98 4 7 4 9 -1 5 -5 -5 -14 2 -21 15 -21 38 -71 140 -94 192 -12
28 -28 62 -36 77 -8 14 -14 32 -14 40 0 7 -6 25 -14 40 -8 15 -20 53 -26 85
-7 32 -17 64 -22 70 -6 7 -8 24 -6 38 3 13 2 22 -2 20 -5 -3 -11 23 -15 58 -4
34 -10 67 -13 72 -10 16 -12 34 -19 163 -3 67 -10 122 -15 122 -4 0 -8 23 -7
50 1 28 6 50 11 50 4 0 8 20 8 44 0 26 5 46 13 49 9 4 9 7 -1 15 -10 7 -12 27
-6 83 3 41 10 79 14 84 4 6 13 49 19 98 7 48 16 87 20 87 4 0 13 29 20 65 7
36 17 65 21 65 4 0 11 16 14 35 4 19 12 35 17 35 6 0 8 9 4 20 -4 11 -2 20 4
20 6 0 11 5 11 11 0 10 36 92 68 156 16 31 19 33 69 32 55 -2 63 -8 38 -29 -8
-7 -15 -19 -15 -27 0 -8 -5 -11 -12 -7 -6 4 -8 3 -5 -3 4 -6 -3 -27 -13 -49
-11 -21 -20 -46 -20 -56 0 -10 -4 -18 -9 -18 -8 0 -31 -49 -35 -75 -1 -5 -7
-23 -14 -38 -7 -16 -12 -34 -12 -42 0 -8 -5 -17 -10 -20 -6 -4 -8 -11 -4 -16
3 -5 1 -15 -4 -22 -12 -15 -36 -125 -33 -149 1 -10 -2 -18 -7 -18 -5 0 -12
-22 -16 -50 -4 -29 -12 -50 -19 -50 -8 0 -7 -3 2 -9 12 -8 12 -19 3 -67 -7
-31 -12 -84 -12 -116 0 -40 -4 -58 -12 -58 -10 0 -10 -2 -1 -8 6 -4 13 -49 16
-112 5 -126 26 -301 37 -315 4 -5 14 -45 20 -87 7 -43 16 -78 20 -78 4 0 11
-17 15 -37 4 -21 15 -57 26 -80 10 -23 19 -47 19 -53 0 -7 6 -24 14 -38 8 -15
31 -63 51 -106 29 -63 33 -81 23 -89 -10 -6 -9 -7 4 -3 12 3 21 -4 30 -25 7
-16 16 -29 20 -29 5 0 8 -4 8 -10 0 -5 11 -26 25 -47 14 -21 31 -47 38 -57 6
-11 20 -28 30 -38 9 -10 17 -21 17 -25 0 -10 38 -58 68 -88 12 -12 22 -26 22
-31 1 -5 21 -29 45 -54 32 -31 45 -53 45 -72 0 -16 4 -28 9 -28 5 0 7 10 3 23
-5 20 -4 21 13 7 40 -33 145 -142 145 -152 0 -5 4 -7 9 -3 12 7 67 -43 63 -57
-1 -5 2 -7 7 -3 6 3 20 -2 31 -12 12 -10 31 -26 42 -36 12 -9 25 -17 30 -17 5
0 16 -6 24 -14 7 -8 19 -17 26 -19 10 -4 9 -8 -2 -17 -12 -8 -8 -9 15 -4 17 4
31 8 33 9 1 1 -5 32 -13 70 -10 41 -14 95 -12 139 6 97 -8 186 -37 249 -14 29
-35 84 -47 122 -11 39 -25 75 -29 80 -23 31 -62 265 -59 364 2 74 1 78 -43
146 -72 114 -101 197 -119 333 -10 76 -9 102 6 173 20 101 43 154 84 193 38
37 39 65 6 158 -28 78 -32 123 -11 131 11 4 16 -7 21 -43 4 -27 4 -54 0 -60
-3 -5 -2 -10 3 -10 10 0 36 -58 33 -73 -1 -4 8 -17 19 -29 11 -12 20 -30 20
-39 0 -10 6 -22 13 -26 6 -4 19 -21 27 -38 27 -53 68 -79 164 -102 50 -12 123
-24 163 -25 60 -3 74 0 86 15 12 18 15 18 52 3 50 -21 93 -23 133 -5 31 13 47
37 18 26 -15 -6 -30 18 -21 33 3 4 -2 13 -9 19 -10 8 -13 23 -9 46 4 24 1 39
-11 51 -15 14 -15 19 -3 33 8 9 18 45 22 81 11 103 12 105 25 102 9 -2 11 6 7
28 -6 28 1 38 17 23 3 -4 15 -8 26 -10 27 -4 27 33 1 42 -29 9 -15 33 24 41
19 3 36 12 39 20 3 8 12 14 21 14 16 0 17 5 18 55 1 34 15 49 34 33 10 -8 13
-6 13 6 0 9 -4 16 -10 16 -5 0 -10 7 -10 15 0 45 52 -8 55 -57 1 -18 0 -27 -2
-20 -3 6 -11 12 -18 12 -16 0 -25 -57 -11 -69 12 -10 9 -124 -3 -116 -4 2 -12
-15 -18 -38 l-9 -43 38 -1 c34 -2 38 1 38 22 0 13 7 30 15 39 8 8 15 20 15 26
0 6 5 8 10 5 6 -3 10 3 10 14 0 27 15 34 41 21 17 -10 20 -18 15 -44 -4 -18
-2 -44 3 -57 9 -21 10 -19 10 19 1 45 15 79 44 100 10 8 17 26 17 48 0 27 -4
34 -20 34 -11 0 -20 -6 -21 -12 0 -7 -7 3 -16 22 -14 33 -15 34 -29 15 -8 -11
-17 -30 -21 -42 -3 -13 -9 -23 -14 -23 -14 0 -23 49 -23 125 -1 47 -5 73 -14
78 -9 6 -11 18 -7 34 7 30 -22 96 -76 169 -110 150 -267 229 -442 222 l-77 -3
0 818 0 817 -7280 0 -7280 0 0 -4605z m990 4319 c0 -21 5 -24 35 -24 31 0 35
3 35 26 0 19 4 25 18 22 14 -3 17 -14 17 -68 0 -51 -3 -65 -15 -65 -8 0 -16
10 -18 23 -3 18 -10 22 -38 22 -30 0 -34 -3 -34 -25 0 -16 -6 -25 -15 -25 -11
0 -15 13 -15 53 l0 53 -35 -4 c-35 -4 -35 -5 -35 -53 0 -37 -4 -49 -15 -49
-11 0 -15 12 -15 49 0 47 -2 50 -27 53 -17 2 -29 10 -31 21 -3 16 5 17 92 16
94 -1 96 -2 96 -25z m258 9 c-2 -14 -17 -19 -58 -24 l-55 -6 48 -1 c40 -2 48
-5 45 -19 -3 -14 -13 -18 -46 -16 -23 0 -42 -3 -42 -8 0 -5 25 -9 55 -9 48 0
55 -2 55 -20 0 -18 -7 -20 -70 -20 l-70 0 0 70 0 70 71 0 c62 0 70 -2 67 -17z
m-648 -59 c0 -3 -5 -14 -10 -25 -8 -14 -21 -19 -55 -19 -38 0 -45 -3 -45 -20
0 -17 7 -20 39 -20 43 0 55 -9 45 -34 -4 -11 -19 -16 -50 -16 l-44 0 0 -55 c0
-52 -1 -55 -25 -55 -25 0 -25 0 -25 99 l0 100 -41 3 c-30 2 -46 9 -57 26 l-14
22 141 0 c77 0 141 -3 141 -6z m11430 -113 c0 -13 8 -21 23 -23 18 -2 23 -10
25 -40 2 -22 -1 -38 -7 -38 -6 0 -11 16 -11 36 0 45 -24 42 -28 -4 -6 -56 -22
-34 -22 28 0 33 4 60 10 60 6 0 10 -9 10 -19z m780 -41 c0 -33 -4 -60 -10 -60
-6 0 -10 27 -10 60 0 33 4 60 10 60 6 0 10 -27 10 -60z m880 50 c0 -5 -7 -10
-15 -10 -8 0 -15 5 -15 10 0 6 7 10 15 10 8 0 15 -4 15 -10z m360 0 c0 -5 -7
-10 -15 -10 -8 0 -15 5 -15 10 0 6 7 10 15 10 8 0 15 -4 15 -10z m110 -50 c0
-33 -4 -60 -10 -60 -6 0 -10 27 -10 60 0 33 4 60 10 60 6 0 10 -27 10 -60z
m-4020 25 c0 -20 5 -25 25 -25 20 0 25 5 25 25 0 14 5 25 10 25 6 0 10 -25 10
-55 0 -30 -4 -55 -10 -55 -5 0 -10 11 -10 25 0 20 -5 25 -25 25 -20 0 -25 -5
-25 -25 0 -14 -4 -25 -10 -25 -5 0 -10 25 -10 55 0 30 5 55 10 55 6 0 10 -11
10 -25z m798 -7 c3 -22 -2 -29 -22 -34 -17 -4 -26 -13 -26 -25 0 -10 -4 -19
-10 -19 -5 0 -10 25 -10 56 l0 55 33 -3 c26 -2 33 -8 35 -30z m944 -5 l15 -38
8 38 c4 20 13 37 20 37 7 0 17 -17 22 -37 l9 -38 13 38 c7 20 17 37 22 37 11
0 12 3 -6 -58 -19 -61 -40 -67 -51 -14 l-8 37 -10 -37 c-13 -53 -32 -47 -51
14 -18 61 -17 58 -6 58 4 0 15 -17 23 -37z m889 21 c16 -20 1 -48 -30 -52 -13
-2 -21 -11 -21 -23 0 -10 -4 -19 -10 -19 -5 0 -10 25 -10 55 0 54 1 55 29 55
16 0 34 -7 42 -16z m677 9 c-14 -3 -18 -15 -18 -54 0 -27 -4 -49 -10 -49 -5 0
-10 22 -10 49 0 39 -4 51 -17 54 -10 3 2 5 27 5 25 0 37 -2 28 -5z m188 -18
c9 -8 11 -15 5 -15 -15 0 -14 -57 2 -64 6 -3 3 -5 -8 -3 -14 2 -22 12 -25 37
-6 34 -3 60 7 60 2 0 11 -7 19 -15z m-3332 -27 c15 -24 -3 -52 -37 -56 -33 -4
-53 28 -37 59 14 25 58 23 74 -3z m134 -20 c2 -22 -1 -38 -7 -38 -6 0 -11 16
-11 36 0 45 -24 42 -28 -4 -4 -44 -22 -40 -22 4 0 45 -24 42 -28 -4 -5 -46
-22 -39 -22 8 l0 40 58 -2 57 -3 3 -37z m90 20 c3 -14 -3 -18 -27 -18 -24 0
-29 -4 -24 -16 4 -11 13 -14 30 -9 16 4 22 2 18 -5 -11 -18 -54 -11 -65 10
-16 31 4 62 38 58 16 -2 28 -10 30 -20z m465 15 c-7 -2 -13 -20 -13 -39 0 -24
-5 -34 -15 -34 -11 0 -15 11 -15 40 0 37 2 40 28 39 15 0 21 -3 15 -6z m91
-15 c15 -24 -3 -52 -37 -56 -33 -4 -53 28 -37 59 14 25 58 23 74 -3z m96 -26
c0 -26 -5 -53 -12 -60 -15 -15 -68 -16 -68 -1 0 6 9 8 21 4 14 -5 25 -2 30 6
6 10 1 15 -19 19 -19 4 -28 12 -30 28 -6 39 5 52 43 52 l35 0 0 -48z m138 6
c3 -38 3 -38 -33 -38 -32 0 -36 3 -33 22 2 14 12 24 28 28 31 7 15 17 -25 16
-26 -1 -30 -5 -33 -33 -5 -47 -22 -41 -22 7 l0 40 58 -3 57 -2 3 -37z m130 0
c2 -22 -1 -38 -7 -38 -6 0 -11 16 -11 35 0 19 -4 35 -9 35 -11 0 -21 -25 -21
-51 0 -10 -4 -19 -10 -19 -5 0 -10 16 -10 35 0 19 -4 35 -10 35 -5 0 -10 -16
-10 -35 0 -24 -5 -35 -15 -35 -11 0 -15 11 -15 40 l0 40 58 -2 57 -3 3 -37z
m82 31 c0 -6 -9 -8 -20 -4 -27 8 -26 -9 2 -27 12 -8 18 -19 14 -26 -8 -14 -56
-16 -56 -3 0 5 9 7 20 4 11 -3 20 -1 20 5 0 6 -9 14 -20 17 -20 6 -26 25 -13
38 10 11 53 8 53 -4z m588 -16 l10 -28 11 28 c6 15 15 27 21 27 14 0 13 -2
-14 -65 -16 -34 -31 -55 -41 -55 -15 0 -15 1 -1 16 19 19 19 14 1 57 -18 42
-18 47 -6 47 5 0 14 -12 19 -27z m124 -5 c4 -46 28 -49 28 -4 0 25 4 36 15 36
11 0 15 -11 15 -41 l0 -40 -37 3 c-36 3 -38 5 -41 41 -2 20 1 37 7 37 5 0 11
-14 13 -32z m128 21 c0 -6 -9 -8 -20 -4 -27 8 -26 -9 2 -27 12 -8 18 -19 14
-26 -8 -14 -56 -16 -56 -3 0 5 9 7 20 4 11 -3 20 -1 20 5 0 6 -9 14 -20 17
-20 6 -26 25 -13 38 10 11 53 8 53 -4z m518 -32 c3 -38 3 -38 -30 -35 -42 4
-51 34 -14 44 14 3 26 11 26 16 0 6 -9 8 -20 5 -11 -3 -20 -1 -20 5 0 5 12 8
28 6 23 -3 27 -8 30 -41z m90 1 c2 -22 -1 -38 -7 -38 -6 0 -11 16 -11 36 0 45
-24 42 -28 -4 -5 -46 -22 -39 -22 9 0 39 1 40 33 37 29 -3 32 -6 35 -40z m72
32 c0 -5 -7 -7 -15 -4 -20 8 -19 -13 2 -24 23 -14 9 -42 -22 -42 -14 0 -25 5
-25 11 0 6 9 8 20 4 26 -8 26 11 0 25 -25 14 -15 40 16 40 13 0 24 -4 24 -10z
m478 -2 c9 -9 12 -9 12 0 0 7 11 12 25 12 14 0 25 -4 25 -10 0 -5 -7 -7 -15
-4 -20 8 -19 -13 2 -24 23 -14 9 -42 -22 -42 -14 0 -25 5 -25 11 0 6 9 8 20 4
11 -4 20 -2 20 4 0 17 -33 28 -67 22 -25 -5 -30 -9 -24 -20 5 -8 16 -11 25 -8
9 4 16 2 16 -3 0 -14 -44 -12 -58 2 -26 26 -6 68 33 68 12 0 26 -5 33 -12z
m152 -28 c0 -22 -4 -40 -10 -40 -5 0 -10 18 -10 40 0 22 5 40 10 40 6 0 10
-18 10 -40z m138 -2 c2 -21 -1 -38 -7 -38 -5 0 -11 15 -13 33 -2 17 -7 32 -13
32 -5 0 -11 -15 -13 -32 -2 -18 -7 -33 -12 -33 -5 0 -10 15 -12 33 -2 17 -7
32 -13 32 -5 0 -11 -15 -13 -32 -5 -47 -22 -41 -22 7 l0 40 58 -2 57 -3 3 -37z
m96 20 c15 -24 -3 -52 -37 -56 -33 -4 -53 28 -37 59 14 25 58 23 74 -3z m90 6
c9 -25 7 -64 -4 -64 -5 0 -10 13 -10 29 0 17 -5 33 -11 37 -14 8 -29 -14 -29
-43 0 -13 -4 -23 -10 -23 -5 0 -10 18 -10 40 0 39 1 40 34 40 22 0 36 -6 40
-16z m36 -24 c0 -22 -4 -40 -10 -40 -5 0 -10 18 -10 40 0 22 5 40 10 40 6 0
10 -18 10 -40z m88 -2 c3 -38 3 -38 -33 -38 -32 0 -36 3 -33 22 2 14 12 24 28
28 15 4 20 9 13 13 -6 4 -19 4 -29 0 -12 -4 -15 -3 -10 6 4 7 20 11 34 9 23
-3 27 -8 30 -40z m112 31 c0 -6 -9 -8 -20 -4 -27 8 -26 -9 2 -27 12 -8 18 -19
14 -26 -8 -14 -56 -16 -56 -3 0 5 9 7 20 4 11 -3 20 -1 20 5 0 6 -9 14 -20 17
-20 6 -26 25 -13 38 10 11 53 8 53 -4z m-12985 -39 c0 -9 -11 -16 -27 -18 -24
-3 -27 -8 -30 -50 -2 -35 -7 -48 -20 -50 -15 -3 -18 4 -18 47 0 47 -2 50 -27
53 -16 2 -42 1 -59 0 -27 -3 -30 -7 -26 -33 3 -23 9 -29 28 -29 18 0 24 -6 24
-20 0 -19 -5 -21 -72 -18 -57 2 -73 6 -73 18 0 9 11 16 28 18 22 3 27 8 27 32
0 23 -5 28 -27 32 -47 6 -143 -3 -143 -14 0 -6 12 -8 30 -5 36 8 60 0 60 -19
0 -10 -13 -14 -45 -14 -41 0 -45 -2 -45 -25 0 -16 -6 -25 -15 -25 -12 0 -15
14 -15 70 l0 70 223 -3 c190 -2 222 -4 222 -17z m179 4 c9 -8 16 -22 16 -30 0
-17 -21 -19 -37 -3 -6 6 -23 9 -39 7 -23 -2 -29 -8 -29 -28 0 -20 6 -26 29
-28 16 -2 33 1 39 7 15 15 37 14 37 -1 0 -25 -34 -48 -69 -48 -42 0 -54 7 -70
38 -14 27 -8 63 15 86 20 21 88 21 108 0z m64 -37 l3 -47 50 0 c42 0 49 -3 49
-20 0 -18 -7 -20 -70 -20 l-70 0 0 71 c0 62 2 70 18 67 13 -2 18 -15 20 -51z
m144 6 c3 -46 4 -48 36 -51 21 -2 32 1 33 10 1 7 2 24 4 38 3 46 5 50 20 50
22 0 21 -103 -1 -124 -23 -24 -100 -21 -114 3 -16 31 -13 121 4 121 11 0 16
-14 18 -47z m246 35 c5 -7 10 -33 10 -58 0 -61 -10 -70 -79 -70 l-59 0 0 70 0
70 59 0 c35 0 63 -5 69 -12z m-799 -1274 c66 -19 134 -84 152 -143 7 -23 16
-41 21 -41 4 0 8 -25 8 -55 0 -30 -4 -55 -9 -55 -5 0 -19 -20 -31 -45 -28 -57
-81 -101 -144 -120 -72 -22 -442 -21 -515 1 -72 21 -134 83 -155 155 -20 66
-20 82 0 148 20 69 84 134 151 155 71 22 449 22 522 0z m259 -191 c-14 -3 -18
-15 -18 -54 0 -27 -4 -49 -10 -49 -5 0 -10 22 -10 49 0 39 -4 51 -17 54 -10 3
2 5 27 5 25 0 37 -2 28 -5z m77 -30 l25 -38 0 38 c0 20 5 37 10 37 6 0 10 -25
10 -55 0 -30 -4 -55 -10 -55 -5 0 -21 17 -35 37 l-25 38 0 -38 c0 -26 -4 -37
-15 -37 -12 0 -15 13 -15 55 0 67 17 73 55 18z m118 30 c-15 -3 -23 -12 -23
-24 0 -13 7 -19 23 -20 l22 -2 -22 -4 c-14 -3 -23 -12 -23 -23 0 -11 9 -20 23
-23 13 -3 8 -5 -15 -6 l-38 -1 0 55 0 55 38 -1 c23 -1 28 -3 15 -6z m97 -3 c0
-5 -10 -9 -21 -7 -32 3 -35 -21 -4 -35 38 -17 31 -52 -12 -56 -18 -2 -33 1
-33 6 0 5 11 7 25 4 34 -6 33 16 -2 44 -34 27 -26 54 17 54 16 0 30 -4 30 -10z
m80 1 c0 -5 -8 -7 -19 -4 -32 8 -33 -14 -1 -37 33 -24 39 -45 14 -54 -25 -10
-64 -7 -64 4 0 6 10 8 24 4 24 -6 51 16 28 24 -6 2 -22 12 -34 22 -19 15 -20
20 -9 34 14 17 61 22 61 7z m150 0 c0 -4 -11 -6 -24 -4 -33 7 -53 -29 -37 -64
9 -20 17 -24 36 -20 14 2 25 0 25 -4 0 -15 -53 -10 -72 8 -36 32 -8 93 43 93
16 0 29 -4 29 -9z m40 -40 c0 -43 3 -50 23 -54 16 -3 13 -5 -10 -6 l-33 -1 0
55 c0 30 5 55 10 55 6 0 10 -22 10 -49z m70 4 c0 -33 5 -47 16 -52 21 -8 34
14 34 60 0 20 5 37 11 37 6 0 9 -19 7 -46 -3 -53 -21 -70 -61 -60 -25 6 -27
11 -27 56 0 28 5 50 10 50 6 0 10 -20 10 -45z m155 -10 c0 -49 -1 -50 -32 -53
l-33 -3 0 56 0 56 33 -3 c31 -3 32 -4 32 -53z m95 0 c0 -42 -3 -55 -15 -55
-12 0 -15 13 -15 55 0 42 3 55 15 55 12 0 15 -13 15 -55z m65 18 l25 -38 0 38
c0 20 5 37 10 37 6 0 10 -25 10 -55 0 -30 -4 -55 -10 -55 -5 0 -21 17 -35 37
l-25 38 0 -38 c0 -20 -4 -37 -10 -37 -5 0 -10 25 -10 55 0 30 4 55 10 55 5 0
21 -17 35 -37z m225 12 c0 -20 5 -25 25 -25 20 0 25 5 25 25 0 14 5 25 10 25
6 0 10 -25 10 -55 0 -30 -4 -55 -10 -55 -5 0 -10 11 -10 25 0 20 -5 25 -25 25
-20 0 -25 -5 -25 -25 0 -16 -6 -25 -15 -25 -11 0 -15 12 -15 50 0 43 -3 50
-20 50 -17 0 -20 -7 -20 -50 0 -27 -4 -50 -10 -50 -5 0 -10 22 -10 49 0 39 -4
51 -17 54 -10 3 10 5 45 6 60 1 62 0 62 -24z m133 18 c-15 -3 -23 -12 -23 -24
0 -13 7 -19 23 -20 l22 -2 -22 -4 c-34 -6 -30 -41 5 -46 22 -3 20 -4 -10 -6
l-38 -1 0 55 0 55 33 -1 c23 -1 26 -3 10 -6z m145 0 c-14 -3 -18 -15 -18 -54
0 -37 -4 -49 -15 -49 -11 0 -15 12 -15 49 0 39 -4 51 -17 54 -10 3 5 5 32 5
28 0 42 -2 33 -5z m100 -5 c7 -7 12 -26 12 -43 0 -37 -16 -55 -49 -55 -52 0
-78 54 -44 92 18 20 63 24 81 6z m49 -25 l9 -38 13 38 c15 45 31 44 45 -4 l9
-34 10 38 c5 20 15 37 22 37 10 0 9 -12 -3 -55 -17 -62 -37 -71 -51 -22 l-9
32 -12 -32 c-17 -47 -33 -41 -51 22 -13 43 -14 55 -4 55 7 0 17 -17 22 -37z
m178 0 l25 -38 0 38 c0 20 5 37 10 37 6 0 10 -25 10 -55 0 -30 -4 -55 -10 -55
-5 0 -21 17 -35 37 l-25 38 0 -38 c0 -20 -4 -37 -10 -37 -5 0 -10 25 -10 55 0
30 4 55 10 55 5 0 21 -17 35 -37z m12010 -53 c3 -5 1 -10 -4 -10 -6 0 -11 5
-11 10 0 6 2 10 4 10 3 0 8 -4 11 -10z m-45 -20 c0 -5 -7 -7 -15 -4 -8 4 -15
8 -15 10 0 2 7 4 15 4 8 0 15 -4 15 -10z m-14440 -820 c52 -14 100 -68 107
-119 l6 -41 -46 0 c-25 0 -53 -3 -61 -6 -12 -4 -19 2 -27 24 -16 46 -71 64
-124 40 -27 -12 -33 -39 -12 -56 6 -6 52 -22 101 -35 138 -39 181 -81 181
-176 0 -48 -5 -64 -29 -95 -40 -53 -84 -70 -186 -70 -130 0 -192 40 -220 143
-6 23 -10 44 -8 46 2 1 31 5 65 8 l62 5 11 -34 c14 -42 44 -64 88 -64 40 0 68
14 82 40 20 36 -3 56 -92 80 -46 12 -95 28 -109 36 -60 31 -100 109 -85 169 9
37 64 94 100 104 42 13 153 13 196 1z m320 -100 l0 -100 90 0 90 0 0 100 0
100 65 0 65 0 0 -265 0 -265 -65 0 -65 0 0 115 0 115 -90 0 -90 0 0 -115 0
-115 -65 0 -65 0 0 265 0 265 65 0 65 0 0 -100z m778 -158 c56 -141 102 -260
102 -264 0 -5 -31 -8 -69 -8 l-70 0 -22 60 -22 60 -91 0 -91 0 -21 -57 -20
-58 -72 -3 -72 -3 19 48 c10 26 57 146 102 265 l84 218 70 0 70 0 103 -258z
m483 235 c97 -64 91 -228 -9 -285 -33 -18 -55 -22 -126 -22 l-86 0 0 -100 0
-100 -65 0 -65 0 0 265 0 265 159 0 c148 0 160 -1 192 -23z m539 -27 l0 -50
-140 0 -140 0 0 -50 0 -50 130 0 130 0 0 -50 0 -50 -130 0 -130 0 0 -60 0 -60
145 0 145 0 0 -55 0 -55 -210 0 -210 0 0 265 0 265 205 0 205 0 0 -50z m1066
5 c72 -45 109 -121 108 -224 0 -91 -26 -152 -84 -205 -45 -40 -93 -56 -171
-56 -101 0 -169 37 -216 118 -25 42 -28 57 -28 137 0 101 17 144 77 202 52 51
92 64 184 61 70 -3 87 -7 130 -33z m-661 -62 c20 -49 40 -92 44 -96 4 -4 26
34 49 85 l41 93 65 3 c36 2 66 0 66 -4 0 -3 -36 -76 -80 -162 l-80 -156 0 -88
0 -88 -65 0 -65 0 0 90 0 90 -80 160 -80 160 74 0 74 0 37 -87z m965 -89 l0
-176 30 -30 c27 -26 36 -30 67 -25 66 11 68 17 71 222 l3 185 65 0 66 0 -4
-187 c-3 -179 -4 -190 -28 -232 -36 -64 -92 -91 -184 -91 -114 1 -174 38 -204
129 -7 21 -12 103 -12 207 l0 174 65 0 65 0 0 -176z m699 158 c51 -25 76 -65
75 -117 -1 -53 -29 -102 -71 -125 l-32 -17 25 -24 c23 -21 134 -183 134 -194
0 -3 -31 -5 -69 -5 l-70 0 -51 85 c-48 79 -72 105 -99 105 -7 0 -11 -34 -11
-95 l0 -95 -65 0 -65 0 0 250 0 250 133 0 c106 0 139 -3 166 -18z m-1444
-1191 c89 -41 137 -123 138 -236 0 -164 -97 -265 -254 -265 -75 0 -119 14
-166 55 -60 51 -86 119 -81 214 6 115 52 191 143 232 55 25 166 25 220 0z
m-2895 -241 l0 -250 -65 0 -65 0 0 250 0 250 65 0 65 0 0 -250z m401 240 c93
-26 148 -98 157 -206 7 -94 -11 -149 -72 -209 -65 -65 -101 -75 -260 -75
l-126 0 0 250 0 250 133 0 c72 0 148 -5 168 -10z m537 -37 l-3 -48 -87 -3 -88
-3 0 -49 0 -50 80 0 80 0 0 -50 0 -50 -80 0 -80 0 0 -50 0 -49 93 -3 92 -3 3
-47 3 -48 -160 0 -161 0 0 250 0 250 156 0 155 0 -3 -47z m449 -188 c46 -126
85 -238 88 -247 6 -16 -1 -18 -62 -18 l-69 0 -18 55 -17 55 -84 0 -83 0 -17
-55 -18 -55 -68 0 -69 0 36 98 c20 53 61 166 91 250 l56 153 76 -3 76 -3 82
-230z m273 35 l0 -200 90 0 90 0 0 -50 0 -50 -155 0 -155 0 0 250 0 250 65 0
65 0 0 -200z m733 186 c51 -21 72 -52 72 -103 0 -39 -5 -49 -38 -79 -37 -34
-37 -35 -15 -43 46 -18 73 -59 73 -111 0 -52 -19 -87 -69 -124 -24 -19 -44
-21 -177 -24 l-149 -3 0 250 0 251 135 0 c92 0 146 -4 168 -14z m1023 -1 c129
-38 187 -204 122 -346 -49 -108 -116 -138 -305 -139 l-133 0 0 250 0 250 133
0 c88 0 150 -5 183 -15z m348 -82 c21 -51 42 -90 46 -88 4 2 25 45 46 95 l39
90 68 0 68 0 -84 -164 -85 -164 4 -86 3 -86 -65 0 -64 0 0 84 c0 83 0 83 -76
242 -42 87 -78 163 -81 167 -3 4 28 7 68 5 l73 -3 40 -92z m-3724 -892 c0 -13
8 -21 23 -23 18 -2 22 -10 24 -43 l1 -40 -6 35 c-9 46 -36 47 -40 3 -6 -57
-22 -36 -22 27 0 33 4 60 10 60 6 0 10 -9 10 -19z m807 -73 c-2 -18 -4 -4 -4
32 0 36 2 50 4 33 2 -18 2 -48 0 -65z m53 32 c0 -33 -4 -60 -10 -60 -6 0 -10
27 -10 60 0 33 4 60 10 60 6 0 10 -27 10 -60z m120 15 c22 0 25 -5 28 -37 2
-22 -1 -38 -7 -38 -6 0 -11 16 -11 35 0 52 -32 41 -43 -15 -2 -14 -4 4 -4 40
-1 37 2 54 6 40 4 -18 13 -25 31 -25z m157 -47 c-2 -18 -4 -4 -4 32 0 36 2 50
4 33 2 -18 2 -48 0 -65z m835 50 c11 3 24 -1 29 -9 12 -19 11 -69 -1 -69 -5 0
-10 16 -10 35 0 43 -27 49 -36 8 -11 -51 -12 -48 -12 17 1 36 3 53 5 39 3 -21
8 -26 25 -21z m648 -16 c0 -56 -1 -58 -29 -60 -39 -3 -58 21 -43 53 8 17 20
25 37 25 18 0 25 5 25 20 0 11 2 20 5 20 3 0 5 -26 5 -58z m100 39 c0 -14 8
-21 28 -23 54 -6 37 -78 -19 -78 -29 0 -29 1 -29 60 0 33 4 60 10 60 6 0 10
-9 10 -19z m240 -41 c0 -33 -4 -60 -10 -60 -6 0 -10 27 -10 60 0 33 4 60 10
60 6 0 10 -27 10 -60z m100 -1 l0 -60 -37 3 c-31 2 -39 7 -41 26 -4 28 14 52
39 52 12 0 19 7 19 20 0 11 5 20 10 20 6 0 10 -27 10 -61z m590 0 l0 -60 -31
3 c-58 6 -66 68 -10 76 13 2 21 11 21 23 0 10 5 19 10 19 6 0 10 -27 10 -61z
m220 1 c0 -33 -4 -60 -10 -60 -6 0 -10 27 -10 60 0 33 4 60 10 60 6 0 10 -27
10 -60z m100 41 c0 -14 8 -21 28 -23 54 -6 37 -78 -19 -78 -29 0 -29 1 -29 60
0 33 4 60 10 60 6 0 10 -9 10 -19z m260 -42 l0 -60 -37 3 c-36 3 -38 5 -38 38
0 31 3 35 28 38 19 2 27 9 27 23 0 10 5 19 10 19 6 0 10 -27 10 -61z m420 0
l0 -60 -37 3 c-36 3 -38 5 -38 38 0 31 3 35 28 38 19 2 27 9 27 23 0 10 5 19
10 19 6 0 10 -27 10 -61z m90 1 c0 -33 -4 -60 -10 -60 -6 0 -10 27 -10 60 0
33 4 60 10 60 6 0 10 -27 10 -60z m960 0 c0 -33 -4 -60 -10 -60 -6 0 -10 27
-10 60 0 33 4 60 10 60 6 0 10 -27 10 -60z m103 53 c-7 -2 -13 -11 -13 -19 0
-8 6 -14 13 -15 10 0 10 -2 0 -6 -7 -2 -13 -20 -13 -39 0 -47 -17 -43 -22 6
-5 50 6 80 29 79 11 0 13 -3 6 -6z m410 0 c-7 -2 -13 -11 -13 -19 0 -8 6 -14
13 -15 10 0 10 -2 0 -6 -7 -2 -13 -20 -13 -39 0 -47 -17 -43 -22 6 -5 50 6 80
29 79 11 0 13 -3 6 -6z m124 -85 c-2 -18 -4 -4 -4 32 0 36 2 50 4 33 2 -18 2
-48 0 -65z m40 0 c-2 -18 -4 -4 -4 32 0 36 2 50 4 33 2 -18 2 -48 0 -65z
m-6567 27 c0 -30 -4 -55 -10 -55 -5 0 -10 25 -10 55 0 30 5 55 10 55 6 0 10
-25 10 -55z m1869 17 c-14 -5 -11 -60 4 -65 7 -3 5 -6 -5 -6 -14 -1 -18 7 -18
34 0 19 -5 35 -10 35 -7 0 -6 5 2 13 9 10 16 11 24 3 7 -6 8 -12 3 -14z m4317
13 c9 -8 11 -15 5 -15 -15 0 -14 -57 2 -63 6 -3 2 -6 -9 -6 -18 -1 -23 6 -26
38 -5 61 2 73 28 46z m603 -13 c-14 -5 -11 -60 4 -65 7 -3 5 -6 -5 -6 -14 -1
-18 7 -18 34 0 19 -5 35 -10 35 -7 0 -6 5 2 13 9 10 16 11 24 3 7 -6 8 -12 3
-14z m-6695 -8 c9 -25 7 -64 -4 -64 -5 0 -10 16 -10 35 0 43 -27 49 -36 8 -10
-48 -12 -49 -13 -5 -1 40 0 42 28 42 17 0 31 -6 35 -16z m244 -6 c3 -14 -3
-18 -28 -18 -21 0 -30 -4 -27 -12 2 -7 16 -13 30 -13 15 1 23 -3 18 -8 -5 -5
-19 -7 -32 -5 -25 3 -36 34 -25 64 8 21 60 14 64 -8z m60 11 c-11 -6 -18 -22
-18 -39 0 -17 -4 -30 -10 -30 -5 0 -10 18 -10 40 0 37 2 40 28 40 23 -1 24 -2
10 -11z m90 -11 c3 -14 -3 -18 -28 -18 -21 0 -30 -4 -27 -12 2 -7 16 -13 30
-13 15 1 23 -3 18 -8 -5 -5 -19 -7 -32 -5 -25 3 -36 34 -25 64 8 21 60 14 64
-8z m92 2 c0 -27 16 -25 25 3 6 21 7 21 19 -7 l13 -29 7 27 c3 14 11 26 16 26
5 0 3 -17 -4 -37 -14 -42 -28 -46 -37 -11 -6 23 -6 22 -14 -4 -10 -37 -21 -35
-34 3 -14 39 -14 49 -1 49 6 0 10 -9 10 -20z m168 -2 c3 -14 -3 -18 -27 -18
-24 0 -29 -4 -24 -16 4 -10 14 -14 29 -11 13 2 24 0 24 -5 0 -5 -15 -8 -32 -6
-28 3 -34 7 -36 32 -2 16 2 33 10 37 20 14 52 6 56 -13z m96 0 l7 -23 9 23 c5
12 12 22 15 22 3 0 10 -10 15 -22 l9 -23 7 23 c3 12 11 22 16 22 6 0 7 -7 4
-16 -3 -9 -9 -27 -12 -40 -8 -32 -20 -30 -31 3 l-10 28 -6 -28 c-9 -33 -23
-35 -31 -3 -3 13 -9 31 -12 40 -3 9 -2 16 4 16 5 0 13 -10 16 -22z m113 -40
c-2 -13 -4 -3 -4 22 0 25 2 35 4 23 2 -13 2 -33 0 -45z m331 40 c3 -14 -3 -18
-27 -18 -24 0 -29 -4 -24 -16 4 -10 14 -14 29 -11 13 2 24 0 24 -5 0 -5 -15
-8 -32 -6 -28 3 -34 7 -36 32 -2 16 2 33 10 37 20 14 52 6 56 -13z m142 7 c21
-25 -4 -69 -35 -63 -20 4 -25 0 -28 -21 -2 -14 -5 1 -6 34 -1 60 -1 61 28 63
16 1 34 -5 41 -13z m96 -10 c3 -14 10 -25 14 -25 4 0 11 11 14 25 4 14 10 25
15 25 18 0 -35 -115 -54 -119 -17 -3 -18 -2 -2 14 21 20 21 23 2 69 -9 20 -11
36 -5 36 5 0 12 -11 16 -25z m142 -12 c2 -24 -1 -33 -17 -38 -36 -11 -61 3
-61 35 0 31 12 40 50 37 20 -2 26 -8 28 -34z m42 2 c0 -43 27 -49 36 -7 10 47
12 48 13 5 1 -41 0 -43 -28 -43 -17 0 -31 6 -35 16 -9 25 -7 64 4 64 6 0 10
-16 10 -35z m264 13 c16 -26 -4 -53 -40 -53 -23 0 -30 5 -32 23 -2 13 -1 30 2
38 8 20 56 14 70 -8z m126 12 c0 -5 -7 -7 -15 -4 -8 4 -15 1 -15 -5 0 -7 7
-14 15 -17 8 -4 15 -15 15 -25 0 -14 -7 -19 -25 -19 -14 0 -25 4 -25 9 0 5 9
7 20 4 26 -7 25 4 -2 26 -12 10 -18 23 -14 29 9 14 46 16 46 2z m184 -6 c3 -9
6 -27 6 -40 0 -22 -4 -25 -32 -22 -42 4 -51 34 -14 44 14 3 23 10 20 15 -3 6
-15 7 -26 3 -14 -4 -18 -2 -14 5 11 17 53 13 60 -5z m104 -12 c4 -28 -14 -52
-39 -52 -12 0 -19 -7 -19 -20 0 -11 -4 -20 -10 -20 -6 0 -10 27 -10 61 l0 60
38 -3 c30 -2 38 -7 40 -26z m90 6 c3 -14 -3 -18 -28 -18 -21 0 -30 -4 -27 -12
2 -7 16 -13 30 -13 15 1 23 -3 18 -8 -5 -5 -19 -7 -32 -5 -25 3 -36 34 -25 64
8 21 60 14 64 -8z m140 -21 c3 -38 3 -38 -30 -35 -39 4 -45 28 -10 43 27 12
29 29 2 22 -11 -3 -17 -1 -14 5 3 5 16 8 27 6 18 -2 23 -11 25 -41z m89 -2 l1
-40 -6 35 c-9 46 -36 47 -40 3 -5 -47 -22 -41 -22 8 0 39 1 40 33 37 30 -3 32
-6 34 -43z m303 10 c0 -43 27 -49 36 -7 10 47 12 48 13 5 1 -41 0 -43 -28 -43
-17 0 -31 6 -35 16 -9 25 -7 64 4 64 6 0 10 -16 10 -35z m87 -27 c-2 -13 -4
-3 -4 22 0 25 2 35 4 23 2 -13 2 -33 0 -45z m249 30 l7 -33 14 34 c8 18 17 31
20 28 10 -11 -39 -117 -54 -117 -12 0 -12 2 1 16 19 19 19 14 1 57 -18 42 -18
47 -6 47 5 0 13 -15 17 -32z m138 10 c16 -26 -4 -53 -40 -53 -23 0 -30 5 -32
23 -2 13 -1 30 2 38 8 20 56 14 70 -8z m56 -43 c10 0 16 12 18 33 5 46 22 40
22 -9 0 -39 -1 -40 -32 -37 -31 3 -33 6 -35 43 l-1 40 6 -35 c4 -22 13 -35 22
-35z m102 56 c-8 -5 -18 -24 -22 -42 l-8 -34 -1 43 c-1 37 2 42 22 42 16 0 18
-3 9 -9z m98 -31 c0 -22 -4 -40 -10 -40 -5 0 -10 18 -10 40 0 22 5 40 10 40 6
0 10 -18 10 -40z m188 18 c3 -14 -3 -18 -27 -18 -24 0 -29 -4 -24 -16 4 -10
14 -14 29 -11 13 2 24 0 24 -5 0 -5 -15 -8 -32 -6 -28 3 -34 7 -36 32 -2 16 2
33 10 37 20 14 52 6 56 -13z m90 -21 c3 -38 3 -38 -30 -35 -39 4 -45 28 -10
43 27 12 29 29 2 22 -11 -3 -17 -1 -14 5 3 5 16 8 27 6 18 -2 23 -11 25 -41z
m296 21 c16 -26 -4 -53 -40 -53 -23 0 -30 5 -32 23 -2 13 -1 30 2 38 8 20 56
14 70 -8z m142 -3 c3 -14 10 -25 14 -25 4 0 11 11 14 25 4 14 10 25 15 25 18
0 -35 -115 -54 -119 -17 -3 -18 -2 -2 14 21 20 21 23 2 69 -9 20 -11 36 -5 36
5 0 12 -11 16 -25z m182 -18 c3 -38 3 -38 -30 -35 -39 4 -45 28 -10 43 27 12
29 29 2 22 -11 -3 -17 -1 -14 5 3 5 16 8 27 6 18 -2 23 -11 25 -41z m96 27 c9
-25 7 -64 -4 -64 -5 0 -10 16 -10 35 0 43 -27 49 -36 8 -10 -48 -12 -49 -13
-5 -1 40 0 42 28 42 17 0 31 -6 35 -16z m233 -46 c-2 -13 -4 -3 -4 22 0 25 2
35 4 23 2 -13 2 -33 0 -45z m49 37 c3 -14 10 -25 14 -25 4 0 11 11 14 25 4 14
10 25 15 25 5 0 2 -18 -6 -40 -9 -22 -20 -40 -25 -40 -4 0 -8 2 -8 4 0 2 -7
20 -15 40 -9 20 -11 36 -5 36 5 0 12 -11 16 -25z m132 3 c3 -14 -3 -18 -27
-18 -24 0 -29 -4 -24 -16 4 -10 14 -14 29 -11 13 2 24 0 24 -5 0 -5 -15 -8
-32 -6 -28 3 -34 7 -36 32 -2 16 2 33 10 37 20 14 52 6 56 -13z m112 -43 c10
0 16 12 18 33 5 46 22 40 22 -9 0 -39 -1 -40 -32 -37 -31 3 -33 6 -35 43 l-1
40 6 -35 c4 -22 13 -35 22 -35z m138 37 c4 -28 -14 -52 -39 -52 -12 0 -19 -7
-19 -20 0 -11 -4 -20 -10 -20 -6 0 -10 27 -10 61 l0 60 38 -3 c30 -2 38 -7 40
-26z m94 -3 l11 -31 14 32 c23 56 25 26 2 -34 -13 -33 -28 -56 -37 -56 -12 0
-12 3 -2 15 12 14 10 48 -5 88 -4 9 -4 17 -1 17 4 0 12 -14 18 -31z m142 9
c14 -23 -3 -52 -33 -56 -42 -6 -67 38 -39 66 17 17 58 11 72 -10z m56 -43 c10
0 16 12 18 33 5 46 22 40 22 -9 0 -39 -1 -40 -32 -37 -31 3 -33 6 -35 43 l-1
40 6 -35 c4 -22 13 -35 22 -35z m98 54 c-11 -6 -18 -22 -18 -39 0 -17 -4 -30
-10 -30 -5 0 -10 18 -10 40 0 37 2 40 28 40 23 -1 24 -2 10 -11z m142 -29 c0
-22 -4 -40 -10 -40 -5 0 -10 18 -10 40 0 22 5 40 10 40 6 0 10 -18 10 -40z
m148 18 c3 -14 -3 -18 -28 -18 -21 0 -30 -4 -27 -12 2 -7 16 -13 30 -13 15 1
23 -3 18 -8 -5 -5 -19 -7 -32 -5 -25 3 -36 34 -25 64 8 21 60 14 64 -8z m210
-15 c2 -24 -1 -33 -17 -38 -36 -11 -61 3 -61 35 0 31 12 40 50 37 20 -2 26 -8
28 -34z m152 2 c0 -24 5 -35 15 -35 10 0 15 11 15 35 0 19 5 35 10 35 6 0 10
-18 10 -41 0 -39 -1 -40 -32 -37 -30 3 -33 6 -36 41 -2 21 1 37 7 37 6 0 11
-16 11 -35z m228 13 c3 -14 -3 -18 -28 -18 -21 0 -30 -4 -27 -12 2 -7 16 -13
30 -13 15 1 23 -3 18 -8 -5 -5 -19 -7 -32 -5 -25 3 -36 34 -25 64 8 21 60 14
64 -8z m72 12 c0 -5 -7 -7 -15 -4 -8 4 -15 1 -15 -5 0 -7 7 -14 15 -17 8 -4
15 -15 15 -25 0 -14 -7 -19 -25 -19 -14 0 -25 4 -25 9 0 5 9 7 20 4 26 -7 25
4 -2 26 -12 10 -18 23 -14 29 9 14 46 16 46 2z m5858 -312 c2 -173 1 -186 -15
-184 -16 3 -18 19 -21 177 -3 181 0 203 21 197 9 -4 13 -53 15 -190z m330 -1
c1 -103 0 -187 -2 -187 -2 0 -11 3 -20 6 -14 5 -16 31 -16 183 0 98 3 181 7
185 23 22 28 -12 31 -187z m532 83 c0 -33 -4 -60 -10 -60 -6 0 -10 27 -10 60
0 33 4 60 10 60 6 0 10 -27 10 -60z m190 50 c0 -5 -4 -10 -10 -10 -5 0 -10 5
-10 10 0 6 5 10 10 10 6 0 10 -4 10 -10z m-310 -9 c0 -4 -11 -6 -25 -4 -19 4
-27 0 -37 -22 -15 -34 0 -60 36 -60 14 1 26 -3 26 -7 0 -13 -55 -9 -68 4 -17
17 -15 64 4 82 16 17 64 22 64 7z m78 -61 c3 -33 1 -36 -28 -38 -27 -2 -31 0
-28 20 2 14 12 24 28 28 17 4 21 8 12 14 -7 4 -20 5 -28 2 -9 -3 -12 -2 -9 5
4 5 17 9 28 7 17 -2 23 -11 25 -38z m132 20 c16 -31 -4 -62 -38 -58 -21 2 -28
9 -30 32 -5 45 47 65 68 26z m57 7 c-9 -7 -18 -25 -20 -42 -3 -25 -4 -23 -6
10 -1 35 2 41 20 42 19 2 19 0 6 -10z m43 -27 c0 -22 -4 -40 -10 -40 -5 0 -10
18 -10 40 0 22 5 40 10 40 6 0 10 -18 10 -40z m78 28 c20 -20 14 -28 -19 -28
-20 0 -29 -4 -26 -12 2 -7 14 -13 26 -12 11 0 21 -3 21 -8 0 -5 -12 -8 -27 -6
-29 3 -41 32 -29 64 7 17 38 18 54 2z m72 3 c0 -5 -9 -7 -20 -4 -26 7 -26 -14
1 -22 26 -9 21 -39 -9 -43 -12 -2 -22 1 -22 6 0 6 9 8 20 5 11 -3 20 -1 20 5
0 6 -9 14 -20 17 -20 6 -26 25 -13 38 10 10 43 8 43 -2z m-1090 -221 c0 -143
-1 -150 -20 -150 -19 0 -20 7 -20 150 0 143 1 150 20 150 19 0 20 -7 20 -150z
m-220 -83 c0 -116 -1 -123 -20 -124 -19 -2 -20 4 -20 116 0 112 9 149 32 135
4 -3 8 -60 8 -127z m790 29 c0 -18 4 -23 18 -19 29 7 47 -22 34 -52 -9 -19
-19 -25 -42 -25 l-30 0 0 60 c0 33 4 60 10 60 6 0 10 -11 10 -24z m470 -37 l0
-60 -31 3 c-58 6 -66 68 -10 76 13 2 21 11 21 23 0 10 5 19 10 19 6 0 10 -27
10 -61z m-360 -44 c9 0 17 13 21 35 l6 35 2 -41 c1 -39 -1 -41 -26 -40 -25 1
-28 5 -30 41 l-1 40 6 -35 c4 -22 13 -35 22 -35z m87 52 c-9 -7 -18 -25 -20
-42 -3 -25 -4 -23 -6 10 -1 35 2 41 20 42 19 2 19 0 6 -10z m90 -32 l1 -40 -6
35 c-9 46 -36 47 -40 3 -5 -47 -22 -41 -22 8 0 39 1 40 33 37 30 -3 32 -6 34
-43z m81 33 c20 -20 14 -28 -19 -28 -20 0 -29 -4 -26 -12 2 -7 14 -13 26 -12
11 0 21 -3 21 -8 0 -5 -12 -8 -27 -6 -29 3 -41 32 -29 64 7 17 38 18 54 2z
m-13248 -143 c0 -108 -1 -115 -20 -115 -19 0 -20 7 -20 90 l0 90 -25 -6 c-38
-9 -32 19 8 39 57 28 57 27 57 -98z m190 40 c0 -60 3 -75 15 -75 8 0 15 -7 15
-15 0 -8 -7 -15 -15 -15 -9 0 -15 -9 -15 -25 0 -18 -5 -25 -20 -25 -15 0 -20
7 -20 25 0 23 -3 25 -50 25 -63 0 -64 12 -11 83 21 29 44 62 50 75 6 12 21 22
31 22 18 0 20 -7 20 -75z m169 61 c36 -43 36 -156 0 -195 -28 -29 -84 -29
-103 2 -35 52 -27 174 12 196 25 15 78 13 91 -3z m1310 -12 c30 -38 29 -119
-2 -165 -20 -30 -29 -34 -70 -37 -36 -2 -47 0 -47 12 0 10 13 16 42 18 36 3
43 7 54 33 l12 30 -38 -3 c-70 -7 -103 56 -59 112 15 19 30 26 54 26 24 0 39
-7 54 -26z m201 22 c0 -2 -16 -37 -35 -78 -20 -40 -38 -90 -41 -110 -5 -29
-11 -38 -26 -38 -17 0 -19 5 -13 33 4 17 20 61 35 97 l29 65 -51 5 c-28 3 -53
11 -56 18 -3 9 17 12 77 12 45 0 81 -2 81 -4z m142 -13 c20 -18 23 -45 7 -74
-8 -16 -7 -25 5 -38 38 -42 3 -101 -61 -101 -20 0 -45 7 -55 17 -22 20 -24 76
-3 93 11 9 13 16 5 24 -17 17 -12 74 8 85 26 16 73 13 94 -6z m1278 2 c0 -11
-11 -15 -40 -15 -38 0 -40 -2 -40 -30 0 -26 4 -30 27 -30 39 0 63 -27 63 -71
0 -30 -6 -42 -24 -54 -31 -21 -100 -17 -104 6 -2 12 6 16 39 15 76 -2 82 66 5
72 l-36 3 0 60 0 59 55 0 c42 0 55 -3 55 -15z m177 -11 c14 -22 15 -31 5 -56
-9 -25 -8 -35 3 -52 34 -47 1 -96 -64 -96 -31 0 -44 6 -60 26 -26 33 -26 45
-2 75 17 22 17 27 5 44 -28 38 6 85 63 85 24 0 37 -7 50 -26z m8951 -117 c3
-72 1 -77 -18 -77 -18 0 -20 6 -20 73 0 41 3 77 7 81 18 18 28 -7 31 -77z
m-12728 43 c0 -28 3 -30 35 -30 19 0 35 -4 35 -10 0 -5 -16 -10 -35 -10 -32 0
-35 -2 -35 -30 0 -16 -4 -30 -10 -30 -5 0 -10 14 -10 30 0 28 -3 30 -35 30
-19 0 -35 5 -35 10 0 6 16 10 35 10 32 0 35 2 35 30 0 17 5 30 10 30 6 0 10
-13 10 -30z m1660 0 c0 -27 3 -30 30 -30 17 0 30 -4 30 -10 0 -5 -13 -10 -30
-10 -27 0 -30 -3 -30 -30 0 -20 -5 -30 -15 -30 -10 0 -15 10 -15 30 0 27 -3
30 -30 30 -16 0 -30 5 -30 10 0 6 14 10 30 10 27 0 30 3 30 30 0 20 5 30 15
30 10 0 15 -10 15 -30z m1620 0 c0 -27 3 -30 30 -30 17 0 30 -4 30 -10 0 -5
-13 -10 -30 -10 -27 0 -30 -3 -30 -30 0 -20 -5 -30 -15 -30 -10 0 -15 10 -15
30 0 27 -3 30 -30 30 -16 0 -30 5 -30 10 0 6 14 10 30 10 27 0 30 3 30 30 0
20 5 30 15 30 10 0 15 -10 15 -30z m10381 -132 c0 -51 1 -52 16 -30 8 12 25
22 36 22 20 0 20 -1 -6 -27 l-27 -27 32 -33 c27 -28 29 -33 13 -33 -10 0 -29
10 -42 22 l-23 21 0 -21 c0 -13 -6 -22 -15 -22 -12 0 -15 17 -15 90 0 73 3 90
15 90 11 0 15 -13 16 -52z m349 -38 c0 -73 -3 -90 -15 -90 -12 0 -15 17 -15
90 0 73 3 90 15 90 12 0 15 -17 15 -90z m-742 38 c3 -31 -2 -40 -32 -65 -20
-15 -36 -31 -36 -35 0 -5 18 -8 40 -8 22 0 40 -4 40 -10 0 -5 -25 -10 -55 -10
-47 0 -55 3 -55 18 0 10 18 35 40 55 42 38 45 44 31 66 -8 12 -14 13 -35 3
-21 -9 -26 -9 -26 2 0 21 12 27 50 24 32 -3 35 -6 38 -40z m130 0 c3 -31 -2
-40 -32 -65 -20 -15 -36 -31 -36 -35 0 -5 18 -8 40 -8 22 0 40 -4 40 -10 0 -5
-25 -10 -55 -10 -47 0 -55 3 -55 18 0 10 18 35 40 55 42 38 45 44 31 66 -8 12
-14 13 -35 3 -21 -9 -26 -9 -26 2 0 21 12 27 50 24 32 -3 35 -6 38 -40z m132
23 c5 -11 10 -41 10 -66 0 -65 -13 -85 -55 -85 -42 0 -55 20 -55 85 0 65 13
85 55 85 24 0 38 -6 45 -19z m310 -45 c0 -10 -9 -14 -26 -13 -16 1 -31 -5 -38
-15 -16 -26 5 -54 38 -51 17 1 26 -3 26 -13 0 -20 -59 -18 -82 3 -22 20 -23
61 -1 85 20 22 83 25 83 4z m108 -47 l3 -56 -45 -1 c-42 -2 -46 0 -52 24 -8
31 15 54 54 54 14 0 21 4 17 11 -4 6 -19 7 -36 4 -16 -4 -29 -2 -29 3 0 17 14
23 50 20 l35 -3 3 -56z m-14015 -76 c-15 -3 -23 -12 -23 -24 0 -13 7 -19 23
-20 l22 -2 -22 -4 c-14 -3 -23 -12 -23 -23 0 -11 9 -20 23 -23 19 -4 18 -4 -5
-6 -27 -1 -28 0 -28 54 0 54 1 55 28 54 23 -2 24 -2 5 -6z m87 -23 c5 8 10 18
10 23 0 4 4 7 10 7 5 0 2 -13 -7 -29 -16 -27 -16 -30 0 -55 10 -14 13 -26 8
-26 -5 0 -13 9 -16 20 -3 11 -10 20 -15 20 -5 0 -14 -9 -20 -20 -6 -11 -15
-20 -21 -20 -6 0 -1 12 10 26 19 24 19 28 5 58 l-15 31 20 -25 c18 -21 22 -23
31 -10z m111 14 c16 -20 1 -48 -29 -52 -12 -2 -23 -12 -25 -25 -2 -12 -5 4 -6
36 -1 54 0 57 23 57 13 0 29 -7 37 -16z m67 9 c-36 -5 -40 -42 -5 -44 l22 -2
-22 -4 c-34 -6 -30 -41 5 -46 25 -4 25 -4 -5 -6 l-33 -1 0 55 0 55 33 -1 c30
-2 30 -2 5 -6z m102 -3 c12 -8 13 -13 2 -30 -10 -17 -10 -24 4 -45 9 -14 12
-25 7 -25 -5 0 -15 11 -21 25 -15 33 -40 32 -45 -2 -2 -16 -5 -2 -6 30 -1 53
1 57 22 57 12 0 29 -5 37 -10z m83 3 c-20 -4 -23 -11 -25 -56 l-2 -52 -3 52
c-3 38 -8 53 -21 56 -9 3 3 5 28 4 25 0 35 -2 23 -4z m87 -2 c0 -4 -11 -6 -25
-3 -34 6 -34 -24 0 -40 37 -17 30 -52 -10 -55 -27 -2 -28 -1 -6 5 34 10 37 30
7 43 -25 12 -34 38 -19 52 9 10 53 8 53 -2z m144 0 c3 -4 -5 -6 -17 -4 -31 5
-49 -10 -49 -42 0 -32 18 -47 49 -42 12 2 20 0 17 -4 -18 -29 -84 9 -84 48 0
33 69 69 84 44z m100 -7 c34 -33 9 -94 -38 -94 -31 0 -46 18 -46 57 0 48 51
71 84 37z m96 -30 c21 -48 27 -82 9 -51 -13 22 -55 22 -63 1 -4 -9 -9 -15 -11
-12 -3 3 1 20 8 39 8 19 17 42 20 52 10 26 16 21 37 -29z m120 35 c0 -5 -5 -7
-11 -4 -5 4 -21 4 -35 1 -22 -6 -25 -11 -22 -44 3 -34 5 -37 35 -37 17 0 29
-3 26 -7 -9 -16 -53 -7 -67 14 -21 30 -20 44 4 68 21 21 70 28 70 9z m60 -39
c24 0 29 5 33 28 2 15 4 0 4 -33 0 -33 -2 -48 -4 -32 -4 22 -9 27 -33 27 -24
0 -29 -5 -33 -27 -2 -16 -4 -1 -4 32 0 33 2 48 4 33 4 -23 9 -28 33 -28z m113
43 c-15 -3 -23 -12 -23 -24 0 -13 7 -19 23 -20 l22 -2 -22 -4 c-14 -3 -23 -12
-23 -23 0 -11 9 -20 23 -23 16 -3 13 -5 -10 -6 l-33 -1 0 55 0 55 33 -1 c23
-1 26 -3 10 -6z m87 0 c-8 -2 -22 -7 -30 -9 -11 -4 -6 -13 20 -34 29 -24 32
-30 21 -44 -14 -17 -61 -22 -61 -7 0 4 11 6 25 3 18 -3 25 0 25 11 0 8 -11 22
-25 31 -40 27 -30 54 20 54 13 0 15 -1 5 -5z m396 -39 c16 -42 19 -45 31 -28
7 10 13 13 13 8 0 -6 -6 -18 -13 -28 -13 -17 -15 -15 -32 25 l-19 44 -7 -45
-6 -45 -1 58 c-1 31 2 57 7 57 5 0 17 -21 27 -46z m72 -11 c-1 -44 -2 -49 -5
-20 -2 20 -8 35 -14 32 -12 -8 -12 2 1 26 17 30 20 23 18 -38z m75 50 c-15 -3
-23 -12 -23 -24 0 -13 7 -19 23 -20 l22 -2 -22 -4 c-14 -3 -23 -12 -23 -23 0
-11 9 -20 23 -23 16 -3 13 -5 -10 -6 l-33 -1 0 55 0 55 33 -1 c23 -1 26 -3 10
-6z m81 -45 c29 -61 27 -78 -3 -21 l-20 38 -1 -37 c0 -21 -4 -38 -10 -38 -5 0
-10 25 -10 55 0 30 4 55 10 55 5 0 20 -23 34 -52z m74 -5 l-1 -58 -6 45 -6 45
-17 -30 c-10 -16 -17 -27 -18 -23 0 14 34 78 42 78 4 0 7 -26 6 -57z m87 27
c0 -14 4 -31 8 -38 12 -18 -10 -42 -39 -42 -22 0 -24 4 -24 56 0 54 0 55 28
52 21 -2 27 -8 27 -28z m73 23 c-36 -5 -40 -42 -5 -44 l22 -2 -22 -4 c-34 -6
-30 -41 5 -46 25 -4 25 -4 -5 -6 l-33 -1 0 55 0 55 33 -1 c30 -2 30 -2 5 -6z
m102 -3 c13 -8 13 -13 2 -31 -11 -17 -11 -24 3 -45 8 -13 12 -24 7 -24 -5 0
-14 11 -20 25 -15 33 -40 32 -45 -2 -2 -16 -5 -2 -6 30 -1 53 1 57 22 57 12 0
29 -5 37 -10z m71 1 c-25 -7 -42 -31 -22 -31 6 0 20 -9 32 -21 16 -16 18 -23
8 -35 -12 -15 -59 -20 -59 -5 0 4 11 6 25 3 18 -3 25 0 25 11 0 8 -11 22 -25
31 -40 27 -30 55 20 54 16 0 15 -1 -4 -7z m115 -87 c-3 -8 -13 -13 -23 -13
-17 1 -17 2 0 6 13 3 17 16 19 56 l1 52 4 -44 c3 -24 2 -50 -1 -57z m118 80
c34 -33 9 -94 -38 -94 -31 0 -46 18 -46 57 0 48 51 71 84 37z m56 -39 c0 -30
-4 -55 -10 -55 -5 0 -10 25 -10 55 0 30 5 55 10 55 6 0 10 -25 10 -55z m82 -6
l17 -24 0 43 c1 23 5 42 10 42 9 0 5 -99 -4 -108 -2 -2 -16 15 -32 39 l-28 43
-6 -45 c-6 -42 -6 -42 -7 16 -1 58 -1 59 16 39 9 -11 25 -31 34 -45z m101 54
c-15 -3 -23 -12 -23 -24 0 -13 7 -19 23 -20 l22 -2 -22 -4 c-34 -6 -30 -41 5
-46 25 -4 25 -4 -5 -6 l-33 -1 0 55 c0 54 1 55 28 54 23 -2 24 -2 5 -6z m115
-5 c17 -17 15 -64 -4 -82 -8 -9 -26 -16 -40 -16 -22 0 -24 3 -24 55 0 54 1 55
28 55 15 0 33 -5 40 -12z m395 5 c-15 -3 -23 -12 -23 -24 0 -13 7 -19 23 -20
l22 -2 -22 -4 c-14 -3 -23 -13 -26 -31 -2 -15 -5 -1 -6 31 -1 56 -1 57 27 56
23 -2 24 -2 5 -6z m54 -75 c-2 -18 -4 -6 -4 27 0 33 2 48 4 33 2 -15 2 -42 0
-60z m86 75 c-20 -4 -23 -11 -25 -56 l-2 -52 -3 52 c-3 38 -8 53 -21 56 -9 3
3 5 28 4 25 0 35 -2 23 -4z m74 -35 l28 -42 6 45 c6 42 6 42 7 -16 1 -58 1
-59 -16 -39 -9 11 -25 31 -34 45 l-17 24 0 -42 c-1 -24 -5 -43 -11 -43 -5 0
-10 25 -10 55 0 30 4 55 10 55 5 0 22 -19 37 -42z m116 35 c-15 -3 -23 -12
-23 -24 0 -13 7 -19 23 -20 l22 -2 -22 -4 c-14 -3 -23 -12 -23 -23 0 -11 9
-20 23 -23 16 -3 13 -5 -10 -6 l-33 -1 0 55 0 55 33 -1 c23 -1 26 -3 10 -6z
m97 -1 c0 -5 -10 -8 -21 -8 -32 1 -35 -22 -4 -36 37 -17 31 -52 -10 -54 -29
-2 -29 -2 -2 3 34 6 34 21 0 49 -32 25 -26 54 12 54 14 0 25 -4 25 -8z m65 1
c-36 -9 -37 -20 -6 -42 34 -24 40 -46 15 -55 -23 -9 -54 -7 -54 3 0 4 11 6 24
4 24 -5 49 18 28 25 -6 2 -22 12 -34 22 -19 15 -20 20 -9 34 7 9 23 15 35 15
20 -1 20 -2 1 -6z m155 -14 c13 -24 -2 -49 -31 -49 -10 0 -19 -9 -22 -22 -2
-13 -5 3 -6 35 -1 54 0 57 24 57 14 0 29 -8 35 -21z m85 -20 c1 -20 7 -44 14
-53 7 -9 9 -16 4 -16 -5 0 -16 11 -23 25 -18 33 -38 32 -43 -2 -2 -16 -5 -2
-6 30 -1 58 -1 58 27 55 24 -3 27 -7 27 -39z m122 15 c15 -24 15 -29 2 -53
-11 -19 -23 -26 -44 -26 -21 0 -33 7 -44 26 -13 24 -13 29 2 53 11 16 27 26
42 26 15 0 31 -10 42 -26z m113 18 c0 -4 -12 -8 -26 -7 -33 0 -55 -31 -43 -62
11 -30 59 -33 59 -4 0 11 -6 22 -12 24 -8 3 -6 6 5 6 12 1 17 -7 17 -29 0 -27
-3 -30 -29 -30 -20 0 -35 8 -45 22 -21 30 -20 44 4 68 19 19 70 28 70 12z m90
-7 c10 -12 10 -18 1 -29 -10 -12 -9 -20 4 -40 10 -14 13 -26 8 -26 -5 0 -15
11 -21 25 -15 33 -40 32 -45 -2 -2 -16 -5 -2 -6 30 -1 54 0 57 23 57 13 0 29
-7 36 -15z m100 -31 c21 -48 27 -82 9 -51 -5 9 -21 17 -34 17 -13 0 -29 -8
-35 -17 -9 -15 -10 -14 -4 6 9 34 33 91 39 91 2 0 13 -21 25 -46z m77 0 c18
-42 22 -45 31 -28 6 11 12 14 12 8 0 -5 -6 -18 -13 -28 -13 -17 -15 -15 -32
25 l-19 44 -7 -45 -6 -45 -1 58 c-1 31 2 57 7 57 5 0 17 -21 28 -46z m71 -11
l-1 -58 -7 45 c-4 25 -8 39 -8 31 -1 -8 -5 -12 -8 -9 -6 6 13 48 21 48 3 0 4
-26 3 -57z m92 49 c0 -5 -10 -8 -21 -8 -32 1 -35 -22 -4 -36 37 -17 31 -52
-10 -54 -29 -2 -29 -2 -2 3 34 6 34 21 0 49 -32 25 -26 54 12 54 14 0 25 -4
25 -8z m-3440 -657 l0 -195 -640 0 -640 0 0 195 0 195 640 0 640 0 0 -195z
m1440 0 l0 -195 -640 0 -640 0 0 195 0 195 640 0 640 0 0 -195z m2468 -1582
c51 -38 67 -70 65 -132 -2 -84 -47 -161 -115 -197 -41 -21 -136 -18 -176 6
-80 49 -82 201 -4 284 61 65 170 84 230 39z m1162 5 c36 -19 49 -32 64 -71 18
-42 19 -54 8 -104 -23 -111 -94 -173 -197 -173 -76 0 -118 25 -141 85 -39 103
20 234 123 270 55 20 93 18 143 -7z m5578 2 c113 -51 103 -246 -16 -321 -58
-37 -146 -41 -198 -9 -111 69 -64 287 73 335 53 19 91 18 141 -5z m441 14 c38
-8 78 -44 87 -79 8 -31 8 -31 -39 -39 -34 -6 -38 -5 -47 19 -9 23 -15 26 -47
23 -26 -2 -39 -8 -41 -20 -2 -13 14 -26 62 -48 72 -34 96 -60 96 -103 0 -80
-58 -121 -163 -115 -63 3 -72 7 -98 36 -18 20 -29 43 -29 62 0 29 2 30 45 30
38 0 45 -3 45 -20 0 -28 43 -46 78 -34 48 17 39 40 -30 75 -73 36 -98 62 -98
104 0 83 76 129 179 109z m2179 -21 c50 -38 65 -68 65 -131 -1 -90 -54 -174
-126 -201 -47 -18 -128 -13 -165 9 -79 48 -83 192 -9 277 63 72 172 93 235 46z
m-10452 -35 l26 -52 47 52 46 52 168 0 c165 0 168 -1 192 -25 53 -52 19 -166
-55 -192 -19 -7 -58 -12 -86 -12 l-50 -1 -15 -62 -14 -63 -48 -3 c-45 -3 -47
-2 -42 20 16 68 65 305 65 316 0 20 -11 10 -89 -82 l-72 -85 41 -80 c22 -44
40 -83 40 -86 0 -3 -22 -5 -50 -5 -48 0 -50 1 -71 43 -12 23 -23 44 -25 46 -2
2 -22 -17 -45 -42 l-41 -47 -200 0 c-185 0 -199 1 -194 18 3 9 19 85 36 167
17 83 32 156 35 163 3 9 50 12 190 12 l185 0 26 -52z m654 43 c0 -5 -11 -61
-25 -125 -14 -64 -25 -122 -25 -130 0 -12 18 -16 83 -18 l82 -3 -4 -30 c-1
-16 -5 -33 -8 -37 -2 -5 -62 -8 -134 -8 -117 0 -129 2 -129 18 0 14 46 239 65
320 5 19 12 22 50 22 25 0 45 -4 45 -9z m823 -11 c55 -43 40 -145 -26 -176
l-34 -16 33 -62 c19 -33 34 -67 34 -73 0 -9 -16 -13 -48 -13 l-48 0 -17 48
c-24 67 -44 92 -72 92 -21 0 -25 -7 -35 -57 -17 -85 -15 -83 -65 -83 -25 0
-45 2 -45 4 0 3 16 81 35 175 19 93 35 172 35 175 0 3 51 6 114 6 99 0 117 -3
139 -20z m368 -12 l-7 -33 -89 -3 c-90 -3 -105 -9 -105 -44 0 -16 11 -18 85
-18 47 0 85 -4 85 -9 0 -5 -3 -23 -6 -40 l-6 -31 -89 0 -88 0 -9 -32 -8 -33
98 -3 c54 -1 98 -6 98 -11 0 -5 -3 -23 -6 -40 l-6 -31 -144 0 c-122 0 -144 2
-144 15 0 13 48 249 65 323 5 21 8 22 144 22 l138 0 -6 -32z m646 10 c-3 -13
-16 -72 -28 -132 -22 -106 -23 -109 -4 -122 26 -19 52 -17 74 5 17 17 27 55
62 219 l11 52 44 0 c31 0 44 -4 44 -14 0 -18 -36 -191 -49 -232 -24 -81 -69
-114 -156 -114 -88 0 -135 38 -135 109 0 27 35 211 45 239 3 7 23 12 51 12 43
0 46 -2 41 -22z m506 2 c53 -42 40 -142 -22 -175 -17 -8 -31 -18 -31 -21 0 -2
11 -26 24 -52 13 -26 27 -57 30 -69 7 -22 5 -23 -41 -23 l-49 0 -17 48 c-24
67 -44 92 -72 92 -21 0 -25 -7 -35 -57 -6 -32 -13 -64 -15 -70 -5 -14 -95 -19
-95 -5 0 4 16 85 37 180 l36 172 112 0 c98 0 116 -3 138 -20z m4593 -2 c-3
-13 -6 -28 -6 -35 0 -7 -20 -13 -52 -15 l-52 -3 -29 -142 -30 -143 -43 0 c-54
0 -53 -2 -19 156 14 64 25 120 25 125 0 5 -22 9 -49 9 -52 0 -53 1 -35 58 2 9
41 12 150 12 l146 0 -6 -22z m931 -10 c-3 -18 -9 -48 -13 -65 l-6 -33 55 0 55
0 12 65 12 65 49 0 c49 0 49 0 43 -27 -4 -15 -21 -95 -38 -178 l-31 -150 -48
-3 c-26 -2 -47 1 -47 5 0 7 10 55 25 121 5 21 2 22 -49 22 l-54 0 -17 -75 -16
-75 -45 0 c-31 0 -44 4 -44 14 0 8 16 87 35 177 19 90 35 165 35 166 0 2 21 3
46 3 l47 0 -6 -32z m485 -138 c15 -91 27 -171 28 -177 0 -9 -15 -13 -44 -13
-44 0 -44 0 -51 40 l-7 40 -57 0 c-56 0 -58 -1 -80 -40 -21 -37 -25 -40 -67
-40 -24 0 -44 3 -44 7 0 3 44 85 98 180 l97 174 50 -3 50 -3 27 -165z m359
141 c35 -35 38 -81 9 -128 -28 -47 -61 -64 -136 -71 l-68 -7 -8 -40 c-18 -89
-15 -85 -63 -85 -30 0 -45 4 -45 13 0 7 14 76 30 153 17 76 33 151 36 167 l6
27 105 0 c102 0 105 -1 134 -29z m359 17 c0 -7 -3 -23 -6 -35 -6 -22 -11 -23
-100 -23 -75 0 -94 -3 -94 -14 0 -8 -3 -21 -6 -30 -5 -13 8 -16 83 -18 l88 -3
-4 -30 c-1 -16 -5 -33 -8 -37 -2 -5 -44 -8 -94 -8 -64 0 -89 -3 -89 -12 0 -7
-3 -23 -6 -35 -6 -23 -5 -23 90 -23 95 0 96 0 96 -24 0 -56 -1 -56 -157 -56
-137 0 -145 1 -140 19 2 10 19 91 37 180 l33 161 139 0 c104 0 138 -3 138 -12z
m251 -48 c13 -33 26 -60 30 -60 3 0 25 27 48 60 l42 60 56 0 c43 0 53 -3 46
-12 -57 -71 -163 -224 -163 -234 0 -7 -5 -36 -11 -64 l-11 -50 -44 0 c-50 0
-51 2 -33 91 11 54 10 57 -35 157 -25 56 -46 104 -46 107 0 3 22 5 48 5 l49 0
24 -60z m699 46 c0 -8 -9 -58 -20 -111 -24 -118 -25 -151 -4 -159 26 -10 40
-7 64 12 17 14 28 46 49 143 l27 124 47 3 c26 2 47 1 47 -3 0 -27 -54 -248
-68 -275 -26 -53 -74 -80 -141 -80 -71 0 -101 16 -124 62 -20 40 -18 57 19
226 l16 72 44 0 c31 0 44 -4 44 -14z m-6579 -105 c21 -22 29 -39 29 -66 0 -78
-56 -125 -148 -125 l-50 0 -7 -46 c-3 -26 -9 -53 -12 -60 -6 -16 -83 -20 -83
-4 0 11 59 299 65 318 3 8 30 12 90 12 82 0 88 -1 116 -29z m288 14 c32 -16
41 -33 41 -75 0 -32 -43 -90 -67 -90 -11 0 -13 -5 -8 -17 15 -37 35 -107 35
-125 0 -15 -8 -18 -44 -18 l-44 0 -7 50 c-7 48 -25 80 -46 80 -9 0 -13 -12
-27 -85 -7 -38 -9 -40 -50 -43 -23 -2 -42 1 -42 5 0 8 53 259 65 311 5 21 11
22 86 22 51 0 90 -5 108 -15z m328 -5 c49 -30 66 -72 60 -148 -6 -75 -40 -133
-97 -163 -40 -22 -123 -25 -160 -6 -109 55 -86 269 35 323 45 20 124 17 162
-6z m381 14 c23 -7 30 -37 13 -62 -6 -11 -17 -11 -50 -2 -93 25 -161 -26 -161
-121 0 -50 17 -73 60 -83 31 -8 45 2 54 37 6 25 4 27 -27 27 -32 0 -33 2 -29
30 l4 30 78 0 78 0 -14 -62 c-8 -35 -16 -73 -19 -85 -6 -26 -51 -43 -117 -43
-102 0 -158 51 -158 145 1 87 45 153 121 184 27 11 133 14 167 5z m296 -5 c52
-24 58 -110 10 -148 -14 -11 -29 -21 -34 -23 -5 -2 -3 -21 4 -43 8 -22 17 -57
21 -77 l7 -38 -45 0 -45 0 -7 43 c-7 44 -29 87 -45 87 -8 0 -17 -25 -34 -102
-6 -25 -11 -28 -46 -28 -22 0 -40 4 -40 10 0 11 59 299 65 318 6 16 154 17
189 1z m306 -1 c0 -7 11 -84 24 -170 l23 -158 -43 0 c-39 0 -43 2 -49 30 -6
29 -9 30 -60 30 -48 0 -56 -3 -75 -30 -18 -26 -28 -30 -66 -30 -24 0 -44 2
-44 4 0 4 154 278 176 314 12 18 23 22 64 22 33 0 50 -4 50 -12z m265 -50 c9
-35 19 -67 22 -71 3 -5 27 24 55 62 l49 71 55 0 c51 0 54 -1 49 -22 -12 -50
-65 -303 -65 -310 0 -5 -18 -8 -40 -8 -37 0 -40 2 -35 23 21 93 43 202 42 204
-1 1 -22 -27 -47 -63 -39 -55 -49 -64 -77 -64 -34 0 -30 -7 -67 125 -3 10 -46
-187 -46 -210 0 -11 -12 -15 -40 -15 -22 0 -40 4 -40 8 0 11 59 291 66 315 4
13 16 17 53 17 l48 0 18 -62z m469 56 c17 -6 23 -59 8 -68 -5 -3 -25 -1 -45 5
-39 10 -77 -1 -77 -23 0 -6 25 -34 55 -63 69 -64 74 -98 21 -151 -31 -31 -39
-34 -95 -34 -33 0 -71 5 -85 11 -21 10 -24 16 -19 43 3 17 7 32 7 33 1 1 22
-5 46 -13 75 -26 122 13 64 53 -58 39 -84 71 -84 102 0 73 44 110 132 111 31
0 63 -3 72 -6z"/>
<path d="M10890 8735 c0 -17 5 -25 13 -22 6 2 12 12 12 22 0 10 -6 20 -12 23
-8 2 -13 -6 -13 -23z"/>
<path d="M12720 8735 c0 -26 24 -35 32 -12 7 18 -2 37 -18 37 -8 0 -14 -10
-14 -25z"/>
<path d="M10250 8715 c-11 -13 -11 -19 3 -33 20 -19 41 -5 35 24 -4 24 -22 28
-38 9z"/>
<path d="M10480 8720 c0 -5 7 -10 16 -10 8 0 12 5 9 10 -3 6 -10 10 -16 10 -5
0 -9 -4 -9 -10z"/>
<path d="M11030 8715 c-11 -13 -11 -19 3 -33 20 -19 41 -5 35 24 -4 24 -22 28
-38 9z"/>
<path d="M11124 8716 c-8 -22 3 -49 19 -43 6 2 12 14 12 27 0 27 -22 39 -31
16z"/>
<path d="M11275 8689 c-4 -6 -5 -13 -2 -16 7 -7 27 6 27 18 0 12 -17 12 -25
-2z"/>
<path d="M12845 8689 c-4 -6 -5 -13 -2 -16 7 -7 27 6 27 18 0 12 -17 12 -25
-2z"/>
<path d="M13475 8720 c-3 -5 3 -10 15 -10 12 0 18 5 15 10 -3 6 -10 10 -15 10
-5 0 -12 -4 -15 -10z"/>
<path d="M13860 8715 c-11 -13 -11 -19 3 -33 20 -19 41 -5 35 24 -4 24 -22 28
-38 9z"/>
<path d="M14085 8689 c-4 -6 -5 -13 -2 -16 7 -7 27 6 27 18 0 12 -17 12 -25
-2z"/>
<path d="M1813 8663 c9 -2 25 -2 35 0 9 3 1 5 -18 5 -19 0 -27 -2 -17 -5z"/>
<path d="M1813 8613 c9 -2 25 -2 35 0 9 3 1 5 -18 5 -19 0 -27 -2 -17 -5z"/>
<path d="M2090 7210 c0 -13 5 -20 13 -17 6 2 12 10 12 17 0 7 -6 15 -12 18 -8
2 -13 -5 -13 -18z"/>
<path d="M2090 7160 c0 -11 7 -20 15 -20 8 0 15 9 15 20 0 11 -7 20 -15 20 -8
0 -15 -9 -15 -20z"/>
<path d="M2829 7209 c-12 -23 1 -69 20 -69 28 0 41 14 41 45 0 21 -6 35 -16
39 -25 10 -33 7 -45 -15z"/>
<path d="M509 6299 c-82 -12 -129 -60 -129 -131 0 -39 30 -92 62 -109 13 -7
63 -25 112 -39 65 -19 95 -33 108 -51 38 -51 -17 -109 -102 -109 -57 0 -96 23
-111 65 -12 33 -15 35 -49 29 -19 -4 -36 -8 -38 -9 -6 -5 29 -79 46 -99 44
-49 156 -70 233 -45 94 32 138 137 89 216 -23 38 -54 56 -146 82 -106 29 -123
38 -130 66 -8 32 7 51 52 65 65 22 138 -7 156 -62 6 -16 68 1 68 18 0 26 -28
70 -55 88 -34 23 -108 34 -166 25z"/>
<path d="M870 6050 l0 -250 35 0 35 0 0 110 0 110 120 0 120 0 0 -110 0 -110
35 0 35 0 0 250 0 250 -35 0 -34 0 -3 -102 -3 -103 -115 0 -115 0 -3 103 -3
102 -34 0 -35 0 0 -250z"/>
<path d="M1455 6098 c-43 -112 -87 -224 -97 -250 l-18 -48 39 0 c38 0 39 1 61
60 l23 61 115 -3 115 -3 20 -57 21 -58 42 0 42 0 -100 250 -100 250 -42 0 -42
0 -79 -202z m164 10 c19 -51 36 -99 38 -105 4 -10 -16 -13 -82 -13 -65 0 -86
3 -83 13 3 6 20 54 38 105 18 50 38 92 44 92 7 0 27 -42 45 -92z"/>
<path d="M1548 6074 l-25 -69 29 -3 c15 -2 39 -2 51 0 l23 3 -26 69 -26 68
-26 -68z"/>
<path d="M1910 6050 l0 -250 35 0 35 0 0 94 0 93 94 6 c153 9 200 49 194 165
-4 54 -8 67 -35 93 -38 38 -83 48 -220 49 l-103 0 0 -250z m229 169 c35 -12
51 -35 51 -74 0 -61 -43 -85 -152 -85 l-58 0 0 85 0 85 64 0 c34 0 77 -5 95
-11z"/>
<path d="M2010 6144 l0 -66 60 4 c68 5 93 22 93 64 0 42 -35 64 -99 64 l-54 0
0 -66z"/>
<path d="M2390 6050 l0 -250 180 0 180 0 0 35 0 35 -145 0 -145 0 0 80 0 80
130 0 130 0 0 35 0 35 -130 0 -131 0 3 63 3 62 138 3 137 3 0 34 0 35 -175 0
-175 0 0 -250z"/>
<path d="M3644 6184 c-38 -18 -60 -56 -69 -115 -24 -161 128 -254 213 -129 21
31 23 44 20 113 -3 76 -4 80 -40 113 -42 38 -74 43 -124 18z"/>
<path d="M4670 6135 l0 -65 33 0 c48 0 77 24 77 65 0 44 -22 65 -71 65 l-39 0
0 -65z"/>
<path d="M3224 4982 c-90 -57 -81 -249 12 -288 92 -39 164 26 164 147 0 91
-39 147 -107 155 -27 4 -47 -1 -69 -14z"/>
<path d="M730 4839 l0 -151 60 4 c51 4 66 9 91 35 70 70 56 208 -25 247 -19 9
-55 16 -80 16 l-46 0 0 -151z"/>
<path d="M1700 4890 c-13 -41 -25 -81 -28 -87 -3 -10 11 -13 53 -13 53 0 56 1
50 21 -4 11 -17 51 -29 87 l-23 67 -23 -75z"/>
<path d="M2720 4944 l0 -57 40 6 c51 7 70 22 70 56 0 38 -17 51 -67 51 l-43 0
0 -56z"/>
<path d="M2720 4740 l0 -60 48 0 c58 0 82 20 82 68 0 39 -22 52 -84 52 l-46 0
0 -60z"/>
<path d="M3730 4840 l0 -150 53 0 c95 0 147 55 147 155 0 92 -54 145 -147 145
l-53 0 0 -150z"/>
<path d="M3104 4055 c-8 -21 2 -45 20 -45 17 0 28 24 20 45 -4 8 -13 15 -20
15 -8 0 -17 -7 -20 -15z"/>
<path d="M3267 4063 c-11 -10 -8 -41 4 -49 16 -9 41 20 33 39 -6 17 -25 22
-37 10z"/>
<path d="M3541 4057 c-15 -19 -3 -49 18 -45 9 2 16 13 16 27 0 29 -17 37 -34
18z"/>
<path d="M4134 4055 c-8 -21 3 -48 19 -43 19 7 22 58 2 58 -8 0 -18 -7 -21
-15z"/>
<path d="M4514 4056 c-8 -22 3 -49 19 -43 6 2 12 14 12 27 0 27 -22 39 -31 16z"/>
<path d="M4705 4050 c-8 -26 7 -45 30 -36 21 8 16 50 -7 54 -10 2 -19 -5 -23
-18z"/>
<path d="M5125 4050 c-8 -26 7 -45 30 -36 21 8 16 50 -7 54 -10 2 -19 -5 -23
-18z"/>
<path d="M635 4060 c-3 -5 3 -10 14 -10 12 0 21 5 21 10 0 6 -6 10 -14 10 -8
0 -18 -4 -21 -10z"/>
<path d="M785 4060 c-3 -5 3 -10 14 -10 12 0 21 5 21 10 0 6 -6 10 -14 10 -8
0 -18 -4 -21 -10z"/>
<path d="M1045 4060 c-4 -6 5 -10 20 -10 15 0 24 4 20 10 -3 6 -12 10 -20 10
-8 0 -17 -4 -20 -10z"/>
<path d="M1585 4060 c-4 -6 5 -10 20 -10 15 0 24 4 20 10 -3 6 -12 10 -20 10
-8 0 -17 -4 -20 -10z"/>
<path d="M1730 4055 c-11 -13 -11 -19 3 -33 20 -19 41 -5 35 24 -4 24 -22 28
-38 9z"/>
<path d="M1960 4055 c-10 -12 -10 -18 0 -30 24 -29 58 -7 44 30 -4 8 -12 15
-19 15 -7 0 -18 -7 -25 -15z"/>
<path d="M2267 4055 c-9 -22 3 -46 22 -43 10 2 16 13 16 28 0 28 -29 40 -38
15z"/>
<path d="M2591 4031 c-9 -6 -10 -11 -2 -15 13 -8 31 1 31 15 0 11 -11 11 -29
0z"/>
<path d="M2684 4056 c-8 -22 3 -49 19 -43 6 2 12 14 12 27 0 27 -22 39 -31 16z"/>
<path d="M2775 4060 c-3 -5 3 -10 14 -10 12 0 21 5 21 10 0 6 -6 10 -14 10 -8
0 -18 -4 -21 -10z"/>
<path d="M2925 4029 c-4 -6 -5 -13 -2 -16 7 -7 27 6 27 18 0 12 -17 12 -25 -2z"/>
<path d="M3777 4055 c-9 -22 3 -46 22 -43 10 2 16 13 16 28 0 28 -29 40 -38
15z"/>
<path d="M4225 4060 c-4 -6 5 -10 20 -10 15 0 24 4 20 10 -3 6 -12 10 -20 10
-8 0 -17 -4 -20 -10z"/>
<path d="M4325 4029 c-4 -6 -5 -13 -2 -16 7 -7 27 6 27 18 0 12 -17 12 -25 -2z"/>
<path d="M4607 4055 c-9 -22 3 -46 22 -43 10 2 16 13 16 28 0 28 -29 40 -38
15z"/>
<path d="M4945 4029 c-4 -6 -5 -13 -2 -16 7 -7 27 6 27 18 0 12 -17 12 -25 -2z"/>
<path d="M5445 4060 c-4 -6 5 -10 20 -10 15 0 24 4 20 10 -3 6 -12 10 -20 10
-8 0 -17 -4 -20 -10z"/>
<path d="M5697 4063 c-11 -10 -8 -41 4 -49 16 -9 41 20 33 39 -6 17 -25 22
-37 10z"/>
<path d="M5924 4056 c-9 -24 4 -48 23 -44 12 2 18 12 18 28 0 29 -32 41 -41
16z"/>
<path d="M6375 4060 c-3 -5 3 -10 14 -10 12 0 21 5 21 10 0 6 -6 10 -14 10 -8
0 -18 -4 -21 -10z"/>
<path d="M6580 4055 c-10 -12 -10 -18 0 -30 24 -29 58 -7 44 30 -4 8 -12 15
-19 15 -7 0 -18 -7 -25 -15z"/>
<path d="M6965 4060 c-3 -5 3 -10 14 -10 12 0 21 5 21 10 0 6 -6 10 -14 10 -8
0 -18 -4 -21 -10z"/>
<path d="M13725 3809 c-4 -6 -4 -13 -1 -16 8 -8 36 5 36 17 0 13 -27 13 -35
-1z"/>
<path d="M13844 3836 c-9 -24 4 -48 23 -44 12 2 18 12 18 28 0 29 -32 41 -41
16z"/>
<path d="M14035 3840 c-3 -5 3 -10 14 -10 12 0 21 5 21 10 0 6 -6 10 -14 10
-8 0 -18 -4 -21 -10z"/>
<path d="M13634 3536 c-8 -22 3 -49 19 -43 6 2 12 14 12 27 0 27 -22 39 -31
16z"/>
<path d="M14044 3536 c-8 -22 3 -49 19 -43 6 2 12 14 12 27 0 27 -22 39 -31
16z"/>
<path d="M13955 3540 c-3 -5 3 -10 14 -10 12 0 21 5 21 10 0 6 -6 10 -14 10
-8 0 -18 -4 -21 -10z"/>
<path d="M867 3410 l-28 -40 30 0 c29 0 31 2 31 40 0 22 -1 40 -2 40 -2 0 -16
-18 -31 -40z"/>
<path d="M1030 3471 c-14 -27 -13 -124 2 -139 18 -18 46 -14 58 7 5 11 10 41
10 66 0 56 -14 85 -40 85 -11 0 -24 -9 -30 -19z"/>
<path d="M2334 3476 c-12 -32 0 -61 28 -64 32 -4 50 22 37 56 -10 25 -56 31
-65 8z"/>
<path d="M2687 3483 c-12 -11 -8 -40 7 -52 26 -22 63 10 50 44 -6 15 -45 21
-57 8z"/>
<path d="M2675 3370 c-9 -28 12 -52 44 -48 22 2 26 8 26 33 0 26 -4 30 -32 33
-25 2 -33 -1 -38 -18z"/>
<path d="M4137 3484 c-23 -23 7 -69 37 -58 25 10 17 58 -9 62 -12 2 -24 0 -28
-4z"/>
<path d="M4126 3372 c-11 -34 4 -53 38 -50 27 3 31 7 31 33 0 26 -4 30 -32 33
-24 2 -33 -1 -37 -16z"/>
<path d="M13907 3303 c-13 -22 -17 -72 -7 -97 22 -60 69 2 52 69 -8 28 -35 45
-45 28z"/>
<path d="M14330 3210 c-12 -7 -12 -12 -3 -21 9 -9 16 -9 28 1 29 24 9 42 -25
20z"/>
<path d="M520 3115 c0 -18 5 -25 19 -25 20 0 31 17 24 38 -3 6 -13 12 -24 12
-14 0 -19 -7 -19 -25z"/>
<path d="M690 3120 c0 -23 35 -28 43 -6 7 18 -1 26 -25 26 -11 0 -18 -7 -18
-20z"/>
<path d="M1090 3126 c-28 -35 11 -93 48 -70 35 22 22 84 -18 84 -10 0 -23 -7
-30 -14z"/>
<path d="M1220 3121 c0 -5 -3 -16 -6 -25 -4 -11 0 -16 14 -16 15 0 19 5 15 20
-6 22 -23 38 -23 21z"/>
<path d="M2370 3120 c0 -15 5 -20 18 -18 9 2 17 10 17 18 0 8 -8 16 -17 18
-13 2 -18 -3 -18 -18z"/>
<path d="M2370 3070 c0 -13 7 -20 20 -20 13 0 20 7 20 20 0 13 -7 20 -20 20
-13 0 -20 -7 -20 -20z"/>
<path d="M2540 3120 c0 -23 35 -28 43 -6 7 18 -1 26 -25 26 -11 0 -18 -7 -18
-20z"/>
<path d="M2830 3126 c-28 -35 11 -93 48 -70 35 22 22 84 -18 84 -10 0 -23 -7
-30 -14z"/>
<path d="M3190 3095 c0 -37 3 -45 18 -45 24 0 42 19 42 45 0 26 -18 45 -42 45
-15 0 -18 -8 -18 -45z"/>
<path d="M4240 3114 c0 -33 33 -30 38 4 3 17 -2 22 -17 22 -16 0 -21 -6 -21
-26z"/>
<path d="M4330 3120 c0 -13 7 -20 20 -20 13 0 20 7 20 20 0 13 -7 20 -20 20
-13 0 -20 -7 -20 -20z"/>
<path d="M4424 3118 c-14 -33 -6 -57 21 -64 28 -7 41 -1 47 24 14 53 -47 88
-68 40z"/>
<path d="M4650 3120 c0 -23 35 -28 43 -6 7 18 -1 26 -25 26 -11 0 -18 -7 -18
-20z"/>
<path d="M4762 3105 c-10 -22 -9 -25 8 -25 21 0 26 16 12 38 -6 9 -12 6 -20
-13z"/>
<path d="M1780 2485 l0 -175 620 0 620 0 0 175 0 175 -620 0 -620 0 0 -175z
m290 11 c0 -41 2 -45 28 -49 22 -3 20 -4 -10 -6 l-38 -1 0 50 c0 28 5 50 10
50 6 0 10 -20 10 -44z m417 17 l7 -28 6 25 c4 16 14 26 28 28 19 3 22 -1 22
-29 0 -29 1 -31 13 -15 8 11 23 17 38 14 19 -2 24 -9 24 -33 0 -24 -5 -31 -24
-33 -15 -3 -30 3 -38 14 -12 16 -13 16 -13 1 0 -23 -30 -22 -31 1 -1 16 -2 16
-6 0 -2 -10 -11 -18 -19 -18 -8 0 -15 8 -15 18 -1 16 -2 16 -6 0 -2 -10 -11
-18 -19 -18 -10 0 -14 13 -14 50 0 43 3 50 20 50 13 0 22 -9 27 -27z m-299
-25 c2 -13 -3 -18 -17 -18 -12 0 -21 -4 -21 -9 0 -5 10 -7 23 -4 17 5 19 3 11
-7 -28 -29 -80 14 -54 45 17 20 54 16 58 -7z m72 -13 c0 -32 -2 -35 -30 -35
-37 0 -42 31 -7 49 l22 11 -24 -6 c-16 -4 -21 -3 -17 5 4 6 18 11 32 11 21 0
24 -5 24 -35z m138 -2 c2 -25 -1 -33 -12 -33 -11 0 -17 10 -18 33 l-1 32 -4
-32 c-6 -44 -33 -45 -33 -2 0 38 -24 35 -28 -4 -5 -40 -22 -33 -22 8 l0 36 58
-3 c56 -3 57 -3 60 -35z m353 16 c8 -16 6 -19 -16 -19 -15 0 -24 -4 -20 -10 3
-5 13 -6 23 -3 13 5 14 3 6 -6 -19 -21 -49 -9 -52 22 -4 37 -22 35 -22 -3 0
-20 -5 -30 -15 -30 -10 0 -15 10 -15 34 l0 35 50 -1 c39 0 53 -4 61 -19z"/>
<path d="M2584 2486 c-4 -10 -2 -22 4 -28 8 -8 13 -7 18 6 4 10 2 22 -4 28 -8
8 -13 7 -18 -6z"/>
<path d="M2150 2490 c0 -5 5 -10 11 -10 5 0 7 5 4 10 -3 6 -8 10 -11 10 -2 0
-4 -4 -4 -10z"/>
<path d="M2227 2473 c-4 -3 -7 -11 -7 -17 0 -6 5 -5 12 2 6 6 9 14 7 17 -3 3
-9 2 -12 -2z"/>
<path d="M2715 2490 c-3 -5 -1 -10 4 -10 6 0 11 5 11 10 0 6 -2 10 -4 10 -3 0
-8 -4 -11 -10z"/>
<path d="M5355 897 c-47 -22 -91 -79 -105 -136 -22 -94 8 -162 82 -182 112
-30 218 68 218 201 0 43 -5 56 -33 86 -28 31 -41 37 -83 40 -28 3 -62 -1 -79
-9z m112 -42 c44 -31 48 -121 9 -180 -42 -63 -122 -78 -164 -29 -21 23 -24 36
-20 80 9 106 106 177 175 129z"/>
<path d="M5360 822 c-36 -36 -57 -103 -44 -140 5 -14 22 -33 37 -42 24 -13 30
-13 54 0 41 23 65 64 71 118 4 41 1 53 -17 71 -29 29 -67 27 -101 -7z"/>
<path d="M6525 896 c-111 -50 -147 -242 -56 -303 41 -27 120 -23 169 9 103 69
114 253 17 294 -42 17 -91 17 -130 0z m120 -48 c39 -35 43 -86 11 -152 -22
-44 -34 -57 -67 -70 -38 -16 -43 -16 -78 1 -45 22 -61 71 -43 131 30 99 116
142 177 90z"/>
<path d="M6542 834 c-32 -22 -53 -69 -55 -121 -2 -36 3 -48 22 -64 30 -24 52
-24 85 2 37 29 56 70 56 122 0 69 -53 100 -108 61z"/>
<path d="M12105 896 c-111 -50 -147 -242 -56 -303 36 -24 117 -23 159 2 54 32
86 88 90 159 3 44 -1 72 -11 93 -29 55 -116 78 -182 49z m120 -48 c39 -35 43
-86 11 -152 -22 -44 -34 -57 -67 -70 -38 -16 -43 -16 -78 1 -45 22 -61 71 -43
131 30 99 116 142 177 90z"/>
<path d="M12122 834 c-32 -22 -53 -69 -55 -121 -2 -36 3 -48 22 -64 30 -24 52
-24 85 2 37 29 56 70 56 122 0 69 -53 100 -108 61z"/>
<path d="M12580 897 c-35 -18 -54 -62 -43 -101 7 -25 21 -38 78 -67 55 -28 71
-41 73 -61 4 -34 -21 -51 -73 -51 -45 0 -75 15 -75 39 0 8 -10 14 -25 14 -53
0 -8 -73 56 -90 75 -20 149 14 165 75 11 45 -10 72 -86 110 -56 28 -70 40 -70
58 0 32 18 47 58 47 40 0 72 -15 72 -35 0 -9 10 -15 25 -15 29 0 29 0 13 35
-22 50 -110 71 -168 42z"/>
<path d="M14715 897 c-47 -22 -91 -79 -105 -136 -22 -94 8 -162 82 -182 112
-30 218 68 218 201 0 43 -5 56 -33 86 -28 31 -41 37 -83 40 -28 3 -62 -1 -79
-9z m113 -42 c41 -30 46 -122 8 -179 -42 -64 -122 -79 -164 -30 -21 23 -24 36
-20 80 9 106 106 177 176 129z"/>
<path d="M14720 823 c-38 -36 -59 -110 -42 -147 39 -87 149 -30 160 82 4 41 1
53 -17 71 -29 29 -65 26 -101 -6z"/>
<path d="M4287 882 l-6 -31 -93 -3 -93 -3 -3 -27 -3 -28 87 0 c85 0 86 0 80
-22 -3 -13 -6 -31 -6 -40 0 -16 -11 -18 -89 -18 -95 0 -95 0 -105 -42 l-6 -27
97 -3 c98 -3 98 -3 95 -28 -3 -28 -7 -31 94 87 l42 48 -43 84 c-40 81 -42 83
-48 53z"/>
<path d="M4006 760 c-15 -77 -30 -149 -33 -160 -5 -20 -2 -21 118 -18 109 3
124 5 127 21 3 15 -7 17 -96 17 l-100 0 12 53 11 52 93 3 c84 2 92 5 92 22 0
18 -7 20 -86 20 l-86 0 6 31 c3 17 6 38 6 45 0 11 21 14 94 14 85 0 94 2 99
20 5 19 0 20 -112 20 l-116 0 -29 -140z"/>
<path d="M4330 895 c0 -2 17 -38 37 -79 l37 -75 -50 -56 c-27 -32 -57 -68 -67
-81 l-19 -24 30 0 c24 0 40 11 77 55 26 30 51 55 54 55 4 0 18 -25 30 -55 20
-49 26 -55 52 -55 l29 0 -39 78 -39 77 70 80 c69 79 70 80 42 83 -23 3 -36 -6
-77 -52 -27 -31 -53 -56 -58 -56 -5 0 -21 25 -36 55 -21 43 -32 55 -50 55 -13
0 -23 -2 -23 -5z"/>
<path d="M4647 763 c-15 -76 -30 -148 -33 -160 -5 -19 -2 -23 19 -23 23 0 26
6 37 65 l12 65 59 0 c104 0 159 41 159 120 0 55 -27 70 -133 70 l-93 0 -27
-137z m177 97 c36 -13 36 -61 0 -89 -33 -26 -140 -31 -131 -7 3 8 9 32 13 53
4 21 9 41 11 46 6 10 77 9 107 -3z"/>
<path d="M4730 833 c0 -10 -3 -28 -6 -40 -6 -21 -3 -23 33 -23 44 0 77 26 71
57 -5 27 -98 33 -98 6z"/>
<path d="M4995 888 c-2 -7 -15 -71 -30 -143 -15 -71 -29 -138 -31 -148 -5 -16
3 -17 108 -15 98 3 113 5 116 21 3 15 -6 17 -82 17 -51 0 -86 4 -86 10 0 5 11
63 25 127 30 143 30 143 5 143 -11 0 -22 -6 -25 -12z"/>
<path d="M5660 897 c0 -2 -13 -71 -30 -152 -16 -81 -30 -152 -30 -157 0 -13
40 -9 45 5 2 6 9 38 15 70 l11 57 39 0 c45 0 67 -22 94 -94 14 -37 22 -46 42
-46 13 0 24 3 24 8 0 4 -16 35 -34 69 -35 65 -35 73 -4 73 35 0 68 45 68 93 0
68 -16 77 -138 77 -56 0 -102 -2 -102 -3z m194 -59 c8 -13 6 -24 -10 -45 -19
-25 -28 -28 -93 -31 -39 -2 -71 0 -71 3 0 3 5 26 11 51 l12 45 70 -3 c53 -2
73 -7 81 -20z"/>
<path d="M5716 819 c-9 -48 -8 -49 27 -49 48 0 82 21 82 50 0 23 -4 25 -51 28
-50 3 -51 2 -58 -29z"/>
<path d="M6006 883 c-3 -10 -17 -74 -31 -143 -14 -69 -28 -133 -31 -142 -5
-17 5 -18 120 -18 119 0 126 1 126 20 0 19 -7 20 -96 20 l-96 0 6 38 c14 76 9
72 107 72 82 0 89 1 89 20 0 18 -7 20 -85 20 l-86 0 7 38 c4 20 9 40 11 45 2
4 44 7 93 7 85 0 100 5 100 36 0 2 -51 4 -114 4 -100 0 -115 -2 -120 -17z"/>
<path d="M6835 888 c-8 -23 -45 -210 -45 -229 0 -10 13 -33 29 -51 26 -29 34
-32 83 -32 101 0 127 36 167 232 l18 92 -23 0 c-20 0 -24 -8 -34 -57 -17 -86
-41 -175 -51 -194 -15 -28 -73 -43 -106 -27 -37 17 -39 49 -13 166 11 50 20
96 20 102 0 14 -40 12 -45 -2z"/>
<path d="M7180 897 c0 -2 -13 -71 -30 -152 -16 -81 -30 -152 -30 -157 0 -13
40 -9 45 5 2 6 9 38 15 70 l11 57 39 0 c45 0 67 -22 94 -94 14 -37 22 -46 42
-46 13 0 24 3 24 8 0 4 -16 35 -34 69 -35 65 -35 73 -4 73 35 0 68 45 68 93 0
68 -16 77 -138 77 -56 0 -102 -2 -102 -3z m194 -59 c8 -13 6 -24 -10 -45 -19
-26 -28 -28 -93 -31 -66 -3 -72 -1 -68 15 3 10 8 33 12 51 l7 33 70 -3 c54 -2
73 -7 82 -20z"/>
<path d="M7236 819 c-9 -48 -8 -49 27 -49 48 0 82 21 82 50 0 23 -4 25 -51 28
-50 3 -51 2 -58 -29z"/>
<path d="M11737 893 c-4 -3 -7 -12 -7 -20 0 -9 15 -13 50 -13 47 0 50 -1 45
-22 -3 -13 -14 -66 -25 -118 -11 -52 -22 -105 -25 -117 -4 -19 -1 -23 18 -23
22 0 25 8 53 138 l29 137 53 3 c44 3 52 6 52 23 0 18 -8 19 -118 19 -65 0
-122 -3 -125 -7z"/>
<path d="M12865 878 c-3 -13 -18 -85 -34 -160 l-29 -138 23 0 c26 0 27 4 45
93 l11 57 78 0 79 0 -14 -62 c-18 -85 -18 -90 8 -86 20 3 25 16 48 128 44 210
43 190 16 190 -21 0 -25 -7 -36 -65 l-12 -65 -79 0 c-44 0 -79 3 -79 8 1 4 7
33 14 65 l14 57 -24 0 c-16 0 -25 -7 -29 -22z"/>
<path d="M13272 833 c-22 -37 -61 -106 -87 -153 -26 -47 -50 -88 -52 -92 -2
-5 6 -8 19 -8 17 0 29 10 42 35 l19 35 78 0 c81 0 89 -5 89 -51 0 -12 7 -19
20 -19 26 0 25 17 -3 185 l-22 130 -32 3 c-29 3 -34 -1 -71 -65z m83 -76 l7
-67 -61 0 c-33 0 -61 4 -61 10 0 5 21 44 47 86 53 87 56 86 68 -29z"/>
<path d="M13296 761 c-14 -22 -26 -43 -26 -46 0 -3 15 -5 34 -5 l34 0 -5 43
c-3 23 -7 44 -9 45 -1 2 -14 -14 -28 -37z"/>
<path d="M13560 897 c0 -2 -13 -68 -30 -145 -36 -168 -36 -172 -10 -172 13 0
22 9 26 28 3 15 10 44 15 65 l10 37 62 0 c69 0 101 13 130 51 24 33 25 94 1
120 -15 16 -31 19 -111 19 -51 0 -93 -2 -93 -3z m167 -50 c22 -22 7 -67 -27
-84 -29 -15 -120 -17 -120 -3 0 5 5 32 11 61 l11 51 55 -4 c32 -3 61 -12 70
-21z"/>
<path d="M13616 828 c-12 -48 -8 -58 27 -58 44 0 70 20 65 51 -2 20 -9 24 -44
27 -36 3 -42 0 -48 -20z"/>
<path d="M13851 748 c-17 -84 -31 -156 -31 -160 0 -5 54 -8 119 -8 99 0 120 3
125 16 3 9 6 18 6 20 0 2 -45 4 -100 4 l-99 0 6 33 c15 77 14 76 110 79 74 3
88 6 91 21 3 15 -6 17 -82 17 -93 0 -92 -1 -80 59 l7 31 93 0 c87 0 94 1 94
20 0 19 -7 20 -114 20 l-113 0 -32 -152z"/>
<path d="M14309 878 c5 -13 25 -58 45 -100 29 -64 33 -82 26 -110 -22 -89 -22
-88 4 -88 22 0 26 6 37 60 9 49 24 77 80 154 38 52 69 97 69 100 0 3 -10 6
-23 6 -18 0 -36 -19 -77 -77 -46 -65 -55 -74 -62 -57 -53 127 -58 134 -83 134
-21 0 -23 -3 -16 -22z"/>
<path d="M15010 843 c-6 -32 -16 -74 -21 -93 -14 -53 -11 -113 6 -137 38 -54
150 -50 198 7 23 27 48 111 72 243 7 36 6 39 -16 35 -21 -3 -26 -14 -49 -121
-18 -80 -33 -125 -47 -138 -28 -28 -87 -29 -114 -2 l-21 20 25 122 24 121 -23
0 c-20 0 -24 -8 -34 -57z"/>
<path d="M8376 753 c-2 -10 -7 -33 -11 -50 -6 -30 -4 -33 17 -33 34 0 68 27
68 55 0 39 -64 63 -74 28z"/>
<path d="M8673 728 c-8 -38 -7 -43 10 -46 26 -5 67 25 67 48 0 11 -9 24 -19
30 -37 19 -49 12 -58 -32z"/>
<path d="M8987 729 c-56 -56 -58 -145 -4 -170 53 -24 117 39 117 117 0 48 -15
70 -52 80 -23 5 -34 0 -61 -27z"/>
<path d="M9687 753 c-21 -75 -20 -76 14 -69 40 8 59 23 59 47 0 34 -65 53 -73
22z"/>
<path d="M10007 674 l-27 -54 35 0 35 0 0 49 c0 28 -4 52 -8 55 -5 3 -20 -20
-35 -50z"/>
<path d="M18062 8733 c-2 -40 -21 -70 -30 -45 -2 7 -8 12 -13 12 -4 0 -6 -7
-3 -15 8 -19 43 -20 50 -1 3 8 4 31 1 52 l-4 39 -1 -42z"/>
<path d="M18330 8720 c0 -53 16 -69 22 -22 l4 27 14 -27 c20 -42 30 -34 29 25
-1 46 -2 48 -8 17 l-6 -35 -20 33 c-11 17 -23 32 -27 32 -4 0 -8 -22 -8 -50z"/>
<path d="M18100 8726 c-27 -33 18 -72 48 -42 13 13 14 20 6 34 -15 23 -38 26
-54 8z m40 -21 c0 -16 -6 -25 -15 -25 -9 0 -15 9 -15 25 0 16 6 25 15 25 9 0
15 -9 15 -25z"/>
<path d="M18183 8705 c0 -22 2 -30 4 -17 2 12 2 30 0 40 -3 9 -5 -1 -4 -23z"/>
<path d="M18210 8705 c0 -19 5 -35 10 -35 6 0 10 16 10 35 0 19 -4 35 -10 35
-5 0 -10 -16 -10 -35z"/>
<path d="M18248 8705 c2 -19 8 -35 14 -35 13 0 6 63 -8 67 -6 2 -8 -10 -6 -32z"/>
<path d="M18430 8726 c-27 -33 18 -72 48 -42 13 13 14 20 6 34 -15 23 -38 26
-54 8z m40 -21 c0 -16 -6 -25 -15 -25 -9 0 -15 9 -15 25 0 16 6 25 15 25 9 0
15 -9 15 -25z"/>
<path d="M18500 8737 c0 -2 5 -18 11 -36 12 -35 29 -41 29 -10 0 11 5 17 10
14 6 -3 10 3 10 14 0 28 -14 27 -28 -1 -8 -18 -11 -19 -11 -6 -1 14 -21 38
-21 25z"/>
<path d="M18573 8713 c-15 -32 -16 -43 -5 -43 5 0 13 16 19 35 13 41 3 46 -14
8z"/>
<path d="M17372 8098 c-17 -17 -17 -1429 0 -1446 17 -17 1159 -17 1176 0 17
17 17 1429 0 1446 -17 17 -1159 17 -1176 0z m208 -718 c24 0 29 5 33 28 2 15
4 0 4 -33 0 -33 -2 -48 -4 -32 -4 22 -9 27 -33 27 -24 0 -29 -5 -33 -27 -2
-16 -4 -1 -4 32 0 33 2 48 4 33 4 -23 9 -28 33 -28z m450 35 c10 -12 10 -18 0
-30 -10 -12 -9 -20 4 -40 9 -14 13 -25 8 -25 -5 0 -14 11 -20 25 -15 33 -40
32 -45 -2 -2 -16 -5 -2 -6 30 -1 54 0 57 23 57 13 0 29 -7 36 -15z m-131 -23
c-14 -5 -11 -60 4 -65 7 -3 5 -6 -5 -6 -14 -1 -18 7 -18 35 0 31 -3 35 -22 32
-17 -2 -25 -12 -29 -38 l-6 -35 -2 40 c-1 37 1 41 27 43 15 1 28 7 30 12 2 5
9 4 17 -3 7 -7 9 -13 4 -15z m270 0 c-12 -5 -11 -59 1 -65 6 -3 5 -4 -2 -3
-13 3 -27 61 -20 83 3 9 7 9 17 0 7 -7 9 -13 4 -15z m-461 -14 c3 -14 -3 -18
-23 -18 -17 0 -25 -5 -22 -12 2 -7 14 -13 26 -12 13 0 18 -3 12 -9 -27 -27
-63 18 -47 59 8 21 50 14 54 -8z m80 -19 c3 -34 1 -36 -25 -35 -39 1 -43 31
-6 44 l28 10 -25 11 -25 11 25 -3 c21 -2 25 -8 28 -38z m330 0 c3 -34 1 -36
-25 -35 -39 1 -43 31 -6 44 l28 10 -25 11 -25 11 25 -3 c21 -2 25 -8 28 -38z
m140 19 c3 -14 -3 -18 -23 -18 -17 0 -25 -5 -22 -12 2 -7 14 -13 26 -12 13 0
18 -3 12 -9 -27 -27 -63 18 -47 59 8 21 50 14 54 -8z m-308 -371 c0 -32 2 -33
30 -29 41 6 60 -13 60 -58 0 -47 -16 -60 -69 -58 l-41 1 0 89 c0 52 4 88 10
88 6 0 10 -15 10 -33z m-340 -62 c0 -69 -3 -85 -15 -85 -12 0 -15 14 -15 65 0
53 -3 63 -15 59 -23 -9 -18 13 7 30 12 9 26 16 30 16 5 0 8 -38 8 -85z m130 0
c0 -69 -3 -85 -15 -85 -12 0 -15 14 -15 65 0 53 -3 63 -15 59 -23 -9 -18 13 7
30 12 9 26 16 30 16 5 0 8 -38 8 -85z m160 75 c0 -5 -11 -10 -24 -10 -24 0
-56 -23 -56 -40 0 -5 7 -7 15 -4 8 4 26 3 40 0 55 -14 35 -106 -24 -106 -38 0
-56 24 -56 74 0 60 26 96 70 96 19 0 35 -4 35 -10z m274 -56 c36 -35 6 -104
-45 -104 -26 0 -29 -3 -29 -30 0 -20 -5 -30 -15 -30 -12 0 -15 17 -15 90 l0
90 44 0 c27 0 51 -6 60 -16z m204 -46 c2 -36 -1 -58 -8 -58 -5 0 -10 20 -10
45 0 33 -5 47 -16 52 -21 8 -34 -14 -34 -59 0 -27 -4 -38 -15 -38 -11 0 -15
12 -15 51 0 43 -3 50 -17 47 -14 -2 -19 -15 -21 -51 -2 -33 -7 -47 -18 -47
-11 0 -14 14 -14 60 l0 60 83 -3 82 -2 3 -57z"/>
<path d="M17980 7400 c0 -23 35 -28 43 -6 7 18 -1 26 -25 26 -11 0 -18 -7 -18
-20z"/>
<path d="M17665 7380 c-3 -5 3 -10 14 -10 12 0 21 5 21 10 0 6 -6 10 -14 10
-8 0 -18 -4 -21 -10z"/>
<path d="M17745 7349 c-4 -6 -4 -13 -1 -16 8 -8 36 5 36 17 0 13 -27 13 -35
-1z"/>
<path d="M18075 7349 c-4 -6 -4 -13 -1 -16 8 -8 36 5 36 17 0 13 -27 13 -35
-1z"/>
<path d="M18215 7380 c-3 -5 3 -10 14 -10 12 0 21 5 21 10 0 6 -6 10 -14 10
-8 0 -18 -4 -21 -10z"/>
<path d="M17962 6948 c-23 -23 -7 -68 25 -68 7 0 18 11 25 25 18 40 -20 73
-50 43z"/>
<path d="M17825 6929 c-9 -26 16 -55 40 -45 25 9 16 60 -12 64 -15 2 -23 -3
-28 -19z"/>
<path d="M18107 6954 c-13 -13 -7 -65 8 -70 23 -9 46 16 43 45 -3 26 -35 41
-51 25z"/>
<path d="M13541 7274 c0 -11 3 -14 6 -6 3 7 2 16 -1 19 -3 4 -6 -2 -5 -13z"/>
<path d="M15185 7200 c-19 -31 63 -60 171 -60 57 0 74 -4 113 -29 52 -34 72
-63 95 -140 16 -55 21 -132 10 -144 -3 -3 -14 -1 -24 5 -15 10 -26 7 -59 -15
-23 -15 -41 -34 -41 -43 0 -9 -6 -28 -14 -42 -8 -15 -22 -47 -32 -72 -9 -25
-26 -54 -35 -64 -18 -19 -19 -19 -44 9 -15 15 -31 37 -35 49 -6 14 -9 -4 -9
-59 -1 -70 -21 -158 -41 -175 -3 -3 -11 -32 -19 -65 -7 -33 -15 -71 -19 -85
l-5 -25 24 27 c13 14 34 29 45 32 25 7 34 -13 34 -77 0 -32 -3 -37 -17 -33
-10 2 -32 7 -50 11 -18 3 -34 14 -36 23 -3 12 -8 8 -16 -15 -7 -17 -19 -34
-27 -37 -13 -5 -14 0 -9 24 5 23 3 30 -9 30 -9 0 -16 5 -16 11 0 8 -15 10 -46
5 -39 -5 -45 -3 -42 11 2 9 16 24 32 32 16 9 28 20 27 24 0 4 -1 16 -1 27 0
11 -6 20 -14 20 -12 0 -12 7 -4 36 5 20 7 38 5 41 -6 5 -171 -82 -206 -108
-12 -10 -38 -21 -56 -25 -36 -6 -59 -26 -69 -61 -10 -31 12 -39 36 -14 17 19
27 21 70 16 57 -7 103 -36 112 -69 12 -46 -61 -152 -110 -162 -27 -5 -37 -1
-64 27 -18 19 -41 53 -51 75 -23 50 -30 56 -94 79 -70 25 -76 35 -25 35 65 0
38 15 -60 33 -47 9 -96 19 -110 23 -24 7 -24 6 -8 -12 26 -30 28 -212 3 -279
-11 -28 -23 -53 -28 -56 -5 -4 -9 -18 -9 -33 0 -15 -6 -26 -14 -26 -8 0 -14
-7 -14 -15 0 -8 -6 -12 -13 -10 -7 3 -22 -13 -36 -38 -20 -36 -23 -52 -17 -90
7 -46 21 -58 42 -37 6 6 35 12 65 15 46 5 60 2 81 -15 15 -11 31 -20 37 -20
14 0 14 17 1 25 -15 9 -12 19 10 33 29 18 39 7 30 -32 -4 -20 -3 -39 2 -44 7
-7 5 -18 -5 -32 -10 -15 -14 -37 -11 -70 5 -52 -13 -84 -41 -74 -10 4 -15 0
-15 -11 0 -12 6 -16 20 -12 26 7 38 -13 17 -28 -19 -14 -21 -43 -8 -112 20
-100 17 -238 -3 -175 -4 9 -15 28 -26 42 -12 15 -18 18 -14 8 7 -20 -6 -24
-23 -7 -12 12 -44 5 -42 -8 5 -28 -2 -53 -13 -47 -8 5 -9 2 -3 -12 4 -10 9
-28 10 -39 3 -47 43 -75 105 -75 27 0 40 -4 40 -14 0 -7 9 -16 20 -19 14 -4
20 -14 20 -34 0 -28 1 -28 18 -7 12 15 31 21 67 23 76 4 79 4 95 -3 10 -4 19
1 25 16 6 13 18 22 28 21 18 -1 18 8 12 160 -4 89 -10 178 -15 197 -4 19 -22
89 -39 154 -38 148 -39 153 -5 127 15 -12 35 -21 45 -21 9 0 31 -11 47 -25 17
-14 36 -25 43 -25 19 0 76 -124 84 -182 3 -26 8 -92 10 -148 4 -94 13 -133 28
-131 18 3 19 0 5 -16 -8 -10 -18 -29 -21 -43 -8 -32 11 -157 29 -193 8 -15 13
-35 12 -45 -2 -10 3 -16 11 -14 8 2 21 0 30 -4 12 -5 8 -9 -14 -13 -23 -5 -35
-16 -50 -48 -11 -23 -23 -42 -27 -43 -3 0 -12 17 -19 38 -6 20 -20 53 -30 72
-11 19 -19 38 -19 42 0 13 -91 138 -101 138 -5 0 -9 -15 -9 -32 0 -18 -3 -44
-6 -58 -5 -24 -5 -24 10 -6 9 11 16 16 17 10 0 -5 2 -36 4 -69 2 -33 8 -72 13
-86 12 -31 2 -52 -21 -43 -9 3 -17 9 -17 13 0 3 -14 21 -30 40 -17 18 -30 38
-30 42 0 17 -19 9 -25 -10 -10 -34 29 -231 56 -281 14 -25 42 -201 45 -285 2
-44 4 -83 4 -86 0 -12 63 -4 68 9 7 22 20 12 27 -20 4 -18 15 -52 26 -76 11
-24 22 -58 26 -75 10 -59 34 -137 44 -142 5 -4 9 -19 9 -35 0 -16 11 -41 24
-57 12 -15 21 -33 19 -40 -2 -6 1 -14 6 -18 17 -10 13 -33 -5 -31 -9 0 -21 -8
-28 -19 -31 -56 -48 -73 -75 -78 -24 -5 -31 -13 -36 -41 -4 -19 -3 -49 1 -68
4 -18 8 -36 8 -40 1 -4 8 -13 17 -20 31 -26 69 -87 69 -112 0 -13 -7 -31 -15
-40 -8 -8 -15 -19 -15 -25 0 -23 -36 -9 -91 34 -31 24 -59 41 -63 38 -7 -7 -9
4 -11 67 -1 25 -3 63 -5 85 l-3 40 -6 -35 -6 -35 -17 50 c-10 29 -17 41 -17
28 -1 -12 -6 -25 -11 -28 -6 -4 -11 -28 -10 -53 0 -26 -4 -72 -11 -102 -15
-74 -9 -116 36 -254 l39 -118 63 -52 c35 -29 89 -65 119 -80 53 -26 54 -28 39
-49 -17 -24 -75 -71 -133 -106 -46 -27 -72 -75 -72 -132 0 -82 -8 -79 243 -78
223 0 490 12 537 24 l25 6 -25 -15 -25 -15 31 -1 c53 0 93 59 84 125 l-5 40
-19 -43 c-11 -25 -25 -42 -35 -41 -11 0 -12 2 -3 6 11 4 38 43 29 43 -2 0 -18
-11 -36 -24 -28 -21 -76 -33 -171 -42 -58 -5 -56 -8 5 -15 54 -5 44 -6 -45 -3
-130 3 -237 17 -252 32 -7 7 53 10 184 10 176 0 200 2 242 20 25 12 49 28 52
36 3 8 19 18 34 21 16 4 46 20 67 37 43 34 136 78 165 78 18 0 19 5 13 41 -7
39 -47 93 -61 80 -3 -3 -3 4 0 16 6 18 2 24 -18 29 -27 6 -35 28 -15 40 6 3 8
17 5 30 -5 18 -2 24 10 24 12 0 14 5 9 18 -10 22 -23 107 -24 151 l-1 33 108
-6 c190 -12 186 -11 198 -35 37 -72 95 -104 196 -107 71 -2 80 -5 102 -31 29
-33 45 -24 29 17 -7 19 -8 32 -1 36 5 3 7 13 4 21 -4 8 7 31 24 52 46 59 68
194 35 221 -8 7 -15 21 -15 31 0 11 7 19 15 19 21 0 19 14 -6 36 -17 14 -23
16 -26 6 -4 -10 -9 -9 -24 4 -14 12 -22 14 -32 6 -17 -15 -57 -4 -57 16 0 19
-17 74 -37 122 l-15 35 25 -23 25 -24 -9 42 c-10 45 -6 60 17 60 8 0 14 10 14
24 0 35 111 212 235 376 178 234 189 254 317 575 11 28 23 55 28 60 11 14 70
189 70 208 0 9 -9 21 -20 27 -28 15 -28 104 0 140 26 34 26 60 -1 60 -18 0
-20 4 -15 25 4 17 -2 42 -20 77 -44 87 -66 175 -64 261 1 43 -3 77 -9 77 -5 0
-7 8 -4 18 5 22 -21 46 -70 62 -31 9 -41 9 -54 -2 -13 -10 -17 -10 -20 0 -3 6
-10 12 -17 12 -17 0 -31 -109 -16 -124 5 -5 10 -17 10 -26 0 -8 9 -21 20 -28
11 -7 20 -21 20 -32 0 -24 14 -51 56 -105 17 -22 39 -55 49 -72 11 -18 22 -33
26 -33 4 0 21 -22 38 -50 28 -46 29 -51 16 -77 -8 -15 -15 -35 -15 -44 0 -9
-22 -36 -50 -60 -30 -26 -50 -52 -50 -64 0 -20 -54 -85 -71 -85 -4 0 -11 5
-14 10 -4 6 -18 2 -37 -11 -17 -13 -43 -22 -58 -22 -20 0 -27 -4 -23 -14 3 -8
12 -12 19 -9 8 3 14 1 14 -3 0 -17 -34 -22 -42 -6 -12 20 -25 19 -31 -2 -2
-10 -3 8 -2 40 2 32 9 72 16 88 9 23 9 33 0 42 -14 14 -15 57 -1 57 6 0 10 16
8 36 -1 19 3 39 10 43 17 10 27 208 11 227 -11 13 -14 28 -18 77 0 9 -6 17
-12 17 -6 0 -28 19 -49 42 -34 37 -40 40 -54 26 -8 -9 -12 -19 -8 -22 3 -4 -2
-4 -12 0 -11 4 -21 2 -26 -6 -11 -18 -50 -3 -50 19 0 28 -26 46 -45 31 -21
-18 -45 -5 -45 25 0 14 -10 35 -22 47 -27 27 -42 92 -42 188 -1 69 0 75 19 72
11 -2 27 -2 35 -1 8 1 58 2 110 3 96 2 144 10 168 29 10 8 16 7 21 -1 5 -8 12
-6 23 7 18 21 19 81 1 96 -6 6 -21 38 -33 73 -13 35 -29 62 -36 62 -17 0 -18
22 -2 38 8 8 5 16 -13 31 -13 11 -18 20 -11 21 17 0 15 30 -2 30 -19 0 -26 12
-31 56 -7 50 -11 54 -48 43 -17 -5 -37 -9 -43 -9 -14 0 -24 54 -13 71 16 26
-52 54 -75 32 -4 -5 -12 -9 -17 -9 -5 -1 -13 -2 -19 -3 -5 0 -10 -8 -10 -16 0
-8 -4 -15 -8 -15 -13 0 -32 23 -32 37 0 8 -10 27 -22 43 -19 27 -20 37 -14
124 6 97 -1 122 -26 89 -7 -10 -22 -23 -33 -29 -18 -10 -20 -21 -19 -93 1 -60
6 -87 18 -100 16 -18 16 -37 1 -141 -13 -92 -12 -90 -56 -90 -32 0 -42 -4 -46
-20 -6 -24 -12 -25 -40 -5 -13 9 -20 22 -17 30 5 11 -1 15 -19 15 -23 0 -25 5
-36 78 -7 42 -13 149 -14 237 l-2 160 52 25 c29 14 53 28 53 33 0 4 -15 7 -34
7 -68 0 -66 -4 -66 171 0 119 4 169 15 196 20 48 20 50 -15 58 -36 8 -93 -3
-84 -16 3 -5 -2 -9 -10 -9 -9 0 -15 6 -13 13 3 16 -194 10 -206 -7 -6 -8 -10
-8 -14 2 -2 6 -20 12 -38 12 -18 0 -35 -6 -38 -12 -3 -10 -9 -10 -29 1 -18 9
-41 11 -74 7 -28 -4 -91 0 -149 9 -118 18 -142 18 -150 5z m367 -627 c33 -40
67 -313 38 -313 -5 0 -10 -14 -10 -30 0 -29 -1 -30 -22 -18 -13 7 -26 11 -30
10 -5 -1 -8 6 -8 16 0 14 -4 12 -20 -8 l-20 -25 0 26 c0 14 5 30 12 37 9 9 9
12 -3 13 -7 1 -31 3 -52 5 -108 9 -142 91 -66 161 16 15 42 47 56 71 41 69 93
92 125 55z m-182 -338 c17 -18 33 -26 55 -24 16 1 43 -3 58 -10 16 -6 42 -11
58 -11 34 0 38 -19 12 -50 -21 -24 -33 -26 -33 -4 0 8 -5 12 -10 9 -6 -4 -18
-1 -26 6 -12 10 -17 8 -29 -7 -13 -17 -14 -18 -15 -1 0 9 -6 17 -14 17 -9 0
-12 7 -9 20 5 18 0 20 -35 20 -23 0 -43 3 -45 8 -3 4 -8 30 -11 57 -5 46 -5
48 7 23 7 -15 24 -39 37 -53z m-250 -13 c0 -4 -9 -13 -20 -19 -20 -13 -37 -2
-25 17 7 12 45 14 45 2z m-70 -49 c-1 -9 -48 -56 -67 -67 -21 -12 -15 1 18 39
29 33 49 44 49 28z m180 -140 c0 -2 -5 -13 -10 -24 -8 -15 -7 -19 5 -19 8 0
15 -7 15 -15 0 -21 -42 -45 -68 -38 -24 6 -30 23 -8 23 7 0 20 7 27 16 12 15
10 16 -18 10 -37 -8 -76 1 -68 15 4 5 16 9 29 9 13 0 31 9 40 19 15 16 56 19
56 4z m239 3 c30 -11 32 -13 16 -26 -15 -12 -19 -12 -29 3 -10 12 -15 14 -24
5 -7 -7 -12 -18 -12 -25 0 -9 -15 -13 -47 -13 -30 0 -43 3 -35 9 8 4 14 12 13
17 0 10 58 43 74 43 6 0 25 -6 44 -13z m831 -250 c0 -71 -22 -88 -37 -28 -12
46 -7 62 18 62 15 0 19 -7 19 -34z m-425 -112 c17 -3 36 -7 42 -9 18 -6 4 -35
-16 -36 -9 0 20 -18 64 -39 60 -29 84 -36 97 -29 10 5 19 7 19 4 1 -3 2 -8 3
-12 3 -16 18 -33 25 -29 17 11 112 -136 126 -194 5 -22 3 -26 -21 -28 -15 -1
-38 -9 -50 -17 -13 -8 -34 -15 -46 -15 -13 0 -48 -6 -77 -14 -44 -11 -60 -11
-97 0 -44 13 -74 10 -74 -7 0 -5 -13 -9 -30 -9 -25 0 -30 -4 -30 -24 0 -19 9
-29 39 -42 48 -21 69 -60 51 -95 -14 -25 -8 -115 9 -145 27 -50 63 -191 65
-254 1 -18 -4 -25 -16 -24 -16 2 -18 -8 -19 -70 -2 -82 -6 -147 -9 -161 -1 -5
-1 -12 0 -15 2 -3 4 -27 5 -53 1 -34 -2 -46 -11 -43 -18 7 -34 -17 -27 -42 8
-31 -15 -28 -27 4 -6 14 -7 30 -4 35 3 6 -4 7 -19 4 -15 -4 -28 -2 -32 6 -5 7
-4 10 1 6 6 -3 15 3 22 13 7 11 8 21 2 25 -5 3 -7 11 -5 18 6 16 -5 31 -33 46
-29 15 -33 12 -34 -30 -1 -19 -3 -28 -5 -21 -3 6 -9 12 -15 12 -5 0 -8 -5 -6
-12 5 -14 -22 -49 -33 -42 -4 2 -5 13 -2 24 3 12 -1 22 -11 26 -9 3 -13 11
-10 16 4 6 -2 8 -15 3 -15 -4 -29 -1 -42 11 -17 15 -22 16 -44 4 -14 -7 -25
-17 -25 -22 0 -4 -7 -8 -16 -8 -11 0 -15 -6 -11 -20 3 -13 -1 -21 -15 -26 -26
-8 -55 -87 -30 -83 21 4 23 -3 7 -21 -13 -14 -16 -29 -12 -55 3 -19 1 -37 -4
-40 -5 -4 -5 -13 0 -23 4 -9 11 -44 14 -77 3 -40 2 -52 -4 -37 -4 12 -18 32
-29 44 -22 23 -27 44 -9 32 7 -4 10 -1 7 7 -3 8 -11 13 -18 11 -7 -1 -9 4 -6
16 3 9 -3 50 -14 90 -11 39 -20 85 -20 101 0 16 -7 34 -15 41 -13 11 -15 6
-16 -36 l-1 -49 -9 50 c-4 27 -13 60 -20 72 -9 16 -10 47 -4 110 22 222 2 370
-65 500 -27 52 -44 104 -56 171 -10 54 -26 108 -36 121 -27 35 -31 79 -13 154
19 82 51 133 108 174 60 44 105 60 210 77 136 23 222 24 297 3 36 -10 79 -20
95 -23z m114 -28 c23 -27 -3 -18 -39 14 l-35 31 31 -15 c17 -8 36 -22 43 -30z
m456 -197 c8 -23 51 -90 64 -99 4 -3 13 -15 20 -27 9 -18 9 -23 -1 -22 -17 0
-76 81 -84 114 -3 14 -10 28 -15 31 -12 7 -12 24 0 24 5 0 13 -9 16 -21z m499
-684 c-4 -8 -10 -12 -15 -9 -14 8 -10 24 6 24 9 0 12 -6 9 -15z m-615 -528
c-12 -40 -30 -96 -41 -125 l-20 -53 -44 7 c-80 12 -227 -62 -179 -89 9 -4 25
-10 36 -12 32 -6 106 -71 113 -100 5 -19 -1 -37 -24 -71 l-31 -45 -92 7 c-51
3 -97 7 -103 9 -17 5 9 127 35 163 20 29 60 123 110 259 l23 61 43 0 c57 0 94
21 146 83 l44 51 3 -37 c2 -20 -7 -69 -19 -108z m-981 -47 c0 -9 -3 -7 -8 5
-5 11 -8 29 -8 40 0 16 2 15 8 -5 4 -14 8 -32 8 -40z m1122 -14 c0 -3 -4 -8
-10 -11 -5 -3 -10 -1 -10 4 0 6 5 11 10 11 6 0 10 -2 10 -4z m-140 -332 c0 -9
-8 -18 -18 -20 -17 -5 -42 -47 -42 -71 0 -7 -7 -13 -15 -13 -8 0 -15 -2 -15
-5 0 -11 26 -50 43 -67 16 -14 17 -20 6 -40 -7 -12 -18 -29 -26 -36 -12 -12
-12 -17 2 -36 24 -33 29 -47 18 -55 -5 -3 -16 -22 -23 -41 -15 -36 -63 -90
-80 -90 -18 0 -10 -33 13 -54 24 -22 24 -33 5 -73 -11 -21 -11 -21 -35 8 -22
25 -24 36 -19 73 4 24 3 47 -2 50 -15 9 -45 -31 -39 -53 6 -25 -37 -67 -78
-76 -16 -4 -48 -15 -70 -25 -61 -29 -95 -35 -95 -18 0 21 54 69 71 63 8 -3 18
4 24 17 14 32 61 54 81 37 8 -6 17 -9 21 -5 4 3 -2 12 -12 20 -11 8 -16 19
-12 30 5 12 0 20 -16 26 -21 9 -21 9 -2 15 24 7 65 63 65 88 0 14 -8 17 -46
13 -43 -3 -52 -9 -108 -69 -52 -57 -67 -67 -100 -70 -29 -3 -41 -10 -48 -26
-10 -29 10 -61 39 -61 13 0 23 -4 23 -8 0 -13 -57 -52 -76 -52 -24 0 -54 29
-54 51 0 27 61 118 109 163 58 53 78 98 92 202 7 49 16 95 22 102 18 23 127 6
112 -18 -4 -6 8 -10 27 -10 38 0 120 47 150 85 10 13 31 26 47 30 16 3 32 13
35 21 7 19 26 18 26 -2z m-1140 -159 c0 -14 -5 -34 -12 -44 -11 -18 -13 -17
-28 12 -21 39 -16 57 16 57 19 0 24 -5 24 -25z m1095 -125 c3 -5 1 -10 -4 -10
-6 0 -11 5 -11 10 0 6 2 10 4 10 3 0 8 -4 11 -10z m-949 -131 c4 -21 11 -42
15 -45 5 -3 9 -14 9 -25 0 -28 -27 -23 -34 6 -4 14 -15 34 -25 44 -34 34 -41
54 -23 67 26 19 51 -1 58 -47z m-167 2 c10 -6 16 -33 19 -75 4 -67 9 -75 30
-54 10 10 11 5 6 -22 -8 -43 -9 -44 -28 -37 -8 3 -18 22 -21 41 -4 19 -23 53
-42 75 -29 34 -32 44 -23 61 11 21 36 26 59 11z m121 -51 c15 -28 15 -89 1
-103 -6 -6 -21 15 -41 54 -17 35 -35 68 -41 74 -15 15 -11 23 14 27 24 4 47
-14 67 -52z m-179 -31 c15 -8 34 -88 23 -98 -9 -9 -94 92 -94 111 0 9 45 1 71
-13z m-261 -69 c0 -5 -7 -10 -15 -10 -8 0 -15 5 -15 10 0 6 7 10 15 10 8 0 15
-4 15 -10z m726 -187 c36 -5 40 -8 36 -28 -3 -17 2 -25 17 -30 15 -5 21 -15
21 -37 0 -23 4 -29 15 -24 14 5 19 -6 18 -41 -1 -7 3 -13 8 -13 5 0 9 -7 9
-15 0 -9 6 -12 17 -8 11 4 14 3 9 -5 -5 -8 -2 -10 8 -6 9 3 16 1 16 -6 0 -6 4
-9 9 -5 9 5 6 70 -5 86 -9 15 30 10 54 -7 13 -9 31 -13 42 -9 11 4 20 3 20 0
0 -11 -22 -49 -46 -77 -12 -15 -34 -52 -48 -83 -21 -44 -31 -55 -50 -55 -19 0
-29 10 -45 43 -12 24 -21 49 -21 55 0 7 -7 12 -16 12 -13 0 -15 -8 -9 -52 7
-60 23 -108 36 -108 5 0 9 -6 9 -14 0 -8 11 -28 25 -44 24 -28 24 -30 6 -46
-21 -19 -31 -20 -31 -3 0 6 -23 25 -50 40 -41 23 -54 26 -65 17 -8 -7 -16 -10
-16 -6 -1 3 -2 10 -3 15 -2 18 -18 26 -54 27 -21 1 -66 4 -102 7 -36 4 -100 9
-142 13 -56 4 -78 10 -78 20 0 10 8 12 33 7 28 -6 82 -7 185 -3 25 1 32 5 28
16 -9 23 32 39 60 23 31 -16 42 -5 20 19 -28 32 -11 53 38 46 l41 -5 -27 18
c-16 10 -28 27 -28 39 0 30 11 36 30 19 10 -9 24 -13 33 -9 13 4 10 11 -14 32
-25 22 -29 31 -22 50 8 21 10 22 22 8 13 -16 41 -22 41 -9 0 4 -11 19 -25 33
-23 24 -25 30 -14 54 15 33 10 38 -28 27 -39 -11 -70 4 -52 25 7 9 19 12 28 8
9 -3 34 -8 57 -11z m296 -292 c8 -10 21 -20 27 -22 21 -7 -11 -61 -66 -113
-58 -53 -62 -53 -34 2 10 20 21 58 25 85 4 26 12 47 17 47 6 0 7 5 4 10 -11
18 10 11 27 -9z m-742 -91 c0 -5 -8 -10 -17 -10 -15 0 -16 2 -3 10 19 12 20
12 20 0z m20 -70 c0 -5 -5 -10 -11 -10 -5 0 -7 5 -4 10 3 6 8 10 11 10 2 0 4
-4 4 -10z m-47 -17 c-28 -22 -6 -26 44 -10 26 9 49 12 51 7 2 -5 9 -7 17 -4 7
3 16 0 20 -6 6 -9 9 -9 15 0 5 8 9 7 13 -4 9 -22 -23 -33 -114 -41 -64 -6 -73
-4 -85 13 -9 13 -21 18 -34 15 -20 -5 -25 3 -14 31 4 11 19 15 55 13 42 -2 47
-4 32 -14z m70 -140 c-13 -2 -33 -2 -45 0 -13 2 -3 4 22 4 25 0 35 -2 23 -4z"/>
<path d="M15400 4885 c0 -2 9 -9 20 -15 16 -9 20 -8 20 5 0 8 -9 15 -20 15
-11 0 -20 -2 -20 -5z"/>
<path d="M15460 4820 c0 -5 -6 -10 -13 -10 -8 0 -21 -8 -30 -18 -21 -23 -5
-42 35 -42 32 0 43 18 34 55 -6 24 -26 36 -26 15z"/>
<path d="M15361 4664 c0 -11 3 -14 6 -6 3 7 2 16 -1 19 -3 4 -6 -2 -5 -13z"/>
<path d="M15635 4450 c3 -5 8 -10 11 -10 2 0 4 5 4 10 0 6 -5 10 -11 10 -5 0
-7 -4 -4 -10z"/>
<path d="M15705 4410 c-4 -6 5 -10 19 -10 14 0 26 5 26 10 0 6 -9 10 -19 10
-11 0 -23 -4 -26 -10z"/>
<path d="M15865 4340 c-3 -5 1 -10 9 -10 9 0 16 5 16 10 0 6 -4 10 -9 10 -6 0
-13 -4 -16 -10z"/>
<path d="M15626 2877 c3 -10 9 -15 12 -12 3 3 0 11 -7 18 -10 9 -11 8 -5 -6z"/>
<path d="M15311 7061 c-8 -14 -7 -22 4 -31 13 -11 15 -8 15 19 0 36 -5 39 -19
12z"/>
<path d="M15198 6815 c-10 -17 -7 -88 4 -77 5 5 8 27 6 48 -2 22 -6 35 -10 29z"/>
<path d="M13320 6779 c0 -5 5 -7 10 -4 6 3 10 8 10 11 0 2 -4 4 -10 4 -5 0
-10 -5 -10 -11z"/>
<path d="M15082 6719 c-7 -11 -11 -24 -8 -27 10 -9 28 15 24 32 -2 14 -5 13
-16 -5z"/>
<path d="M15271 6694 c0 -11 3 -14 6 -6 3 7 2 16 -1 19 -3 4 -6 -2 -5 -13z"/>
<path d="M16590 6400 c0 -5 -7 -10 -16 -10 -9 0 -23 -8 -30 -17 -8 -11 -13
-13 -14 -5 0 14 -20 17 -20 3 0 -15 33 -22 41 -9 6 9 13 8 28 -6 25 -23 41
-13 38 24 -2 27 -27 45 -27 20z"/>
<path d="M13338 6393 c7 -3 16 -2 19 1 4 3 -2 6 -13 5 -11 0 -14 -3 -6 -6z"/>
<path d="M14771 6361 c-10 -6 -9 -10 3 -14 8 -3 18 -2 21 3 8 13 -9 20 -24 11z"/>
<path d="M16710 6265 c-18 -29 -20 -43 -15 -90 13 -99 30 -77 42 53 3 39 3 72
0 72 -3 0 -15 -16 -27 -35z"/>
<path d="M16030 6260 c0 -5 5 -10 11 -10 5 0 7 5 4 10 -3 6 -8 10 -11 10 -2 0
-4 -4 -4 -10z"/>
<path d="M16090 6220 c0 -5 5 -10 10 -10 6 0 10 5 10 10 0 6 -4 10 -10 10 -5
0 -10 -4 -10 -10z"/>
<path d="M13690 5281 c0 -5 7 -11 15 -15 8 -3 15 -1 15 3 0 5 -7 11 -15 15 -8
3 -15 1 -15 -3z"/>
<path d="M14017 4923 c-4 -3 -7 -15 -7 -26 0 -25 13 -14 15 13 2 22 1 23 -8
13z"/>
<path d="M14831 3779 c-11 -19 -10 -28 15 -76 19 -39 30 -51 38 -43 7 7 6 24
-7 59 -9 27 -17 56 -17 65 0 22 -13 20 -29 -5z"/>
<path d="M14847 3541 c-4 -17 -3 -21 5 -13 5 5 8 16 6 23 -3 8 -7 3 -11 -10z"/>
<path d="M14897 3290 c-3 -15 63 -60 88 -60 7 0 15 13 17 30 4 24 0 31 -21 39
-36 14 -80 9 -84 -9z"/>
</g>
</svg>
