<?xml version="1.0" standalone="no"?>
<!DOCTYPE svg PUBLIC "-//W3C//DTD SVG 20010904//EN"
 "http://www.w3.org/TR/2001/REC-SVG-20010904/DTD/svg10.dtd">
<svg version="1.0" xmlns="http://www.w3.org/2000/svg"
 width="1920.000000pt" height="928.000000pt" viewBox="0 0 1920.000000 928.000000"
 preserveAspectRatio="xMidYMid meet">

<g transform="translate(0.000000,928.000000) scale(0.100000,-0.100000)"
fill="#000000" stroke="none">
<path d="M4797 9273 c2642 -2 6964 -2 9605 0 2642 1 481 2 -4802 2 -5283 0
-7444 -1 -4803 -2z"/>
<path d="M14785 9051 c-11 -5 -31 -21 -45 -36 -25 -26 -25 -29 -25 -196 l0
-169 33 -32 32 -33 375 0 375 0 32 33 33 32 0 170 0 170 -33 32 -32 33 -363 2
c-199 1 -371 -2 -382 -6z m465 -230 l0 -59 -35 0 c-23 0 -38 6 -44 17 -13 24
5 61 29 61 13 0 20 7 20 20 0 11 7 20 15 20 12 0 15 -13 15 -59z m40 44 c0 -8
-4 -15 -10 -15 -5 0 -10 7 -10 15 0 8 5 15 10 15 6 0 10 -7 10 -15z m-300 -5
c0 -5 -9 -10 -20 -10 -25 0 -26 -17 -1 -25 25 -7 35 -34 20 -51 -15 -18 -69
-18 -69 0 0 9 8 12 25 8 14 -2 25 0 25 5 0 5 -11 15 -25 21 -27 13 -32 31 -13
50 15 15 58 16 58 2z m58 -17 c12 -12 13 -18 4 -21 -14 -4 -16 -42 -2 -42 6 0
10 -4 10 -10 0 -5 -9 -10 -20 -10 -15 0 -20 7 -20 29 0 16 -5 31 -12 33 -9 3
-8 9 2 21 19 20 18 20 38 0z m44 -30 c4 -39 28 -42 28 -4 0 21 5 31 15 31 11
0 15 -11 15 -40 0 -39 0 -39 -37 -37 -36 2 -38 4 -41 40 -4 42 15 52 20 10z
m198 -13 c0 -22 -4 -40 -10 -40 -5 0 -10 18 -10 40 0 22 5 40 10 40 6 0 10
-18 10 -40z m98 3 c3 -28 -1 -33 -23 -39 -29 -7 -55 10 -55 35 0 25 22 42 50
39 20 -2 26 -9 28 -35z"/>
<path d="M15190 8800 c0 -11 7 -20 15 -20 8 0 15 9 15 20 0 11 -7 20 -15 20
-8 0 -15 -9 -15 -20z"/>
<path d="M15335 8810 c-8 -14 3 -30 21 -30 8 0 14 9 14 20 0 21 -24 28 -35 10z"/>
<path d="M3942 8923 c-24 -30 -28 -43 -12 -43 6 0 10 -4 10 -10 0 -5 -7 -7
-15 -4 -17 7 -21 -21 -5 -31 6 -3 10 -15 10 -26 0 -12 7 -19 19 -19 32 0 50
11 44 26 -3 8 0 14 6 14 18 0 43 48 36 70 -5 16 -51 50 -68 50 -2 0 -13 -12
-25 -27z"/>
<path d="M4580 8820 c0 -33 4 -60 10 -60 6 0 10 27 10 60 0 33 -4 60 -10 60
-6 0 -10 -27 -10 -60z"/>
<path d="M4202 8813 c1 -43 2 -48 5 -20 5 45 17 48 29 5 12 -42 31 -46 39 -9
10 44 25 48 25 7 0 -20 5 -36 10 -36 6 0 10 25 10 55 0 67 -22 75 -47 18 l-16
-38 -15 38 c-23 58 -42 48 -40 -20z"/>
<path d="M4480 8816 c0 -55 1 -56 29 -56 34 0 56 23 46 47 -4 10 -8 27 -9 38
-1 15 -9 21 -33 23 l-33 3 0 -55z m50 24 c0 -5 -7 -10 -15 -10 -8 0 -15 5 -15
10 0 6 7 10 15 10 8 0 15 -4 15 -10z m3 -45 c1 -5 -6 -11 -15 -13 -11 -2 -18
3 -18 13 0 17 30 18 33 0z"/>
<path d="M4340 8835 c0 -3 7 -22 15 -43 15 -34 15 -38 -1 -49 -19 -14 -13 -29
9 -20 16 6 59 117 46 117 -5 0 -14 -12 -20 -27 l-11 -28 -10 28 c-8 23 -28 38
-28 22z"/>
<path d="M4632 8828 c-30 -30 0 -75 43 -64 19 5 25 13 25 35 0 38 -41 56 -68
29z m48 -28 c0 -11 -6 -20 -14 -20 -18 0 -29 16 -21 30 11 18 35 11 35 -10z"/>
<path d="M4730 8825 c-6 -8 -10 -24 -8 -37 2 -18 9 -23 30 -21 20 1 25 -2 21
-13 -3 -8 -14 -14 -24 -14 -10 0 -19 -4 -19 -10 0 -16 37 -12 54 6 10 9 16 33
16 58 0 41 -2 43 -29 44 -16 0 -35 -6 -41 -13z m45 -25 c0 -8 -8 -16 -17 -18
-13 -2 -18 3 -18 18 0 15 5 20 18 18 9 -2 17 -10 17 -18z"/>
<path d="M3786 8673 c-11 -33 -13 -50 -6 -57 6 -6 52 -12 101 -13 l90 -2 46
44 c47 46 49 65 6 65 -16 0 -27 -7 -30 -20 -9 -35 -127 -25 -136 11 -3 12 -14
19 -30 19 -21 0 -28 -8 -41 -47z"/>
<path d="M4486 8027 c-12 -9 -17 -23 -14 -47 2 -28 9 -37 31 -44 62 -22 117
52 65 88 -27 19 -58 20 -82 3z"/>
<path d="M5060 7775 l0 -265 55 0 55 0 0 265 0 265 -55 0 -55 0 0 -265z"/>
<path d="M6892 8024 c-43 -30 -14 -94 44 -94 26 0 54 30 54 58 0 46 -54 67
-98 36z"/>
<path d="M7080 7775 l0 -265 55 0 55 0 0 265 0 265 -55 0 -55 0 0 -265z"/>
<path d="M8330 7775 l0 -265 55 0 55 0 0 265 0 265 -55 0 -55 0 0 -265z"/>
<path d="M3781 7988 c-49 -130 -171 -467 -171 -472 0 -3 26 -6 58 -6 l58 0 18
55 17 55 94 0 93 0 12 -51 c7 -28 18 -53 25 -55 7 -3 35 -4 63 -2 l50 3 -88
245 -88 245 -66 3 c-61 3 -67 1 -75 -20z m129 -265 c0 -9 -19 -13 -60 -13 -33
0 -60 3 -60 7 0 6 25 89 57 183 4 14 63 -150 63 -177z"/>
<path d="M5280 7930 l0 -80 40 0 40 0 0 80 0 80 -40 0 -40 0 0 -80z"/>
<path d="M5970 7761 l0 -251 108 0 c136 0 199 17 257 71 61 56 79 108 73 209
-6 101 -36 152 -113 190 -44 22 -66 25 -187 28 l-138 4 0 -251z m248 139 c77
-35 104 -147 55 -231 -23 -39 -87 -69 -146 -69 l-47 0 0 160 0 160 48 0 c26 0
66 -9 90 -20z"/>
<path d="M7880 7761 l0 -251 113 0 c134 0 180 11 223 54 66 66 51 160 -30 200
-34 17 -36 20 -20 29 64 34 88 92 60 146 -28 53 -65 65 -213 69 l-133 4 0
-251z m225 149 c23 -19 19 -66 -7 -84 -12 -9 -42 -16 -65 -16 l-43 0 0 53 c0
30 3 57 8 61 10 11 89 1 107 -14z m15 -205 c26 -23 26 -67 -1 -91 -14 -13 -36
-18 -72 -19 l-52 0 -3 54 c-5 79 -1 84 58 79 28 -3 59 -13 70 -23z"/>
<path d="M4203 7861 c-51 -24 -78 -69 -69 -117 8 -40 36 -64 111 -94 63 -26
74 -53 28 -71 -26 -10 -41 -8 -120 16 -21 7 -23 4 -23 -33 0 -40 1 -42 43 -53
51 -14 134 -6 177 16 37 19 64 74 55 115 -8 37 -40 65 -99 87 -109 40 -69 99
47 70 26 -7 27 -6 27 32 0 35 -3 39 -31 45 -54 11 -103 6 -146 -13z"/>
<path d="M4740 7867 c-43 -11 -45 -14 -48 -51 -3 -33 -1 -38 14 -32 10 4 37
11 61 17 53 11 96 -5 101 -37 3 -19 -3 -22 -55 -29 -114 -14 -163 -52 -163
-128 0 -46 40 -94 85 -103 42 -8 100 11 120 39 15 21 15 21 15 -6 0 -26 2 -27
50 -27 l50 0 0 139 c0 127 -2 141 -23 172 -36 54 -111 71 -207 46z m130 -217
c0 -38 -31 -70 -68 -70 -34 0 -52 16 -52 46 0 34 27 48 98 53 18 1 22 -4 22
-29z"/>
<path d="M5503 7869 c-17 -5 -43 -23 -57 -40 -54 -63 -20 -143 74 -174 26 -9
54 -23 60 -30 33 -39 -31 -63 -107 -40 -26 8 -49 15 -51 15 -2 0 -2 -19 0 -42
l3 -43 59 -9 c115 -19 206 31 206 112 0 53 -20 75 -95 107 -47 20 -65 33 -65
47 0 27 44 41 89 28 51 -14 51 -14 51 29 0 37 -2 39 -37 45 -50 8 -91 6 -130
-5z"/>
<path d="M6550 7867 c-43 -11 -45 -14 -48 -51 -3 -33 -1 -38 14 -32 10 4 37
11 61 17 53 11 96 -5 101 -37 3 -19 -3 -22 -55 -29 -115 -14 -158 -48 -158
-126 0 -40 5 -54 28 -76 37 -37 110 -39 156 -5 30 22 31 22 31 2 0 -17 6 -20
50 -20 l50 0 0 138 c0 148 -6 171 -52 205 -33 25 -115 31 -178 14z m130 -217
c0 -38 -31 -70 -69 -70 -61 0 -68 72 -8 89 62 18 77 14 77 -19z"/>
<path d="M8637 7866 c-48 -18 -85 -51 -103 -93 -18 -42 -18 -125 0 -166 55
-129 252 -143 340 -24 15 20 21 47 24 97 4 58 1 75 -19 110 -13 22 -38 50 -56
61 -43 27 -135 34 -186 15z m136 -98 c20 -23 24 -117 6 -149 -25 -48 -120 -43
-140 8 -12 33 -11 97 2 127 22 48 97 56 132 14z"/>
<path d="M9055 7867 c-61 -29 -95 -94 -95 -185 0 -75 31 -140 80 -165 50 -26
113 -18 152 19 l31 29 -6 -49 c-7 -70 -40 -101 -110 -101 -28 0 -67 4 -85 8
l-33 9 3 -43 c3 -41 5 -44 43 -52 94 -20 212 12 253 70 34 48 42 102 42 286
l0 177 -55 0 c-50 0 -55 -2 -55 -22 l0 -21 -24 22 c-30 29 -99 37 -141 18z
m148 -99 c20 -24 23 -103 6 -142 -23 -51 -103 -55 -128 -7 -14 26 -14 104 0
135 22 48 86 56 122 14z"/>
<path d="M4470 7660 c0 -197 -1 -211 -20 -230 -14 -14 -28 -18 -45 -14 -24 6
-25 4 -25 -35 0 -35 3 -41 25 -47 67 -17 145 32 165 104 5 20 10 126 10 235
l0 197 -55 0 -55 0 0 -210z"/>
<path d="M6880 7690 l0 -180 50 0 50 0 0 180 0 180 -50 0 -50 0 0 -180z"/>
<path d="M7240 7867 c0 -2 32 -82 70 -177 78 -192 82 -222 33 -260 -19 -15
-35 -19 -55 -15 -27 6 -28 5 -28 -34 0 -35 3 -41 25 -47 62 -15 138 25 172 89
18 35 163 425 163 439 0 4 -22 8 -50 8 l-49 0 -31 -102 c-17 -57 -36 -118 -42
-137 -10 -33 -12 -30 -49 100 -21 74 -39 135 -39 137 0 3 -120 3 -120 -1z"/>
<path d="M3860 7250 c0 -33 4 -60 10 -60 6 0 10 27 10 60 0 33 -4 60 -10 60
-6 0 -10 -27 -10 -60z"/>
<path d="M5390 7250 c0 -33 4 -60 10 -60 6 0 10 27 10 60 0 33 -4 60 -10 60
-6 0 -10 -27 -10 -60z"/>
<path d="M5906 7288 c-8 -14 -12 -38 -9 -60 6 -45 23 -51 23 -9 0 16 6 32 13
34 9 4 8 8 -3 16 -12 9 -12 11 3 17 21 8 22 24 2 24 -8 0 -21 -10 -29 -22z"/>
<path d="M6290 7295 c0 -8 5 -15 10 -15 6 0 10 7 10 15 0 8 -4 15 -10 15 -5 0
-10 -7 -10 -15z"/>
<path d="M6530 7252 c0 -58 0 -59 29 -60 37 -1 55 20 47 54 -6 22 -11 25 -31
20 -22 -6 -25 -3 -25 19 0 14 -4 25 -10 25 -6 0 -10 -26 -10 -58z m60 -17 c0
-16 -27 -32 -37 -22 -3 4 -3 13 0 22 8 20 37 20 37 0z"/>
<path d="M6630 7250 c0 -33 4 -60 10 -60 6 0 10 27 10 60 0 33 -4 60 -10 60
-6 0 -10 -27 -10 -60z"/>
<path d="M6920 7295 c0 -8 5 -15 10 -15 6 0 10 7 10 15 0 8 -4 15 -10 15 -5 0
-10 -7 -10 -15z"/>
<path d="M7170 7250 c0 -33 4 -60 10 -60 6 0 10 14 10 30 0 20 5 30 15 30 10
0 15 -10 15 -30 0 -16 5 -30 11 -30 6 0 9 16 7 38 -3 31 -7 37 -25 36 -18 0
-23 5 -23 23 0 13 -4 23 -10 23 -6 0 -10 -27 -10 -60z"/>
<path d="M7950 7250 c0 -60 16 -84 22 -33 4 39 28 42 28 4 0 -17 5 -31 11 -31
6 0 9 16 7 38 -3 32 -6 37 -25 35 -18 -2 -23 2 -23 22 0 14 -4 25 -10 25 -6 0
-10 -27 -10 -60z"/>
<path d="M3610 7289 c0 -32 24 -99 36 -99 7 0 16 16 20 35 3 19 10 35 15 35 4
0 11 -16 15 -35 9 -51 29 -43 46 20 8 30 11 55 6 55 -5 0 -11 -8 -14 -17 -18
-57 -21 -59 -31 -24 -12 45 -31 51 -39 12 -9 -45 -22 -47 -30 -6 -6 32 -24 50
-24 24z"/>
<path d="M4560 7245 c0 -54 0 -55 30 -55 17 0 30 5 30 10 0 6 -9 10 -20 10
-11 0 -20 7 -20 15 0 8 9 15 20 15 11 0 20 5 20 10 0 6 -9 10 -20 10 -11 0
-20 5 -20 10 0 6 9 10 20 10 11 0 20 5 20 10 0 6 -13 10 -30 10 -30 0 -30 -1
-30 -55z"/>
<path d="M5020 7245 c0 -52 1 -55 26 -55 44 0 64 17 64 55 0 38 -20 55 -64 55
-25 0 -26 -3 -26 -55z m65 0 c0 -23 -5 -31 -22 -33 -20 -3 -23 1 -23 33 0 32
3 36 23 33 17 -2 22 -10 22 -33z"/>
<path d="M7400 7245 c0 -54 1 -55 28 -55 52 0 81 59 46 94 -8 9 -29 16 -45 16
-29 0 -29 -1 -29 -55z m63 13 c8 -12 7 -21 -2 -32 -23 -28 -41 -19 -41 20 0
28 4 35 16 32 9 -2 22 -10 27 -20z"/>
<path d="M4357 7277 c-9 -25 8 -82 26 -85 9 -2 17 1 17 7 0 6 -4 11 -10 11
-14 0 -12 38 2 42 9 3 8 9 -4 21 -20 20 -24 21 -31 4z"/>
<path d="M6341 7277 c-14 -18 5 -87 24 -87 8 0 15 5 15 10 0 6 -4 10 -10 10
-14 0 -12 38 2 42 9 3 8 9 -4 21 -13 13 -18 14 -27 4z"/>
<path d="M7107 7277 c-9 -25 8 -82 26 -85 9 -2 17 1 17 7 0 6 -4 11 -10 11
-14 0 -12 38 2 42 9 3 8 9 -4 21 -20 20 -24 21 -31 4z"/>
<path d="M3782 7261 c-8 -5 -12 -21 -10 -37 2 -23 9 -30 31 -32 32 -4 37 15 5
21 -20 4 -19 4 5 6 28 1 35 19 15 39 -14 14 -28 15 -46 3z m35 -17 c-3 -3 -12
-4 -19 -1 -8 3 -5 6 6 6 11 1 17 -2 13 -5z"/>
<path d="M3912 7258 c-17 -17 -15 -55 4 -62 24 -9 44 -7 44 4 0 6 -9 10 -20
10 -13 0 -20 7 -20 20 0 13 7 20 20 20 11 0 20 5 20 10 0 14 -33 13 -48 -2z"/>
<path d="M3980 7251 c-21 -40 20 -77 58 -52 8 5 12 21 10 37 -2 23 -9 30 -30
32 -19 2 -30 -3 -38 -17z m50 -21 c0 -11 -6 -20 -14 -20 -18 0 -29 16 -21 30
11 18 35 11 35 -10z"/>
<path d="M4080 7229 c0 -22 5 -39 10 -39 6 0 10 14 10 31 0 38 24 35 28 -4 5
-37 22 -34 22 4 0 38 24 35 28 -4 4 -35 22 -35 22 1 0 41 -10 48 -67 49 l-53
0 0 -38z"/>
<path d="M4232 7258 c-28 -28 -9 -68 34 -68 23 0 16 18 -8 23 -20 4 -19 4 5 6
15 0 27 7 27 14 0 16 -20 37 -35 37 -6 0 -16 -5 -23 -12z m35 -14 c-3 -3 -12
-4 -19 -1 -8 3 -5 6 6 6 11 1 17 -2 13 -5z"/>
<path d="M4422 7258 c-30 -30 0 -75 43 -64 19 5 25 13 25 35 0 38 -41 56 -68
29z m48 -28 c0 -11 -6 -20 -14 -20 -18 0 -29 16 -21 30 11 18 35 11 35 -10z"/>
<path d="M4647 7230 c19 -49 35 -51 51 -7 14 40 15 47 3 47 -5 0 -12 -11 -15
-25 -7 -29 -26 -24 -26 6 0 10 -6 19 -14 19 -12 0 -12 -6 1 -40z"/>
<path d="M4728 7245 c-14 -30 3 -55 38 -55 30 0 32 20 2 21 -21 1 -20 2 3 8
23 5 25 9 18 29 -11 30 -46 29 -61 -3z m49 -1 c-3 -3 -12 -4 -19 -1 -8 3 -5 6
6 6 11 1 17 -2 13 -5z"/>
<path d="M4810 7229 c0 -22 5 -39 10 -39 6 0 10 11 10 25 0 14 7 28 15 31 23
9 18 22 -10 22 -22 0 -25 -5 -25 -39z"/>
<path d="M4889 7225 c14 -40 14 -47 1 -55 -8 -5 -11 -12 -8 -15 12 -12 29 6
49 52 21 49 23 63 11 63 -5 0 -13 -12 -19 -27 l-10 -28 -8 28 c-4 15 -13 27
-20 27 -10 0 -9 -11 4 -45z"/>
<path d="M5142 7258 c-28 -28 -9 -68 34 -68 23 0 16 18 -8 23 -20 4 -19 4 5 6
15 0 27 7 27 14 0 16 -20 37 -35 37 -6 0 -16 -5 -23 -12z m35 -14 c-3 -3 -12
-4 -19 -1 -8 3 -5 6 6 6 11 1 17 -2 13 -5z"/>
<path d="M5214 7254 c3 -9 9 -27 12 -40 9 -36 35 -26 50 19 10 30 11 38 1 34
-6 -2 -13 -13 -15 -25 -4 -30 -18 -28 -26 3 -4 14 -11 25 -17 25 -6 0 -8 -7
-5 -16z"/>
<path d="M5312 7258 c-28 -28 -9 -68 34 -68 23 0 16 18 -8 23 -20 4 -19 4 5 6
15 0 27 7 27 14 0 16 -20 37 -35 37 -6 0 -16 -5 -23 -12z m35 -14 c-3 -3 -12
-4 -19 -1 -8 3 -5 6 6 6 11 1 17 -2 13 -5z"/>
<path d="M5442 7258 c-30 -30 0 -75 43 -64 19 5 25 13 25 35 0 38 -41 56 -68
29z m48 -28 c0 -11 -6 -20 -14 -20 -18 0 -29 16 -21 30 11 18 35 11 35 -10z"/>
<path d="M5530 7209 c0 -33 4 -59 10 -59 6 0 10 11 10 24 0 18 4 23 18 19 24
-6 44 19 40 49 -2 19 -9 23 -40 24 l-38 1 0 -58z m60 21 c0 -11 -6 -20 -14
-20 -18 0 -29 16 -21 30 11 18 35 11 35 -10z"/>
<path d="M5642 7258 c-28 -28 -9 -68 34 -68 23 0 16 18 -8 23 -20 4 -19 4 5 6
15 0 27 7 27 14 0 16 -20 37 -35 37 -6 0 -16 -5 -23 -12z m35 -14 c-3 -3 -12
-4 -19 -1 -8 3 -5 6 6 6 11 1 17 -2 13 -5z"/>
<path d="M5720 7229 c0 -22 5 -39 10 -39 6 0 10 11 10 25 0 14 7 28 15 31 23
9 18 22 -10 22 -22 0 -25 -5 -25 -39z"/>
<path d="M5787 7263 c-14 -13 -6 -34 16 -43 l22 -9 -22 0 c-13 -1 -23 -5 -23
-11 0 -15 36 -12 49 4 10 11 7 17 -11 30 -18 13 -19 16 -5 16 9 0 17 5 17 10
0 11 -33 14 -43 3z"/>
<path d="M5960 7261 c0 -6 10 -11 23 -12 l22 0 -22 -9 c-13 -5 -23 -18 -23
-29 0 -15 7 -19 31 -19 28 1 30 3 27 37 -3 31 -7 36 -30 39 -16 2 -28 -1 -28
-7z m40 -41 c0 -5 -7 -10 -16 -10 -8 0 -12 5 -9 10 3 6 10 10 16 10 5 0 9 -4
9 -10z"/>
<path d="M6044 7254 c3 -9 9 -27 12 -40 9 -36 29 -29 47 16 8 22 11 40 6 40
-5 0 -15 -12 -21 -27 l-11 -28 -10 28 c-6 15 -15 27 -20 27 -5 0 -6 -7 -3 -16z"/>
<path d="M6143 7263 c-7 -2 -13 -18 -13 -34 0 -22 6 -30 25 -35 29 -7 55 10
55 35 0 33 -32 49 -67 34z m42 -33 c0 -8 -8 -16 -17 -18 -13 -2 -18 3 -18 18
0 15 5 20 18 18 9 -2 17 -10 17 -18z"/>
<path d="M6230 7229 c0 -22 5 -39 10 -39 6 0 10 14 10 30 0 20 5 30 15 30 8 0
15 4 15 9 0 5 -11 9 -25 9 -22 0 -25 -5 -25 -39z"/>
<path d="M6290 7230 c0 -22 5 -40 10 -40 6 0 10 18 10 40 0 22 -4 40 -10 40
-5 0 -10 -18 -10 -40z"/>
<path d="M6412 7261 c-8 -5 -12 -21 -10 -37 2 -23 9 -30 31 -32 32 -4 37 15 5
21 -20 4 -19 4 5 6 28 1 35 19 15 39 -14 14 -28 15 -46 3z m35 -17 c-3 -3 -12
-4 -19 -1 -8 3 -5 6 6 6 11 1 17 -2 13 -5z"/>
<path d="M6682 7258 c-30 -30 0 -75 43 -64 19 5 25 13 25 35 0 38 -41 56 -68
29z m48 -28 c0 -11 -6 -20 -14 -20 -18 0 -29 16 -21 30 11 18 35 11 35 -10z"/>
<path d="M6780 7255 c-6 -8 -10 -24 -8 -37 2 -18 9 -23 30 -21 20 1 25 -2 21
-13 -3 -8 -14 -14 -24 -14 -10 0 -19 -4 -19 -10 0 -16 37 -12 54 6 10 9 16 33
16 58 0 41 -2 43 -29 44 -16 0 -35 -6 -41 -13z m45 -25 c0 -8 -8 -16 -17 -18
-13 -2 -18 3 -18 18 0 15 5 20 18 18 9 -2 17 -10 17 -18z"/>
<path d="M6920 7230 c0 -22 5 -40 10 -40 6 0 10 18 10 40 0 22 -4 40 -10 40
-5 0 -10 -18 -10 -40z"/>
<path d="M6960 7228 c0 -43 17 -52 22 -10 2 16 9 27 18 27 9 0 16 -11 18 -27
2 -16 8 -28 13 -28 11 0 12 50 1 66 -4 6 -22 11 -39 11 -31 0 -33 -2 -33 -39z"/>
<path d="M7272 7258 c-28 -28 -9 -68 34 -68 23 0 16 18 -8 23 -20 4 -19 4 5 6
15 0 27 7 27 14 0 16 -20 37 -35 37 -6 0 -16 -5 -23 -12z m35 -14 c-3 -3 -12
-4 -19 -1 -8 3 -5 6 6 6 11 1 17 -2 13 -5z"/>
<path d="M7522 7261 c-8 -5 -12 -21 -10 -37 2 -23 9 -30 31 -32 32 -4 37 15 5
21 -20 4 -19 4 5 6 28 1 35 19 15 39 -14 14 -28 15 -46 3z m35 -17 c-3 -3 -12
-4 -19 -1 -8 3 -5 6 6 6 11 1 17 -2 13 -5z"/>
<path d="M7594 7254 c3 -9 9 -27 12 -40 9 -36 35 -26 50 19 10 30 11 38 1 34
-6 -2 -13 -13 -15 -25 -4 -30 -18 -28 -26 3 -4 14 -11 25 -17 25 -6 0 -8 -7
-5 -16z"/>
<path d="M7690 7255 c-26 -32 13 -81 48 -59 34 22 22 74 -18 74 -10 0 -23 -7
-30 -15z m50 -25 c0 -13 -7 -20 -20 -20 -13 0 -20 7 -20 20 0 13 7 20 20 20
13 0 20 -7 20 -20z"/>
<path d="M7783 7254 c-4 -11 1 -22 12 -30 17 -13 17 -14 2 -14 -9 0 -17 -4
-17 -10 0 -5 9 -10 20 -10 29 0 38 30 15 46 -17 13 -17 14 -2 14 9 0 17 5 17
10 0 17 -40 11 -47 -6z"/>
<path d="M7850 7208 c0 -32 4 -58 10 -58 6 0 10 11 10 24 0 18 4 23 18 19 25
-6 46 21 38 51 -5 20 -12 24 -41 23 l-35 -1 0 -58z m60 27 c0 -16 -27 -32 -37
-22 -3 4 -3 13 0 22 8 20 37 20 37 0z"/>
<path d="M8052 7258 c-27 -27 -6 -68 35 -68 32 0 29 18 -4 23 l-28 4 28 2 c23
1 28 5 25 24 -3 25 -36 35 -56 15z m35 -14 c-3 -3 -12 -4 -19 -1 -8 3 -5 6 6
6 11 1 17 -2 13 -5z"/>
<path d="M8130 7229 c0 -22 5 -39 10 -39 6 0 10 11 10 25 0 14 7 28 15 31 23
9 18 22 -10 22 -22 0 -25 -5 -25 -39z"/>
<path d="M8202 7258 c-27 -27 -6 -68 35 -68 32 0 29 18 -4 23 l-28 4 28 2 c23
1 28 5 25 24 -3 25 -36 35 -56 15z m35 -14 c-3 -3 -12 -4 -19 -1 -8 3 -5 6 6
6 11 1 17 -2 13 -5z"/>
<path d="M4877 6249 c-23 -13 -22 -56 2 -64 28 -9 51 5 51 31 0 29 -28 46 -53
33z"/>
<path d="M5931 6231 c-13 -24 8 -55 34 -50 23 5 40 32 32 53 -9 22 -54 20 -66
-3z"/>
<path d="M7245 6230 c-4 -12 -1 -27 5 -35 27 -33 78 -5 65 35 -4 14 -15 20
-35 20 -20 0 -31 -6 -35 -20z"/>
<path d="M5412 6118 l3 -123 35 0 35 0 3 58 c2 42 7 57 17 57 12 0 15 -14 15
-61 l0 -60 38 3 37 3 3 60 c3 74 -13 109 -51 113 -16 2 -35 -2 -43 -9 -12 -10
-14 -4 -14 35 l0 46 -40 0 -41 0 3 -122z"/>
<path d="M4520 6144 c0 -83 -1 -86 -21 -81 -25 7 -69 -11 -69 -28 0 -20 47
-45 85 -45 65 0 90 55 83 180 l-3 55 -37 3 -38 3 0 -87z"/>
<path d="M5280 6185 c0 -8 -4 -15 -10 -15 -5 0 -10 -13 -10 -30 0 -16 5 -30
10 -30 6 0 10 -20 10 -43 0 -55 24 -80 72 -75 25 2 34 8 36 24 2 15 -3 23 -17
27 -30 7 -30 67 -1 67 16 0 20 7 20 30 0 23 -4 30 -20 30 -11 0 -20 7 -20 15
0 10 -11 15 -35 15 -24 0 -35 -5 -35 -15z"/>
<path d="M7110 6185 c0 -8 -4 -15 -10 -15 -5 0 -10 -14 -10 -31 0 -17 4 -28
10 -24 6 4 10 -13 10 -43 0 -60 22 -85 72 -80 25 2 34 8 36 24 2 15 -3 23 -17
27 -29 7 -30 62 -1 70 14 3 20 14 20 31 0 19 -5 26 -20 26 -11 0 -20 7 -20 15
0 10 -11 15 -35 15 -24 0 -35 -5 -35 -15z"/>
<path d="M4669 6157 c-73 -56 -33 -167 60 -167 59 0 96 35 96 90 0 34 -6 47
-28 66 -31 27 -100 33 -128 11z m85 -63 c7 -19 -10 -44 -31 -44 -17 0 -27 24
-19 45 7 20 42 19 50 -1z"/>
<path d="M4860 6080 l0 -90 35 0 35 0 0 90 0 90 -35 0 -35 0 0 -90z"/>
<path d="M4970 6080 l0 -90 35 0 34 0 3 58 c2 43 7 57 18 57 11 0 16 -14 18
-57 l3 -58 34 0 35 0 0 74 c0 54 -4 79 -16 90 -18 19 -65 21 -82 4 -9 -9 -12
-9 -12 0 0 7 -14 12 -35 12 l-35 0 0 -90z"/>
<path d="M5655 6145 c-19 -18 -25 -35 -25 -65 0 -57 34 -90 93 -90 53 0 89 22
69 42 -7 7 -29 13 -49 13 -20 0 -38 6 -40 13 -3 9 11 12 51 12 53 0 56 1 56
25 0 41 -42 75 -90 75 -30 0 -47 -6 -65 -25z m79 -21 c25 -9 19 -24 -9 -24
-24 0 -32 10 -18 23 8 8 8 8 27 1z"/>
<path d="M5930 6080 l0 -90 35 0 35 0 0 90 0 90 -35 0 -35 0 0 -90z"/>
<path d="M6040 6080 l0 -90 35 0 34 0 3 58 c2 43 7 57 18 57 11 0 16 -14 18
-57 l3 -58 34 0 35 0 0 73 c0 59 -4 77 -18 90 -22 20 -63 22 -80 5 -9 -9 -12
-9 -12 0 0 7 -14 12 -35 12 l-35 0 0 -90z"/>
<path d="M6260 6080 l0 -90 35 0 34 0 3 58 c2 43 7 57 18 57 11 0 16 -14 18
-57 l3 -58 34 0 35 0 0 73 c0 59 -4 77 -18 90 -22 20 -63 22 -80 5 -9 -9 -12
-9 -12 0 0 7 -14 12 -35 12 l-35 0 0 -90z"/>
<path d="M6495 6138 c-78 -92 60 -204 146 -119 20 20 29 39 29 61 0 49 -47 90
-103 90 -39 0 -49 -5 -72 -32z m103 -52 c5 -25 -12 -39 -37 -31 -20 6 -28 34
-14 49 13 13 48 1 51 -18z"/>
<path d="M6680 6168 c0 -2 15 -42 33 -89 l33 -84 39 0 40 0 32 80 c18 44 32
83 33 88 0 4 -17 7 -39 7 -37 0 -39 -2 -46 -37 -11 -58 -18 -62 -30 -13 -11
44 -12 45 -53 48 -23 2 -42 2 -42 0z"/>
<path d="M6928 6156 c-17 -12 -17 -14 0 -29 11 -10 27 -13 45 -10 15 3 27 1
27 -5 0 -5 -18 -12 -40 -16 -52 -8 -72 -42 -47 -80 15 -22 23 -24 87 -24 l70
0 0 69 c0 56 -4 73 -20 89 -23 23 -95 27 -122 6z m80 -98 c-5 -16 -48 -24 -48
-10 0 11 17 20 38 21 8 1 12 -5 10 -11z"/>
<path d="M7242 6083 l3 -88 35 0 35 0 3 88 3 87 -41 0 -41 0 3 -87z"/>
<path d="M7340 6163 c0 -4 14 -44 31 -90 l32 -83 39 0 c33 0 40 4 49 28 6 15
21 55 34 90 l24 62 -39 0 c-38 0 -39 -1 -53 -47 l-14 -48 -13 48 c-12 46 -13
47 -51 47 -22 0 -39 -3 -39 -7z"/>
<path d="M7592 6152 c-15 -12 -25 -33 -29 -60 -5 -36 -2 -45 25 -72 35 -35 92
-41 131 -14 30 22 14 37 -40 38 -66 2 -58 21 8 21 58 0 58 0 56 29 -3 45 -39
76 -87 76 -24 0 -51 -8 -64 -18z m88 -43 c0 -5 -11 -9 -25 -9 -26 0 -34 15
-12 23 16 5 37 -3 37 -14z"/>
<path d="M6797 5889 c-23 -13 -22 -56 2 -64 28 -9 51 5 51 31 0 29 -28 46 -53
33z"/>
<path d="M5740 5755 l0 -125 35 0 34 0 3 58 c2 43 7 57 18 57 11 0 16 -14 18
-57 l3 -58 34 0 35 0 0 68 c0 97 -32 133 -91 102 -17 -10 -19 -7 -19 35 0 45
0 45 -35 45 l-35 0 0 -125z"/>
<path d="M4469 5781 c-20 -20 -29 -39 -29 -61 0 -47 47 -90 97 -90 56 0 69 11
49 43 -11 16 -23 23 -35 20 -9 -2 -23 3 -30 11 -11 13 -11 19 0 32 7 8 21 13
30 11 12 -3 24 4 35 20 20 32 7 43 -49 43 -29 0 -46 -7 -68 -29z"/>
<path d="M4642 5797 c-22 -13 -22 -14 -5 -29 11 -10 28 -14 46 -11 15 3 27 1
27 -5 0 -5 -18 -12 -40 -16 -52 -8 -72 -42 -47 -80 15 -22 23 -24 87 -24 l70
0 0 69 c0 56 -4 73 -20 89 -23 23 -82 26 -118 7z m78 -107 c0 -11 -30 -21 -42
-14 -7 5 -4 12 7 20 18 13 35 10 35 -6z"/>
<path d="M4820 5720 l0 -90 34 0 35 0 3 53 c2 43 7 54 26 62 12 5 22 15 22 22
0 6 3 18 6 27 7 19 -26 22 -44 4 -9 -9 -12 -9 -12 0 0 7 -14 12 -35 12 l-35 0
0 -90z"/>
<path d="M5038 5804 c-4 -3 4 -36 17 -72 37 -108 34 -103 73 -100 33 3 37 7
45 41 5 20 12 37 16 37 4 0 13 -18 20 -41 12 -38 14 -40 48 -37 36 3 37 4 64
86 30 89 28 98 -22 90 -18 -2 -26 -13 -34 -48 l-11 -45 -15 45 c-13 42 -16 45
-49 45 -32 0 -35 -3 -46 -45 l-11 -45 -13 48 c-12 44 -15 47 -45 47 -17 0 -34
-3 -37 -6z"/>
<path d="M5391 5799 c-23 -9 -23 -10 -6 -29 12 -14 25 -17 46 -13 46 9 33 -12
-13 -23 -33 -7 -45 -15 -52 -36 -8 -21 -6 -32 8 -47 14 -15 31 -19 87 -19 l69
0 0 69 c0 56 -4 73 -20 89 -22 22 -77 26 -119 9z m68 -115 c-6 -8 -15 -14 -20
-14 -14 0 -11 28 4 33 20 7 29 -4 16 -19z"/>
<path d="M5581 5791 c-11 -11 -21 -29 -21 -39 0 -23 30 -52 53 -52 9 0 19 -5
23 -12 5 -8 -2 -9 -23 -5 -23 4 -35 1 -48 -13 -16 -17 -16 -19 4 -29 27 -15
94 -14 113 2 28 21 31 54 9 76 -12 12 -27 21 -35 21 -8 0 -18 5 -22 11 -5 8 1
10 19 7 18 -3 32 1 43 13 22 25 15 31 -45 37 -40 3 -52 1 -70 -17z"/>
<path d="M6057 5795 c-9 -9 -17 -30 -17 -46 0 -25 6 -33 35 -45 43 -18 46 -29
5 -21 -23 5 -32 2 -40 -13 -8 -15 -6 -21 9 -30 33 -17 89 -12 111 10 36 36 23
68 -39 98 l-26 12 27 -4 c18 -2 34 4 44 15 22 25 15 31 -44 37 -37 3 -52 0
-65 -13z"/>
<path d="M6233 5786 c-22 -19 -28 -32 -28 -66 0 -34 6 -47 28 -66 34 -29 91
-32 126 -7 23 15 23 17 5 30 -11 8 -30 11 -50 7 -18 -3 -35 -1 -38 5 -5 8 12
11 53 11 58 0 61 1 61 24 0 14 -12 38 -26 55 -33 40 -89 43 -131 7z m87 -36
c0 -5 -12 -10 -26 -10 -14 0 -23 4 -19 10 3 6 15 10 26 10 10 0 19 -4 19 -10z"/>
<path d="M6420 5720 l0 -90 34 0 35 0 3 53 c2 43 7 54 26 62 12 5 22 18 22 28
0 34 18 7 45 -68 l28 -76 40 3 c39 3 40 4 68 73 38 95 37 105 -6 105 -30 0
-35 -4 -41 -27 -14 -66 -21 -71 -34 -20 l-12 47 -57 0 c-31 0 -62 -5 -68 -11
-8 -8 -13 -8 -17 0 -4 6 -20 11 -37 11 l-29 0 0 -90z"/>
<path d="M6780 5720 l0 -90 35 0 35 0 0 90 0 90 -35 0 -35 0 0 -90z"/>
<path d="M6913 5786 c-22 -19 -28 -32 -28 -66 0 -34 6 -47 28 -66 29 -25 88
-32 116 -15 22 14 -10 58 -41 57 -18 -1 -23 4 -23 24 0 20 6 26 28 28 32 4 57
40 36 53 -28 17 -87 10 -116 -15z"/>
<path d="M7085 5785 c-36 -35 -35 -97 1 -130 32 -30 97 -34 133 -9 l24 17 -24
13 c-13 8 -36 11 -51 8 -14 -3 -29 0 -33 5 -4 7 13 11 49 11 56 0 56 0 56 30
0 46 -39 80 -90 80 -30 0 -47 -6 -65 -25z m95 -35 c0 -5 -11 -10 -25 -10 -14
0 -25 5 -25 10 0 6 11 10 25 10 14 0 25 -4 25 -10z"/>
<path d="M6920 5441 c-49 -15 -87 -40 -128 -85 -42 -45 -54 -67 -29 -50 7 5 4
1 -6 -8 -11 -10 -23 -15 -28 -12 -14 8 -50 -16 -43 -28 4 -6 3 -8 -4 -4 -16
10 -53 -44 -46 -67 4 -12 2 -17 -5 -13 -5 4 -17 -8 -27 -25 -13 -26 -14 -33
-2 -40 10 -7 9 -9 -4 -9 -40 0 -46 -214 -9 -320 39 -113 119 -262 156 -293 19
-16 35 -26 35 -22 0 3 -14 52 -31 108 -17 56 -32 134 -35 172 l-5 70 50 53
c44 48 55 55 112 67 85 17 172 49 208 74 27 20 36 21 93 11 35 -5 83 -10 107
-10 38 0 49 -5 82 -38 20 -21 42 -54 47 -73 16 -55 109 -280 121 -292 8 -8 11
4 11 42 0 48 4 56 37 89 l37 37 3 110 c2 108 -14 212 -39 243 -7 8 -7 12 3 12
8 0 6 5 -5 13 -16 12 -16 14 -2 26 39 33 -5 102 -77 122 -43 12 -52 35 -9 25
15 -4 50 -21 77 -37 l50 -30 -35 35 c-24 24 -51 39 -85 47 -27 6 -70 21 -95
34 -32 17 -71 25 -137 30 -51 4 -93 11 -93 15 0 22 -192 38 -250 21z m175 -17
c39 -13 39 -14 -35 -8 -99 8 -125 6 -166 -11 -19 -8 -32 -10 -29 -5 10 16 96
39 145 39 25 -1 63 -7 85 -15z m-169 -45 c-32 -11 -60 -18 -63 -15 -6 5 84 35
107 35 8 0 -11 -9 -44 -20z m-106 -13 c0 -2 -8 -10 -17 -17 -16 -13 -17 -12
-4 4 13 16 21 21 21 13z m-85 -95 c3 -6 -3 -9 -14 -8 -11 0 -17 5 -15 9 7 11
22 10 29 -1z m32 -133 c-3 -8 -6 -5 -6 6 -1 11 2 17 5 13 3 -3 4 -12 1 -19z
m-27 -128 c-7 -52 -7 -53 -9 -13 -1 36 7 80 14 71 1 -2 -1 -28 -5 -58z m-15
-115 c-3 -26 -9 -45 -12 -42 -2 3 -1 26 2 52 4 25 10 44 12 41 3 -3 2 -26 -2
-51z"/>
<path d="M4440 5415 c-19 -22 -8 -25 13 -3 9 10 13 18 8 18 -5 0 -14 -7 -21
-15z"/>
<path d="M7203 5423 c15 -2 37 -2 50 0 12 2 0 4 -28 4 -27 0 -38 -2 -22 -4z"/>
<path d="M4876 5403 c6 -4 14 -15 17 -23 5 -11 6 -9 4 4 -1 11 -9 21 -17 23
-10 3 -11 2 -4 -4z"/>
<path d="M4992 5390 c0 -14 2 -19 5 -12 2 6 2 18 0 25 -3 6 -5 1 -5 -13z"/>
<path d="M5647 5389 c4 -13 8 -18 11 -10 2 7 -1 18 -6 23 -8 8 -9 4 -5 -13z"/>
<path d="M5812 5390 c0 -14 2 -19 5 -12 2 6 2 18 0 25 -3 6 -5 1 -5 -13z"/>
<path d="M5895 5400 c-8 -13 3 -30 18 -30 7 0 6 4 -3 10 -13 9 -13 11 0 20 9
6 10 10 3 10 -6 0 -15 -4 -18 -10z"/>
<path d="M4570 5389 c0 -5 -4 -7 -10 -4 -5 3 -10 1 -10 -4 0 -6 7 -11 15 -11
8 0 15 7 15 15 0 8 -2 15 -5 15 -3 0 -5 -5 -5 -11z"/>
<path d="M4630 5391 c0 -10 19 -25 25 -20 1 2 -3 10 -11 17 -8 7 -14 8 -14 3z"/>
<path d="M5095 5389 c-4 -6 -5 -12 -2 -15 2 -3 7 2 10 11 7 17 1 20 -8 4z"/>
<path d="M5181 5384 c0 -11 3 -14 6 -6 3 7 2 16 -1 19 -3 4 -6 -2 -5 -13z"/>
<path d="M5206 5387 c3 -10 9 -15 12 -12 3 3 0 11 -7 18 -10 9 -11 8 -5 -6z"/>
<path d="M5361 5384 c0 -11 3 -14 6 -6 3 7 2 16 -1 19 -3 4 -6 -2 -5 -13z"/>
<path d="M5540 5389 c0 -5 -4 -7 -10 -4 -5 3 -10 1 -10 -4 0 -6 7 -11 15 -11
8 0 15 7 15 15 0 8 -2 15 -5 15 -3 0 -5 -5 -5 -11z"/>
<path d="M5247 5379 c7 -7 15 -10 18 -7 3 3 -2 9 -12 12 -14 6 -15 5 -6 -5z"/>
<path d="M5487 5379 c7 -7 15 -10 18 -7 3 3 -2 9 -12 12 -14 6 -15 5 -6 -5z"/>
<path d="M5937 5379 c7 -7 15 -10 18 -7 3 3 -2 9 -12 12 -14 6 -15 5 -6 -5z"/>
<path d="M4708 5373 c7 -3 16 -2 19 1 4 3 -2 6 -13 5 -11 0 -14 -3 -6 -6z"/>
<path d="M4572 5275 c0 -16 2 -22 5 -12 2 9 2 23 0 30 -3 6 -5 -1 -5 -18z"/>
<path d="M5872 5275 c0 -16 2 -22 5 -12 2 9 2 23 0 30 -3 6 -5 -1 -5 -18z"/>
<path d="M4552 5270 c0 -14 2 -19 5 -12 2 6 2 18 0 25 -3 6 -5 1 -5 -13z"/>
<path d="M4812 5270 c0 -14 2 -19 5 -12 2 6 2 18 0 25 -3 6 -5 1 -5 -13z"/>
<path d="M6171 5274 c0 -11 3 -14 6 -6 3 7 2 16 -1 19 -3 4 -6 -2 -5 -13z"/>
<path d="M5215 5270 c-19 -8 -19 -9 3 -9 12 -1 22 4 22 9 0 6 -1 10 -2 9 -2 0
-12 -4 -23 -9z"/>
<path d="M5311 5264 c0 -11 3 -14 6 -6 3 7 2 16 -1 19 -3 4 -6 -2 -5 -13z"/>
<path d="M5491 5264 c0 -11 3 -14 6 -6 3 7 2 16 -1 19 -3 4 -6 -2 -5 -13z"/>
<path d="M5670 5270 c-13 -8 -12 -10 3 -10 9 0 17 5 17 10 0 12 -1 12 -20 0z"/>
<path d="M5761 5264 c0 -11 3 -14 6 -6 3 7 2 16 -1 19 -3 4 -6 -2 -5 -13z"/>
<path d="M5781 5264 c0 -11 3 -14 6 -6 3 7 2 16 -1 19 -3 4 -6 -2 -5 -13z"/>
<path d="M5962 5260 c0 -14 2 -19 5 -12 2 6 2 18 0 25 -3 6 -5 1 -5 -13z"/>
<path d="M6151 5264 c0 -11 3 -14 6 -6 3 7 2 16 -1 19 -3 4 -6 -2 -5 -13z"/>
<path d="M4965 5260 c3 -5 8 -10 11 -10 2 0 4 5 4 10 0 6 -5 10 -11 10 -5 0
-7 -4 -4 -10z"/>
<path d="M4998 5263 c7 -3 16 -2 19 1 4 3 -2 6 -13 5 -11 0 -14 -3 -6 -6z"/>
<path d="M5428 5263 c7 -3 16 -2 19 1 4 3 -2 6 -13 5 -11 0 -14 -3 -6 -6z"/>
<path d="M6008 5263 c7 -3 16 -2 19 1 4 3 -2 6 -13 5 -11 0 -14 -3 -6 -6z"/>
<path d="M5182 5155 c0 -16 2 -22 5 -12 2 9 2 23 0 30 -3 6 -5 -1 -5 -18z"/>
<path d="M5392 5155 c0 -16 2 -22 5 -12 2 9 2 23 0 30 -3 6 -5 -1 -5 -18z"/>
<path d="M5572 5150 c0 -14 2 -19 5 -12 2 6 2 18 0 25 -3 6 -5 1 -5 -13z"/>
<path d="M4521 5144 c0 -11 3 -14 6 -6 3 7 2 16 -1 19 -3 4 -6 -2 -5 -13z"/>
<path d="M4541 5144 c0 -11 3 -14 6 -6 3 7 2 16 -1 19 -3 4 -6 -2 -5 -13z"/>
<path d="M4631 5144 c0 -11 3 -14 6 -6 3 7 2 16 -1 19 -3 4 -6 -2 -5 -13z"/>
<path d="M4891 5144 c0 -11 3 -14 6 -6 3 7 2 16 -1 19 -3 4 -6 -2 -5 -13z"/>
<path d="M4961 5144 c0 -11 3 -14 6 -6 3 7 2 16 -1 19 -3 4 -6 -2 -5 -13z"/>
<path d="M5101 5144 c0 -11 3 -14 6 -6 3 7 2 16 -1 19 -3 4 -6 -2 -5 -13z"/>
<path d="M5281 5144 c0 -11 3 -14 6 -6 3 7 2 16 -1 19 -3 4 -6 -2 -5 -13z"/>
<path d="M5411 5144 c0 -11 3 -14 6 -6 3 7 2 16 -1 19 -3 4 -6 -2 -5 -13z"/>
<path d="M5487 5141 c-10 -14 -10 -14 5 -3 13 10 17 10 20 0 3 -8 6 -7 10 3 8
21 -19 20 -35 0z"/>
<path d="M6051 5144 c0 -11 3 -14 6 -6 3 7 2 16 -1 19 -3 4 -6 -2 -5 -13z"/>
<path d="M6071 5144 c0 -11 3 -14 6 -6 3 7 2 16 -1 19 -3 4 -6 -2 -5 -13z"/>
<path d="M6171 5144 c0 -11 3 -14 6 -6 3 7 2 16 -1 19 -3 4 -6 -2 -5 -13z"/>
<path d="M4472 5035 c0 -16 2 -22 5 -12 2 9 2 23 0 30 -3 6 -5 -1 -5 -18z"/>
<path d="M5922 5030 c0 -14 2 -19 5 -12 2 6 2 18 0 25 -3 6 -5 1 -5 -13z"/>
<path d="M4435 5030 c-8 -13 3 -30 18 -30 8 0 7 3 -2 9 -7 5 -10 14 -7 20 4 6
5 11 2 11 -3 0 -8 -4 -11 -10z"/>
<path d="M4571 5024 c0 -11 3 -14 6 -6 3 7 2 16 -1 19 -3 4 -6 -2 -5 -13z"/>
<path d="M4891 5024 c0 -11 3 -14 6 -6 3 7 2 16 -1 19 -3 4 -6 -2 -5 -13z"/>
<path d="M5411 5024 c0 -11 3 -14 6 -6 3 7 2 16 -1 19 -3 4 -6 -2 -5 -13z"/>
<path d="M5501 5024 c0 -11 3 -14 6 -6 3 7 2 16 -1 19 -3 4 -6 -2 -5 -13z"/>
<path d="M5521 5024 c0 -11 3 -14 6 -6 3 7 2 16 -1 19 -3 4 -6 -2 -5 -13z"/>
<path d="M5731 5024 c0 -11 3 -14 6 -6 3 7 2 16 -1 19 -3 4 -6 -2 -5 -13z"/>
<path d="M5812 5020 c0 -14 2 -19 5 -12 2 6 2 18 0 25 -3 6 -5 1 -5 -13z"/>
<path d="M5941 5024 c0 -11 3 -14 6 -6 3 7 2 16 -1 19 -3 4 -6 -2 -5 -13z"/>
<path d="M4490 5021 c0 -6 4 -13 10 -16 6 -3 7 1 4 9 -7 18 -14 21 -14 7z"/>
<path d="M4930 5021 c0 -7 -5 -9 -12 -5 -7 5 -8 3 -3 -5 5 -9 10 -10 18 -2 6
6 8 14 4 18 -4 3 -7 1 -7 -6z"/>
<path d="M5020 5021 c0 -10 19 -25 25 -20 1 2 -3 10 -11 17 -8 7 -14 8 -14 3z"/>
<path d="M5340 5021 c0 -10 19 -25 25 -20 1 2 -3 10 -11 17 -8 7 -14 8 -14 3z"/>
<path d="M5540 5021 c0 -6 4 -13 10 -16 6 -3 7 1 4 9 -7 18 -14 21 -14 7z"/>
<path d="M5630 5021 c0 -6 4 -13 10 -16 6 -3 7 1 4 9 -7 18 -14 21 -14 7z"/>
<path d="M5872 5014 c-7 -8 -8 -14 -3 -14 10 0 25 19 20 25 -2 1 -10 -3 -17
-11z"/>
<path d="M6030 5021 c0 -6 4 -13 10 -16 6 -3 7 1 4 9 -7 18 -14 21 -14 7z"/>
<path d="M5311 5004 c0 -11 3 -14 6 -6 3 7 2 16 -1 19 -3 4 -6 -2 -5 -13z"/>
<path d="M5681 5004 c0 -11 3 -14 6 -6 3 7 2 16 -1 19 -3 4 -6 -2 -5 -13z"/>
<path d="M4470 4910 c6 -11 13 -20 16 -20 2 0 0 9 -6 20 -6 11 -13 20 -16 20
-2 0 0 -9 6 -20z"/>
<path d="M4552 4910 c0 -14 2 -19 5 -12 2 6 2 18 0 25 -3 6 -5 1 -5 -13z"/>
<path d="M4651 4904 c0 -11 3 -14 6 -6 3 7 2 16 -1 19 -3 4 -6 -2 -5 -13z"/>
<path d="M8440 4889 c-54 -7 -77 -14 -85 -26 -13 -22 -22 -71 -36 -198 -10
-90 -9 -108 9 -180 21 -85 16 -113 -18 -95 -13 7 -25 2 -51 -22 l-34 -30 35
25 35 24 0 -71 c1 -54 6 -81 23 -113 22 -43 23 -43 77 -43 l54 0 -19 43 c-20
42 -24 101 -11 147 5 19 21 29 68 46 33 12 100 40 148 63 49 23 89 40 90 39 1
-2 10 -34 19 -72 21 -85 55 -159 102 -220 l35 -46 76 0 c69 0 80 3 134 36 32
19 62 41 66 47 4 8 1 7 -9 -1 -12 -10 -22 -11 -36 -3 -36 19 -134 135 -164
195 -36 71 -56 189 -37 213 20 24 124 72 181 84 29 6 56 14 61 18 4 4 -30 24
-75 43 -79 35 -84 36 -113 21 -16 -9 -34 -22 -38 -29 -4 -8 -15 -14 -22 -14
-8 0 -15 -4 -15 -9 0 -6 -13 -18 -30 -28 -16 -9 -30 -22 -30 -27 0 -5 -23 -33
-50 -62 -28 -30 -56 -67 -61 -83 -8 -23 -23 -34 -67 -52 -31 -12 -65 -29 -74
-37 -24 -21 -55 -6 -68 33 -27 80 -16 212 26 324 13 35 24 64 24 65 0 5 -53 2
-120 -5z"/>
<path d="M7995 4803 c-89 -28 -249 -84 -272 -95 -12 -6 -20 -15 -17 -20 10
-16 -6 -115 -22 -134 -14 -18 -14 -17 -4 5 25 51 -19 132 -63 115 -23 -8 -37
-87 -35 -191 l3 -93 35 -11 c19 -6 44 -19 55 -29 11 -10 31 -23 45 -29 l25
-12 -25 20 c-14 11 -29 21 -35 21 -5 1 7 10 29 21 27 15 48 19 71 15 19 -4 36
-2 40 4 12 20 39 9 119 -48 94 -67 126 -83 155 -75 25 6 27 16 6 33 -18 15
-58 85 -75 131 -25 70 -40 147 -46 246 l-7 103 44 19 c53 23 42 25 -26 4z"/>
<path d="M7200 4791 c-14 -4 -30 -18 -37 -31 l-13 -25 0 24 c0 23 -1 23 -19 7
-11 -10 -18 -23 -16 -29 2 -7 6 -24 9 -39 6 -27 8 -28 64 -24 63 3 212 25 224
32 14 9 9 22 -14 44 -47 44 -127 61 -198 41z"/>
<path d="M6945 4709 c-4 -11 -14 -14 -30 -11 -36 6 -77 -29 -108 -92 -53 -109
-30 -128 73 -59 39 26 76 48 83 48 18 0 21 86 3 110 -13 17 -15 18 -21 4z"/>
<path d="M6990 4690 c0 -14 5 -32 10 -40 8 -12 10 -10 10 10 0 14 -5 32 -10
40 -8 12 -10 10 -10 -10z"/>
<path d="M4446 4614 c-13 -12 -16 -39 -16 -129 0 -90 3 -117 16 -129 14 -14
75 -16 523 -16 381 0 510 3 519 12 8 8 12 52 12 133 0 81 -4 125 -12 133 -9 9
-138 12 -519 12 -448 0 -509 -2 -523 -16z m264 -116 c0 -5 6 -6 13 -1 18 11
77 11 84 0 3 -5 9 -3 14 4 8 12 10 12 18 0 5 -7 11 -9 14 -4 4 6 19 10 34 9
23 -1 28 -5 28 -26 -1 -26 -2 -26 -72 -17 -18 3 -35 2 -38 -1 -3 -4 -42 -7
-86 -7 -82 -2 -98 6 -86 38 6 15 77 20 77 5z m270 -28 c0 -13 -6 -16 -24 -13
-22 5 -23 8 -14 29 9 18 14 21 25 13 7 -6 13 -19 13 -29z m91 14 c6 -16 8 -16
8 -2 1 25 22 33 36 14 12 -15 13 -15 20 1 6 17 7 17 21 -1 11 -15 14 -16 14
-5 0 12 13 15 63 15 58 -1 62 -3 65 -26 l3 -25 -126 -1 c-114 0 -125 2 -125
18 0 10 -7 18 -15 18 -18 0 -20 -17 -2 -23 6 -2 9 -7 6 -11 -11 -12 -39 6 -39
24 0 34 58 37 71 4z"/>
<path d="M4730 4480 c0 -5 7 -10 15 -10 8 0 15 5 15 10 0 6 -7 10 -15 10 -8 0
-15 -4 -15 -10z"/>
<path d="M4780 4480 c0 -5 5 -10 10 -10 6 0 10 5 10 10 0 6 -4 10 -10 10 -5 0
-10 -4 -10 -10z"/>
<path d="M7278 4499 c-36 -20 -6 -93 35 -87 18 2 22 10 22 37 0 40 -29 66 -57
50z"/>
<path d="M6594 4434 c-19 -15 -19 -15 1 -6 11 6 24 10 28 10 16 0 21 12 6 12
-9 0 -24 -7 -35 -16z"/>
<path d="M6685 4439 c-11 -16 5 -82 24 -104 10 -11 31 -54 46 -95 16 -41 32
-76 37 -78 4 -2 8 -22 8 -44 0 -22 12 -73 26 -114 25 -69 26 -79 15 -128 -13
-59 -130 -247 -180 -289 -16 -13 -27 -28 -23 -32 4 -4 2 -5 -3 -3 -6 1 -26 -7
-45 -18 -19 -12 -53 -28 -75 -35 -22 -8 -46 -20 -53 -26 -7 -7 -19 -13 -25
-13 -37 0 -194 -150 -181 -172 7 -10 2864 -10 2864 0 0 14 -152 84 -255 117
-106 34 -172 62 -192 82 -7 6 -13 30 -13 52 l0 41 -87 0 c-100 0 -138 16 -174
72 -50 81 14 208 106 208 20 0 25 4 22 18 -3 9 -8 35 -12 56 -16 98 -88 181
-146 169 -15 -3 -51 -25 -80 -49 -71 -58 -137 -78 -259 -78 -112 0 -176 17
-300 79 -47 24 -94 45 -105 48 -59 17 -131 17 -206 2 -109 -22 -189 -12 -236
32 -17 15 -16 23 2 23 8 0 15 7 15 15 0 18 -17 20 -22 3 -4 -10 -38 -13 -129
-13 l-123 0 -48 64 c-26 35 -48 70 -48 78 0 8 -5 11 -12 7 -7 -4 -8 -3 -4 4
10 17 -22 78 -56 107 -31 26 -62 32 -73 14z m1543 -599 c97 -59 92 -191 -9
-242 -28 -15 -62 -18 -199 -18 -137 0 -171 3 -199 18 -99 50 -105 177 -12 239
32 22 44 23 210 23 158 0 179 -2 209 -20z"/>
<path d="M7871 3718 c2 -49 2 -50 9 -18 l7 35 12 -32 c7 -18 17 -33 21 -33 4
0 14 15 21 33 l12 32 7 -35 c7 -32 7 -31 9 18 1 58 -14 69 -30 22 -6 -16 -14
-30 -18 -30 -4 0 -12 14 -18 30 -18 47 -33 36 -32 -22z"/>
<path d="M8073 3749 c-6 -6 -7 -25 -4 -42 7 -31 9 -32 59 -35 46 -2 52 0 52
17 0 35 -12 51 -36 51 -13 0 -24 -4 -24 -10 0 -5 6 -7 14 -4 8 3 17 1 21 -5 3
-6 0 -11 -8 -11 -8 0 -20 -7 -27 -15 -7 -8 -16 -12 -21 -9 -12 7 -12 41 0 46
5 2 3 8 -4 15 -8 7 -16 8 -22 2z m87 -53 c0 -3 -4 -8 -10 -11 -5 -3 -10 -1
-10 4 0 6 5 11 10 11 6 0 10 -2 10 -4z"/>
<path d="M8000 3725 c-19 -23 -8 -50 23 -53 15 -2 27 1 27 7 0 6 -6 8 -14 5
-8 -3 -17 -1 -21 5 -4 7 4 11 19 11 28 0 33 9 14 28 -16 16 -33 15 -48 -3z
m35 -5 c3 -5 -1 -10 -10 -10 -9 0 -13 5 -10 10 3 6 8 10 10 10 2 0 7 -4 10
-10z"/>
<path d="M7078 4343 c2 -43 9 -86 14 -95 13 -26 74 -24 88 3 10 17 4 31 -37
94 -26 41 -53 75 -59 75 -7 0 -9 -25 -6 -77z"/>
<path d="M6950 4384 c-28 -33 22 -102 54 -75 22 18 20 47 -4 71 -24 24 -33 25
-50 4z"/>
<path d="M8170 4299 c-22 -18 -22 -19 -3 -10 12 6 25 16 28 21 9 15 3 12 -25
-11z"/>
<path d="M7455 4275 c16 -16 41 -37 55 -46 l25 -17 -24 -26 c-29 -31 -17 -35
15 -5 l23 22 45 -22 c77 -36 65 -24 -29 30 -50 28 -101 61 -115 73 -14 11 -12
8 5 -9z"/>
<path d="M6253 4252 c-47 -30 -69 -50 -37 -34 18 10 26 6 54 -23 32 -33 38
-35 101 -35 l68 0 -17 30 c-9 17 -36 40 -59 51 -24 11 -45 25 -49 30 -8 13
-14 11 -61 -19z"/>
<path d="M5891 3864 c-27 -24 -50 -59 -71 -112 -18 -42 -39 -88 -48 -102 -26
-40 -144 -181 -231 -273 -45 -46 -81 -88 -81 -91 0 -4 104 -5 231 -4 l232 3 2
85 c3 111 19 160 66 206 22 21 39 44 39 51 0 7 4 13 8 13 17 0 62 98 62 134 0
78 -46 126 -122 126 -41 0 -54 -5 -87 -36z"/>
<path d="M8510 3720 c0 -27 5 -50 10 -50 6 0 10 9 10 20 0 12 10 24 23 30 l22
9 -22 0 c-13 1 -23 6 -23 11 0 6 10 15 23 20 20 8 19 9 -10 9 -33 1 -33 1 -33
-49z"/>
<path d="M9050 3756 c0 -8 -10 -16 -22 -18 -18 -2 -23 -10 -23 -33 0 -27 4
-30 33 -33 l32 -3 0 50 c0 28 -4 51 -10 51 -5 0 -10 -6 -10 -14z m-4 -62 c-5
-13 -10 -14 -18 -6 -6 6 -8 18 -4 28 5 13 10 14 18 6 6 -6 8 -18 4 -28z"/>
<path d="M8803 3749 c-17 -17 0 -73 22 -77 16 -3 18 -1 8 9 -15 15 -17 46 -4
51 5 2 3 8 -4 15 -8 7 -16 8 -22 2z"/>
<path d="M8580 3705 c0 -19 5 -35 10 -35 6 0 10 11 10 25 0 13 8 29 18 34 14
9 13 10 -10 11 -25 0 -28 -3 -28 -35z"/>
<path d="M8642 3728 c-21 -21 -14 -47 14 -54 31 -8 47 6 42 37 -3 27 -36 37
-56 17z m37 -35 c-15 -18 -34 -1 -25 22 5 14 9 15 21 5 12 -10 13 -16 4 -27z"/>
<path d="M8720 3706 c0 -20 5 -36 10 -36 6 0 10 11 10 24 0 14 5 28 10 31 6 4
10 -7 10 -24 0 -17 5 -31 11 -31 6 0 9 14 7 33 -2 27 -8 33 -30 35 -26 3 -28
1 -28 -32z"/>
<path d="M8852 3723 c-19 -36 33 -76 54 -42 4 7 0 9 -14 5 -11 -4 -23 -2 -27
4 -4 6 4 10 20 10 20 0 26 4 23 18 -5 24 -44 28 -56 5z m38 -3 c0 -5 -7 -10
-16 -10 -8 0 -12 5 -9 10 3 6 10 10 16 10 5 0 9 -4 9 -10z"/>
<path d="M8920 3706 c0 -42 17 -49 22 -8 4 33 22 32 26 -3 5 -37 24 -30 20 8
-3 28 -7 32 -35 35 -32 3 -33 2 -33 -32z"/>
<path d="M4820 2981 c0 -25 -3 -28 -25 -24 -19 4 -27 0 -36 -20 -17 -38 2 -67
46 -65 l35 1 0 69 c0 39 -4 68 -10 68 -5 0 -10 -13 -10 -29z m-5 -66 c0 -11
-8 -21 -17 -23 -14 -3 -18 3 -18 23 0 20 4 26 18 23 9 -2 17 -12 17 -23z"/>
<path d="M3620 2935 c0 -74 19 -91 21 -17 l1 47 16 -47 c8 -27 21 -48 27 -48
6 0 19 21 27 48 l16 47 1 -47 c1 -36 5 -48 16 -48 12 0 15 14 15 66 0 61 -1
65 -22 62 -15 -2 -26 -15 -37 -48 l-15 -45 -15 48 c-10 33 -20 47 -33 47 -16
0 -18 -9 -18 -65z"/>
<path d="M4100 2935 c0 -51 3 -65 15 -65 9 0 15 9 15 25 0 18 5 25 20 25 11 0
20 5 20 10 0 6 -9 10 -20 10 -13 0 -20 7 -20 20 0 13 7 20 20 20 11 0 20 5 20
10 0 6 -16 10 -35 10 l-35 0 0 -65z"/>
<path d="M3893 2975 c-16 -29 -2 -99 20 -103 18 -4 24 13 7 23 -14 9 -12 42 3
48 8 4 9 8 1 14 -6 4 -13 15 -16 23 -4 12 -7 11 -15 -5z"/>
<path d="M4493 2975 c-16 -29 -2 -99 20 -103 18 -4 24 13 7 23 -14 9 -12 42 3
48 8 4 9 8 1 14 -6 4 -13 15 -16 23 -4 12 -7 11 -15 -5z"/>
<path d="M3796 2944 c-19 -18 -20 -28 -6 -55 11 -20 54 -26 65 -9 4 6 -5 10
-19 10 -14 0 -26 5 -26 10 0 6 11 10 25 10 29 0 36 34 9 44 -24 9 -31 8 -48
-10z m41 -10 c-3 -3 -12 -4 -19 -1 -8 3 -5 6 6 6 11 1 17 -2 13 -5z"/>
<path d="M3960 2951 c0 -6 10 -11 23 -12 20 -1 20 -2 -6 -12 -41 -16 -34 -51
11 -54 33 -1 33 -1 30 40 -3 37 -6 42 -30 45 -16 2 -28 -1 -28 -7z m40 -51 c0
-5 -7 -10 -15 -10 -8 0 -15 5 -15 10 0 6 7 10 15 10 8 0 15 -4 15 -10z"/>
<path d="M4190 2914 c0 -32 4 -44 15 -44 10 0 15 11 15 35 0 24 5 35 15 35 29
0 15 17 -15 18 -29 1 -30 -1 -30 -44z"/>
<path d="M4272 2948 c-7 -7 -12 -21 -12 -33 0 -12 5 -26 12 -33 7 -7 21 -12
33 -12 12 0 26 5 33 12 7 7 12 21 12 33 0 12 -5 26 -12 33 -7 7 -21 12 -33 12
-12 0 -26 -5 -33 -12z m56 -31 c4 -20 -25 -34 -40 -19 -15 15 -1 44 19 40 10
-2 19 -11 21 -21z"/>
<path d="M4370 2914 c0 -32 4 -44 15 -44 10 0 15 11 15 35 0 24 5 35 15 35 10
0 15 -11 15 -35 0 -24 5 -35 15 -35 10 0 15 10 15 33 0 45 -10 55 -52 55 l-38
0 0 -44z"/>
<path d="M4562 2948 c-29 -29 -7 -78 35 -78 13 0 23 5 23 10 0 6 -9 10 -19 10
-11 0 -23 5 -26 10 -4 6 7 10 24 10 19 0 31 5 31 13 0 18 -21 37 -40 37 -9 0
-21 -5 -28 -12z m41 -15 c-7 -2 -19 -2 -25 0 -7 3 -2 5 12 5 14 0 19 -2 13 -5z"/>
<path d="M4650 2914 c0 -32 4 -44 15 -44 10 0 15 11 15 35 0 24 5 35 15 35 10
0 15 -11 15 -35 0 -24 5 -35 15 -35 9 0 15 10 15 26 0 44 -16 62 -55 62 -35 0
-35 0 -35 -44z"/>
<path d="M3912 2853 c175 -2 461 -2 635 0 175 1 32 2 -317 2 -349 0 -492 -1
-318 -2z"/>
<path d="M3710 2696 c0 -2 9 -6 20 -9 11 -3 18 -1 14 4 -5 9 -34 13 -34 5z"/>
<path d="M3960 2690 c8 -5 20 -10 25 -10 6 0 3 5 -5 10 -8 5 -19 10 -25 10 -5
0 -3 -5 5 -10z"/>
<path d="M4180 2696 c0 -2 7 -7 16 -10 8 -3 12 -2 9 4 -6 10 -25 14 -25 6z"/>
<path d="M4258 2693 c7 -3 16 -2 19 1 4 3 -2 6 -13 5 -11 0 -14 -3 -6 -6z"/>
<path d="M4638 2693 c7 -3 16 -2 19 1 4 3 -2 6 -13 5 -11 0 -14 -3 -6 -6z"/>
<path d="M4748 2693 c7 -3 16 -2 19 1 4 3 -2 6 -13 5 -11 0 -14 -3 -6 -6z"/>
<path d="M5010 2696 c0 -2 7 -7 16 -10 8 -3 12 -2 9 4 -6 10 -25 14 -25 6z"/>
<path d="M5450 2690 c8 -5 20 -10 25 -10 6 0 3 5 -5 10 -8 5 -19 10 -25 10 -5
0 -3 -5 5 -10z"/>
<path d="M5490 2696 c0 -2 7 -7 16 -10 8 -3 12 -2 9 4 -6 10 -25 14 -25 6z"/>
<path d="M5590 2690 c8 -5 20 -10 25 -10 6 0 3 5 -5 10 -8 5 -19 10 -25 10 -5
0 -3 -5 5 -10z"/>
<path d="M5818 2693 c7 -3 16 -2 19 1 4 3 -2 6 -13 5 -11 0 -14 -3 -6 -6z"/>
<path d="M5888 2693 c7 -3 16 -2 19 1 4 3 -2 6 -13 5 -11 0 -14 -3 -6 -6z"/>
<path d="M6028 2693 c7 -3 16 -2 19 1 4 3 -2 6 -13 5 -11 0 -14 -3 -6 -6z"/>
<path d="M6148 2693 c7 -3 16 -2 19 1 4 3 -2 6 -13 5 -11 0 -14 -3 -6 -6z"/>
<path d="M6218 2693 c7 -3 16 -2 19 1 4 3 -2 6 -13 5 -11 0 -14 -3 -6 -6z"/>
<path d="M6308 2693 c6 -2 18 -2 25 0 6 3 1 5 -13 5 -14 0 -19 -2 -12 -5z"/>
<path d="M6470 2696 c0 -2 9 -6 20 -9 11 -3 18 -1 14 4 -5 9 -34 13 -34 5z"/>
<path d="M6800 2696 c0 -2 7 -7 16 -10 8 -3 12 -2 9 4 -6 10 -25 14 -25 6z"/>
<path d="M6858 2693 c6 -2 18 -2 25 0 6 3 1 5 -13 5 -14 0 -19 -2 -12 -5z"/>
<path d="M7068 2693 c7 -3 16 -2 19 1 4 3 -2 6 -13 5 -11 0 -14 -3 -6 -6z"/>
<path d="M7198 2693 c7 -3 16 -2 19 1 4 3 -2 6 -13 5 -11 0 -14 -3 -6 -6z"/>
<path d="M7378 2693 c7 -3 16 -2 19 1 4 3 -2 6 -13 5 -11 0 -14 -3 -6 -6z"/>
<path d="M7498 2693 c7 -3 16 -2 19 1 4 3 -2 6 -13 5 -11 0 -14 -3 -6 -6z"/>
<path d="M7650 2696 c0 -2 9 -6 20 -9 11 -3 18 -1 14 4 -5 9 -34 13 -34 5z"/>
<path d="M7738 2693 c7 -3 16 -2 19 1 4 3 -2 6 -13 5 -11 0 -14 -3 -6 -6z"/>
<path d="M7818 2693 c7 -3 16 -2 19 1 4 3 -2 6 -13 5 -11 0 -14 -3 -6 -6z"/>
<path d="M7958 2693 c7 -3 16 -2 19 1 4 3 -2 6 -13 5 -11 0 -14 -3 -6 -6z"/>
<path d="M8008 2693 c6 -2 18 -2 25 0 6 3 1 5 -13 5 -14 0 -19 -2 -12 -5z"/>
<path d="M8130 2696 c0 -2 7 -7 16 -10 8 -3 12 -2 9 4 -6 10 -25 14 -25 6z"/>
<path d="M8398 2693 c7 -3 16 -2 19 1 4 3 -2 6 -13 5 -11 0 -14 -3 -6 -6z"/>
<path d="M8466 2691 c-4 -5 3 -7 14 -4 23 6 26 13 6 13 -8 0 -17 -4 -20 -9z"/>
<path d="M8658 2693 c7 -3 16 -2 19 1 4 3 -2 6 -13 5 -11 0 -14 -3 -6 -6z"/>
<path d="M8708 2693 c6 -2 18 -2 25 0 6 3 1 5 -13 5 -14 0 -19 -2 -12 -5z"/>
<path d="M3853 2663 c9 -2 25 -2 35 0 9 3 1 5 -18 5 -19 0 -27 -2 -17 -5z"/>
<path d="M4630 2660 c8 -5 20 -10 25 -10 6 0 3 5 -5 10 -8 5 -19 10 -25 10 -5
0 -3 -5 5 -10z"/>
<path d="M5883 2663 c9 -2 23 -2 30 0 6 3 -1 5 -18 5 -16 0 -22 -2 -12 -5z"/>
<path d="M6463 2663 c9 -2 25 -2 35 0 9 3 1 5 -18 5 -19 0 -27 -2 -17 -5z"/>
<path d="M7208 2663 c7 -3 16 -2 19 1 4 3 -2 6 -13 5 -11 0 -14 -3 -6 -6z"/>
<path d="M7733 2663 c9 -2 23 -2 30 0 6 3 -1 5 -18 5 -16 0 -22 -2 -12 -5z"/>
<path d="M7883 2663 c9 -2 25 -2 35 0 9 3 1 5 -18 5 -19 0 -27 -2 -17 -5z"/>
<path d="M3725 2630 c-16 -7 -17 -9 -3 -9 9 -1 20 4 23 9 7 11 7 11 -20 0z"/>
<path d="M3848 2628 c6 -6 18 -8 28 -6 14 3 12 5 -9 10 -19 3 -25 2 -19 -4z"/>
<path d="M4185 2630 c-16 -7 -17 -9 -3 -9 9 -1 20 4 23 9 7 11 7 11 -20 0z"/>
<path d="M5015 2630 c-16 -7 -17 -9 -3 -9 9 -1 20 4 23 9 7 11 7 11 -20 0z"/>
<path d="M5238 2628 c5 -5 16 -8 23 -6 8 3 3 7 -10 11 -17 4 -21 3 -13 -5z"/>
<path d="M5878 2628 c5 -5 16 -8 23 -6 8 3 3 7 -10 11 -17 4 -21 3 -13 -5z"/>
<path d="M7728 2628 c5 -5 16 -8 23 -6 8 3 3 7 -10 11 -17 4 -21 3 -13 -5z"/>
<path d="M7878 2628 c6 -6 18 -8 28 -6 14 3 12 5 -9 10 -19 3 -25 2 -19 -4z"/>
<path d="M8198 2628 c5 -5 16 -8 23 -6 8 3 3 7 -10 11 -17 4 -21 3 -13 -5z"/>
<path d="M8468 2628 c5 -5 16 -8 23 -6 8 3 3 7 -10 11 -17 4 -21 3 -13 -5z"/>
<path d="M3633 2623 c9 -2 23 -2 30 0 6 3 -1 5 -18 5 -16 0 -22 -2 -12 -5z"/>
<path d="M4248 2623 c7 -3 16 -2 19 1 4 3 -2 6 -13 5 -11 0 -14 -3 -6 -6z"/>
<path d="M4328 2623 c7 -3 16 -2 19 1 4 3 -2 6 -13 5 -11 0 -14 -3 -6 -6z"/>
<path d="M4628 2623 c7 -3 16 -2 19 1 4 3 -2 6 -13 5 -11 0 -14 -3 -6 -6z"/>
<path d="M4738 2623 c7 -3 16 -2 19 1 4 3 -2 6 -13 5 -11 0 -14 -3 -6 -6z"/>
<path d="M6148 2623 c7 -3 16 -2 19 1 4 3 -2 6 -13 5 -11 0 -14 -3 -6 -6z"/>
<path d="M6478 2623 c7 -3 16 -2 19 1 4 3 -2 6 -13 5 -11 0 -14 -3 -6 -6z"/>
<path d="M7808 2623 c7 -3 16 -2 19 1 4 3 -2 6 -13 5 -11 0 -14 -3 -6 -6z"/>
<path d="M8648 2623 c7 -3 16 -2 19 1 4 3 -2 6 -13 5 -11 0 -14 -3 -6 -6z"/>
<path d="M7070 2590 c-23 -7 -23 -8 -3 -9 12 -1 25 4 28 9 3 6 5 10 3 9 -2 -1
-14 -5 -28 -9z"/>
<path d="M8208 2583 c7 -3 16 -2 19 1 4 3 -2 6 -13 5 -11 0 -14 -3 -6 -6z"/>
<path d="M8918 2483 c6 -2 18 -2 25 0 6 3 1 5 -13 5 -14 0 -19 -2 -12 -5z"/>
<path d="M9018 2483 c7 -3 16 -2 19 1 4 3 -2 6 -13 5 -11 0 -14 -3 -6 -6z"/>
<path d="M8838 2473 c7 -3 16 -2 19 1 4 3 -2 6 -13 5 -11 0 -14 -3 -6 -6z"/>
<path d="M3710 2456 c0 -2 9 -6 20 -9 11 -3 18 -1 14 4 -5 9 -34 13 -34 5z"/>
<path d="M3960 2450 c8 -5 20 -10 25 -10 6 0 3 5 -5 10 -8 5 -19 10 -25 10 -5
0 -3 -5 5 -10z"/>
<path d="M4180 2456 c0 -2 7 -7 16 -10 8 -3 12 -2 9 4 -6 10 -25 14 -25 6z"/>
<path d="M4258 2453 c7 -3 16 -2 19 1 4 3 -2 6 -13 5 -11 0 -14 -3 -6 -6z"/>
<path d="M4688 2453 c7 -3 16 -2 19 1 4 3 -2 6 -13 5 -11 0 -14 -3 -6 -6z"/>
<path d="M4768 2453 c7 -3 16 -2 19 1 4 3 -2 6 -13 5 -11 0 -14 -3 -6 -6z"/>
<path d="M4890 2456 c0 -2 9 -6 20 -9 11 -3 18 -1 14 4 -5 9 -34 13 -34 5z"/>
<path d="M5060 2456 c0 -2 9 -6 20 -9 11 -3 18 -1 14 4 -5 9 -34 13 -34 5z"/>
<path d="M5158 2453 c7 -3 16 -2 19 1 4 3 -2 6 -13 5 -11 0 -14 -3 -6 -6z"/>
<path d="M5258 2453 c6 -2 18 -2 25 0 6 3 1 5 -13 5 -14 0 -19 -2 -12 -5z"/>
<path d="M5420 2456 c0 -2 9 -6 20 -9 11 -3 18 -1 14 4 -5 9 -34 13 -34 5z"/>
<path d="M5868 2453 c7 -3 16 -2 19 1 4 3 -2 6 -13 5 -11 0 -14 -3 -6 -6z"/>
<path d="M5918 2453 c7 -3 16 -2 19 1 4 3 -2 6 -13 5 -11 0 -14 -3 -6 -6z"/>
<path d="M6158 2453 c7 -3 16 -2 19 1 4 3 -2 6 -13 5 -11 0 -14 -3 -6 -6z"/>
<path d="M6268 2453 c7 -3 16 -2 19 1 4 3 -2 6 -13 5 -11 0 -14 -3 -6 -6z"/>
<path d="M6318 2453 c6 -2 18 -2 25 0 6 3 1 5 -13 5 -14 0 -19 -2 -12 -5z"/>
<path d="M6388 2453 c7 -3 16 -2 19 1 4 3 -2 6 -13 5 -11 0 -14 -3 -6 -6z"/>
<path d="M6568 2453 c7 -3 16 -2 19 1 4 3 -2 6 -13 5 -11 0 -14 -3 -6 -6z"/>
<path d="M6650 2456 c0 -2 9 -6 20 -9 11 -3 18 -1 14 4 -5 9 -34 13 -34 5z"/>
<path d="M6786 2451 c-4 -5 3 -7 14 -4 23 6 26 13 6 13 -8 0 -17 -4 -20 -9z"/>
<path d="M6938 2453 c7 -3 16 -2 19 1 4 3 -2 6 -13 5 -11 0 -14 -3 -6 -6z"/>
<path d="M7498 2453 c7 -3 16 -2 19 1 4 3 -2 6 -13 5 -11 0 -14 -3 -6 -6z"/>
<path d="M7708 2453 c6 -2 18 -2 25 0 6 3 1 5 -13 5 -14 0 -19 -2 -12 -5z"/>
<path d="M7820 2456 c0 -2 9 -6 20 -9 11 -3 18 -1 14 4 -5 9 -34 13 -34 5z"/>
<path d="M7980 2456 c0 -2 9 -6 20 -9 11 -3 18 -1 14 4 -5 9 -34 13 -34 5z"/>
<path d="M8168 2453 c7 -3 16 -2 19 1 4 3 -2 6 -13 5 -11 0 -14 -3 -6 -6z"/>
<path d="M8356 2451 c-4 -5 3 -7 14 -4 23 6 26 13 6 13 -8 0 -17 -4 -20 -9z"/>
<path d="M8548 2453 c6 -2 18 -2 25 0 6 3 1 5 -13 5 -14 0 -19 -2 -12 -5z"/>
<path d="M8710 2456 c0 -2 9 -6 20 -9 11 -3 18 -1 14 4 -5 9 -34 13 -34 5z"/>
<path d="M9178 2453 c7 -3 16 -2 19 1 4 3 -2 6 -13 5 -11 0 -14 -3 -6 -6z"/>
<path d="M8918 2443 c7 -3 16 -2 19 1 4 3 -2 6 -13 5 -11 0 -14 -3 -6 -6z"/>
<path d="M3853 2423 c9 -2 25 -2 35 0 9 3 1 5 -18 5 -19 0 -27 -2 -17 -5z"/>
<path d="M4698 2423 c7 -3 16 -2 19 1 4 3 -2 6 -13 5 -11 0 -14 -3 -6 -6z"/>
<path d="M4973 2423 c9 -2 25 -2 35 0 9 3 1 5 -18 5 -19 0 -27 -2 -17 -5z"/>
<path d="M5053 2423 c9 -2 25 -2 35 0 9 3 1 5 -18 5 -19 0 -27 -2 -17 -5z"/>
<path d="M5413 2423 c9 -2 25 -2 35 0 9 3 1 5 -18 5 -19 0 -27 -2 -17 -5z"/>
<path d="M6150 2420 c8 -5 20 -10 25 -10 6 0 3 5 -5 10 -8 5 -19 10 -25 10 -5
0 -3 -5 5 -10z"/>
<path d="M6260 2420 c8 -5 20 -10 25 -10 6 0 3 5 -5 10 -8 5 -19 10 -25 10 -5
0 -3 -5 5 -10z"/>
<path d="M6398 2423 c7 -3 16 -2 19 1 4 3 -2 6 -13 5 -11 0 -14 -3 -6 -6z"/>
<path d="M6668 2423 c7 -3 16 -2 19 1 4 3 -2 6 -13 5 -11 0 -14 -3 -6 -6z"/>
<path d="M7563 2423 c9 -2 25 -2 35 0 9 3 1 5 -18 5 -19 0 -27 -2 -17 -5z"/>
<path d="M7813 2423 c9 -2 25 -2 35 0 9 3 1 5 -18 5 -19 0 -27 -2 -17 -5z"/>
<path d="M7973 2423 c9 -2 25 -2 35 0 9 3 1 5 -18 5 -19 0 -27 -2 -17 -5z"/>
<path d="M8160 2420 c8 -5 20 -10 25 -10 6 0 3 5 -5 10 -8 5 -19 10 -25 10 -5
0 -3 -5 5 -10z"/>
<path d="M8433 2423 c9 -2 25 -2 35 0 9 3 1 5 -18 5 -19 0 -27 -2 -17 -5z"/>
<path d="M8703 2423 c9 -2 25 -2 35 0 9 3 1 5 -18 5 -19 0 -27 -2 -17 -5z"/>
<path d="M3725 2390 c-16 -7 -17 -9 -3 -9 9 -1 20 4 23 9 7 11 7 11 -20 0z"/>
<path d="M3848 2388 c6 -6 18 -8 28 -6 14 3 12 5 -9 10 -19 3 -25 2 -19 -4z"/>
<path d="M4185 2390 c-16 -7 -17 -9 -3 -9 9 -1 20 4 23 9 7 11 7 11 -20 0z"/>
<path d="M4968 2388 c6 -6 18 -8 28 -6 14 3 12 5 -9 10 -19 3 -25 2 -19 -4z"/>
<path d="M5767 2389 c7 -7 15 -10 18 -7 3 3 -2 9 -12 12 -14 6 -15 5 -6 -5z"/>
<path d="M6788 2388 c5 -5 16 -8 23 -6 8 3 3 7 -10 11 -17 4 -21 3 -13 -5z"/>
<path d="M7558 2388 c6 -6 18 -8 28 -6 14 3 12 5 -9 10 -19 3 -25 2 -19 -4z"/>
<path d="M8358 2388 c5 -5 16 -8 23 -6 8 3 3 7 -10 11 -17 4 -21 3 -13 -5z"/>
<path d="M8428 2388 c6 -6 18 -8 28 -6 14 3 12 5 -9 10 -19 3 -25 2 -19 -4z"/>
<path d="M9088 2388 c5 -5 16 -8 23 -6 8 3 3 7 -10 11 -17 4 -21 3 -13 -5z"/>
<path d="M3633 2383 c9 -2 23 -2 30 0 6 3 -1 5 -18 5 -16 0 -22 -2 -12 -5z"/>
<path d="M4248 2383 c7 -3 16 -2 19 1 4 3 -2 6 -13 5 -11 0 -14 -3 -6 -6z"/>
<path d="M4328 2383 c7 -3 16 -2 19 1 4 3 -2 6 -13 5 -11 0 -14 -3 -6 -6z"/>
<path d="M4758 2383 c7 -3 16 -2 19 1 4 3 -2 6 -13 5 -11 0 -14 -3 -6 -6z"/>
<path d="M5068 2383 c7 -3 16 -2 19 1 4 3 -2 6 -13 5 -11 0 -14 -3 -6 -6z"/>
<path d="M5428 2383 c7 -3 16 -2 19 1 4 3 -2 6 -13 5 -11 0 -14 -3 -6 -6z"/>
<path d="M5858 2383 c7 -3 16 -2 19 1 4 3 -2 6 -13 5 -11 0 -14 -3 -6 -6z"/>
<path d="M6148 2383 c7 -3 16 -2 19 1 4 3 -2 6 -13 5 -11 0 -14 -3 -6 -6z"/>
<path d="M6258 2383 c7 -3 16 -2 19 1 4 3 -2 6 -13 5 -11 0 -14 -3 -6 -6z"/>
<path d="M7028 2383 c7 -3 16 -2 19 1 4 3 -2 6 -13 5 -11 0 -14 -3 -6 -6z"/>
<path d="M7828 2383 c7 -3 16 -2 19 1 4 3 -2 6 -13 5 -11 0 -14 -3 -6 -6z"/>
<path d="M7988 2383 c7 -3 16 -2 19 1 4 3 -2 6 -13 5 -11 0 -14 -3 -6 -6z"/>
<path d="M8158 2383 c7 -3 16 -2 19 1 4 3 -2 6 -13 5 -11 0 -14 -3 -6 -6z"/>
<path d="M8718 2383 c7 -3 16 -2 19 1 4 3 -2 6 -13 5 -11 0 -14 -3 -6 -6z"/>
<path d="M8918 2383 c7 -3 16 -2 19 1 4 3 -2 6 -13 5 -11 0 -14 -3 -6 -6z"/>
<path d="M9168 2383 c7 -3 16 -2 19 1 4 3 -2 6 -13 5 -11 0 -14 -3 -6 -6z"/>
<path d="M3940 2037 c0 -18 -5 -23 -21 -23 -12 1 -26 -7 -33 -16 -16 -26 4
-53 43 -55 l31 -1 0 59 c0 33 -4 59 -10 59 -5 0 -10 -10 -10 -23z m0 -57 c0
-11 -6 -20 -14 -20 -18 0 -29 16 -21 30 11 18 35 11 35 -10z"/>
<path d="M3620 1995 c0 -30 5 -55 10 -55 6 0 10 9 10 20 0 11 3 20 8 20 4 0
13 -9 20 -20 7 -11 17 -20 23 -20 7 0 6 8 -3 23 -11 16 -12 27 -5 38 16 26 1
49 -33 49 -30 0 -30 0 -30 -55z m48 23 c-6 -18 -28 -21 -28 -4 0 9 7 16 16 16
9 0 14 -5 12 -12z"/>
<path d="M4030 1995 c0 -30 5 -55 10 -55 6 0 10 9 10 20 0 13 7 20 18 20 23 0
42 19 42 41 0 19 -20 29 -56 29 -22 0 -24 -3 -24 -55z m60 20 c0 -8 -9 -15
-20 -15 -11 0 -20 7 -20 15 0 8 9 15 20 15 11 0 20 -7 20 -15z"/>
<path d="M4500 2041 c31 -5 35 -10 38 -39 4 -42 22 -31 22 14 l0 34 -47 -1
c-45 -2 -46 -2 -13 -8z"/>
<path d="M4290 2023 c-10 -12 -11 -18 -2 -21 7 -2 12 -15 12 -28 0 -25 25 -43
38 -29 4 4 1 10 -5 12 -17 6 -17 40 -1 45 9 3 8 9 -4 21 -20 20 -19 20 -38 0z"/>
<path d="M4485 1988 l-40 -43 43 40 c39 36 47 45 39 45 -2 0 -21 -19 -42 -42z"/>
<path d="M3722 2008 c-28 -28 -9 -68 34 -68 23 0 16 18 -8 23 -20 4 -19 4 5 6
15 0 27 7 27 14 0 16 -20 37 -35 37 -6 0 -16 -5 -23 -12z m35 -14 c-3 -3 -12
-4 -19 -1 -8 3 -5 6 6 6 11 1 17 -2 13 -5z"/>
<path d="M3800 2011 c0 -6 10 -11 23 -12 l22 0 -22 -9 c-13 -5 -23 -18 -23
-29 0 -15 7 -19 31 -19 28 1 30 3 27 37 -3 31 -7 36 -30 39 -16 2 -28 -1 -28
-7z m40 -41 c0 -5 -7 -10 -16 -10 -8 0 -12 5 -9 10 3 6 10 10 16 10 5 0 9 -4
9 -10z"/>
<path d="M4130 2005 c-26 -32 13 -81 48 -59 34 22 22 74 -18 74 -10 0 -23 -7
-30 -15z m50 -25 c0 -13 -7 -20 -20 -20 -13 0 -20 7 -20 20 0 13 7 20 20 20
13 0 20 -7 20 -20z"/>
<path d="M4223 2004 c-4 -11 1 -22 12 -30 17 -13 17 -14 2 -14 -9 0 -17 -4
-17 -10 0 -5 9 -10 20 -10 29 0 38 30 15 46 -17 13 -17 14 -2 14 9 0 17 5 17
10 0 17 -40 11 -47 -6z"/>
</g>
</svg>
